<svg width="23" height="18" viewBox="0 0 23 18" fill="none" xmlns="http://www.w3.org/2000/svg">
<path fill-rule="evenodd" clip-rule="evenodd" d="M4.44558 17.65V1.54995C4.44558 1.35665 4.58608 1.19995 4.75939 1.19995H7.11293C7.28624 1.19995 7.42674 1.35665 7.42674 1.54995V17.65C7.42674 17.8433 7.28624 18 7.11293 18H4.75939C4.58608 18 4.44558 17.8433 4.44558 17.65ZM0 17.65V12.75C0 12.5567 0.140496 12.4 0.313806 12.4H2.66735C2.84066 12.4 2.98115 12.5567 2.98115 12.75V17.65C2.98115 17.8433 2.84066 18 2.66735 18H0.313806C0.140496 18 0 17.8433 0 17.65ZM8.89116 17.65V9.94997C8.89116 9.75667 9.03166 9.59997 9.20497 9.59997H11.5585C11.7318 9.59997 11.8723 9.75667 11.8723 9.94997V17.65C11.8723 17.8433 11.7318 18 11.5585 18H9.20497C9.03166 18 8.89116 17.8433 8.89116 17.65ZM13.3367 17.65V7.14996C13.3367 6.95666 13.4772 6.79996 13.6506 6.79996H16.0041C16.1774 6.79996 16.3179 6.95666 16.3179 7.14996V17.65C16.3179 17.8433 16.1774 18 16.0041 18H13.6506C13.4772 18 13.3367 17.8433 13.3367 17.65Z" fill="#0057FF"/>
<path fill-rule="evenodd" clip-rule="evenodd" d="M4.44558 17.65V1.54995C4.44558 1.35665 4.58608 1.19995 4.75939 1.19995H7.11293C7.28624 1.19995 7.42674 1.35665 7.42674 1.54995V17.65C7.42674 17.8433 7.28624 18 7.11293 18H4.75939C4.58608 18 4.44558 17.8433 4.44558 17.65ZM0 17.65V12.75C0 12.5567 0.140496 12.4 0.313806 12.4H2.66735C2.84066 12.4 2.98115 12.5567 2.98115 12.75V17.65C2.98115 17.8433 2.84066 18 2.66735 18H0.313806C0.140496 18 0 17.8433 0 17.65ZM8.89116 17.65V9.94997C8.89116 9.75667 9.03166 9.59997 9.20497 9.59997H11.5585C11.7318 9.59997 11.8723 9.75667 11.8723 9.94997V17.65C11.8723 17.8433 11.7318 18 11.5585 18H9.20497C9.03166 18 8.89116 17.8433 8.89116 17.65ZM13.3367 17.65V7.14996C13.3367 6.95666 13.4772 6.79996 13.6506 6.79996H16.0041C16.1774 6.79996 16.3179 6.95666 16.3179 7.14996V17.65C16.3179 17.8433 16.1774 18 16.0041 18H13.6506C13.4772 18 13.3367 17.8433 13.3367 17.65Z" fill="white"/>
<g clip-path="url(#clip0)">
<mask id="mask0" mask-type="alpha" maskUnits="userSpaceOnUse" x="9" y="3" width="11" height="11">
<ellipse cx="14.2779" cy="8.4683" rx="4.95365" ry="5.33183" fill="#0057FF"/>
</mask>
<g mask="url(#mask0)">
<path fill-rule="evenodd" clip-rule="evenodd" d="M4.44558 17.1978V0.36591C4.44558 0.163823 4.58608 0 4.75939 0H7.11293C7.28624 0 7.42674 0.163823 7.42674 0.36591V17.1978C7.42674 17.3999 7.28624 17.5637 7.11293 17.5637H4.75939C4.58608 17.5637 4.44558 17.3999 4.44558 17.1978ZM0 17.1978V12.075C0 11.8729 0.140496 11.7091 0.313806 11.7091H2.66735C2.84066 11.7091 2.98115 11.8729 2.98115 12.075V17.1978C2.98115 17.3999 2.84066 17.5637 2.66735 17.5637H0.313806C0.140496 17.5637 0 17.3999 0 17.1978ZM8.89116 17.1978V9.14775C8.89116 8.94566 9.03166 8.78184 9.20497 8.78184H11.5585C11.7318 8.78184 11.8723 8.94566 11.8723 9.14775V17.1978C11.8723 17.3999 11.7318 17.5637 11.5585 17.5637H9.20497C9.03166 17.5637 8.89116 17.3999 8.89116 17.1978ZM13.3367 17.1978V6.22047C13.3367 6.01838 13.4772 5.85456 13.6505 5.85456H16.0041C16.1774 5.85456 16.3179 6.01838 16.3179 6.22047V17.1978C16.3179 17.3999 16.1774 17.5637 16.0041 17.5637H13.6505C13.4772 17.5637 13.3367 17.3999 13.3367 17.1978Z" fill="#0057FF"/>
<path fill-rule="evenodd" clip-rule="evenodd" d="M4.44558 17.1978V0.36591C4.44558 0.163823 4.58608 0 4.75939 0H7.11293C7.28624 0 7.42674 0.163823 7.42674 0.36591V17.1978C7.42674 17.3999 7.28624 17.5637 7.11293 17.5637H4.75939C4.58608 17.5637 4.44558 17.3999 4.44558 17.1978ZM0 17.1978V12.075C0 11.8729 0.140496 11.7091 0.313806 11.7091H2.66735C2.84066 11.7091 2.98115 11.8729 2.98115 12.075V17.1978C2.98115 17.3999 2.84066 17.5637 2.66735 17.5637H0.313806C0.140496 17.5637 0 17.3999 0 17.1978ZM8.89116 17.1978V9.14775C8.89116 8.94566 9.03166 8.78184 9.20497 8.78184H11.5585C11.7318 8.78184 11.8723 8.94566 11.8723 9.14775V17.1978C11.8723 17.3999 11.7318 17.5637 11.5585 17.5637H9.20497C9.03166 17.5637 8.89116 17.3999 8.89116 17.1978ZM13.3367 17.1978V6.22047C13.3367 6.01838 13.4772 5.85456 13.6505 5.85456H16.0041C16.1774 5.85456 16.3179 6.01838 16.3179 6.22047V17.1978C16.3179 17.3999 16.1774 17.5637 16.0041 17.5637H13.6505C13.4772 17.5637 13.3367 17.3999 13.3367 17.1978Z" fill="white"/>
</g>
</g>
<path d="M22.186 14.0344L22.178 14.0255L22.1696 14.017L19.8831 11.6873C21.7159 8.99507 21.4357 5.24827 19.1268 2.8746C17.8589 1.5711 16.1854 0.850098 14.3863 0.850098C12.5893 0.850098 10.8921 1.56964 9.62279 2.8746C8.35458 4.17838 7.65918 5.89255 7.65918 7.75194C7.65918 9.61134 8.35459 11.3255 9.62279 12.6293L9.62277 12.6293L9.62625 12.6328C10.8903 13.9069 12.561 14.6538 14.3863 14.6538C15.7549 14.6538 17.1023 14.2191 18.2133 13.423L20.4626 15.7354C20.6872 15.9663 20.9749 16.1001 21.3054 16.1001C21.6012 16.1001 21.9342 15.9893 22.1631 15.7197C22.6115 15.2426 22.606 14.5055 22.186 14.0344ZM18.7297 7.75194C18.7297 8.95169 18.2717 10.08 17.4458 10.908C16.6073 11.7484 15.5319 12.2312 14.3863 12.2312C13.2319 12.2312 12.1407 11.7658 11.3357 10.917C10.518 10.0549 10.043 8.94284 10.043 7.75194C10.043 6.55219 10.5009 5.42385 11.3269 4.59592C12.1663 3.75451 13.2189 3.27273 14.3863 3.27273C15.5408 3.27273 16.6319 3.73806 17.4369 4.58685C18.2555 5.44997 18.7297 6.53856 18.7297 7.75194Z" fill="white" stroke="#0057FF"/>
<defs>
<clipPath id="clip0">
<rect width="10.4901" height="13.8" fill="white" transform="translate(9.32422)"/>
</clipPath>
</defs>
</svg>
