<svg width="18" height="20" viewBox="0 0 18 20" fill="none" xmlns="http://www.w3.org/2000/svg">
<path d="M3.375 13.6501H0.84375C0.604687 13.6501 0.421875 13.8451 0.421875 14.1001V18.6001C0.421875 18.8551 0.604687 19.0501 0.84375 19.0501H3.375C3.61406 19.0501 3.79688 18.8551 3.79688 18.6001V14.1001C3.79688 13.8451 3.61406 13.6501 3.375 13.6501ZM2.95312 18.1501H1.26562V14.5501H2.95312V18.1501Z" fill="#0057FF"/>
<path d="M2.95312 18.1501H1.26562V14.5501H2.95312V18.1501Z" fill="#0057FF"/>
<path d="M7.875 9.15015H5.34375C5.10469 9.15015 4.92188 9.34515 4.92188 9.60015V18.6001C4.92188 18.8551 5.10469 19.0501 5.34375 19.0501H7.875C8.11406 19.0501 8.29688 18.8551 8.29688 18.6001V9.60015C8.29688 9.34515 8.11406 9.15015 7.875 9.15015ZM7.45312 18.1501H5.76562V10.0501H7.45312V18.1501Z" fill="#0057FF"/>
<path d="M7.45312 18.1501H5.76562V10.0501H7.45312V18.1501Z" fill="#0057FF"/>
<path d="M12.375 12.1501H9.84375C9.60469 12.1501 9.42188 12.3451 9.42188 12.6001V18.6001C9.42188 18.8551 9.60469 19.0501 9.84375 19.0501H12.375C12.6141 19.0501 12.7969 18.8551 12.7969 18.6001V12.6001C12.7969 12.3451 12.6141 12.1501 12.375 12.1501ZM11.9531 18.1501H10.2656V13.0501H11.9531V18.1501Z" fill="#0057FF"/>
<path d="M11.9531 18.1501H10.2656V13.0501H11.9531V18.1501Z" fill="#0057FF"/>
<path d="M16.875 7.65015H14.3437C14.1047 7.65015 13.9219 7.84515 13.9219 8.10015V18.6001C13.9219 18.8551 14.1047 19.0501 14.3437 19.0501H16.875C17.1141 19.0501 17.2969 18.8551 17.2969 18.6001V8.10015C17.2969 7.84515 17.1141 7.65015 16.875 7.65015Z" fill="#0057FF"/>
<path d="M16.7116 0.0294118C16.6661 0.0147059 16.6054 0 16.5446 0H16.5295H15.0116C14.7536 0 14.5563 0.191176 14.5563 0.441176C14.5563 0.691177 14.7536 0.882353 15.0116 0.882353H15.4366L10.3214 5.85294L5.78304 1.45588C5.60089 1.27941 5.3125 1.27941 5.14554 1.45588L0.136607 6.25C-0.0455357 6.42647 -0.0455357 6.70588 0.136607 6.86765C0.227679 6.95588 0.349107 7 0.455357 7C0.576786 7 0.683036 6.95588 0.774107 6.86765L5.46429 2.38235L10.0027 6.77941C10.1848 6.95588 10.4732 6.95588 10.6402 6.77941L16.0893 1.5V1.91176C16.0893 2.16176 16.2866 2.35294 16.5446 2.35294C16.8027 2.35294 17 2.16176 17 1.91176V0.441176C17 0.264706 16.8938 0.102941 16.7116 0.0294118Z" fill="#0057FF"/>
</svg>
