<svg width="35" height="36" viewBox="0 0 35 36" fill="none" xmlns="http://www.w3.org/2000/svg">
<path d="M27.841 14.1461V9.77113C27.841 8.41886 26.8069 7.38477 25.4546 7.38477H9.54554C8.19327 7.38477 7.15918 8.41886 7.15918 9.77113V25.6802C7.15918 27.0325 8.19327 28.0666 9.54554 28.0666H14.716" stroke="white" stroke-width="2" stroke-miterlimit="10" stroke-linecap="round" stroke-linejoin="round"/>
<path d="M12.7273 14.5437H22.2727" stroke="white" stroke-width="2" stroke-miterlimit="10" stroke-linecap="round"/>
<path d="M12.7273 19.3164H17.5" stroke="white" stroke-width="2" stroke-miterlimit="10" stroke-linecap="round"/>
<path d="M22.9887 29.1802L19.8864 29.8166C19.3296 29.8961 18.7728 29.4188 18.9319 28.862L19.5683 25.7597L26.8069 18.5211C27.1251 18.2029 27.6023 18.2029 27.9205 18.5211L30.3069 20.9075C30.6251 21.2257 30.6251 21.7029 30.3069 22.0211L22.9887 29.1802Z" stroke="white" stroke-width="2" stroke-miterlimit="10" stroke-linecap="round" stroke-linejoin="round"/>
</svg>
