<svg width="42" height="37" viewBox="0 0 42 37" fill="none" xmlns="http://www.w3.org/2000/svg">
<g clip-path="url(#clip0)">
<path d="M22.2953 13.205V16.3952C22.2953 18.05 26.3668 19.9041 31.817 19.9041C37.2673 19.9041 41.3402 18.05 41.3402 16.3952V13.205C39.3992 14.6606 35.9396 15.5961 31.817 15.5961C27.6944 15.5961 24.2363 14.6614 22.2953 13.205ZM22.2953 25.1958V28.3845C22.2953 30.044 26.3668 31.8965 31.817 31.8965C37.2673 31.8965 41.3402 30.044 41.3402 28.3845V25.1958C39.3992 26.653 35.9396 27.5869 31.817 27.5869C27.6944 27.5869 24.2363 26.653 22.2953 25.1958ZM43.3187 -1.59229C43.3187 0.0664024 47.3901 1.9197 52.8404 1.9197C58.2906 1.9197 62.3636 0.0664024 62.3636 -1.59229C62.3636 -3.24869 58.2906 -5.10352 52.8404 -5.10352C47.3901 -5.10352 43.3187 -3.24869 43.3187 -1.59229ZM1.27271 25.1973V28.3876C1.27271 30.0424 5.34416 31.8965 10.7944 31.8965C16.2447 31.8965 20.3176 30.0424 20.3176 28.3876V25.1973C18.3766 26.653 14.917 27.5885 10.7944 27.5885C6.67178 27.5885 3.21371 26.653 1.27271 25.1973ZM10.7944 18.879C5.34416 18.879 1.27271 20.733 1.27271 22.3894C1.27271 24.0489 5.34416 25.9014 10.7944 25.9014C16.2447 25.9014 20.3176 24.0489 20.3176 22.3894C20.3169 20.733 16.2439 18.879 10.7944 18.879ZM22.2953 19.1992V22.3894C22.2953 24.0474 26.3668 25.9014 31.817 25.9014C37.2673 25.9014 41.3402 24.0474 41.3402 22.3894V19.1992C39.3992 20.6564 35.9396 21.5919 31.817 21.5919C27.6944 21.5919 24.2363 20.6572 22.2953 19.1992ZM43.3187 7.20913V10.3993C43.3187 12.0573 47.3901 13.9113 52.8404 13.9113C58.2906 13.9113 62.3636 12.0573 62.3636 10.3993V7.20913C60.4226 8.66633 56.963 9.60179 52.8404 9.60179C48.7178 9.60179 45.2597 8.66633 43.3187 7.20913ZM43.3187 13.205V16.3936C43.3187 18.0531 47.3901 19.9056 52.8404 19.9056C58.2906 19.9056 62.3636 18.0531 62.3636 16.3936V13.205C60.4226 14.6621 56.963 15.5961 52.8404 15.5961C48.7178 15.5961 45.2597 14.6629 43.3187 13.205ZM31.817 6.88735C26.3668 6.88735 22.2953 8.74141 22.2953 10.3978C22.2953 12.0573 26.3668 13.9098 31.817 13.9098C37.2673 13.9098 41.3402 12.0573 41.3402 10.3978C41.3402 8.74141 37.2673 6.88735 31.817 6.88735ZM43.3187 1.21408V4.40429C43.3187 6.05992 47.3901 7.91398 52.8404 7.91398C58.2906 7.91398 62.3636 6.06069 62.3636 4.40429V1.21408C60.4226 2.67051 56.963 3.60597 52.8404 3.60597C48.7178 3.60597 45.2597 2.67128 43.3187 1.21408ZM43.3187 19.1992V22.3894C43.3187 24.0458 47.3901 25.9014 52.8404 25.9014C58.2906 25.9014 62.3636 24.0458 62.3636 22.3894V19.1992C60.4226 20.6549 56.963 21.5904 52.8404 21.5904C48.7178 21.5904 45.2597 20.6557 43.3187 19.1992ZM43.3187 25.1943V28.386C43.3187 30.0424 47.3901 31.8965 52.8404 31.8965C58.2906 31.8965 62.3636 30.0424 62.3636 28.386V25.1943C60.4226 26.653 56.963 27.5869 52.8404 27.5869C48.7178 27.5869 45.2597 26.653 43.3187 25.1943Z" fill="white"/>
</g>
<defs>
<clipPath id="clip0">
<rect width="42" height="37" fill="white"/>
</clipPath>
</defs>
</svg>
