<svg width="37" height="39" viewBox="0 0 37 39" fill="none" xmlns="http://www.w3.org/2000/svg">
<path d="M33.7914 21.7207C33.7914 19.6905 33.889 17.6308 33.5818 15.6153C33.076 12.3066 31.4319 9.17835 29.0544 6.87179C27.8656 5.71852 26.489 4.7421 25.0003 4.03834C23.396 3.283 21.7158 2.81506 19.9561 2.63451C16.6139 2.28448 13.1451 3.13193 10.3123 4.97423C7.47587 6.82021 5.31152 9.56892 4.13359 12.7782C3.54101 14.392 3.23388 16.1238 3.20136 17.8445C3.18691 18.4635 3.19775 19.0789 3.19775 19.6979V26.4222C3.19775 27.0007 3.69638 27.5534 4.28173 27.5276C4.52021 27.5166 6.36298 27.5497 6.8291 27.5497H8.95732C8.96454 27.5497 8.97539 27.5497 8.98261 27.5497C10.0016 27.5203 10.9446 26.7686 11.1108 25.7148C11.1578 25.4127 11.147 25.1179 11.147 24.8121V18.1651C11.147 17.8261 11.1578 17.4871 11.0675 17.1555C10.8073 16.1828 9.91845 15.5269 8.94287 15.5159C7.96728 15.5048 6.99169 15.5159 6.01972 15.5159C5.88242 15.5159 5.74511 15.5269 5.61142 15.549C5.78847 14.661 6.04863 13.7915 6.38466 12.9514C6.3666 12.9956 6.34853 13.0398 6.32685 13.084C6.36298 12.9956 6.39912 12.9072 6.43525 12.8187C6.41718 12.8629 6.39912 12.9072 6.38105 12.9477C6.64843 12.3213 6.95917 11.7134 7.30966 11.1312C7.49033 10.829 7.68544 10.5306 7.88779 10.2432C7.94199 10.1658 7.9998 10.0848 8.05761 10.0111C8.06484 10 8.07568 9.98896 8.0829 9.97422C8.07568 9.98528 8.06845 9.99265 8.06123 10.0037C8.03955 10.0295 8.03232 10.0405 8.03232 10.0405C8.03955 10.0295 8.14072 9.89316 8.14433 9.89316C8.14433 9.89316 8.1371 9.90421 8.11542 9.93001C8.10458 9.94475 8.09736 9.9558 8.08652 9.96685C8.1913 9.83421 8.29609 9.69788 8.40449 9.56892C8.85976 9.0236 9.35117 8.51144 9.87871 8.03613C10.0088 7.91822 10.1425 7.804 10.2762 7.69346C10.3304 7.64924 10.381 7.60503 10.4351 7.56081C10.4207 7.57187 10.4062 7.58292 10.3918 7.59398C10.4099 7.57924 10.4315 7.5645 10.4496 7.54976C10.4532 7.54607 10.4568 7.54239 10.4641 7.53871C10.493 7.51291 10.5472 7.47607 10.558 7.46501H10.5616C10.8362 7.25868 11.1144 7.05971 11.4035 6.87179C12.0322 6.4628 12.6934 6.1054 13.38 5.79958C13.3402 5.818 13.3005 5.83274 13.2571 5.85116C13.3438 5.81432 13.4306 5.77747 13.5173 5.74062C13.4703 5.75905 13.4269 5.78115 13.38 5.79958C14.4531 5.35006 15.5768 5.03687 16.7259 4.86738C16.6789 4.87106 16.6283 4.87843 16.5813 4.8858C16.6789 4.87106 16.7728 4.86001 16.8704 4.84527C16.8234 4.85264 16.7728 4.86001 16.7259 4.86738C17.8966 4.71999 19.0817 4.71999 20.2524 4.86738C20.2055 4.86001 20.1549 4.85264 20.1079 4.84527C20.2055 4.86001 20.2994 4.87106 20.397 4.8858C20.35 4.87843 20.2994 4.87106 20.2524 4.86738C21.4015 5.03687 22.5216 5.35006 23.5983 5.79958C23.555 5.78115 23.508 5.75905 23.4646 5.74062C23.5514 5.77747 23.6381 5.81432 23.7248 5.85116C23.685 5.83274 23.6417 5.818 23.6019 5.79958C24.2162 6.07224 24.8088 6.38543 25.3761 6.74283C25.6724 6.93075 25.9614 7.12603 26.2469 7.33237C26.3227 7.38764 26.3986 7.44659 26.4745 7.50554C26.489 7.5166 26.5034 7.52765 26.5179 7.53871C26.507 7.52765 26.4926 7.52028 26.4817 7.50923C26.46 7.49081 26.4492 7.47975 26.4456 7.47975C26.4564 7.48712 26.5793 7.58292 26.5901 7.59398C26.5865 7.59398 26.5757 7.58292 26.554 7.5645C26.5432 7.55713 26.5323 7.54608 26.5215 7.53871C26.6516 7.64556 26.7816 7.74873 26.9081 7.85927C27.4429 8.32352 27.9451 8.82463 28.4112 9.36258C28.5268 9.49523 28.6389 9.63156 28.7473 9.76789C28.7906 9.82315 28.834 9.87474 28.8737 9.93001C28.8629 9.91527 28.852 9.90053 28.8412 9.88579C28.8557 9.90421 28.8701 9.92264 28.8846 9.94475C28.8882 9.94843 28.8918 9.95211 28.8954 9.95948C28.9135 9.98159 28.9388 10.0148 28.9532 10.0369C28.9604 10.0442 28.9641 10.0516 28.9677 10.0553C28.9677 10.0553 28.9677 10.0553 28.9713 10.059C29.1736 10.339 29.3687 10.6264 29.553 10.9175C29.9577 11.5623 30.3082 12.2402 30.6081 12.944C30.59 12.8998 30.572 12.8519 30.5539 12.8077C30.59 12.8961 30.6262 12.9845 30.6623 13.073C30.6442 13.0287 30.6262 12.9882 30.6081 12.944C30.9441 13.7804 31.2007 14.6463 31.3777 15.5306C31.2693 15.5122 31.1609 15.5048 31.0489 15.5011C30.0733 15.4901 29.0977 15.5011 28.1258 15.5011C27.3056 15.5011 26.5251 15.899 26.1204 16.6507C25.8891 17.0781 25.8458 17.5313 25.8458 18.0066V24.6279C25.8458 24.8526 25.8422 25.0774 25.8458 25.3021C25.8566 26.308 26.5323 27.2292 27.5007 27.4724C27.9596 27.5866 28.469 27.5387 28.9351 27.5387H31.0634C31.0706 27.5387 31.0814 27.5387 31.0887 27.5387C31.2187 27.535 31.3452 27.5203 31.4717 27.4945C31.4102 27.7376 31.3344 27.9808 31.244 28.213C31.1067 28.5262 30.9405 28.832 30.7526 29.1194C30.6984 29.2004 30.6442 29.2778 30.59 29.3552C30.6045 29.3368 30.6153 29.322 30.6298 29.3036C30.749 29.1562 30.4708 29.521 30.5756 29.3736C30.5792 29.3662 30.5864 29.3589 30.59 29.3515C30.572 29.3736 30.5575 29.392 30.5394 29.4141C30.4202 29.5615 30.2901 29.7052 30.1564 29.8416C30.0227 29.9779 29.8818 30.1068 29.7373 30.2321C29.7192 30.2469 29.7012 30.2616 29.6831 30.2763C29.6867 30.2726 29.6939 30.269 29.6975 30.2653C29.8565 30.1511 29.4807 30.4458 29.6289 30.3205C29.647 30.3058 29.665 30.2911 29.6831 30.2763C29.6108 30.3279 29.5386 30.3832 29.4663 30.4311C29.1808 30.6264 28.8773 30.7959 28.5666 30.9432C28.6027 30.9285 28.6389 30.9138 28.675 30.899C28.5883 30.9359 28.5016 30.9727 28.4148 31.0096C28.4654 30.9875 28.516 30.9654 28.563 30.9432C28.1474 31.1091 27.7175 31.227 27.2803 31.3006C27.3236 31.297 27.367 31.2896 27.414 31.2859C27.3164 31.3006 27.2224 31.3117 27.1249 31.3264C27.1791 31.3191 27.2297 31.3117 27.2803 31.3043C26.6082 31.378 25.9144 31.3412 25.2424 31.3412H21.9145C21.864 31.2233 21.8025 31.1091 21.7339 31.0022C21.2389 30.2211 20.397 29.7531 19.4864 29.7458C19.0564 29.7421 18.6228 29.7458 18.1929 29.7458C17.7304 29.7458 17.2715 29.7458 16.809 29.7458C15.9346 29.7494 15.1433 30.1695 14.6266 30.8843C14.0557 31.6728 14.0015 32.7413 14.3989 33.6183C14.8 34.5062 15.6889 35.0774 16.6355 35.1437C17.0402 35.1732 17.4521 35.1511 17.8568 35.1511H19.4973C19.5045 35.1511 19.5153 35.1511 19.5225 35.1511C20.4692 35.1326 21.3653 34.6057 21.8206 33.7509C21.8531 33.6883 21.8856 33.6219 21.9145 33.5556C23.4683 33.5556 25.0183 33.5556 26.5721 33.5556C27.2911 33.5556 28.0246 33.4561 28.7111 33.2387C29.6181 32.9513 30.4238 32.4908 31.1681 31.8902C32.5159 30.8032 33.4626 29.1231 33.7083 27.3876C33.8203 26.5991 33.8058 25.8217 33.8058 25.0295V21.7207H33.7914Z" fill="white"/>
</svg>
