<svg width="38" height="34" viewBox="0 0 38 34" fill="none" xmlns="http://www.w3.org/2000/svg">
<path d="M3.26807 25.5344C3.26807 26.9789 4.44607 28.1271 5.92807 28.1271H32.0721C33.5541 28.1271 34.7321 26.9789 34.7321 25.5344V10.2747H3.26807V25.5344ZM16.2641 18.0897H23.9401C24.3581 18.0897 24.7001 18.4231 24.7001 18.8305C24.7001 19.2379 24.3581 19.5713 23.9401 19.5713H16.2641C15.8461 19.5713 15.5041 19.2379 15.5041 18.8305C15.5041 18.4231 15.8461 18.0897 16.2641 18.0897ZM7.10607 14.6081C6.80207 14.3118 6.80207 13.8674 7.10607 13.5711C7.41007 13.2748 7.86607 13.2748 8.17007 13.5711L13.0341 18.312C13.1861 18.4601 13.2621 18.6453 13.2621 18.8305C13.2621 19.0157 13.1861 19.2009 13.0341 19.349L8.17007 24.0899C8.01807 24.2381 7.82807 24.3122 7.63807 24.3122C7.44807 24.3122 7.25807 24.2381 7.10607 24.0899C6.80207 23.7936 6.80207 23.3492 7.10607 23.0529L11.4001 18.8305L7.10607 14.6081Z" fill="#0057FF"/>
<path d="M32.0721 4.5708H5.92807C4.44607 4.5708 3.26807 5.71899 3.26807 7.16348V8.79317H34.7321V7.16348C34.7321 5.75603 33.5161 4.5708 32.0721 4.5708ZM5.58607 7.97832C4.86407 7.97832 4.29407 7.42275 4.29407 6.71902C4.29407 6.01529 4.86407 5.45972 5.58607 5.45972C6.30807 5.45972 6.87807 6.01529 6.87807 6.71902C6.87807 7.42275 6.30807 7.97832 5.58607 7.97832ZM9.50007 7.97832C8.77807 7.97832 8.20807 7.42275 8.20807 6.71902C8.20807 6.01529 8.77807 5.45972 9.50007 5.45972C10.2221 5.45972 10.7921 6.01529 10.7921 6.71902C10.7921 7.42275 10.2221 7.97832 9.50007 7.97832ZM13.4521 7.97832C12.7301 7.97832 12.1601 7.42275 12.1601 6.71902C12.1601 6.01529 12.7301 5.45972 13.4521 5.45972C14.1741 5.45972 14.7441 6.01529 14.7441 6.71902C14.7441 7.42275 14.1741 7.97832 13.4521 7.97832Z" fill="#0057FF"/>
</svg>
