<svg width="18" height="17" viewBox="0 0 18 17" fill="none" xmlns="http://www.w3.org/2000/svg">
<path fill-rule="evenodd" clip-rule="evenodd" d="M4.90385 15.8593V0.425364C4.90385 0.240061 5.05882 0.0898438 5.25 0.0898438H7.84615C8.03733 0.0898437 8.19231 0.240061 8.19231 0.425364V15.8593C8.19231 16.0446 8.03733 16.1948 7.84615 16.1948H5.25C5.05882 16.1948 4.90385 16.0446 4.90385 15.8593ZM0 15.8593V11.162C0 10.9767 0.154978 10.8265 0.346154 10.8265H2.94231C3.13348 10.8265 3.28846 10.9767 3.28846 11.162V15.8593C3.28846 16.0446 3.13348 16.1948 2.94231 16.1948H0.346154C0.154978 16.1948 0 16.0446 0 15.8593ZM9.80769 15.8593V8.47786C9.80769 8.29256 9.96267 8.14234 10.1538 8.14234H12.75C12.9412 8.14234 13.0962 8.29256 13.0962 8.47786V15.8593C13.0962 16.0446 12.9412 16.1948 12.75 16.1948H10.1538C9.96267 16.1948 9.80769 16.0446 9.80769 15.8593ZM14.7115 15.8593V5.7937C14.7115 5.60839 14.8665 5.45818 15.0577 5.45818H17.6538C17.845 5.45818 18 5.60839 18 5.7937V15.8593C18 16.0446 17.845 16.1948 17.6538 16.1948H15.0577C14.8665 16.1948 14.7115 16.0446 14.7115 15.8593Z" fill="white"/>
</svg>
