<svg width="20" height="20" viewBox="0 0 20 20" fill="none" xmlns="http://www.w3.org/2000/svg">
<path d="M8.33317 5V4.16667H11.6665V5H13.3332V4.16667C13.3327 3.72477 13.157 3.30111 12.8445 2.98864C12.5321 2.67618 12.1084 2.50044 11.6665 2.5H8.33317C7.89128 2.50044 7.46761 2.67618 7.15515 2.98864C6.84268 3.30111 6.66695 3.72477 6.6665 4.16667V5H8.33317Z" fill="#0057FF"/>
<path d="M7.49984 12.5C7.27882 12.5 7.06686 12.4122 6.91058 12.2559C6.7543 12.0997 6.6665 11.8877 6.6665 11.6667V10C6.6665 9.77901 6.7543 9.56705 6.91058 9.41076C7.06686 9.25448 7.27882 9.16669 7.49984 9.16669C7.72085 9.16669 7.93281 9.25448 8.08909 9.41076C8.24537 9.56705 8.33317 9.77901 8.33317 10V11.6667C8.33317 11.8877 8.24537 12.0997 8.08909 12.2559C7.93281 12.4122 7.72085 12.5 7.49984 12.5ZM12.4998 12.5C12.2788 12.5 12.0669 12.4122 11.9106 12.2559C11.7543 12.0997 11.6665 11.8877 11.6665 11.6667V10C11.6665 9.77901 11.7543 9.56705 11.9106 9.41076C12.0669 9.25448 12.2788 9.16669 12.4998 9.16669C12.7209 9.16669 12.9328 9.25448 13.0891 9.41076C13.2454 9.56705 13.3332 9.77901 13.3332 10V11.6667C13.3332 11.8877 13.2454 12.0997 13.0891 12.2559C12.9328 12.4122 12.7209 12.5 12.4998 12.5Z" fill="#0057FF"/>
<path d="M16.6665 5H3.33317C2.89114 5 2.46722 5.17559 2.15466 5.48816C1.8421 5.80072 1.6665 6.22464 1.6665 6.66667V9.16667C1.6665 9.60869 1.8421 10.0326 2.15466 10.3452C2.46722 10.6577 2.89114 10.8333 3.33317 10.8333H6.6665V10C6.6665 9.77899 6.7543 9.56703 6.91058 9.41075C7.06686 9.25446 7.27882 9.16667 7.49984 9.16667C7.72085 9.16667 7.93281 9.25446 8.08909 9.41075C8.24537 9.56703 8.33317 9.77899 8.33317 10V10.8333H11.6665V10C11.6665 9.77899 11.7543 9.56703 11.9106 9.41075C12.0669 9.25446 12.2788 9.16667 12.4998 9.16667C12.7209 9.16667 12.9328 9.25446 13.0891 9.41075C13.2454 9.56703 13.3332 9.77899 13.3332 10V10.8333H16.6665C17.1085 10.8333 17.5325 10.6577 17.845 10.3452C18.1576 10.0326 18.3332 9.60869 18.3332 9.16667V6.66667C18.3332 6.22464 18.1576 5.80072 17.845 5.48816C17.5325 5.17559 17.1085 5 16.6665 5Z" fill="#0057FF"/>
<path d="M16.6665 10.8334H13.3332V11.6667C13.3332 11.8877 13.2454 12.0997 13.0891 12.2559C12.9328 12.4122 12.7209 12.5 12.4998 12.5C12.2788 12.5 12.0669 12.4122 11.9106 12.2559C11.7543 12.0997 11.6665 11.8877 11.6665 11.6667V10.8334H8.33317V11.6667C8.33317 11.8877 8.24537 12.0997 8.08909 12.2559C7.93281 12.4122 7.72085 12.5 7.49984 12.5C7.27882 12.5 7.06686 12.4122 6.91058 12.2559C6.7543 12.0997 6.6665 11.8877 6.6665 11.6667V10.8334H3.33317C2.89114 10.8334 2.46722 10.6578 2.15466 10.3452C1.8421 10.0326 1.6665 9.60871 1.6665 9.16669V15.8334C1.6665 16.2754 1.8421 16.6993 2.15466 17.0119C2.46722 17.3244 2.89114 17.5 3.33317 17.5H16.6665C17.1085 17.5 17.5325 17.3244 17.845 17.0119C18.1576 16.6993 18.3332 16.2754 18.3332 15.8334V9.16669C18.3332 9.60871 18.1576 10.0326 17.845 10.3452C17.5325 10.6578 17.1085 10.8334 16.6665 10.8334Z" fill="#0057FF"/>
</svg>
