<svg width="100" height="32" viewBox="0 0 100 32" fill="none" xmlns="http://www.w3.org/2000/svg">
<path d="M92.0366 0.000104H7.96787C7.66143 0.000104 7.35867 0.000104 7.05304 0.001704C6.79719 0.003304 6.54339 0.007952 6.28509 0.011864C5.72395 0.0181854 5.16413 0.065445 4.61049 0.153232C4.05763 0.24293 3.52209 0.412037 3.02198 0.654832C2.52248 0.899681 2.06607 1.21784 1.66931 1.59776C1.27048 1.97661 0.938012 2.41452 0.684708 2.89463C0.430706 3.37379 0.25458 3.88725 0.162413 4.41729C0.06937 4.94665 0.0193027 5.48212 0.0126604 6.01889C0.0049054 6.26417 0.00408644 6.51026 0 6.75558V25.247C0.00408644 25.4954 0.0049054 25.736 0.0126604 25.9845C0.0193047 26.5212 0.069372 27.0567 0.162413 27.586C0.254325 28.1164 0.430462 28.6301 0.684708 29.1095C0.937897 29.588 1.27041 30.0242 1.66931 30.4009C2.06457 30.7825 2.52127 31.1009 3.02198 31.3439C3.52208 31.5873 4.05757 31.7574 4.61049 31.8485C5.16422 31.9356 5.72399 31.9829 6.28509 31.9899C6.54339 31.9954 6.79719 31.9985 7.05304 31.9985C7.35866 32.0001 7.66145 32.0001 7.96787 32.0001H92.0366C92.337 32.0001 92.6422 32.0001 92.9425 31.9985C93.1971 31.9985 93.4583 31.9954 93.7129 31.9899C94.2729 31.9832 94.8317 31.936 95.3842 31.8485C95.9389 31.7568 96.4764 31.5867 96.9789 31.3439C97.4791 31.1007 97.9354 30.7824 98.3303 30.4009C98.7282 30.0227 99.0614 29.5869 99.3178 29.1095C99.5701 28.6298 99.7446 28.1161 99.8351 27.586C99.9283 27.0566 99.9802 26.5213 99.9902 25.9845C99.9935 25.736 99.9935 25.4954 99.9935 25.247C100 24.9563 100 24.6673 100 24.3719V7.62901C100 7.33604 100 7.04541 99.9935 6.75558C99.9935 6.51026 99.9935 6.26417 99.9902 6.01886C99.9802 5.48204 99.9283 4.94669 99.8351 4.41726C99.7443 3.88753 99.5699 3.37411 99.3178 2.8946C98.8019 1.93226 97.9839 1.14892 96.9789 0.65476C96.4763 0.412558 95.9389 0.243496 95.3842 0.15316C94.8318 0.0649862 94.273 0.0177102 93.7129 0.011752C93.4583 0.007848 93.1971 0.00316 92.9425 0.0016C92.6422 0 92.337 0 92.0366 0V0.000104Z" fill="#8499B1"/>
<path d="M7.05705 31.3002C6.80244 31.3002 6.55398 31.2971 6.30136 31.2916C5.77805 31.2851 5.25596 31.2415 4.73938 31.1612C4.25769 31.0817 3.79106 30.934 3.35488 30.7228C2.92271 30.5134 2.52853 30.2388 2.18745 29.9096C1.84143 29.5842 1.55335 29.2068 1.33464 28.7924C1.11351 28.3752 0.960475 27.9281 0.880866 27.4666C0.794896 26.9707 0.748382 26.4692 0.741726 25.9666C0.736428 25.7979 0.729492 25.2361 0.729492 25.2361V6.75567C0.729492 6.75567 0.73688 6.20254 0.741768 6.04004C0.748141 5.53818 0.794384 5.03752 0.880097 4.54238C0.959853 4.0796 1.113 3.63119 1.33425 3.2127C1.55217 2.79855 1.83864 2.42088 2.18258 2.09434C2.52612 1.76469 2.92156 1.48868 3.35447 1.27636C3.78965 1.06587 4.25539 0.919181 4.73611 0.841211C5.25439 0.760064 5.77829 0.716192 6.30342 0.709963L7.05746 0.700195H92.9383L93.7014 0.710355C94.2217 0.716275 94.7409 0.759755 95.2544 0.840427C95.74 0.919375 96.2106 1.06709 96.6507 1.27871C97.518 1.70658 98.2237 2.38353 98.6689 3.21465C98.8866 3.63026 99.0374 4.075 99.1161 4.53379C99.2029 5.03299 99.2514 5.53759 99.2614 6.04356C99.2638 6.27012 99.2638 6.51348 99.2638 6.75567C99.2704 7.05567 99.2704 7.34121 99.2704 7.6291V24.372C99.2704 24.6627 99.2704 24.9463 99.2638 25.2322C99.2638 25.4924 99.2638 25.7307 99.2605 25.976C99.2508 26.4729 99.203 26.9685 99.1177 27.4588C99.0397 27.9236 98.8875 28.3742 98.6665 28.7948C98.4462 29.2047 98.1598 29.5788 97.8177 29.9033C97.4764 30.2343 97.0815 30.5106 96.6483 30.7213C96.2094 30.9341 95.7395 31.0824 95.2544 31.1612C94.7379 31.2419 94.2157 31.2855 93.6924 31.2916C93.4476 31.2971 93.1913 31.3002 92.9424 31.3002L92.0366 31.3018L7.05705 31.3002Z" fill="white"/>
<path d="M20.8893 15.912C20.8987 15.2177 21.0913 14.5369 21.4494 13.9329C21.8074 13.329 22.3193 12.8216 22.9372 12.4579C22.5446 11.9212 22.0268 11.4795 21.4247 11.1679C20.8226 10.8563 20.1529 10.6834 19.4688 10.6629C18.0096 10.5162 16.5948 11.4988 15.8512 11.4988C15.0932 11.4988 13.9483 10.6774 12.7154 10.7017C11.9179 10.7264 11.1407 10.9484 10.4595 11.3461C9.7783 11.7438 9.21633 12.3036 8.82835 12.9711C7.14772 15.7567 8.40132 19.8506 10.0113 22.1023C10.8167 23.2049 11.7581 24.4365 12.9899 24.3928C14.1953 24.3449 14.6455 23.657 16.1004 23.657C17.5419 23.657 17.9643 24.3928 19.2211 24.365C20.5145 24.3449 21.3294 23.2575 22.1067 22.1445C22.6854 21.3589 23.1307 20.4906 23.4262 19.5718C22.6747 19.2675 22.0335 18.7583 21.5823 18.1075C21.1312 17.4566 20.8902 16.6931 20.8893 15.912Z" fill="#8499B1"/>
<path d="M18.5156 9.18174C19.2209 8.37128 19.5683 7.32957 19.4842 6.27783C18.4067 6.38616 17.4115 6.87912 16.6967 7.65849C16.3473 8.03923 16.0796 8.48217 15.9091 8.962C15.7385 9.44182 15.6685 9.94912 15.7028 10.4549C16.2417 10.4602 16.7749 10.3484 17.2621 10.1278C17.7493 9.90732 18.1779 9.58383 18.5156 9.18174Z" fill="#8499B1"/>
<path d="M35.3505 21.7126H31.3949L30.445 24.3978H28.7695L32.5162 14.4634H34.2569L38.0035 24.3978H36.2996L35.3505 21.7126ZM31.8046 20.4736H34.94L33.3943 16.1157H33.351L31.8046 20.4736Z" fill="#8499B1"/>
<path d="M46.0952 20.7761C46.0952 23.0269 44.8368 24.473 42.9377 24.473C42.4567 24.4971 41.9782 24.391 41.5572 24.1669C41.1362 23.9428 40.7897 23.6097 40.5572 23.2058H40.5213V26.7933H38.9683V17.1543H40.4715V18.359H40.5001C40.7432 17.957 41.0956 17.6256 41.5198 17.4002C41.9441 17.1747 42.4242 17.0635 42.9091 17.0785C44.8294 17.0785 46.0952 18.5316 46.0952 20.7761ZM44.4989 20.7761C44.4989 19.3097 43.7073 18.3457 42.4995 18.3457C41.3129 18.3457 40.5148 19.3301 40.5148 20.7761C40.5148 22.2355 41.3129 23.2129 42.4995 23.2129C43.7073 23.2129 44.4989 22.2558 44.4989 20.7761H44.4989Z" fill="#8499B1"/>
<path d="M54.4227 20.7761C54.4227 23.0269 53.1639 24.473 51.2649 24.473C50.7838 24.4971 50.3054 24.391 49.8844 24.1669C49.4634 23.9428 49.1168 23.6097 48.8844 23.2058H48.8484V26.7933H47.2954V17.1543H48.7986V18.359H48.8272C49.0703 17.957 49.4228 17.6256 49.847 17.4002C50.2712 17.1747 50.7513 17.0635 51.2363 17.0785C53.1566 17.0785 54.4227 18.5316 54.4227 20.7761ZM52.8261 20.7761C52.8261 19.3097 52.0344 18.3457 50.8266 18.3457C49.6401 18.3457 48.8419 19.3301 48.8419 20.7761C48.8419 22.2355 49.6401 23.2129 50.8266 23.2129C52.0344 23.2129 52.8261 22.2558 52.8261 20.7761Z" fill="#8499B1"/>
<path d="M59.9257 21.6289C60.0408 22.6141 61.0405 23.2609 62.4066 23.2609C63.7156 23.2609 64.6574 22.6141 64.6574 21.7258C64.6574 20.9547 64.0894 20.493 62.7445 20.1766L61.3996 19.8664C59.494 19.4258 58.6094 18.5727 58.6094 17.1883C58.6094 15.4742 60.1697 14.2969 62.3846 14.2969C64.5782 14.2969 66.0815 15.4742 66.1321 17.1883H64.5643C64.4705 16.1969 63.6144 15.5984 62.3634 15.5984C61.1123 15.5984 60.2562 16.2039 60.2562 17.0852C60.2562 17.7875 60.803 18.2008 62.1406 18.5172L63.2839 18.7859C65.4131 19.2679 66.2969 20.0867 66.2969 21.5398C66.2969 23.3984 64.7512 24.5625 62.2915 24.5625C59.9901 24.5625 58.4363 23.4258 58.3359 21.6289L59.9257 21.6289Z" fill="#8499B1"/>
<path d="M69.6502 15.4399V17.154H71.0889V18.3313H69.6502V22.3243C69.6502 22.9446 69.9383 23.2337 70.5707 23.2337C70.7415 23.2308 70.9121 23.2194 71.0816 23.1993V24.3696C70.7972 24.4205 70.5082 24.4435 70.219 24.4384C68.6872 24.4384 68.0898 23.8876 68.0898 22.4829V18.3313H66.9897V17.154H68.0898V15.4399H69.6502Z" fill="#8499B1"/>
<path d="M71.9214 20.7759C71.9214 18.497 73.3234 17.0649 75.5097 17.0649C77.7034 17.0649 79.0989 18.4969 79.0989 20.7759C79.0989 23.061 77.7107 24.4868 75.5097 24.4868C73.3095 24.4868 71.9214 23.061 71.9214 20.7759ZM77.5165 20.7759C77.5165 19.2126 76.7681 18.2899 75.5097 18.2899C74.2513 18.2899 73.503 19.2196 73.503 20.7759C73.503 22.3454 74.2513 23.261 75.5097 23.261C76.7681 23.261 77.5165 22.3454 77.5165 20.7759H77.5165Z" fill="#8499B1"/>
<path d="M80.3794 17.1542H81.8606V18.387H81.8965C81.9968 18.002 82.2324 17.6617 82.5638 17.4234C82.8952 17.1851 83.3022 17.0633 83.7164 17.0784C83.8954 17.0778 84.0739 17.0964 84.2485 17.1339V18.5245C84.0226 18.4584 83.7869 18.4281 83.5507 18.4347C83.3251 18.4259 83.1002 18.464 82.8914 18.5463C82.6826 18.6286 82.4949 18.7532 82.3412 18.9115C82.1874 19.0698 82.0713 19.2581 82.0007 19.4634C81.9302 19.6688 81.9069 19.8863 81.9324 20.1011V24.3972H80.3794L80.3794 17.1542Z" fill="#8499B1"/>
<path d="M91.4084 22.2696C91.1995 23.5845 89.8619 24.4868 88.1506 24.4868C85.9496 24.4868 84.5835 23.0751 84.5835 20.8103C84.5835 18.5384 85.957 17.0649 88.0853 17.0649C90.1786 17.0649 91.4949 18.4415 91.4949 20.6376V21.147H86.1512V21.2368C86.1265 21.5034 86.1614 21.7719 86.2535 22.0246C86.3455 22.2772 86.4927 22.5083 86.6852 22.7023C86.8777 22.8964 87.1112 23.049 87.37 23.15C87.6288 23.251 87.9072 23.2982 88.1865 23.2884C88.5535 23.3213 88.9218 23.2399 89.2366 23.0564C89.5514 22.8728 89.7959 22.5969 89.9338 22.2696L91.4084 22.2696ZM86.1585 20.1079H89.9411C89.9551 19.8682 89.9171 19.6284 89.8296 19.4034C89.7421 19.1784 89.607 18.9732 89.4328 18.8006C89.2585 18.628 89.0489 18.4917 88.817 18.4004C88.5851 18.309 88.336 18.2645 88.0853 18.2696C87.8324 18.2682 87.5817 18.3147 87.3477 18.4065C87.1137 18.4983 86.901 18.6335 86.7218 18.8044C86.5427 18.9754 86.4007 19.1785 86.304 19.4023C86.2073 19.626 86.1579 19.8658 86.1585 20.1079V20.1079Z" fill="#8499B1"/>
<path d="M31.6102 6.98491C31.9358 6.96254 32.2625 7.00963 32.5668 7.12278C32.871 7.23592 33.1453 7.41231 33.3697 7.63921C33.5942 7.86611 33.7632 8.13787 33.8647 8.43488C33.9662 8.7319 33.9975 9.04677 33.9564 9.35678C33.9564 10.8818 33.0955 11.7584 31.6102 11.7584H29.8091V6.98491H31.6102ZM30.5835 11.0833H31.5237C31.7563 11.0966 31.9892 11.0601 32.2052 10.9764C32.4213 10.8927 32.6151 10.764 32.7726 10.5995C32.9301 10.4351 33.0474 10.2391 33.1158 10.0258C33.1842 9.81246 33.2021 9.58725 33.1681 9.36651C33.1996 9.14664 33.1799 8.92282 33.1105 8.71109C33.041 8.49936 32.9235 8.30496 32.7663 8.14182C32.6092 7.97867 32.4162 7.85083 32.2014 7.76744C31.9866 7.68405 31.7551 7.64718 31.5237 7.65948H30.5835V11.0833Z" fill="#8499B1"/>
<path d="M34.8311 9.95553C34.8075 9.71879 34.8358 9.47994 34.9142 9.25428C34.9926 9.02863 35.1194 8.82116 35.2865 8.64517C35.4536 8.46918 35.6573 8.32857 35.8845 8.23235C36.1116 8.13613 36.3573 8.08643 36.6057 8.08643C36.8541 8.08643 37.0998 8.13613 37.327 8.23235C37.5542 8.32857 37.7578 8.46918 37.9249 8.64517C38.092 8.82116 38.2188 9.02863 38.2973 9.25428C38.3757 9.47994 38.404 9.71879 38.3803 9.95553C38.4044 10.1925 38.3765 10.4317 38.2982 10.6577C38.22 10.8837 38.0933 11.0916 37.9262 11.2679C37.759 11.4442 37.5552 11.5852 37.3278 11.6816C37.1004 11.778 36.8544 11.8278 36.6057 11.8278C36.357 11.8278 36.111 11.778 35.8836 11.6816C35.6562 11.5852 35.4524 11.4442 35.2853 11.2679C35.1182 11.0916 34.9914 10.8837 34.9132 10.6577C34.835 10.4317 34.807 10.1925 34.8311 9.95553ZM37.6164 9.95553C37.6164 9.17467 37.25 8.71803 36.607 8.71803C35.9614 8.71803 35.5983 9.17467 35.5983 9.95554C35.5983 10.7426 35.9615 11.1958 36.607 11.1958C37.25 11.1958 37.6165 10.7395 37.6165 9.95553H37.6164Z" fill="#8499B1"/>
<path d="M43.0981 11.7581H42.3277L41.55 9.10498H41.4913L40.7168 11.7581H39.9537L38.9165 8.15576H39.6698L40.3438 10.9046H40.3993L41.173 8.15576H41.8854L42.6591 10.9046H42.7178L43.3887 8.15576H44.1313L43.0981 11.7581Z" fill="#8499B1"/>
<path d="M45.0039 8.15609H45.7188V8.72835H45.7743C45.8684 8.52282 46.0272 8.35052 46.2285 8.23548C46.4298 8.12043 46.6636 8.06837 46.8972 8.08655C47.0803 8.07338 47.2642 8.0998 47.4351 8.16388C47.6061 8.22796 47.7598 8.32804 47.8849 8.45672C48.01 8.58539 48.1033 8.73936 48.1577 8.90722C48.2122 9.07507 48.2266 9.25251 48.1997 9.42639V11.7584H47.4571V9.60492C47.4571 9.02602 47.1943 8.73812 46.6451 8.73812C46.5207 8.73258 46.3966 8.75283 46.2813 8.7975C46.1659 8.84216 46.062 8.91018 45.9766 8.99689C45.8913 9.0836 45.8266 9.18694 45.7868 9.29985C45.7471 9.41275 45.7334 9.53254 45.7465 9.65101V11.7584H45.0039L45.0039 8.15609Z" fill="#8499B1"/>
<path d="M49.3828 6.74951H50.1255V11.7581H49.3828V6.74951Z" fill="#8499B1"/>
<path d="M51.1578 9.9556C51.1341 9.71885 51.1625 9.47998 51.2409 9.25431C51.3193 9.02865 51.4462 8.82117 51.6133 8.64518C51.7804 8.46919 51.9841 8.32857 52.2113 8.23235C52.4384 8.13613 52.6841 8.08643 52.9326 8.08643C53.181 8.08643 53.4267 8.13613 53.6539 8.23235C53.8811 8.32857 54.0848 8.46919 54.2519 8.64518C54.419 8.82117 54.5458 9.02865 54.6242 9.25431C54.7027 9.47998 54.731 9.71885 54.7074 9.9556C54.7314 10.1926 54.7035 10.4318 54.6252 10.6578C54.547 10.8838 54.4202 11.0917 54.2531 11.268C54.0859 11.4443 53.8821 11.5852 53.6547 11.6816C53.4273 11.7781 53.1813 11.8279 52.9326 11.8279C52.6839 11.8279 52.4379 11.7781 52.2105 11.6816C51.983 11.5852 51.7792 11.4443 51.6121 11.268C51.4449 11.0917 51.3182 10.8838 51.2399 10.6578C51.1617 10.4318 51.1337 10.1926 51.1578 9.9556ZM53.9431 9.9556C53.9431 9.17474 53.5767 8.7181 52.9336 8.7181C52.2881 8.7181 51.9249 9.17474 51.9249 9.9556C51.9249 10.7427 52.2881 11.1958 52.9336 11.1958C53.5767 11.1958 53.9431 10.7396 53.9431 9.9556H53.9431Z" fill="#8499B1"/>
<path d="M55.4893 10.7395C55.4893 10.0911 55.9936 9.71728 56.8888 9.66415L57.9081 9.60791V9.29697C57.9081 8.9165 57.6454 8.70166 57.1377 8.70166C56.7232 8.70166 56.4359 8.84736 56.3535 9.10205H55.6345C55.7104 8.4833 56.3184 8.08643 57.172 8.08643C58.1154 8.08643 58.6475 8.53603 58.6475 9.29697V11.7583H57.9326V11.252H57.8739C57.7546 11.4336 57.5871 11.5817 57.3885 11.6811C57.19 11.7804 56.9674 11.8276 56.7436 11.8176C56.5856 11.8334 56.4259 11.8172 56.2749 11.7703C56.1238 11.7233 55.9847 11.6466 55.8666 11.545C55.7484 11.4434 55.6537 11.3193 55.5888 11.1805C55.5238 11.0418 55.4899 10.8916 55.4893 10.7395ZM57.9081 10.4317V10.1306L56.9892 10.1868C56.471 10.22 56.236 10.3888 56.236 10.7063C56.236 11.0306 56.5298 11.2192 56.9338 11.2192C57.0521 11.2307 57.1717 11.2193 57.2853 11.1856C57.399 11.1519 57.5044 11.0967 57.5953 11.0232C57.6862 10.9497 57.7608 10.8595 57.8145 10.7579C57.8683 10.6563 57.9001 10.5454 57.9081 10.4317Z" fill="#8499B1"/>
<path d="M59.6235 9.95538C59.6235 8.8171 60.2348 8.09601 61.1855 8.09601C61.4207 8.08563 61.6541 8.13956 61.8584 8.25147C62.0628 8.36339 62.2296 8.52867 62.3395 8.72801H62.395V6.74951H63.1376V11.7581H62.426V11.189H62.3672C62.2489 11.387 62.0762 11.5502 61.8679 11.661C61.6596 11.7718 61.4237 11.8259 61.1855 11.8175C60.2283 11.8175 59.6235 11.0964 59.6235 9.95538ZM60.3907 9.95538C60.3907 10.7194 60.7669 11.1792 61.3961 11.1792C62.022 11.1792 62.4089 10.7128 62.4089 9.95851C62.4089 9.20773 62.018 8.73468 61.3961 8.73468C60.771 8.73468 60.3907 9.19757 60.3907 9.95538H60.3907Z" fill="#8499B1"/>
<path d="M66.2101 9.95553C66.1864 9.71879 66.2147 9.47994 66.2931 9.25428C66.3715 9.02863 66.4983 8.82116 66.6654 8.64517C66.8325 8.46918 67.0362 8.32857 67.2634 8.23235C67.4905 8.13613 67.7362 8.08643 67.9846 8.08643C68.2331 8.08643 68.4787 8.13613 68.7059 8.23235C68.9331 8.32857 69.1367 8.46918 69.3038 8.64517C69.4709 8.82116 69.5977 9.02863 69.6762 9.25428C69.7546 9.47994 69.7829 9.71879 69.7592 9.95553C69.7833 10.1925 69.7554 10.4317 69.6771 10.6577C69.5989 10.8837 69.4722 11.0916 69.3051 11.2679C69.1379 11.4442 68.9341 11.5852 68.7067 11.6816C68.4793 11.778 68.2333 11.8278 67.9846 11.8278C67.7359 11.8278 67.4899 11.778 67.2625 11.6816C67.0351 11.5852 66.8313 11.4442 66.6642 11.2679C66.4971 11.0916 66.3703 10.8837 66.2921 10.6577C66.2139 10.4317 66.1859 10.1925 66.2101 9.95553ZM68.9953 9.95553C68.9953 9.17467 68.6289 8.71803 67.9859 8.71803C67.3403 8.71803 66.9772 9.17467 66.9772 9.95554C66.9772 10.7426 67.3404 11.1958 67.9859 11.1958C68.6289 11.1958 68.9953 10.7395 68.9953 9.95553Z" fill="#8499B1"/>
<path d="M70.7559 8.15609H71.4708V8.72835H71.5263C71.6204 8.52282 71.7792 8.35052 71.9805 8.23548C72.1818 8.12043 72.4155 8.06837 72.6492 8.08655C72.8323 8.07338 73.0161 8.0998 73.1871 8.16388C73.3581 8.22796 73.5118 8.32804 73.6369 8.45672C73.762 8.58539 73.8552 8.73936 73.9097 8.90722C73.9642 9.07507 73.9785 9.25251 73.9517 9.42639V11.7584H73.209V9.60492C73.209 9.02602 72.9463 8.73812 72.397 8.73812C72.2727 8.73258 72.1486 8.75283 72.0332 8.7975C71.9179 8.84216 71.814 8.91018 71.7286 8.99689C71.6433 9.0836 71.5785 9.18694 71.5388 9.29985C71.4991 9.41275 71.4853 9.53254 71.4985 9.65101V11.7584H70.7559V8.15609Z" fill="#8499B1"/>
<path d="M78.148 7.25879V8.17207H78.9632V8.7709H78.148V10.6232C78.148 11.0006 78.3104 11.1658 78.6801 11.1658C78.7747 11.1655 78.8693 11.1601 78.9632 11.1494V11.7416C78.8299 11.7644 78.6947 11.7766 78.5593 11.7779C77.7334 11.7779 77.4045 11.4998 77.4045 10.8053V8.77087H76.8071V8.17204H77.4045V7.25879H78.148Z" fill="#8499B1"/>
<path d="M79.9775 6.74951H80.7136V8.73467H80.7724C80.8711 8.52722 81.0343 8.35394 81.2396 8.23846C81.4449 8.12299 81.6824 8.07092 81.9198 8.08936C82.1019 8.07987 82.284 8.10898 82.453 8.17462C82.6221 8.24025 82.7739 8.34079 82.8977 8.46906C83.0215 8.59733 83.1141 8.75017 83.1691 8.91668C83.2241 9.08319 83.24 9.25926 83.2157 9.43233V11.7581H82.4723V9.60771C82.4723 9.03232 82.1924 8.74091 81.6677 8.74091C81.54 8.73089 81.4117 8.74769 81.2915 8.79013C81.1714 8.83257 81.0623 8.89964 80.9721 8.98663C80.8818 9.07362 80.8125 9.17843 80.769 9.29374C80.7255 9.40905 80.7089 9.53207 80.7202 9.65419V11.7581H79.9776L79.9775 6.74951Z" fill="#8499B1"/>
<path d="M87.546 10.7852C87.4451 11.1144 87.2265 11.3992 86.9284 11.5898C86.6303 11.7803 86.2718 11.8644 85.9154 11.8274C85.6675 11.8337 85.4212 11.7882 85.1934 11.6942C84.9657 11.6002 84.7621 11.4598 84.5967 11.2829C84.4313 11.106 84.3081 10.8968 84.2357 10.6697C84.1632 10.4426 84.1433 10.2032 84.1772 9.96803C84.1442 9.73212 84.1645 9.49218 84.2368 9.26444C84.309 9.0367 84.4316 8.82649 84.5961 8.64803C84.7606 8.46957 84.9633 8.32703 85.1903 8.23007C85.4174 8.1331 85.6635 8.08397 85.9122 8.086C86.9592 8.086 87.5908 8.7708 87.5908 9.902V10.1501H84.9337V10.1899C84.9221 10.3221 84.9394 10.4552 84.9846 10.5806C85.0299 10.706 85.102 10.8209 85.1963 10.9181C85.2907 11.0153 85.4052 11.0925 85.5326 11.1448C85.6599 11.1971 85.7973 11.2234 85.9358 11.2219C86.1135 11.2423 86.2934 11.2117 86.4529 11.1339C86.6123 11.0562 86.7439 10.9348 86.8311 10.7852L87.546 10.7852ZM84.9337 9.62428H86.8343C86.8437 9.50338 86.8265 9.38194 86.7839 9.26776C86.7413 9.15359 86.6743 9.0492 86.5871 8.96132C86.4998 8.87343 86.3944 8.80399 86.2774 8.75745C86.1605 8.71091 86.0347 8.6883 85.9081 8.69108C85.7796 8.68953 85.6522 8.71262 85.5332 8.75897C85.4142 8.80533 85.3061 8.87402 85.2153 8.96099C85.1245 9.04796 85.0528 9.15145 85.0044 9.26537C84.9561 9.37929 84.932 9.50132 84.9337 9.62428H84.9337Z" fill="#8499B1"/>
</svg>
