<svg width="121" height="39" viewBox="0 0 121 39" fill="none" xmlns="http://www.w3.org/2000/svg">
<path d="M111.364 0.00012584H9.64112C9.27033 0.00012584 8.90399 0.00012584 8.53417 0.00206184C8.22461 0.00399784 7.9175 0.00962192 7.60496 0.0143554C6.92598 0.0220044 6.2486 0.0791885 5.57869 0.185411C4.90973 0.293945 4.26172 0.498564 3.65659 0.792347C3.0522 1.08861 2.49995 1.47358 2.01987 1.93329C1.53728 2.3917 1.13499 2.92157 0.828497 3.5025C0.521154 4.08229 0.308041 4.70358 0.19652 5.34492C0.0839377 5.98545 0.0233562 6.63337 0.0153191 7.28286C0.00593553 7.57964 0.00494459 7.87742 0 8.17425V30.5489C0.00494459 30.8494 0.00593553 31.1406 0.0153191 31.4412C0.0233587 32.0907 0.0839401 32.7386 0.19652 33.3791C0.307734 34.0208 0.520859 34.6425 0.828497 35.2225C1.13486 35.8015 1.53719 36.3292 2.01987 36.7851C2.49813 37.2468 3.05073 37.6321 3.65659 37.9261C4.26172 38.2206 4.90966 38.4265 5.57869 38.5367C6.24871 38.6421 6.92603 38.6993 7.60496 38.7078C7.9175 38.7144 8.22461 38.7182 8.53417 38.7182C8.90398 38.7201 9.27035 38.7201 9.64112 38.7201H111.364C111.728 38.7201 112.097 38.7201 112.46 38.7182C112.769 38.7182 113.085 38.7144 113.393 38.7078C114.07 38.6997 114.746 38.6425 115.415 38.5367C116.086 38.4257 116.736 38.2199 117.344 37.9261C117.95 37.6319 118.502 37.2467 118.98 36.7851C119.461 36.3274 119.864 35.8001 120.174 35.2225C120.48 34.642 120.691 34.0204 120.8 33.3791C120.913 32.7385 120.976 32.0908 120.988 31.4412C120.992 31.1406 120.992 30.8494 120.992 30.5489C121 30.1972 121 29.8474 121 29.4901V9.2311C121 8.87661 121 8.52495 120.992 8.17425C120.992 7.87742 120.992 7.57964 120.988 7.28282C120.976 6.63327 120.913 5.9855 120.8 5.34488C120.691 4.70391 120.48 4.08267 120.174 3.50247C119.55 2.33804 118.561 1.3902 117.344 0.79226C116.736 0.499195 116.086 0.294631 115.415 0.185324C114.746 0.0786333 114.07 0.0214294 113.393 0.0142199C113.085 0.00949608 112.769 0.0038236 112.46 0.001936C112.097 0 111.728 0 111.364 0V0.00012584Z" fill="#2C3953"/>
<path d="M8.53916 37.8727C8.23108 37.8727 7.93044 37.8689 7.62478 37.8623C6.99157 37.8544 6.35984 37.8017 5.73477 37.7044C5.15193 37.6083 4.58731 37.4296 4.05954 37.1741C3.5366 36.9207 3.05965 36.5884 2.64694 36.19C2.22826 35.7963 1.87969 35.3397 1.61504 34.8382C1.34747 34.3335 1.1623 33.7925 1.06597 33.234C0.961951 32.634 0.905669 32.0272 0.897616 31.419C0.891205 31.2149 0.882812 30.5351 0.882812 30.5351V8.1738C0.882812 8.1738 0.891751 7.50452 0.897667 7.30789C0.905378 6.70064 0.961332 6.09484 1.06504 5.49572C1.16155 4.93575 1.34686 4.39319 1.61457 3.88681C1.87825 3.38569 2.22488 2.92871 2.64104 2.53359C3.05674 2.13472 3.53522 1.80074 4.05904 1.54384C4.5856 1.28915 5.14915 1.11165 5.73082 1.01731C6.35794 0.919121 6.99186 0.866036 7.62727 0.858499L8.53966 0.84668H112.456L113.379 0.858973C114.008 0.866136 114.637 0.918747 115.258 1.01636C115.846 1.11189 116.415 1.29062 116.948 1.54668C117.997 2.06441 118.851 2.88351 119.389 3.88917C119.653 4.39206 119.835 4.93019 119.931 5.48533C120.036 6.08936 120.094 6.69992 120.106 7.31215C120.109 7.58628 120.109 7.88075 120.109 8.1738C120.117 8.5368 120.117 8.88231 120.117 9.23065V29.4896C120.117 29.8413 120.117 30.1844 120.109 30.5304C120.109 30.8452 120.109 31.1336 120.105 31.4304C120.094 32.0317 120.036 32.6313 119.933 33.2245C119.838 33.787 119.654 34.3322 119.387 34.8411C119.12 35.3371 118.773 35.7898 118.36 36.1825C117.947 36.583 117.469 36.9172 116.945 37.1722C116.413 37.4297 115.845 37.6091 115.258 37.7044C114.633 37.8022 114.001 37.8549 113.368 37.8623C113.072 37.8689 112.762 37.8727 112.46 37.8727L111.364 37.8746L8.53916 37.8727Z" fill="white"/>
<path d="M25.2762 19.2533C25.2876 18.4132 25.5207 17.5894 25.9539 16.8586C26.3872 16.1278 27.0065 15.5139 27.7542 15.0738C27.2792 14.4244 26.6525 13.8899 25.924 13.5129C25.1955 13.1359 24.3852 12.9266 23.5575 12.9018C21.7917 12.7244 20.0799 13.9133 19.1801 13.9133C18.2629 13.9133 16.8776 12.9195 15.3858 12.9488C14.4208 12.9787 13.4804 13.2473 12.6562 13.7285C11.8319 14.2097 11.1519 14.8872 10.6825 15.6948C8.6489 19.0653 10.1658 24.019 12.1138 26.7435C13.0884 28.0776 14.2275 29.5679 15.718 29.515C17.1765 29.4571 17.7212 28.6247 19.4817 28.6247C21.2259 28.6247 21.737 29.515 23.2577 29.4814C24.8227 29.4571 25.8088 28.1414 26.7492 26.7946C27.4495 25.844 27.9884 24.7934 28.3458 23.6817C27.4366 23.3135 26.6607 22.6973 26.1148 21.9098C25.5689 21.1223 25.2773 20.1984 25.2762 19.2533Z" fill="#2C3953"/>
<path d="M22.404 11.1094C23.2573 10.1288 23.6777 8.86831 23.5759 7.5957C22.2722 7.72678 21.068 8.32327 20.2031 9.2663C19.7803 9.72699 19.4564 10.263 19.2501 10.8435C19.0437 11.4241 18.9589 12.038 19.0005 12.6499C19.6526 12.6564 20.2977 12.5211 20.8872 12.2542C21.4768 11.9874 21.9954 11.596 22.404 11.1094Z" fill="#2C3953"/>
<path d="M42.7744 26.2716H37.9882L36.8388 29.5206H34.8115L39.345 17.5H41.4512L45.9847 29.5206H43.9229L42.7744 26.2716ZM38.4839 24.7723H42.2778L40.4075 19.4994H40.3551L38.4839 24.7723Z" fill="#2C3953"/>
<path d="M55.7749 25.1389C55.7749 27.8623 54.2523 29.6121 51.9544 29.6121C51.3723 29.6412 50.7935 29.5129 50.284 29.2417C49.7746 28.9705 49.3553 28.5675 49.074 28.0788H49.0305V32.4197H47.1514V20.7564H48.9703V22.2141H49.0048C49.299 21.7277 49.7255 21.3267 50.2388 21.0539C50.7521 20.7811 51.333 20.6466 51.9198 20.6647C54.2434 20.6647 55.7749 22.423 55.7749 25.1389ZM53.8434 25.1389C53.8434 23.3645 52.8856 22.198 51.4241 22.198C49.9884 22.198 49.0226 23.3891 49.0226 25.1389C49.0226 26.9047 49.9884 28.0873 51.4241 28.0873C52.8856 28.0873 53.8434 26.9293 53.8434 25.1389H53.8434Z" fill="#2C3953"/>
<path d="M65.8516 25.1389C65.8516 27.8623 64.3284 29.6121 62.0306 29.6121C61.4485 29.6412 60.8696 29.5129 60.3602 29.2417C59.8508 28.9705 59.4314 28.5675 59.1502 28.0788H59.1067V32.4197H57.2275V20.7564H59.0464V22.2141H59.081C59.3752 21.7277 59.8017 21.3267 60.3149 21.0539C60.8282 20.7811 61.4092 20.6466 61.996 20.6647C64.3195 20.6647 65.8516 22.423 65.8516 25.1389ZM63.9196 25.1389C63.9196 23.3645 62.9618 22.198 61.5003 22.198C60.0646 22.198 59.0988 23.3891 59.0988 25.1389C59.0988 26.9047 60.0646 28.0873 61.5003 28.0873C62.9618 28.0873 63.9196 26.9293 63.9196 25.1389Z" fill="#2C3953"/>
<path d="M72.5105 26.1706C72.6498 27.3627 73.8594 28.1454 75.5124 28.1454C77.0963 28.1454 78.2359 27.3626 78.2359 26.2878C78.2359 25.3548 77.5486 24.7961 75.9213 24.4133L74.2939 24.038C71.9882 23.5048 70.9178 22.4725 70.9178 20.7974C70.9178 18.7234 72.8058 17.2988 75.4858 17.2988C78.1401 17.2988 79.959 18.7234 80.0202 20.7974H78.1233C78.0097 19.5978 76.9739 18.8737 75.4601 18.8737C73.9463 18.8737 72.9105 19.6063 72.9105 20.6727C72.9105 21.5225 73.5721 22.0226 75.1905 22.4054L76.5739 22.7306C79.1502 23.3138 80.2197 24.3045 80.2197 26.0628C80.2197 28.3117 78.3494 29.7202 75.3732 29.7202C72.5885 29.7202 70.7084 28.3448 70.5869 26.1706L72.5105 26.1706Z" fill="#2C3953"/>
<path d="M84.2768 18.6816V20.7557H86.0177V22.1802H84.2768V27.0117C84.2768 27.7623 84.6253 28.1121 85.3906 28.1121C85.5973 28.1086 85.8036 28.0947 86.0088 28.0705V29.4865C85.6647 29.5481 85.315 29.576 84.965 29.5697C83.1115 29.5697 82.3887 28.9033 82.3887 27.2036V22.1802H81.0576V20.7557H82.3887V18.6816H84.2768Z" fill="#2C3953"/>
<path d="M87.0254 25.1387C87.0254 22.3812 88.7218 20.6484 91.3673 20.6484C94.0216 20.6484 95.7102 22.3812 95.7102 25.1387C95.7102 27.9037 94.0305 29.6289 91.3673 29.6289C88.7051 29.6289 87.0254 27.9037 87.0254 25.1387ZM93.7954 25.1387C93.7954 23.2471 92.8899 22.1307 91.3673 22.1307C89.8446 22.1307 88.9391 23.2556 88.9391 25.1387C88.9391 27.0378 89.8446 28.1457 91.3673 28.1457C92.8899 28.1457 93.7954 27.0378 93.7954 25.1387H93.7954Z" fill="#2C3953"/>
<path d="M97.2598 20.7563H99.052V22.248H99.0955C99.2168 21.7821 99.5019 21.3704 99.9029 21.082C100.304 20.7937 100.796 20.6463 101.298 20.6646C101.514 20.6639 101.73 20.6864 101.941 20.7317V22.4144C101.668 22.3344 101.383 22.2977 101.097 22.3057C100.824 22.2951 100.552 22.3412 100.299 22.4408C100.047 22.5403 99.8195 22.6911 99.6335 22.8827C99.4475 23.0742 99.3069 23.302 99.2216 23.5505C99.1362 23.799 99.108 24.0622 99.1389 24.322V29.5203H97.2598L97.2598 20.7563Z" fill="#2C3953"/>
<path d="M110.605 26.9461C110.352 28.5371 108.734 29.6289 106.663 29.6289C104 29.6289 102.347 27.9207 102.347 25.1803C102.347 22.4313 104.009 20.6484 106.584 20.6484C109.117 20.6484 110.71 22.3141 110.71 24.9713V25.5877H104.244V25.6964C104.214 26.0189 104.256 26.3439 104.367 26.6496C104.479 26.9553 104.657 27.2349 104.89 27.4697C105.123 27.7044 105.405 27.8891 105.718 28.0114C106.032 28.1336 106.368 28.1907 106.706 28.1788C107.15 28.2186 107.596 28.1202 107.977 27.8981C108.358 27.676 108.654 27.3421 108.821 26.9461L110.605 26.9461ZM104.252 24.3304H108.829C108.846 24.0404 108.8 23.7502 108.694 23.478C108.589 23.2058 108.425 22.9575 108.214 22.7486C108.003 22.5397 107.75 22.3748 107.469 22.2643C107.189 22.1537 106.887 22.0999 106.584 22.1061C106.278 22.1044 105.975 22.1606 105.691 22.2717C105.408 22.3828 105.151 22.5464 104.934 22.7532C104.717 22.96 104.545 23.2059 104.429 23.4766C104.312 23.7473 104.252 24.0375 104.252 24.3304V24.3304Z" fill="#2C3953"/>
<path d="M38.2487 8.45187C38.6426 8.4248 39.038 8.48178 39.4061 8.61869C39.7743 8.75559 40.1062 8.96902 40.3777 9.24357C40.6493 9.51812 40.8539 9.84694 40.9766 10.2063C41.0994 10.5657 41.1373 10.9467 41.0876 11.3218C41.0876 13.1671 40.0459 14.2278 38.2487 14.2278H36.0693V8.45187H38.2487ZM37.0064 13.4109H38.144C38.4255 13.427 38.7072 13.3829 38.9686 13.2816C39.2301 13.1803 39.4646 13.0245 39.6552 12.8255C39.8458 12.6265 39.9877 12.3894 40.0704 12.1313C40.1532 11.8732 40.1748 11.6007 40.1337 11.3336C40.1719 11.0676 40.148 10.7967 40.064 10.5406C39.98 10.2844 39.8378 10.0491 39.6476 9.85172C39.4574 9.65432 39.224 9.49963 38.9641 9.39872C38.7041 9.29782 38.4241 9.25321 38.144 9.26809H37.0064V13.4109Z" fill="#2C3953"/>
<path d="M42.1459 12.0458C42.1173 11.7593 42.1515 11.4703 42.2464 11.1973C42.3413 10.9242 42.4947 10.6732 42.6969 10.4603C42.8991 10.2473 43.1455 10.0772 43.4204 9.96075C43.6953 9.84432 43.9926 9.78418 44.2931 9.78418C44.5937 9.78418 44.891 9.84432 45.1659 9.96075C45.4408 10.0772 45.6872 10.2473 45.8894 10.4603C46.0916 10.6732 46.245 10.9242 46.3399 11.1973C46.4348 11.4703 46.469 11.7593 46.4404 12.0458C46.4696 12.3325 46.4357 12.622 46.3411 12.8954C46.2465 13.1689 46.0931 13.4204 45.8909 13.6338C45.6886 13.8471 45.442 14.0176 45.1669 14.1343C44.8917 14.251 44.5941 14.3113 44.2931 14.3113C43.9922 14.3113 43.6946 14.251 43.4194 14.1343C43.1443 14.0176 42.8976 13.8471 42.6954 13.6338C42.4932 13.4204 42.3398 13.1689 42.2452 12.8954C42.1506 12.622 42.1167 12.3325 42.1459 12.0458ZM45.5161 12.0458C45.5161 11.101 45.0727 10.5484 44.2946 10.5484C43.5135 10.5484 43.0741 11.101 43.0741 12.0458C43.0741 12.9982 43.5136 13.5465 44.2946 13.5465C45.0728 13.5465 45.5161 12.9944 45.5161 12.0458H45.5161Z" fill="#2C3953"/>
<path d="M52.1496 14.227H51.2174L50.2764 11.0167H50.2053L49.2682 14.227H48.3449L47.0898 9.86816H48.0013L48.8169 13.1942H48.8841L49.8202 9.86816H50.6822L51.6184 13.1942H51.6895L52.5011 9.86816H53.3997L52.1496 14.227Z" fill="#2C3953"/>
<path d="M54.4551 9.8687H55.3201V10.5611H55.3872C55.5012 10.3124 55.6933 10.104 55.9368 9.96476C56.1804 9.82555 56.4633 9.76256 56.746 9.78456C56.9675 9.76862 57.19 9.8006 57.3969 9.87813C57.6038 9.95566 57.7898 10.0768 57.9411 10.2325C58.0925 10.3882 58.2053 10.5745 58.2712 10.7776C58.3372 10.9807 58.3545 11.1954 58.322 11.4058V14.2275H57.4234V11.6218C57.4234 10.9213 57.1054 10.573 56.4409 10.573C56.2905 10.5663 56.1403 10.5908 56.0007 10.6448C55.8611 10.6989 55.7354 10.7812 55.6321 10.8861C55.5288 10.991 55.4505 11.116 55.4024 11.2526C55.3544 11.3893 55.3377 11.5342 55.3537 11.6776V14.2275H54.4551L54.4551 9.8687Z" fill="#2C3953"/>
<path d="M59.7539 8.16699H60.6525V14.2274H59.7539V8.16699Z" fill="#2C3953"/>
<path d="M61.9017 12.0459C61.8731 11.7594 61.9074 11.4704 62.0023 11.1973C62.0972 10.9243 62.2507 10.6732 62.4529 10.4603C62.6551 10.2473 62.9015 10.0772 63.1764 9.96075C63.4513 9.84432 63.7486 9.78418 64.0492 9.78418C64.3498 9.78418 64.6471 9.84432 64.922 9.96075C65.1969 10.0772 65.4434 10.2473 65.6456 10.4603C65.8478 10.6732 66.0012 10.9243 66.0962 11.1973C66.1911 11.4704 66.2253 11.7594 66.1967 12.0459C66.2258 12.3326 66.192 12.622 66.0973 12.8955C66.0027 13.169 65.8493 13.4205 65.647 13.6339C65.4448 13.8472 65.1981 14.0177 64.923 14.1344C64.6478 14.2511 64.3502 14.3113 64.0492 14.3113C63.7483 14.3113 63.4506 14.2511 63.1755 14.1344C62.9003 14.0177 62.6537 13.8472 62.4514 13.6339C62.2492 13.4205 62.0958 13.169 62.0011 12.8955C61.9065 12.622 61.8726 12.3326 61.9017 12.0459ZM65.2719 12.0459C65.2719 11.101 64.8286 10.5485 64.0505 10.5485C63.2694 10.5485 62.83 11.101 62.83 12.0459C62.83 12.9983 63.2694 13.5466 64.0505 13.5466C64.8286 13.5466 65.272 12.9945 65.272 12.0459H65.2719Z" fill="#2C3953"/>
<path d="M67.1426 12.9945C67.1426 12.2098 67.7528 11.7575 68.8361 11.6932L70.0694 11.6252V11.2489C70.0694 10.7886 69.7515 10.5286 69.1373 10.5286C68.6356 10.5286 68.288 10.7049 68.1883 11.0131H67.3183C67.4102 10.2644 68.1458 9.78418 69.1787 9.78418C70.3202 9.78418 70.9641 10.3282 70.9641 11.2489V14.2271H70.099V13.6146H70.0279C69.8836 13.8343 69.681 14.0134 69.4407 14.1337C69.2004 14.2539 68.9311 14.3109 68.6603 14.299C68.4692 14.318 68.276 14.2985 68.0932 14.2417C67.9104 14.1848 67.7421 14.092 67.5991 13.9691C67.4561 13.8462 67.3416 13.6959 67.263 13.5281C67.1843 13.3602 67.1433 13.1784 67.1426 12.9945ZM70.0694 12.622V12.2576L68.9575 12.3256C68.3305 12.3658 68.0461 12.57 68.0461 12.9543C68.0461 13.3466 68.4016 13.5749 68.8904 13.5749C69.0336 13.5887 69.1783 13.5749 69.3158 13.5342C69.4534 13.4934 69.5809 13.4266 69.6909 13.3377C69.8009 13.2488 69.8911 13.1396 69.9561 13.0167C70.0212 12.8937 70.0597 12.7595 70.0694 12.622Z" fill="#2C3953"/>
<path d="M72.1445 12.0461C72.1445 10.6688 72.8841 9.79625 74.0345 9.79625C74.3191 9.7837 74.6015 9.84895 74.8488 9.98436C75.096 10.1198 75.2979 10.3198 75.4308 10.561H75.498V8.16699H76.3966V14.2274H75.5355V13.5387H75.4644C75.3212 13.7783 75.1123 13.9758 74.8603 14.1099C74.6082 14.2439 74.3227 14.3094 74.0345 14.2992C72.8762 14.2993 72.1445 13.4267 72.1445 12.0461ZM73.0728 12.0461C73.0728 12.9706 73.528 13.5269 74.2893 13.5269C75.0467 13.5269 75.5148 12.9626 75.5148 12.0499C75.5148 11.1414 75.0418 10.569 74.2893 10.569C73.5329 10.569 73.0727 11.1291 73.0727 12.0461H73.0728Z" fill="#2C3953"/>
<path d="M80.1146 12.0458C80.086 11.7593 80.1203 11.4703 80.2151 11.1973C80.31 10.9242 80.4635 10.6732 80.6657 10.4603C80.8678 10.2473 81.1143 10.0772 81.3891 9.96075C81.664 9.84432 81.9613 9.78418 82.2619 9.78418C82.5625 9.78418 82.8597 9.84432 83.1346 9.96075C83.4095 10.0772 83.6559 10.2473 83.8581 10.4603C84.0603 10.6732 84.2137 10.9242 84.3086 11.1973C84.4035 11.4703 84.4377 11.7593 84.4091 12.0458C84.4383 12.3325 84.4045 12.622 84.3098 12.8954C84.2152 13.1689 84.0618 13.4204 83.8596 13.6338C83.6574 13.8471 83.4108 14.0176 83.1356 14.1343C82.8604 14.251 82.5628 14.3113 82.2619 14.3113C81.9609 14.3113 81.6633 14.251 81.3882 14.1343C81.113 14.0176 80.8664 13.8471 80.6642 13.6338C80.4619 13.4204 80.3086 13.1689 80.2139 12.8954C80.1193 12.622 80.0855 12.3325 80.1146 12.0458ZM83.4849 12.0458C83.4849 11.101 83.0415 10.5484 82.2634 10.5484C81.4823 10.5484 81.0429 11.101 81.0429 12.0458C81.0429 12.9982 81.4823 13.5465 82.2634 13.5465C83.0415 13.5465 83.4849 12.9944 83.4849 12.0458Z" fill="#2C3953"/>
<path d="M85.6152 9.8687H86.4803V10.5611H86.5474C86.6613 10.3124 86.8534 10.104 87.097 9.96476C87.3406 9.82555 87.6234 9.76256 87.9062 9.78456C88.1277 9.76862 88.3502 9.8006 88.557 9.87813C88.7639 9.95566 88.9499 10.0768 89.1013 10.2325C89.2527 10.3882 89.3655 10.5745 89.4314 10.7776C89.4973 10.9807 89.5147 11.1954 89.4822 11.4058V14.2275H88.5836V11.6218C88.5836 10.9213 88.2656 10.573 87.601 10.573C87.4506 10.5663 87.3005 10.5908 87.1609 10.6448C87.0213 10.6989 86.8955 10.7812 86.7923 10.8861C86.689 10.991 86.6106 11.116 86.5626 11.2526C86.5145 11.3893 86.4979 11.5342 86.5138 11.6776V14.2275H85.6152V9.8687Z" fill="#2C3953"/>
<path d="M94.5589 8.7832V9.88827H95.5454V10.6129H94.5589V12.8542C94.5589 13.3108 94.7554 13.5107 95.2028 13.5107C95.3173 13.5104 95.4317 13.5037 95.5454 13.4909V14.2074C95.3841 14.235 95.2205 14.2497 95.0566 14.2514C94.0573 14.2514 93.6594 13.9148 93.6594 13.0744V10.6128H92.9365V9.88823H93.6594V8.7832H94.5589Z" fill="#2C3953"/>
<path d="M96.7734 8.16699H97.6641V10.569H97.7352C97.8547 10.318 98.0521 10.1084 98.3005 9.96863C98.549 9.8289 98.8363 9.7659 99.1235 9.78821C99.3439 9.77673 99.5643 9.81195 99.7688 9.89137C99.9733 9.97079 100.157 10.0924 100.307 10.2476C100.457 10.4029 100.569 10.5878 100.635 10.7893C100.702 10.9907 100.721 11.2038 100.692 11.4132V14.2274H99.7922V11.6254C99.7922 10.9292 99.4534 10.5766 98.8185 10.5766C98.6641 10.5645 98.5087 10.5848 98.3633 10.6361C98.218 10.6875 98.0861 10.7686 97.9769 10.8739C97.8677 10.9792 97.7838 11.106 97.7312 11.2455C97.6785 11.385 97.6583 11.5339 97.6721 11.6817V14.2274H96.7735L96.7734 8.16699Z" fill="#2C3953"/>
<path d="M105.931 13.0503C105.809 13.4487 105.544 13.7933 105.183 14.0238C104.823 14.2543 104.389 14.3561 103.958 14.3113C103.658 14.3189 103.36 14.2639 103.084 14.1502C102.808 14.0364 102.562 13.8666 102.362 13.6525C102.162 13.4385 102.013 13.1853 101.925 12.9105C101.838 12.6358 101.813 12.3461 101.854 12.0615C101.814 11.7761 101.839 11.4857 101.926 11.2102C102.014 10.9346 102.162 10.6802 102.361 10.4643C102.56 10.2484 102.806 10.0759 103.08 9.95857C103.355 9.84125 103.653 9.7818 103.954 9.78425C105.221 9.78425 105.985 10.6129 105.985 11.9816V12.2818H102.77V12.33C102.756 12.4899 102.777 12.651 102.831 12.8027C102.886 12.9544 102.973 13.0935 103.088 13.2111C103.202 13.3287 103.34 13.4221 103.494 13.4854C103.648 13.5487 103.815 13.5805 103.982 13.5787C104.197 13.6034 104.415 13.5664 104.608 13.4723C104.801 13.3782 104.96 13.2313 105.066 13.0503L105.931 13.0503ZM102.77 11.6456H105.07C105.081 11.4993 105.06 11.3523 105.009 11.2142C104.957 11.076 104.876 10.9497 104.77 10.8434C104.665 10.737 104.537 10.653 104.396 10.5967C104.254 10.5404 104.102 10.513 103.949 10.5164C103.793 10.5145 103.639 10.5425 103.495 10.5986C103.351 10.6546 103.22 10.7378 103.111 10.843C103.001 10.9482 102.914 11.0735 102.855 11.2113C102.797 11.3491 102.768 11.4968 102.77 11.6456H102.77Z" fill="#2C3953"/>
</svg>
