<svg width="120" height="40" viewBox="0 0 120 40" fill="none" xmlns="http://www.w3.org/2000/svg">
<path d="M8.46856 39.1251C8.16303 39.1251 7.86487 39.1212 7.56174 39.1144C6.93376 39.1063 6.30725 39.0517 5.68735 38.9513C5.10932 38.852 4.54937 38.6674 4.02596 38.4034C3.50735 38.1416 3.03433 37.7984 2.62504 37.3868C2.20981 36.9801 1.86412 36.5084 1.60166 35.9903C1.33631 35.4689 1.15267 34.91 1.05714 34.3331C0.953972 33.7132 0.898156 33.0864 0.890169 32.4581C0.883812 32.2472 0.875488 31.545 0.875488 31.545V8.44446C0.875488 8.44446 0.884353 7.75305 0.89022 7.54992C0.897867 6.9226 0.953358 6.29678 1.05621 5.67785C1.15192 5.09937 1.3357 4.53887 1.6012 4.01575C1.8627 3.49807 2.20647 3.02598 2.61919 2.6178C3.03145 2.20574 3.50597 1.86073 4.02547 1.59533C4.54767 1.33222 5.10657 1.14885 5.68343 1.05139C6.30537 0.949958 6.93405 0.895118 7.5642 0.887332L8.46906 0.875122H111.526L112.442 0.887822C113.066 0.895221 113.689 0.949572 114.305 1.05041C114.888 1.1491 115.453 1.33374 115.981 1.59826C117.022 2.13311 117.869 2.97929 118.403 4.01819C118.664 4.5377 118.845 5.09363 118.939 5.66711C119.044 6.29111 119.102 6.92186 119.114 7.55432C119.117 7.83752 119.117 8.14172 119.117 8.44446C119.125 8.81946 119.125 9.17639 119.125 9.53625V30.4649C119.125 30.8282 119.125 31.1827 119.117 31.5401C119.117 31.8653 119.117 32.1632 119.113 32.4698C119.101 33.091 119.044 33.7105 118.941 34.3233C118.848 34.9044 118.665 35.4676 118.4 35.9933C118.136 36.5057 117.792 36.9734 117.381 37.379C116.972 37.7928 116.498 38.1381 115.978 38.4015C115.451 38.6675 114.887 38.8529 114.305 38.9513C113.686 39.0523 113.059 39.1068 112.431 39.1144C112.137 39.1212 111.83 39.1251 111.531 39.1251L110.444 39.1271L8.46856 39.1251Z" fill="white"/>
<path d="M25.0669 19.8894C25.0781 19.0215 25.3093 18.1705 25.739 17.4155C26.1686 16.6606 26.7828 16.0264 27.5244 15.5717C27.0533 14.9008 26.4318 14.3487 25.7093 13.9592C24.9868 13.5697 24.1832 13.3536 23.3623 13.328C21.6112 13.1447 19.9135 14.3729 19.0212 14.3729C18.1116 14.3729 16.7376 13.3462 15.2582 13.3765C14.3012 13.4074 13.3686 13.6849 12.5511 14.182C11.7337 14.6791 11.0593 15.3789 10.5937 16.2132C8.57698 19.6952 10.0813 24.8126 12.0132 27.6272C12.9798 29.0055 14.1095 30.545 15.5876 30.4904C17.0341 30.4305 17.5743 29.5706 19.3203 29.5706C21.05 29.5706 21.5569 30.4904 23.065 30.4557C24.6171 30.4305 25.595 29.0713 26.5277 27.68C27.2222 26.698 27.7566 25.6126 28.1111 24.4641C27.2094 24.0838 26.4399 23.4472 25.8985 22.6337C25.3572 21.8202 25.068 20.8658 25.0669 19.8894Z" fill="black"/>
<path d="M22.2183 11.4769C23.0646 10.4639 23.4815 9.16172 23.3806 7.84705C22.0876 7.98246 20.8934 8.59866 20.0356 9.57287C19.6163 10.0488 19.2951 10.6025 19.0905 11.2023C18.8858 11.802 18.8017 12.4362 18.843 13.0684C19.4897 13.075 20.1294 12.9352 20.7141 12.6596C21.2988 12.3839 21.8131 11.9795 22.2183 11.4769V11.4769Z" fill="black"/>
<path d="M42.4205 27.1398H37.6739L36.5339 30.4962H34.5234L39.0194 18.0782H41.1083L45.6043 30.4962H43.5595L42.4205 27.1398ZM38.1655 25.591H41.928L40.0732 20.1437H40.0212L38.1655 25.591Z" fill="black"/>
<path d="M55.3141 25.9699C55.3141 28.7834 53.804 30.591 51.5251 30.591C50.9479 30.6211 50.3738 30.4885 49.8686 30.2084C49.3633 29.9283 48.9475 29.5119 48.6685 29.007H48.6254V33.4914H46.7618V21.4426H48.5657V22.9485H48.5999C48.8917 22.446 49.3146 22.0318 49.8237 21.7499C50.3327 21.4681 50.9089 21.3291 51.4908 21.3479C53.7952 21.3479 55.3141 23.1643 55.3141 25.9699ZM53.3985 25.9699C53.3985 24.1369 52.4486 22.9319 50.9993 22.9319C49.5753 22.9319 48.6176 24.1623 48.6176 25.9699C48.6176 27.7942 49.5753 29.0158 50.9993 29.0158C52.4486 29.0158 53.3985 27.8196 53.3985 25.9699H53.3985Z" fill="black"/>
<path d="M65.3074 25.9699C65.3074 28.7834 63.7968 30.591 61.5179 30.591C60.9407 30.6211 60.3666 30.4885 59.8614 30.2084C59.3561 29.9283 58.9403 29.5119 58.6613 29.007H58.6182V33.4914H56.7546V21.4426H58.5585V22.9485H58.5927C58.8845 22.446 59.3074 22.0318 59.8165 21.7499C60.3255 21.4681 60.9017 21.3291 61.4836 21.3479C63.788 21.3479 65.3074 23.1643 65.3074 25.9699ZM63.3914 25.9699C63.3914 24.1369 62.4414 22.9319 60.9921 22.9319C59.5681 22.9319 58.6104 24.1623 58.6104 25.9699C58.6104 27.7942 59.5681 29.0158 60.9921 29.0158C62.4414 29.0158 63.3914 27.8196 63.3914 25.9699V25.9699Z" fill="black"/>
<path d="M71.9108 27.0363C72.0489 28.2678 73.2485 29.0763 74.8879 29.0763C76.4587 29.0763 77.5888 28.2677 77.5888 27.1574C77.5888 26.1935 76.9072 25.6164 75.2933 25.2208L73.6794 24.8331C71.3927 24.2824 70.3312 23.2159 70.3312 21.4855C70.3312 19.3429 72.2036 17.8712 74.8614 17.8712C77.4938 17.8712 79.2977 19.3429 79.3584 21.4855H77.4771C77.3645 20.2462 76.3372 19.4982 74.836 19.4982C73.3347 19.4982 72.3074 20.255 72.3074 21.3566C72.3074 22.2345 72.9635 22.7511 74.5686 23.1466L75.9406 23.4825C78.4956 24.0851 79.5562 25.1085 79.5562 26.9249C79.5562 29.2481 77.7014 30.7032 74.7497 30.7032C71.9881 30.7032 70.1235 29.2823 70.0031 27.0362L71.9108 27.0363Z" fill="black"/>
<path d="M83.5802 19.2999V21.4425H85.3067V22.9142H83.5802V27.9054C83.5802 28.6808 83.9259 29.0421 84.6849 29.0421C84.8898 29.0386 85.0945 29.0242 85.2979 28.9991V30.462C84.9567 30.5256 84.6099 30.5544 84.2628 30.5479C82.4246 30.5479 81.7078 29.8595 81.7078 28.1036V22.9142H80.3877V21.4425H81.7078V19.2999H83.5802Z" fill="black"/>
<path d="M86.3056 25.9698C86.3056 23.1212 87.988 21.3312 90.6116 21.3312C93.244 21.3312 94.9186 23.1212 94.9186 25.9698C94.9186 28.8263 93.2528 30.6085 90.6116 30.6085C87.9714 30.6085 86.3056 28.8263 86.3056 25.9698ZM93.0197 25.9698C93.0197 24.0157 92.1217 22.8624 90.6116 22.8624C89.1015 22.8624 88.2035 24.0245 88.2035 25.9698C88.2035 27.9318 89.1015 29.0763 90.6116 29.0763C92.1217 29.0763 93.0197 27.9318 93.0197 25.9698H93.0197Z" fill="black"/>
<path d="M96.4551 21.4425H98.2325V22.9835H98.2757C98.3959 22.5022 98.6786 22.0769 99.0763 21.779C99.474 21.4811 99.9625 21.3288 100.459 21.3478C100.674 21.347 100.888 21.3703 101.098 21.4171V23.1554C100.827 23.0728 100.544 23.0348 100.261 23.0431C99.9899 23.0321 99.72 23.0797 99.4695 23.1826C99.2189 23.2855 98.9937 23.4412 98.8092 23.6391C98.6247 23.837 98.4853 24.0724 98.4007 24.3291C98.316 24.5857 98.288 24.8576 98.3187 25.1261V30.4962H96.4551L96.4551 21.4425Z" fill="black"/>
<path d="M109.69 27.837C109.44 29.4806 107.835 30.6085 105.781 30.6085C103.14 30.6085 101.5 28.8439 101.5 26.0128C101.5 23.173 103.149 21.3312 105.703 21.3312C108.215 21.3312 109.794 23.0519 109.794 25.797V26.4337H103.382V26.546C103.352 26.8792 103.394 27.2149 103.504 27.5307C103.615 27.8466 103.792 28.1353 104.023 28.3779C104.254 28.6204 104.534 28.8112 104.844 28.9375C105.155 29.0638 105.489 29.1228 105.824 29.1105C106.265 29.1516 106.706 29.0499 107.084 28.8205C107.462 28.591 107.755 28.2461 107.921 27.837L109.69 27.837ZM103.391 25.1349H107.93C107.946 24.8353 107.901 24.5355 107.796 24.2543C107.691 23.9731 107.529 23.7165 107.32 23.5008C107.111 23.285 106.859 23.1147 106.581 23.0004C106.302 22.8862 106.004 22.8306 105.703 22.837C105.399 22.8352 105.098 22.8934 104.818 23.0081C104.537 23.1229 104.281 23.2919 104.066 23.5056C103.852 23.7192 103.681 23.9732 103.565 24.2528C103.449 24.5325 103.39 24.8323 103.391 25.1349V25.1349Z" fill="black"/>
<path d="M37.9324 8.73114C38.3231 8.70318 38.7152 8.76204 39.0803 8.90347C39.4455 9.0449 39.7746 9.26538 40.0439 9.54901C40.3133 9.83263 40.5161 10.1723 40.6379 10.5436C40.7596 10.9149 40.7972 11.3085 40.7479 11.696C40.7479 13.6022 39.7148 14.698 37.9324 14.698H35.7711V8.73114H37.9324ZM36.7005 13.8541H37.8286C38.1078 13.8708 38.3872 13.8251 38.6465 13.7205C38.9057 13.6159 39.1383 13.455 39.3274 13.2494C39.5164 13.0438 39.6571 12.7988 39.7392 12.5322C39.8213 12.2656 39.8427 11.9841 39.8019 11.7081C39.8397 11.4333 39.8161 11.1535 39.7328 10.8889C39.6494 10.6242 39.5084 10.3812 39.3198 10.1773C39.1312 9.97334 38.8997 9.81353 38.6419 9.70929C38.3841 9.60506 38.1064 9.55897 37.8286 9.57435H36.7005V13.8541Z" fill="black"/>
<path d="M41.7977 12.4445C41.7693 12.1486 41.8033 11.85 41.8974 11.568C41.9915 11.2859 42.1437 11.0266 42.3442 10.8066C42.5447 10.5866 42.7891 10.4108 43.0617 10.2906C43.3343 10.1703 43.6291 10.1082 43.9272 10.1082C44.2253 10.1082 44.5201 10.1703 44.7928 10.2906C45.0654 10.4108 45.3098 10.5866 45.5103 10.8066C45.7108 11.0266 45.863 11.2859 45.9571 11.568C46.0512 11.85 46.0851 12.1486 46.0567 12.4445C46.0857 12.7408 46.0521 13.0397 45.9583 13.3223C45.8644 13.6048 45.7123 13.8646 45.5118 14.085C45.3112 14.3054 45.0666 14.4816 44.7937 14.6021C44.5208 14.7226 44.2257 14.7849 43.9272 14.7849C43.6288 14.7849 43.3336 14.7226 43.0607 14.6021C42.7878 14.4816 42.5433 14.3054 42.3427 14.085C42.1421 13.8646 41.9901 13.6048 41.8962 13.3223C41.8023 13.0397 41.7688 12.7408 41.7977 12.4445V12.4445ZM45.1401 12.4445C45.1401 11.4685 44.7004 10.8977 43.9287 10.8977C43.1541 10.8977 42.7183 11.4685 42.7183 12.4445C42.7183 13.4284 43.1541 13.9948 43.9287 13.9948C44.7004 13.9948 45.1401 13.4245 45.1401 12.4445H45.1401Z" fill="black"/>
<path d="M51.7181 14.6979H50.7936L49.8604 11.3815H49.7898L48.8605 14.6979H47.9448L46.7001 10.1949H47.604L48.4129 13.6309H48.4795L49.4079 10.1949H50.2628L51.1912 13.6309H51.2617L52.0667 10.1949H52.9579L51.7181 14.6979Z" fill="black"/>
<path d="M54.0048 10.195H54.8626V10.9103H54.9292C55.0422 10.6534 55.2327 10.438 55.4743 10.2942C55.7158 10.1504 55.9964 10.0853 56.2767 10.1081C56.4965 10.0916 56.7171 10.1246 56.9223 10.2047C57.1274 10.2848 57.3119 10.4099 57.462 10.5708C57.6121 10.7316 57.724 10.9241 57.7894 11.1339C57.8548 11.3437 57.872 11.5655 57.8397 11.7829V14.6979H56.9486V12.006C56.9486 11.2824 56.6332 10.9225 55.9741 10.9225C55.825 10.9156 55.6761 10.9409 55.5376 10.9968C55.3992 11.0526 55.2745 11.1376 55.1721 11.246C55.0696 11.3544 54.9919 11.4836 54.9443 11.6247C54.8966 11.7658 54.8801 11.9156 54.8959 12.0636V14.6979H54.0048L54.0048 10.195Z" fill="black"/>
<path d="M59.2597 8.43713H60.1509V14.6979H59.2597V8.43713Z" fill="black"/>
<path d="M61.3897 12.4445C61.3613 12.1486 61.3953 11.85 61.4894 11.5679C61.5835 11.2858 61.7357 11.0265 61.9363 10.8065C62.1368 10.5865 62.3812 10.4107 62.6538 10.2904C62.9265 10.1702 63.2213 10.108 63.5194 10.108C63.8176 10.108 64.1124 10.1702 64.385 10.2904C64.6576 10.4107 64.9021 10.5865 65.1026 10.8065C65.3031 11.0265 65.4553 11.2858 65.5494 11.5679C65.6436 11.85 65.6775 12.1486 65.6492 12.4445C65.6781 12.7407 65.6445 13.0397 65.5506 13.3222C65.4567 13.6048 65.3046 13.8646 65.104 14.085C64.9034 14.3054 64.6589 14.4815 64.386 14.602C64.1131 14.7226 63.8179 14.7848 63.5194 14.7848C63.221 14.7848 62.9258 14.7226 62.6529 14.602C62.38 14.4815 62.1354 14.3054 61.9348 14.085C61.7343 13.8646 61.5821 13.6048 61.4883 13.3222C61.3944 13.0397 61.3608 12.7407 61.3897 12.4445V12.4445ZM64.732 12.4445C64.732 11.4684 64.2923 10.8976 63.5207 10.8976C62.746 10.8976 62.3103 11.4684 62.3103 12.4445C62.3103 13.4284 62.7461 13.9948 63.5207 13.9948C64.2923 13.9948 64.732 13.4245 64.732 12.4445H64.732Z" fill="black"/>
<path d="M66.5873 13.4244C66.5873 12.6139 67.1926 12.1466 68.2668 12.0802L69.49 12.0099V11.6212C69.49 11.1456 69.1747 10.8771 68.5655 10.8771C68.0681 10.8771 67.7233 11.0592 67.6244 11.3776H66.7617C66.8527 10.6041 67.5823 10.108 68.6067 10.108C69.7387 10.108 70.3773 10.67 70.3773 11.6212V14.6979H69.5194V14.0651H69.4489C69.3058 14.2921 69.1048 14.4771 68.8665 14.6013C68.6282 14.7255 68.3611 14.7844 68.0925 14.7721C67.903 14.7917 67.7114 14.7716 67.5301 14.7129C67.3488 14.6542 67.1819 14.5582 67.0401 14.4313C66.8983 14.3043 66.7847 14.1491 66.7067 13.9757C66.6288 13.8023 66.5881 13.6145 66.5873 13.4244V13.4244ZM69.49 13.0397V12.6632L68.3873 12.7335C67.7654 12.775 67.4834 12.986 67.4834 13.3829C67.4834 13.7882 67.8359 14.024 68.3207 14.024C68.4628 14.0384 68.6063 14.0241 68.7427 13.982C68.879 13.9399 69.0055 13.8709 69.1146 13.779C69.2237 13.6872 69.3132 13.5744 69.3777 13.4474C69.4421 13.3204 69.4804 13.1817 69.49 13.0397V13.0397Z" fill="black"/>
<path d="M71.5485 12.4445C71.5485 11.0216 72.282 10.1203 73.4229 10.1203C73.7051 10.1073 73.9852 10.1747 74.2304 10.3146C74.4756 10.4545 74.6758 10.6611 74.8076 10.9103H74.8742V8.43713H75.7654V14.6979H74.9115V13.9864H74.8409C74.6989 14.2339 74.4918 14.438 74.2418 14.5765C73.9918 14.7149 73.7087 14.7826 73.4229 14.7721C72.2742 14.7721 71.5485 13.8707 71.5485 12.4445ZM72.4691 12.4445C72.4691 13.3996 72.9206 13.9743 73.6756 13.9743C74.4267 13.9743 74.8909 13.3913 74.8909 12.4484C74.8909 11.5099 74.4218 10.9186 73.6756 10.9186C72.9254 10.9186 72.4691 11.4972 72.4691 12.4445H72.4691Z" fill="black"/>
<path d="M79.4525 12.4445C79.4241 12.1486 79.458 11.85 79.5521 11.568C79.6462 11.2859 79.7984 11.0266 79.9989 10.8066C80.1994 10.5866 80.4438 10.4108 80.7164 10.2906C80.989 10.1703 81.2838 10.1082 81.582 10.1082C81.8801 10.1082 82.1749 10.1703 82.4475 10.2906C82.7201 10.4108 82.9645 10.5866 83.165 10.8066C83.3655 11.0266 83.5177 11.2859 83.6118 11.568C83.7059 11.85 83.7398 12.1486 83.7114 12.4445C83.7404 12.7408 83.7068 13.0397 83.613 13.3223C83.5191 13.6048 83.367 13.8646 83.1665 14.085C82.9659 14.3054 82.7213 14.4816 82.4485 14.6021C82.1756 14.7226 81.8804 14.7849 81.582 14.7849C81.2835 14.7849 80.9883 14.7226 80.7154 14.6021C80.4426 14.4816 80.198 14.3054 79.9974 14.085C79.7969 13.8646 79.6448 13.6048 79.5509 13.3223C79.4571 13.0397 79.4235 12.7408 79.4525 12.4445V12.4445ZM82.7948 12.4445C82.7948 11.4685 82.3551 10.8977 81.5834 10.8977C80.8088 10.8977 80.373 11.4685 80.373 12.4445C80.373 13.4284 80.8088 13.9948 81.5834 13.9948C82.3551 13.9948 82.7948 13.4245 82.7948 12.4445Z" fill="black"/>
<path d="M84.9072 10.195H85.765V10.9103H85.8316C85.9446 10.6534 86.1351 10.438 86.3767 10.2942C86.6182 10.1504 86.8988 10.0853 87.1792 10.1081C87.3989 10.0916 87.6195 10.1246 87.8247 10.2047C88.0298 10.2848 88.2143 10.4099 88.3644 10.5708C88.5145 10.7316 88.6264 10.9241 88.6918 11.1339C88.7572 11.3437 88.7744 11.5655 88.7421 11.7829V14.6979H87.851V12.006C87.851 11.2824 87.5356 10.9225 86.8766 10.9225C86.7274 10.9156 86.5785 10.9409 86.44 10.9968C86.3016 11.0526 86.1769 11.1376 86.0745 11.246C85.972 11.3544 85.8943 11.4836 85.8467 11.6247C85.799 11.7658 85.7825 11.9156 85.7983 12.0636V14.6979H84.9072V10.195Z" fill="black"/>
<path d="M93.7778 9.07385V10.2155H94.7561V10.964H93.7778V13.2794C93.7778 13.7511 93.9726 13.9576 94.4163 13.9576C94.5298 13.9573 94.6433 13.9504 94.7561 13.9371V14.6774C94.5961 14.7059 94.4339 14.7211 94.2713 14.7228C93.2803 14.7228 92.8856 14.3751 92.8856 13.507V10.964H92.1688V10.2154H92.8856V9.07385H93.7778Z" fill="black"/>
<path d="M95.9733 8.43713H96.8567V10.9186H96.9272C97.0456 10.6593 97.2414 10.4427 97.4878 10.2983C97.7342 10.154 98.0192 10.0889 98.304 10.1119C98.5226 10.1001 98.7411 10.1365 98.9439 10.2185C99.1468 10.3006 99.329 10.4262 99.4775 10.5866C99.626 10.7469 99.7373 10.938 99.8032 11.1461C99.8692 11.3542 99.8883 11.5743 99.8591 11.7907V14.6979H98.9671V12.0099C98.9671 11.2906 98.6312 10.9264 98.0015 10.9264C97.8483 10.9139 97.6943 10.9349 97.5501 10.9879C97.4059 11.041 97.2751 11.1248 97.1668 11.2335C97.0585 11.3423 96.9753 11.4733 96.9231 11.6174C96.8709 11.7616 96.8509 11.9153 96.8645 12.068V14.6979H95.9734L95.9733 8.43713Z" fill="black"/>
<path d="M105.055 13.482C104.934 13.8935 104.672 14.2495 104.314 14.4877C103.957 14.7258 103.526 14.831 103.099 14.7847C102.801 14.7926 102.506 14.7357 102.232 14.6182C101.959 14.5007 101.715 14.3253 101.516 14.1041C101.318 13.883 101.17 13.6214 101.083 13.3376C100.996 13.0538 100.972 12.7545 101.013 12.4605C100.973 12.1656 100.998 11.8657 101.084 11.581C101.171 11.2964 101.318 11.0336 101.516 10.8105C101.713 10.5874 101.956 10.4093 102.229 10.2881C102.501 10.1669 102.796 10.1054 103.095 10.108C104.351 10.108 105.109 10.964 105.109 12.378V12.6881H101.921V12.7379C101.907 12.9031 101.928 13.0695 101.982 13.2262C102.036 13.383 102.123 13.5267 102.236 13.6481C102.349 13.7696 102.486 13.8661 102.639 13.9315C102.792 13.9969 102.957 14.0297 103.123 14.0279C103.336 14.0534 103.552 14.0151 103.744 13.9179C103.935 13.8207 104.093 13.669 104.198 13.482L105.055 13.482ZM101.921 12.0308H104.201C104.213 11.8797 104.192 11.7279 104.141 11.5852C104.09 11.4425 104.009 11.312 103.905 11.2021C103.8 11.0923 103.673 11.0055 103.533 10.9473C103.393 10.8891 103.242 10.8609 103.09 10.8643C102.936 10.8624 102.783 10.8913 102.64 10.9492C102.497 11.0072 102.368 11.093 102.259 11.2017C102.15 11.3104 102.064 11.4398 102.006 11.5822C101.948 11.7246 101.919 11.8771 101.921 12.0308H101.921Z" fill="black"/>
</svg>
