<svg width="10" height="13" viewBox="0 0 10 13" fill="none" xmlns="http://www.w3.org/2000/svg">
<mask id="path-1-inside-1" fill="white">
<path fill-rule="evenodd" clip-rule="evenodd" d="M0.000714119 6.46468C-0.0148404 5.9862 0.213723 5.51191 0.645871 5.2325L7.80578 0.603304C8.46326 0.178217 9.343 0.36521 9.77073 1.02096C10.1985 1.67672 10.0122 2.55291 9.35476 2.978L3.96195 6.46468L9.35476 9.95137C10.0122 10.3765 10.1985 11.2527 9.77073 11.9084C9.343 12.5642 8.46326 12.7512 7.80578 12.3261L0.645871 7.69687C0.213723 7.41746 -0.0148404 6.94317 0.000714119 6.46468Z"/>
</mask>
<path d="M0.645871 5.2325L4.4465 11.1109L4.4465 11.1109L0.645871 5.2325ZM0.000714119 6.46468L6.99702 6.23725L7.00441 6.46468L6.99702 6.69212L0.000714119 6.46468ZM7.80578 0.603304L4.00516 -5.27507L4.00516 -5.27507L7.80578 0.603304ZM9.77073 1.02096L15.6337 -2.80336V-2.80336L9.77073 1.02096ZM9.35476 2.978L13.1554 8.85637L13.1554 8.85637L9.35476 2.978ZM3.96195 6.46468L0.161324 12.3431L-8.93066 6.46468L0.161324 0.586315L3.96195 6.46468ZM9.35476 9.95137L5.55413 15.8297L5.55413 15.8297L9.35476 9.95137ZM7.80578 12.3261L11.6064 6.4477L11.6064 6.4477L7.80578 12.3261ZM0.645871 7.69687L4.4465 1.81849L4.4465 1.8185L0.645871 7.69687ZM4.4465 11.1109C6.15722 10.0048 7.05812 8.1168 6.99702 6.23725L-6.99559 6.69212C-7.0878 3.85559 -5.72978 1.019 -3.15475 -0.645867L4.4465 11.1109ZM11.6064 6.48167L4.4465 11.1109L-3.15476 -0.645866L4.00516 -5.27507L11.6064 6.48167ZM3.90775 4.84529C5.58611 7.41833 9.02661 8.14963 11.6064 6.48167L4.00516 -5.27507C7.8999 -7.79319 13.0999 -6.68791 15.6337 -2.80336L3.90775 4.84529ZM5.55413 -2.90037C2.95579 -1.22043 2.21735 2.25377 3.90775 4.84529L15.6337 -2.80336C18.1796 1.09967 17.0687 6.32625 13.1554 8.85637L5.55413 -2.90037ZM0.161324 0.586315L5.55413 -2.90037L13.1554 8.85637L7.76258 12.3431L0.161324 0.586315ZM7.76258 0.586315L13.1554 4.073L5.55413 15.8297L0.161324 12.3431L7.76258 0.586315ZM13.1554 4.073C17.0687 6.60312 18.1796 11.8297 15.6337 15.7327L3.90775 8.08408C2.21735 10.6756 2.95579 14.1498 5.55413 15.8297L13.1554 4.073ZM15.6337 15.7327C13.0999 19.6173 7.8999 20.7226 4.00516 18.2044L11.6064 6.4477C9.02661 4.77974 5.58611 5.51104 3.90775 8.08408L15.6337 15.7327ZM4.00516 18.2044L-3.15476 13.5752L4.4465 1.8185L11.6064 6.4477L4.00516 18.2044ZM-3.15475 13.5752C-5.72978 11.9104 -7.0878 9.07378 -6.99559 6.23725L6.99702 6.69212C7.05812 4.81257 6.15722 2.92455 4.4465 1.81849L-3.15475 13.5752Z" fill="#0057FF" mask="url(#path-1-inside-1)"/>
</svg>
