<svg width="20" height="20" viewBox="0 0 20 20" fill="none" xmlns="http://www.w3.org/2000/svg">
<path d="M16.6667 17.5H3.33333C3.11232 17.5 2.90036 17.4122 2.74408 17.2559C2.5878 17.0996 2.5 16.8877 2.5 16.6667V3.33333C2.5 3.11232 2.5878 2.90036 2.74408 2.74408C2.90036 2.5878 3.11232 2.5 3.33333 2.5H16.6667C16.8877 2.5 17.0996 2.5878 17.2559 2.74408C17.4122 2.90036 17.5 3.11232 17.5 3.33333V16.6667C17.5 16.8877 17.4122 17.0996 17.2559 17.2559C17.0996 17.4122 16.8877 17.5 16.6667 17.5ZM4.16667 15.8333H15.8333V4.16667H4.16667V15.8333Z" fill="white"/>
<path opacity="0.5" d="M9.99996 10.8333C10.4602 10.8333 10.8333 10.4602 10.8333 10C10.8333 9.53977 10.4602 9.16667 9.99996 9.16667C9.53972 9.16667 9.16663 9.53977 9.16663 10C9.16663 10.4602 9.53972 10.8333 9.99996 10.8333Z" fill="white"/>
<path opacity="0.5" d="M9.99996 14.1667C10.4602 14.1667 10.8333 13.7936 10.8333 13.3333C10.8333 12.8731 10.4602 12.5 9.99996 12.5C9.53972 12.5 9.16663 12.8731 9.16663 13.3333C9.16663 13.7936 9.53972 14.1667 9.99996 14.1667Z" fill="white"/>
<path opacity="0.5" d="M9.99996 7.5C10.4602 7.5 10.8333 7.1269 10.8333 6.66666C10.8333 6.20642 10.4602 5.83333 9.99996 5.83333C9.53972 5.83333 9.16663 6.20642 9.16663 6.66666C9.16663 7.1269 9.53972 7.5 9.99996 7.5Z" fill="white"/>
<path opacity="0.5" d="M6.66671 10.8333C7.12694 10.8333 7.50004 10.4602 7.50004 10C7.50004 9.53977 7.12694 9.16667 6.66671 9.16667C6.20647 9.16667 5.83337 9.53977 5.83337 10C5.83337 10.4602 6.20647 10.8333 6.66671 10.8333Z" fill="white"/>
<path opacity="0.5" d="M13.3333 10.8333C13.7936 10.8333 14.1667 10.4602 14.1667 10C14.1667 9.53977 13.7936 9.16667 13.3333 9.16667C12.8731 9.16667 12.5 9.53977 12.5 10C12.5 10.4602 12.8731 10.8333 13.3333 10.8333Z" fill="white"/>
</svg>
