<svg width="16" height="16" viewBox="0 0 16 16" fill="none" xmlns="http://www.w3.org/2000/svg">
<path opacity="0.5" d="M10.6666 6.66667H2.66663V4H9.99996C10.1768 4 10.3463 4.07024 10.4714 4.19526C10.5964 4.32029 10.6666 4.48986 10.6666 4.66667V6.66667Z" fill="white"/>
<path d="M14 12.0001H2.66663V6.66675H14C14.1768 6.66675 14.3463 6.73699 14.4714 6.86201C14.5964 6.98703 14.6666 7.1566 14.6666 7.33341V11.3334C14.6666 11.5102 14.5964 11.6798 14.4714 11.8048C14.3463 11.9298 14.1768 12.0001 14 12.0001Z" fill="white"/>
<path opacity="0.25" d="M2.00004 14.6666C1.82335 14.6666 1.65388 14.5964 1.52887 14.4716C1.40387 14.3467 1.33355 14.1773 1.33337 14.0006V1.99992C1.33337 1.82311 1.40361 1.65354 1.52864 1.52851C1.65366 1.40349 1.82323 1.33325 2.00004 1.33325C2.17685 1.33325 2.34642 1.40349 2.47145 1.52851C2.59647 1.65354 2.66671 1.82311 2.66671 1.99992V13.9999C2.66671 14.1766 2.59656 14.3461 2.47168 14.4711C2.3468 14.5961 2.1774 14.6664 2.00071 14.6666H2.00004Z" fill="white"/>
</svg>
