<svg width="16" height="16" viewBox="0 0 16 16" fill="none" xmlns="http://www.w3.org/2000/svg">
<path d="M9.99992 6H8.66659V4.66667C8.66659 4.48986 8.59635 4.32029 8.47132 4.19526C8.3463 4.07024 8.17673 4 7.99992 4C7.82311 4 7.65354 4.07024 7.52851 4.19526C7.40349 4.32029 7.33325 4.48986 7.33325 4.66667V6H5.99992C5.82311 6 5.65354 6.07024 5.52851 6.19526C5.40349 6.32029 5.33325 6.48986 5.33325 6.66667C5.33325 6.84348 5.40349 7.01305 5.52851 7.13807C5.65354 7.2631 5.82311 7.33333 5.99992 7.33333H7.33325V8.66667C7.33325 8.84348 7.40349 9.01305 7.52851 9.13807C7.65354 9.26309 7.82311 9.33333 7.99992 9.33333C8.17673 9.33333 8.3463 9.26309 8.47132 9.13807C8.59635 9.01305 8.66659 8.84348 8.66659 8.66667V7.33333H9.99992C10.1767 7.33333 10.3463 7.2631 10.4713 7.13807C10.5963 7.01305 10.6666 6.84348 10.6666 6.66667C10.6666 6.48986 10.5963 6.32029 10.4713 6.19526C10.3463 6.07024 10.1767 6 9.99992 6Z" fill="white"/>
<path opacity="0.5" d="M12.6666 1.33334H3.33325C2.80298 1.33387 2.29458 1.54476 1.91962 1.91971C1.54467 2.29467 1.33378 2.80307 1.33325 3.33334V10C1.33378 10.5303 1.54467 11.0387 1.91962 11.4136C2.29458 11.7886 2.80298 11.9995 3.33325 12H11.0573L13.5286 14.4713C13.6218 14.5645 13.7406 14.628 13.8699 14.6537C13.9992 14.6794 14.1332 14.6662 14.255 14.6158C14.3768 14.5653 14.4809 14.4799 14.5542 14.3703C14.6274 14.2607 14.6666 14.1318 14.6666 14V3.33334C14.6661 2.80307 14.4552 2.29467 14.0802 1.91971C13.7053 1.54476 13.1969 1.33387 12.6666 1.33334ZM9.99992 7.33334H8.66658V8.66668C8.66658 8.84349 8.59635 9.01306 8.47132 9.13808C8.3463 9.2631 8.17673 9.33334 7.99992 9.33334C7.82311 9.33334 7.65354 9.2631 7.52851 9.13808C7.40349 9.01306 7.33325 8.84349 7.33325 8.66668V7.33334H5.99992C5.82311 7.33334 5.65354 7.2631 5.52851 7.13808C5.40349 7.01306 5.33325 6.84349 5.33325 6.66668C5.33325 6.48987 5.40349 6.3203 5.52851 6.19527C5.65354 6.07025 5.82311 6.00001 5.99992 6.00001H7.33325V4.66668C7.33325 4.48987 7.40349 4.3203 7.52851 4.19527C7.65354 4.07025 7.82311 4.00001 7.99992 4.00001C8.17673 4.00001 8.3463 4.07025 8.47132 4.19527C8.59635 4.3203 8.66658 4.48987 8.66658 4.66668V6.00001H9.99992C10.1767 6.00001 10.3463 6.07025 10.4713 6.19527C10.5963 6.3203 10.6666 6.48987 10.6666 6.66668C10.6666 6.84349 10.5963 7.01306 10.4713 7.13808C10.3463 7.2631 10.1767 7.33334 9.99992 7.33334Z" fill="white"/>
</svg>
