<svg width="18" height="18" viewBox="0 0 18 18" fill="none" xmlns="http://www.w3.org/2000/svg">
<path d="M12.375 15.5955H5.62499C5.49334 15.5955 5.36402 15.5609 5.25 15.495C5.13599 15.4292 5.04132 15.3345 4.97549 15.2205L1.60049 9.37501C1.53481 9.26095 1.50024 9.13163 1.50024 9.00001C1.50024 8.86839 1.53481 8.73907 1.60049 8.62501L4.97549 2.77951C5.04132 2.6655 5.13599 2.57082 5.25 2.505C5.36402 2.43917 5.49334 2.40451 5.62499 2.40451H12.375C12.5066 2.40451 12.636 2.43917 12.75 2.505C12.864 2.57082 12.9587 2.6655 13.0245 2.77951L16.3995 8.62501C16.4652 8.73907 16.4997 8.86839 16.4997 9.00001C16.4997 9.13163 16.4652 9.26095 16.3995 9.37501L13.0245 15.2205C12.9587 15.3345 12.864 15.4292 12.75 15.495C12.636 15.5609 12.5066 15.5955 12.375 15.5955Z" fill="white"/>
</svg>
