<svg width="16" height="16" viewBox="0 0 16 16" fill="none" xmlns="http://www.w3.org/2000/svg">
<path opacity="0.25" d="M3.99996 15.3333H1.33329C1.15648 15.3333 0.986912 15.2631 0.861888 15.1381C0.736864 15.013 0.666626 14.8435 0.666626 14.6667V10.6667C0.666626 10.4899 0.736864 10.3203 0.861888 10.1953C0.986912 10.0702 1.15648 10 1.33329 10H3.99996C4.17677 10 4.34634 10.0702 4.47136 10.1953C4.59639 10.3203 4.66663 10.4899 4.66663 10.6667V14.6667C4.66663 14.8435 4.59639 15.013 4.47136 15.1381C4.34634 15.2631 4.17677 15.3333 3.99996 15.3333Z" fill="white"/>
<path opacity="0.5" d="M9.33333 15.3333H6.66667C6.48986 15.3333 6.32029 15.2631 6.19526 15.1381C6.07024 15.013 6 14.8435 6 14.6667V6.66667C6 6.48986 6.07024 6.32029 6.19526 6.19526C6.32029 6.07024 6.48986 6 6.66667 6H9.33333C9.51014 6 9.67971 6.07024 9.80474 6.19526C9.92976 6.32029 10 6.48986 10 6.66667V14.6667C10 14.8435 9.92976 15.013 9.80474 15.1381C9.67971 15.2631 9.51014 15.3333 9.33333 15.3333Z" fill="white"/>
<path d="M14.6667 15.3334H12C11.8232 15.3334 11.6537 15.2632 11.5286 15.1382C11.4036 15.0131 11.3334 14.8436 11.3334 14.6667V1.33341C11.3334 1.1566 11.4036 0.987034 11.5286 0.86201C11.6537 0.736986 11.8232 0.666748 12 0.666748H14.6667C14.8435 0.666748 15.0131 0.736986 15.1381 0.86201C15.2631 0.987034 15.3334 1.1566 15.3334 1.33341V14.6667C15.3334 14.8436 15.2631 15.0131 15.1381 15.1382C15.0131 15.2632 14.8435 15.3334 14.6667 15.3334Z" fill="white"/>
</svg>
