<svg width="16" height="16" viewBox="0 0 16 16" fill="none" xmlns="http://www.w3.org/2000/svg">
<path opacity="0.5" d="M13.3333 7.33335C13.2455 7.33423 13.1584 7.31758 13.0772 7.28438C12.9959 7.25118 12.922 7.20211 12.86 7.14002C12.8012 7.07514 12.7539 7.00075 12.72 6.92002C12.6847 6.84021 12.6665 6.75392 12.6665 6.66668C12.6665 6.57944 12.6847 6.49316 12.72 6.41335C12.7521 6.33174 12.7997 6.25706 12.86 6.19335C12.9889 6.07439 13.1579 6.00834 13.3333 6.00834C13.5087 6.00834 13.6777 6.07439 13.8066 6.19335C13.8656 6.25813 13.9129 6.33254 13.9466 6.41335C13.9819 6.49316 14.0001 6.57944 14.0001 6.66668C14.0001 6.75392 13.9819 6.84021 13.9466 6.92002C13.9128 7.00075 13.8654 7.07514 13.8066 7.14002C13.7445 7.20201 13.6707 7.25103 13.5894 7.28422C13.5081 7.31742 13.4211 7.33412 13.3333 7.33335ZM12.6666 4.33335C12.6672 4.1567 12.7376 3.98744 12.8625 3.86253C12.9874 3.73762 13.1567 3.66721 13.3333 3.66668C13.51 3.66721 13.6792 3.73762 13.8041 3.86253C13.929 3.98744 13.9994 4.1567 14 4.33335C13.9994 4.51 13.929 4.67926 13.8041 4.80417C13.6792 4.92908 13.51 4.99949 13.3333 5.00002C13.1567 4.99949 12.9874 4.92908 12.8625 4.80417C12.7376 4.67926 12.6672 4.51 12.6666 4.33335ZM13.3333 2.66668C13.2235 2.6678 13.1152 2.64151 13.0181 2.5902C12.9211 2.53889 12.8383 2.46417 12.7774 2.37282C12.7165 2.28147 12.6794 2.17637 12.6694 2.06703C12.6593 1.9577 12.6767 1.84759 12.72 1.74668C12.7521 1.66507 12.7997 1.59039 12.86 1.52668C12.9889 1.40773 13.1579 1.34167 13.3333 1.34167C13.5087 1.34167 13.6777 1.40773 13.8066 1.52668C13.8669 1.59039 13.9145 1.66507 13.9466 1.74668C13.9986 1.86793 14.013 2.00196 13.9881 2.13148C13.9631 2.26101 13.8999 2.38009 13.8066 2.47335C13.7418 2.53213 13.6674 2.57947 13.5866 2.61335C13.5065 2.64751 13.4204 2.66563 13.3333 2.66668ZM4.68664 4.16002C4.66515 4.07508 4.66071 3.98673 4.67359 3.90006C4.68646 3.8134 4.7164 3.73015 4.76166 3.65514C4.80691 3.58012 4.8666 3.51482 4.93726 3.46302C5.00792 3.41122 5.08815 3.37394 5.17331 3.35335C5.25825 3.33149 5.34671 3.32677 5.43349 3.33948C5.52028 3.3522 5.60367 3.38208 5.67877 3.4274C5.75388 3.47271 5.8192 3.53254 5.87092 3.60338C5.92263 3.67423 5.95971 3.75468 5.97997 3.84002C6.00101 3.92494 6.0051 4.01317 5.99203 4.09968C5.97895 4.18619 5.94896 4.26927 5.90377 4.34418C5.85857 4.41909 5.79906 4.48436 5.72863 4.53627C5.6582 4.58817 5.57824 4.62569 5.49331 4.64668C5.44102 4.66003 5.38727 4.66675 5.33331 4.66668C5.18415 4.66763 5.03906 4.61808 4.92165 4.52608C4.80423 4.43409 4.72141 4.30507 4.68664 4.16002ZM7.35331 3.49335C7.33181 3.40841 7.32738 3.32006 7.34025 3.2334C7.35313 3.14674 7.38306 3.06349 7.42832 2.98847C7.47358 2.91345 7.53327 2.84815 7.60393 2.79635C7.67459 2.74455 7.75482 2.70728 7.83997 2.68668C7.92492 2.66482 8.01337 2.6601 8.10016 2.67282C8.18695 2.68553 8.27033 2.71542 8.34544 2.76073C8.42055 2.80604 8.48587 2.86587 8.53758 2.93672C8.5893 3.00756 8.62637 3.08801 8.64664 3.17335C8.66768 3.25827 8.67177 3.34651 8.65869 3.43301C8.64562 3.51952 8.61563 3.6026 8.57043 3.67751C8.52524 3.75242 8.46573 3.8177 8.3953 3.8696C8.32487 3.92151 8.24491 3.95903 8.15997 3.98002C8.10769 3.99337 8.05394 4.00009 7.99997 4.00002C7.85118 3.99955 7.70679 3.94947 7.58966 3.8577C7.47253 3.76593 7.38936 3.63772 7.35331 3.49335ZM10.02 2.82668C9.99885 2.74176 9.99468 2.6535 10.0077 2.56696C10.0208 2.48043 10.0507 2.39731 10.0959 2.32238C10.1412 2.24745 10.2007 2.18217 10.2712 2.13029C10.3416 2.0784 10.4217 2.04093 10.5066 2.02002C10.6781 1.97827 10.8591 2.006 11.0102 2.09717C11.1613 2.18833 11.2703 2.33553 11.3133 2.50668C11.3343 2.59161 11.3384 2.67984 11.3254 2.76635C11.3123 2.85285 11.2823 2.93593 11.2371 3.01085C11.1919 3.08576 11.1324 3.15103 11.062 3.20293C10.9915 3.25484 10.9116 3.29236 10.8266 3.31335C10.7744 3.3267 10.7206 3.33342 10.6666 3.33335C10.5175 3.3343 10.3724 3.28474 10.255 3.19275C10.1376 3.10076 10.0547 2.97174 10.02 2.82668ZM2.66664 5.33335C2.57885 5.33424 2.49175 5.31761 2.41047 5.28442C2.32918 5.25123 2.25533 5.20216 2.19325 5.14008C2.13117 5.07799 2.08209 5.00414 2.04891 4.92286C2.01572 4.84157 1.99908 4.75448 1.99997 4.66668C1.99752 4.57921 2.0158 4.49241 2.05331 4.41335C2.08548 4.33174 2.133 4.25706 2.19331 4.19335C2.32223 4.07439 2.49122 4.00834 2.66664 4.00834C2.84206 4.00834 3.01105 4.07439 3.13997 4.19335C3.20028 4.25706 3.2478 4.33174 3.27997 4.41335C3.32323 4.51426 3.34063 4.62437 3.3306 4.7337C3.32056 4.84303 3.28341 4.94814 3.22251 5.03949C3.16161 5.13084 3.07888 5.20556 2.98182 5.25687C2.88476 5.30818 2.77643 5.33447 2.66664 5.33335ZM2.66664 7.33335C2.57885 7.33423 2.49177 7.31758 2.41049 7.28438C2.32922 7.25118 2.25538 7.20211 2.19331 7.14002C2.13452 7.07514 2.08718 7.00075 2.05331 6.92002C2.01808 6.84021 1.99988 6.75392 1.99988 6.66668C1.99988 6.57944 2.01808 6.49316 2.05331 6.41335C2.08703 6.33254 2.13439 6.25813 2.19331 6.19335C2.32223 6.07439 2.49122 6.00834 2.66664 6.00834C2.84206 6.00834 3.01105 6.07439 3.13997 6.19335C3.19889 6.25813 3.24625 6.33254 3.27997 6.41335C3.3152 6.49316 3.3334 6.57944 3.3334 6.66668C3.3334 6.75392 3.3152 6.84021 3.27997 6.92002C3.2461 7.00075 3.19876 7.07514 3.13997 7.14002C3.07783 7.20201 3.00399 7.25103 2.92273 7.28422C2.84147 7.31742 2.75442 7.33412 2.66664 7.33335ZM9.99997 6.66668C10.0005 6.49004 10.0709 6.32077 10.1958 6.19586C10.3207 6.07095 10.49 6.00055 10.6666 6.00002C10.8433 6.00055 11.0126 6.07095 11.1375 6.19586C11.2624 6.32077 11.3328 6.49004 11.3333 6.66668C11.3328 6.84333 11.2624 7.0126 11.1375 7.13751C11.0126 7.26242 10.8433 7.33282 10.6666 7.33335C10.49 7.33282 10.3207 7.26242 10.1958 7.13751C10.0709 7.0126 10.0005 6.84333 9.99997 6.66668ZM7.33331 6.66668C7.33384 6.49004 7.40424 6.32077 7.52915 6.19586C7.65406 6.07095 7.82333 6.00055 7.99997 6.00002C8.17662 6.00055 8.34589 6.07095 8.4708 6.19586C8.59571 6.32077 8.66611 6.49004 8.66664 6.66668C8.66611 6.84333 8.59571 7.0126 8.4708 7.13751C8.34589 7.26242 8.17662 7.33282 7.99997 7.33335C7.82333 7.33282 7.65406 7.26242 7.52915 7.13751C7.40424 7.0126 7.33384 6.84333 7.33331 6.66668ZM4.66664 6.66668C4.66717 6.49004 4.73758 6.32077 4.86249 6.19586C4.9874 6.07095 5.15666 6.00055 5.33331 6.00002C5.50996 6.00055 5.67922 6.07095 5.80413 6.19586C5.92904 6.32077 5.99945 6.49004 5.99997 6.66668C5.99945 6.84333 5.92904 7.0126 5.80413 7.13751C5.67922 7.26242 5.50996 7.33282 5.33331 7.33335C5.15666 7.33282 4.9874 7.26242 4.86249 7.13751C4.73758 7.0126 4.66717 6.84333 4.66664 6.66668Z" fill="white"/>
<path d="M13.3333 9.33325V13.9999L2.66663 11.3333V9.33325H13.3333Z" fill="white"/>
<path d="M13.3333 14.6667C13.2789 14.6669 13.2247 14.6601 13.172 14.6467L2.50533 11.9801C2.36105 11.9441 2.23293 11.8609 2.14137 11.7437C2.0498 11.6265 2.00004 11.4821 2 11.3334V9.33341C2 9.1566 2.07024 8.98703 2.19526 8.86201C2.32029 8.73699 2.48986 8.66675 2.66667 8.66675H13.3333C13.5101 8.66675 13.6797 8.73699 13.8047 8.86201C13.9298 8.98703 14 9.1566 14 9.33341V14.0001C14 14.1769 13.9298 14.3465 13.8047 14.4715C13.6797 14.5965 13.5101 14.6667 13.3333 14.6667ZM3.33333 10.8127L12.6667 13.1461V10.0001H3.33333V10.8127Z" fill="white"/>
</svg>
