<svg width="18" height="18" viewBox="0 0 18 18" fill="none" xmlns="http://www.w3.org/2000/svg">
<path opacity="0.25" d="M15.75 1.5H6.75C6.55122 1.5 6.36057 1.57891 6.21993 1.7194C6.0793 1.85989 6.0002 2.05047 6 2.24925V5.25H12C12.1988 5.25 12.3894 5.32891 12.5301 5.4694C12.6707 5.60989 12.7498 5.80047 12.75 5.99925V12H15.75C15.9488 12 16.1394 11.9211 16.2801 11.7806C16.4207 11.6401 16.4998 11.4495 16.5 11.2508V2.25C16.5 2.05122 16.4211 1.86057 16.2806 1.71993C16.1401 1.5793 15.9495 1.5002 15.7508 1.5H15.75Z" fill="white"/>
<path d="M2.25 9H8.25C8.44891 9 8.63968 9.07902 8.78033 9.21967C8.92098 9.36032 9 9.55109 9 9.75V15.75C9 15.9489 8.92098 16.1397 8.78033 16.2803C8.63968 16.421 8.44891 16.5 8.25 16.5H2.25C2.05109 16.5 1.86032 16.421 1.71967 16.2803C1.57902 16.1397 1.5 15.9489 1.5 15.75V9.75C1.5 9.55109 1.57902 9.36032 1.71967 9.21967C1.86032 9.07902 2.05109 9 2.25 9Z" fill="white"/>
<path opacity="0.5" d="M12 5.25H4.5C4.30122 5.25 4.11057 5.32891 3.96994 5.4694C3.8293 5.60989 3.7502 5.80047 3.75 5.99925V9H8.25C8.44878 9 8.63943 9.07891 8.78007 9.2194C8.9207 9.35989 8.9998 9.55047 9 9.74925V14.25H12C12.1988 14.25 12.3894 14.1711 12.5301 14.0306C12.6707 13.8901 12.7498 13.6995 12.75 13.5007V6C12.75 5.80122 12.6711 5.61057 12.5306 5.46994C12.3901 5.3293 12.1995 5.2502 12.0007 5.25H12Z" fill="white"/>
</svg>
