<svg width="18" height="18" viewBox="0 0 18 18" fill="none" xmlns="http://www.w3.org/2000/svg">
<path opacity="0.5" d="M8.6235 16.5C8.525 16.5001 8.42744 16.4807 8.33645 16.443C8.24545 16.4053 8.1628 16.35 8.09325 16.2802L6.21825 14.4052C6.07764 14.2646 5.99866 14.0739 5.99866 13.875C5.99866 13.6761 6.07764 13.4854 6.21825 13.3447L8.09325 11.4698C8.2347 11.3331 8.42415 11.2575 8.6208 11.2592C8.81745 11.261 9.00556 11.3398 9.14461 11.4789C9.28367 11.6179 9.36254 11.8061 9.36425 12.0027C9.36596 12.1993 9.29037 12.3888 9.15375 12.5303L7.809 13.875L9.15375 15.2197C9.2586 15.3246 9.33001 15.4583 9.35893 15.6037C9.38786 15.7492 9.37301 15.9 9.31626 16.037C9.2595 16.174 9.1634 16.2911 9.04009 16.3735C8.91678 16.456 8.77181 16.5 8.6235 16.5Z" fill="white"/>
<path opacity="0.5" d="M15.75 3.375H14.25C14.051 3.375 13.8603 3.45402 13.7196 3.59467C13.579 3.73532 13.5 3.92609 13.5 4.125C13.5 4.32391 13.579 4.51468 13.7196 4.65533C13.8603 4.79598 14.051 4.875 14.25 4.875H15V13.125H8.55896L7.80896 13.875L8.55896 14.625H15.75C15.9489 14.625 16.1396 14.546 16.2803 14.4053C16.4209 14.2647 16.5 14.0739 16.5 13.875V4.125C16.5 3.92609 16.4209 3.73532 16.2803 3.59467C16.1396 3.45402 15.9489 3.375 15.75 3.375Z" fill="white"/>
<path d="M9.37496 1.5C9.57371 1.5 9.76496 1.57875 9.90521 1.71975L11.7802 3.59475C11.9208 3.7354 11.9998 3.92613 11.9998 4.125C11.9998 4.32387 11.9208 4.5146 11.7802 4.65525L9.90521 6.53025C9.76376 6.66687 9.57431 6.74246 9.37766 6.74076C9.18101 6.73905 8.9929 6.66017 8.85385 6.52111C8.71479 6.38206 8.63592 6.19395 8.63421 5.9973C8.6325 5.80065 8.70809 5.6112 8.84471 5.46975L10.1895 4.125L8.84471 2.78025C8.73986 2.67536 8.66845 2.54174 8.63952 2.39627C8.6106 2.25081 8.62545 2.10003 8.6822 1.96301C8.73896 1.82598 8.83506 1.70886 8.95837 1.62645C9.08168 1.54404 9.22665 1.50003 9.37496 1.5Z" fill="white"/>
<path d="M3.75 13.125H3V4.875H9.4395L10.1895 4.125L9.4395 3.375H2.25C2.05109 3.375 1.86032 3.45402 1.71967 3.59467C1.57902 3.73532 1.5 3.92609 1.5 4.125V13.875C1.5 14.0739 1.57902 14.2647 1.71967 14.4053C1.86032 14.546 2.05109 14.625 2.25 14.625H3.75C3.94891 14.625 4.13968 14.546 4.28033 14.4053C4.42098 14.2647 4.5 14.0739 4.5 13.875C4.5 13.6761 4.42098 13.4853 4.28033 13.3447C4.13968 13.204 3.94891 13.125 3.75 13.125Z" fill="white"/>
</svg>
