<svg width="16" height="16" viewBox="0 0 16 16" fill="none" xmlns="http://www.w3.org/2000/svg">
<path opacity="0.25" d="M3.99996 15.3333H1.33329C1.15648 15.3333 0.986912 15.2631 0.861888 15.138C0.736864 15.013 0.666626 14.8434 0.666626 14.6666V9.33329C0.666626 9.15648 0.736864 8.98691 0.861888 8.86189C0.986912 8.73686 1.15648 8.66663 1.33329 8.66663H3.99996C4.17677 8.66663 4.34634 8.73686 4.47136 8.86189C4.59639 8.98691 4.66663 9.15648 4.66663 9.33329V14.6666C4.66663 14.8434 4.59639 15.013 4.47136 15.138C4.34634 15.2631 4.17677 15.3333 3.99996 15.3333Z" fill="white"/>
<path d="M9.33333 15.3333H6.66667C6.48986 15.3333 6.32029 15.2631 6.19526 15.138C6.07024 15.013 6 14.8434 6 14.6666V1.33329C6 1.15648 6.07024 0.986912 6.19526 0.861888C6.32029 0.736864 6.48986 0.666626 6.66667 0.666626H9.33333C9.51014 0.666626 9.67971 0.736864 9.80474 0.861888C9.92976 0.986912 10 1.15648 10 1.33329V14.6666C10 14.8434 9.92976 15.013 9.80474 15.138C9.67971 15.2631 9.51014 15.3333 9.33333 15.3333Z" fill="white"/>
<path opacity="0.5" d="M14.6666 15.3333H11.9999C11.8231 15.3333 11.6535 15.2631 11.5285 15.1381C11.4035 15.013 11.3333 14.8435 11.3333 14.6667V6.66667C11.3333 6.48986 11.4035 6.32029 11.5285 6.19526C11.6535 6.07024 11.8231 6 11.9999 6H14.6666C14.8434 6 15.013 6.07024 15.138 6.19526C15.263 6.32029 15.3333 6.48986 15.3333 6.66667V14.6667C15.3333 14.8435 15.263 15.013 15.138 15.1381C15.013 15.2631 14.8434 15.3333 14.6666 15.3333Z" fill="white"/>
</svg>
