<svg width="18" height="18" viewBox="0 0 18 18" fill="none" xmlns="http://www.w3.org/2000/svg">
<path d="M13.1715 16.17C13.05 16.1698 12.9304 16.1402 12.8228 16.0838L9.00004 14.0738L5.17729 16.0838C5.05343 16.1489 4.91382 16.178 4.77424 16.168C4.63467 16.1579 4.5007 16.109 4.38748 16.0267C4.27426 15.9445 4.18631 15.8322 4.13357 15.7026C4.08083 15.573 4.0654 15.4312 4.08904 15.2933L4.81879 11.0363L1.72654 8.02125C1.62648 7.92356 1.55573 7.79984 1.52227 7.66406C1.48881 7.52828 1.49398 7.38585 1.5372 7.25285C1.58041 7.11986 1.65995 7.00159 1.76683 6.91141C1.8737 6.82123 2.00367 6.76273 2.14204 6.7425L6.41629 6.1215L8.32729 2.2485C8.3964 2.13158 8.4948 2.03469 8.61277 1.96739C8.73074 1.90008 8.86422 1.86469 9.00004 1.86469C9.13586 1.86469 9.26933 1.90008 9.38731 1.96739C9.50528 2.03469 9.60367 2.13158 9.67279 2.2485L11.5838 6.1215L15.858 6.7425C15.9966 6.76262 16.1267 6.8211 16.2337 6.91133C16.3407 7.00156 16.4204 7.11994 16.4636 7.25308C16.5068 7.38621 16.5119 7.52879 16.4783 7.66467C16.4448 7.80056 16.3738 7.92434 16.2735 8.02201L13.1813 11.0363L13.911 15.2933C13.9295 15.4009 13.9242 15.5113 13.8956 15.6168C13.8669 15.7222 13.8156 15.8201 13.7451 15.9036C13.6747 15.9871 13.5869 16.0542 13.4878 16.1002C13.3887 16.1462 13.2808 16.17 13.1715 16.17Z" fill="white"/>
</svg>
