<svg width="16" height="16" viewBox="0 0 16 16" fill="none" xmlns="http://www.w3.org/2000/svg">
<path opacity="0.25" d="M10 1.33325C8.90889 1.33379 7.85249 1.71674 7.0145 2.41552C6.17651 3.11429 5.60994 4.08467 5.41333 5.15792C6.17197 4.74308 7.04461 4.58523 7.9005 4.70803C8.7564 4.83083 9.54945 5.22765 10.1609 5.83906C10.7723 6.45046 11.1691 7.24352 11.2919 8.09941C11.4147 8.9553 11.2568 9.82794 10.842 10.5866C11.9876 10.3772 13.0134 9.74693 13.7179 8.8196C14.4223 7.89227 14.7544 6.73497 14.6489 5.57521C14.5433 4.41544 14.0078 3.3371 13.1476 2.55214C12.2873 1.76719 11.1646 1.3324 10 1.33325Z" fill="white"/>
<path d="M4.66671 14.6667C6.50766 14.6667 8.00004 13.1743 8.00004 11.3333C8.00004 9.49238 6.50766 8 4.66671 8C2.82576 8 1.33337 9.49238 1.33337 11.3333C1.33337 13.1743 2.82576 14.6667 4.66671 14.6667Z" fill="white"/>
<path opacity="0.5" d="M7.33327 4.66675C6.34102 4.66683 5.38423 5.03571 4.64872 5.70173C3.91321 6.36776 3.4515 7.28338 3.35327 8.27075C3.96549 8.00764 4.64255 7.93419 5.29695 8.05988C5.95135 8.18556 6.55302 8.50462 7.02421 8.97581C7.4954 9.447 7.81446 10.0487 7.94014 10.7031C8.06583 11.3575 7.99238 12.0345 7.72927 12.6467C8.75008 12.5443 9.6925 12.0535 10.3617 11.2759C11.0309 10.4982 11.3757 9.49318 11.3249 8.4685C11.274 7.44381 10.8314 6.47784 10.0885 5.77028C9.34559 5.06271 8.35921 4.66764 7.33327 4.66675Z" fill="white"/>
</svg>
