<svg width="597" height="597" viewBox="0 0 597 597" fill="none" xmlns="http://www.w3.org/2000/svg">
<path d="M262.799 343.287C313.018 331.431 367.572 372.946 419.571 364.779C469.719 356.946 510.912 316.947 490.805 262.752C471.319 210.216 414.484 175.876 361.626 176.175C328.886 176.354 311.765 175.852 282.75 153.584C260.291 136.415 242.727 114.72 215.301 105.43C162.013 87.377 136.832 119.615 133.429 161.99C129.751 207.864 93.6326 232.329 85.2985 276.387C78.242 313.652 92.5938 363.478 141.643 376.038C187.457 387.763 223.946 352.457 262.799 343.287Z" fill="#407BFF"/>
<path d="M262.799 343.287C313.018 331.431 367.572 372.946 419.571 364.779C469.719 356.946 510.912 316.947 490.805 262.752C471.319 210.216 414.484 175.876 361.626 176.175C328.886 176.354 311.765 175.852 282.75 153.584C260.291 136.415 242.727 114.72 215.301 105.43C162.013 87.377 136.832 119.615 133.429 161.99C129.751 207.864 93.6326 232.329 85.2985 276.387C78.242 313.652 92.5938 363.478 141.643 376.038C187.457 387.763 223.946 352.457 262.799 343.287Z" fill="white"/>
<path d="M298.501 510.507C426.357 510.507 530.005 504.455 530.005 496.991C530.005 489.526 426.357 483.475 298.501 483.475C170.644 483.475 66.9961 489.526 66.9961 496.991C66.9961 504.455 170.644 510.507 298.501 510.507Z" fill="#E1EAFA"/>
<path d="M197.726 170.873C197.953 168.235 209.32 158.504 221.188 165.297C233.057 172.091 224.472 192.628 237.379 194.622C229.021 202.98 201.798 213.189 193.428 203.601C185.058 194.013 183.983 167.16 197.726 170.873Z" fill="#263238"/>
<path d="M245.533 237.093C245.844 241.51 246.309 246.191 246.93 250.656C247.486 255.057 248.38 259.408 249.605 263.671C249.748 264.184 249.927 264.674 250.094 265.152L250.548 266.417C250.642 266.692 250.779 266.95 250.954 267.181C251.229 267.587 252.817 267.957 254.679 267.719C258.935 266.994 263.064 265.663 266.942 263.766L269.975 268.22C269.01 269.068 268.002 269.865 266.954 270.608C265.927 271.348 264.876 272.065 263.766 272.71C261.462 274.12 258.981 275.216 256.387 275.969C254.886 276.389 253.337 276.614 251.778 276.638C249.844 276.652 247.937 276.189 246.226 275.289C244.377 274.275 242.86 272.749 241.856 270.895L241.533 270.262L241.33 269.808L240.913 268.877C240.626 268.268 240.351 267.683 240.136 267.038C238.352 262.28 237.044 257.356 236.232 252.34C235.399 247.467 234.876 242.545 234.668 237.606L245.533 237.093Z" fill="#FFC3BD"/>
<path d="M239.695 225.224C249.379 232.627 248.985 246.597 248.985 246.597L231.636 250.74C231.636 250.74 226.323 236.699 228.484 231.552C230.764 226.191 234.251 221.045 239.695 225.224Z" fill="#407BFF"/>
<path d="M266 264.805L272.364 258.429L275.791 268.399C275.791 268.399 270.418 271.301 265.271 268.555L266 264.805Z" fill="#FFC3BD"/>
<path d="M281.175 257.45L282.345 265.319L275.79 268.387L272.363 258.429L281.175 257.45Z" fill="#FFC3BD"/>
<path d="M183.59 488.704L193.333 489.647L203.47 466.472L193.727 465.517L183.59 488.704Z" fill="#FFC3BD"/>
<path d="M120.869 454.436L128.176 461.302L143.973 443.953L136.654 437.076L120.869 454.436Z" fill="#FFC3BD"/>
<path d="M131.555 458.007L126.062 448.108C125.97 447.937 125.819 447.804 125.637 447.736C125.454 447.668 125.253 447.669 125.071 447.738L116.606 450.962C116.396 451.051 116.208 451.183 116.053 451.349C115.897 451.515 115.779 451.712 115.704 451.927C115.63 452.142 115.602 452.37 115.621 452.597C115.641 452.823 115.708 453.043 115.818 453.243C117.8 456.657 118.922 458.21 121.346 462.568C122.827 465.242 125.728 471.391 127.782 475.093C129.835 478.794 133.596 476.955 133.071 475.236C130.683 467.499 131.173 463.201 131.877 459.786C131.986 459.173 131.871 458.542 131.555 458.007Z" fill="#263238"/>
<path d="M194.622 486.639H182.682C182.466 486.639 182.257 486.711 182.087 486.843C181.916 486.974 181.794 487.159 181.739 487.367L179.1 496.835C179.036 497.058 179.026 497.293 179.07 497.521C179.113 497.749 179.21 497.963 179.352 498.147C179.493 498.33 179.676 498.478 179.886 498.578C180.095 498.678 180.325 498.727 180.557 498.722C184.771 498.722 186.765 498.722 192.031 498.722H208.102C212.472 498.722 213.391 494.304 211.577 493.946C203.469 492.155 198.801 489.683 196.293 487.319C195.841 486.891 195.245 486.648 194.622 486.639Z" fill="#263238"/>
<path opacity="0.2" d="M203.457 466.484L198.239 478.424H188.078L193.714 465.529L203.457 466.484Z" fill="black"/>
<path opacity="0.2" d="M136.653 437.087L143.96 443.953L135.817 452.896L128.51 446.03L136.653 437.087Z" fill="black"/>
<path d="M236.77 223.78C236.77 223.78 241.188 225.666 226.466 283.814L185.679 280.292C187.804 263.743 188.7 253.51 183.721 218.753C189.533 218.066 195.387 217.803 201.237 217.965C207.44 218.061 213.628 218.596 219.756 219.565C225.494 220.684 231.173 222.09 236.77 223.78Z" fill="#407BFF"/>
<path d="M208.531 238.585C208.496 238.597 208.458 238.597 208.424 238.585C199.6 231.326 194.096 220.126 195.863 217.487C195.885 217.449 195.922 217.422 195.964 217.411C196.006 217.4 196.052 217.406 196.09 217.427C196.128 217.452 196.156 217.491 196.167 217.535C196.178 217.579 196.172 217.626 196.149 217.666C194.549 220.138 200.018 231.135 208.448 238.155C210.573 231.743 214.191 229.176 214.226 229.152C214.264 229.136 214.307 229.132 214.347 229.143C214.387 229.154 214.421 229.179 214.445 229.213C214.469 229.246 214.481 229.287 214.478 229.329C214.475 229.37 214.458 229.409 214.429 229.439C214.429 229.439 210.776 232.03 208.686 238.501C208.678 238.527 208.664 238.549 208.646 238.568C208.627 238.587 208.604 238.601 208.579 238.609L208.531 238.585Z" fill="white"/>
<path d="M222.645 238.979C222.616 238.973 222.589 238.958 222.568 238.937C222.547 238.916 222.532 238.889 222.526 238.86C220.675 232.197 216.986 229.547 216.95 229.523C216.923 229.489 216.908 229.447 216.908 229.403C216.908 229.36 216.923 229.318 216.95 229.284C216.983 229.254 217.025 229.238 217.07 229.238C217.114 229.238 217.156 229.254 217.189 229.284C217.189 229.284 220.902 231.946 222.813 238.502C227.242 233.069 224.723 222.741 223.004 220.09C222.981 220.05 222.975 220.003 222.986 219.959C222.997 219.914 223.025 219.876 223.063 219.851C223.094 219.823 223.135 219.807 223.177 219.807C223.219 219.807 223.259 219.823 223.29 219.851C225.069 222.609 227.684 233.427 222.86 238.955C222.831 238.98 222.795 238.996 222.757 239.001C222.718 239.005 222.68 238.997 222.645 238.979Z" fill="white"/>
<path d="M204.878 197.273C205.523 203.326 205.75 214.347 201.236 217.965C205.622 222.033 210.519 225.512 215.803 228.317C222.896 223.421 219.755 219.565 219.755 219.565C213.248 217.404 213.785 212.496 215.409 207.959L204.878 197.273Z" fill="#FFC3BD"/>
<path opacity="0.2" d="M209.165 201.631L215.398 207.959C215.021 209.011 214.737 210.093 214.55 211.195C212.043 210.61 208.413 208.007 208.365 205.32C208.418 204.054 208.689 202.806 209.165 201.631Z" fill="black"/>
<path d="M199.541 187.804C202.072 197.488 202.932 201.631 208.866 205.714C217.797 211.816 229.164 206.598 229.558 196.353C229.928 187.136 225.737 172.855 215.373 170.838C213.094 170.384 210.736 170.52 208.524 171.233C206.311 171.946 204.318 173.212 202.732 174.912C201.146 176.611 200.021 178.687 199.462 180.944C198.904 183.2 198.931 185.561 199.541 187.804Z" fill="#FFC3BD"/>
<path d="M202.3 195.052C205.583 199.828 214.144 171.375 203.052 172.27C191.96 173.166 193.297 185.213 202.3 195.052Z" fill="#263238"/>
<path d="M203.767 173.894C210.179 177.154 228.841 181.058 226.286 175.864C224.891 173.259 222.815 171.081 220.279 169.565C217.742 168.049 214.841 167.25 211.886 167.256C205.797 167.16 198.107 171.029 203.767 173.894Z" fill="#263238"/>
<path d="M198.741 196.007C199.186 196.858 199.795 197.612 200.532 198.227C201.27 198.842 202.122 199.305 203.039 199.589C205.499 200.329 206.777 198.144 206.132 195.804C205.559 193.691 203.589 190.765 201.105 191.028C200.562 191.1 200.045 191.306 199.602 191.629C199.159 191.952 198.804 192.38 198.569 192.875C198.334 193.37 198.227 193.916 198.257 194.463C198.287 195.01 198.453 195.541 198.741 196.007Z" fill="#FFC3BD"/>
<path d="M226.465 283.814C226.465 283.814 240.268 344.863 231.062 387.907C224.889 416.73 202.633 474.961 202.633 474.961L185.236 474.52C185.236 474.52 202.084 413.411 205.534 389.375C211.504 348.266 196.579 281.235 196.579 281.235L226.465 283.814Z" fill="#263238"/>
<path opacity="0.2" d="M210.55 296.112L201.857 309.843C204.479 326.113 206.141 342.523 206.836 358.988C219.063 337.102 213.272 307.742 210.55 296.112Z" fill="black"/>
<path d="M205.082 475.869L183.59 475.32L184.844 468.717L206.765 469.756L205.082 475.869Z" fill="#407BFF"/>
<path d="M217.546 283.169C217.546 283.169 209.45 347.908 191.899 383.25C177.726 411.811 139.9 452.442 139.9 452.442L130.229 442.484C130.229 442.484 155.78 398.306 166.311 379.346C192.149 332.851 171.087 297.366 185.678 280.244L217.546 283.169Z" fill="#263238"/>
<path d="M140.88 453.78L128.402 441.613L132.546 435.977L145.775 449.195L140.88 453.78Z" fill="#407BFF"/>
<path d="M185.273 277.844L183.124 281.33C182.957 281.605 183.267 281.915 183.733 281.963L226.514 285.664C226.884 285.664 227.206 285.533 227.242 285.306L227.923 281.724C227.923 281.474 227.672 281.235 227.278 281.199L185.966 277.617C185.84 277.593 185.711 277.601 185.59 277.641C185.469 277.681 185.36 277.75 185.273 277.844Z" fill="#407BFF"/>
<path opacity="0.3" d="M185.273 277.844L183.124 281.33C182.957 281.605 183.267 281.915 183.733 281.963L226.514 285.664C226.884 285.664 227.206 285.533 227.242 285.306L227.923 281.724C227.923 281.474 227.672 281.235 227.278 281.199L185.966 277.617C185.84 277.593 185.711 277.601 185.59 277.641C185.469 277.681 185.36 277.75 185.273 277.844Z" fill="black"/>
<path d="M190.418 282.978L189.32 282.882C189.093 282.882 188.938 282.727 188.961 282.596L189.893 277.891C189.893 277.76 190.12 277.665 190.346 277.677L191.445 277.772C191.672 277.772 191.827 277.927 191.803 278.059L190.872 282.763C190.848 282.859 190.645 282.978 190.418 282.978Z" fill="#263238"/>
<path d="M223.374 285.784L222.263 285.688C222.048 285.688 221.881 285.545 221.917 285.402L222.836 280.709C222.836 280.566 223.075 280.47 223.29 280.494L224.4 280.59C224.615 280.59 224.771 280.733 224.747 280.876L223.815 285.569C223.792 285.712 223.589 285.808 223.374 285.784Z" fill="#263238"/>
<path d="M206.897 284.363L205.786 284.267C205.571 284.267 205.416 284.124 205.44 283.981L206.371 279.288C206.371 279.145 206.598 279.05 206.813 279.073L207.923 279.169C208.15 279.169 208.306 279.312 208.282 279.444L207.35 284.148C207.308 284.228 207.241 284.292 207.159 284.331C207.078 284.37 206.985 284.381 206.897 284.363Z" fill="#263238"/>
<path d="M215.935 187.458C216.09 188.258 216.64 188.819 217.129 188.712C217.619 188.604 217.953 187.888 217.798 187.088C217.643 186.288 217.093 185.727 216.604 185.822C216.114 185.918 215.768 186.67 215.935 187.458Z" fill="#263238"/>
<path d="M224.949 185.691C225.105 186.491 225.654 187.064 226.143 186.957C226.633 186.849 226.955 186.121 226.8 185.321C226.645 184.521 226.096 183.96 225.606 184.067C225.117 184.175 224.794 184.903 224.949 185.691Z" fill="#263238"/>
<path d="M225.391 184.151L227.194 183.231C227.194 183.231 226.501 184.915 225.391 184.151Z" fill="#263238"/>
<path d="M221.846 187.685C222.907 189.367 224.193 190.898 225.666 192.234C225.316 192.602 224.891 192.89 224.419 193.078C223.947 193.265 223.439 193.348 222.932 193.321L221.846 187.685Z" fill="#ED847E"/>
<path d="M219.267 197.118C217.585 197.14 215.959 196.521 214.717 195.386C214.68 195.348 214.658 195.297 214.658 195.243C214.658 195.189 214.68 195.138 214.717 195.1C214.735 195.081 214.757 195.067 214.78 195.057C214.804 195.047 214.829 195.042 214.855 195.042C214.88 195.042 214.906 195.047 214.929 195.057C214.953 195.067 214.974 195.081 214.992 195.1C215.757 195.77 216.669 196.252 217.654 196.507C218.638 196.762 219.669 196.783 220.664 196.568C220.716 196.558 220.77 196.568 220.815 196.597C220.859 196.626 220.891 196.672 220.902 196.724C220.908 196.749 220.908 196.775 220.903 196.8C220.897 196.825 220.887 196.849 220.873 196.87C220.858 196.891 220.84 196.909 220.818 196.923C220.797 196.937 220.772 196.946 220.747 196.95C220.26 197.055 219.764 197.111 219.267 197.118Z" fill="#263238"/>
<path d="M210.515 184.377C210.448 184.395 210.378 184.395 210.312 184.377C210.266 184.351 210.227 184.315 210.196 184.272C210.165 184.23 210.142 184.182 210.13 184.131C210.118 184.079 210.116 184.026 210.124 183.974C210.133 183.922 210.152 183.873 210.18 183.828C210.546 183.182 211.063 182.634 211.687 182.231C212.311 181.827 213.023 181.581 213.762 181.512C213.814 181.51 213.866 181.519 213.914 181.537C213.962 181.556 214.007 181.583 214.044 181.619C214.082 181.654 214.112 181.697 214.134 181.744C214.155 181.791 214.167 181.842 214.168 181.894C214.17 181.946 214.161 181.997 214.143 182.046C214.124 182.094 214.097 182.138 214.061 182.176C214.026 182.214 213.983 182.244 213.936 182.265C213.889 182.287 213.838 182.298 213.786 182.3C213.175 182.366 212.588 182.577 212.075 182.915C211.562 183.254 211.138 183.71 210.837 184.246C210.797 184.291 210.747 184.327 210.691 184.349C210.635 184.372 210.575 184.382 210.515 184.377Z" fill="#263238"/>
<path d="M227.456 181.177C227.389 181.194 227.32 181.194 227.253 181.177C226.728 180.862 226.136 180.677 225.525 180.638C224.915 180.598 224.303 180.705 223.743 180.951C223.649 180.998 223.54 181.006 223.44 180.975C223.34 180.944 223.256 180.875 223.205 180.783C223.18 180.737 223.165 180.687 223.16 180.635C223.155 180.582 223.16 180.53 223.176 180.48C223.192 180.43 223.217 180.383 223.251 180.343C223.284 180.303 223.326 180.27 223.372 180.246C224.052 179.939 224.795 179.801 225.539 179.842C226.283 179.884 227.006 180.104 227.647 180.485C227.693 180.51 227.733 180.544 227.765 180.584C227.798 180.625 227.822 180.671 227.836 180.721C227.851 180.771 227.855 180.824 227.849 180.875C227.843 180.927 227.827 180.977 227.802 181.022C227.761 181.074 227.709 181.116 227.648 181.143C227.588 181.17 227.522 181.182 227.456 181.177Z" fill="#263238"/>
<path d="M189.536 234.024C187.936 236.675 186.241 239.397 184.653 242.119C183.065 244.842 181.429 247.54 179.877 250.274C178.325 253.009 176.88 255.743 175.65 258.465C175.316 259.146 175.053 259.815 174.743 260.483C174.432 261.152 174.241 261.785 173.99 262.441C173.876 262.739 173.792 263.047 173.74 263.361C173.74 263.516 173.74 263.468 173.668 263.444C173.596 263.42 173.871 263.898 174.862 264.316C176.014 264.774 177.217 265.095 178.444 265.271C181.385 265.696 184.357 265.867 187.327 265.785C193.604 265.614 199.866 265.096 206.085 264.232L207.279 269.474C200.935 271.462 194.426 272.877 187.829 273.701C184.365 274.149 180.867 274.265 177.381 274.047C175.403 273.919 173.448 273.538 171.566 272.913C170.417 272.522 169.325 271.98 168.319 271.301C167.015 270.442 165.941 269.277 165.192 267.908C164.442 266.538 164.04 265.005 164.02 263.444C164.005 262.148 164.182 260.856 164.546 259.612C164.808 258.74 165.059 257.833 165.346 256.997C165.632 256.161 165.919 255.325 166.241 254.513C167.507 251.289 168.904 248.257 170.42 245.296C171.937 242.334 173.501 239.433 175.125 236.579C176.748 233.726 178.444 230.944 180.319 228.15L189.536 234.024Z" fill="#FFC3BD"/>
<path d="M203.648 265.45L211.612 261.235L211.91 270.107C211.91 270.107 206.346 272.113 203.051 269.534L203.648 265.45Z" fill="#FFC3BD"/>
<path d="M216.459 261.868L215.265 269.725L211.91 270.107L211.6 261.235L216.459 261.868Z" fill="#FFC3BD"/>
<path d="M183.721 218.753C178.718 219.696 171.709 234.024 171.709 234.024L187.231 247.457C187.231 247.457 194.335 234.49 193.81 227.97C193.356 222.395 190.085 217.63 183.721 218.753Z" fill="#407BFF"/>
<path d="M133.489 463.331C133.355 463.329 133.223 463.309 133.095 463.272C131.901 462.866 131.113 460.645 130.707 459.367C130.686 459.335 130.676 459.298 130.676 459.26C130.676 459.222 130.686 459.185 130.707 459.152C130.741 459.133 130.78 459.122 130.82 459.122C130.86 459.122 130.899 459.133 130.933 459.152C131.292 459.344 134.515 461.051 134.587 462.305C134.602 462.442 134.579 462.58 134.52 462.704C134.461 462.829 134.369 462.934 134.253 463.009C134.036 463.191 133.77 463.303 133.489 463.331ZM131.268 459.749C131.829 461.529 132.545 462.699 133.226 462.926C133.38 462.972 133.543 462.978 133.7 462.942C133.857 462.906 134.002 462.831 134.121 462.723C134.182 462.686 134.232 462.633 134.264 462.57C134.295 462.506 134.308 462.435 134.301 462.364C134.241 461.552 132.366 460.335 131.268 459.69V459.749Z" fill="#407BFF"/>
<path d="M133.978 460.215C132.89 460.211 131.817 459.963 130.838 459.487C130.808 459.467 130.784 459.441 130.767 459.41C130.751 459.378 130.742 459.343 130.742 459.308C130.744 459.273 130.755 459.24 130.774 459.21C130.793 459.181 130.819 459.157 130.85 459.141C130.957 459.081 133.488 457.684 134.85 458.174C135.017 458.229 135.171 458.321 135.299 458.443C135.427 458.565 135.526 458.713 135.59 458.878C135.675 459.038 135.704 459.221 135.671 459.399C135.639 459.577 135.547 459.738 135.411 459.857C134.987 460.134 134.482 460.26 133.978 460.215ZM131.375 459.308C132.462 459.774 134.563 460.06 135.16 459.559C135.256 459.475 135.351 459.332 135.16 459.033C135.116 458.921 135.049 458.819 134.962 458.734C134.876 458.65 134.772 458.585 134.659 458.544C133.787 458.221 132.103 458.962 131.339 459.308H131.375Z" fill="#407BFF"/>
<path d="M199.935 488.573C198.833 488.549 197.737 488.413 196.663 488.167C196.623 488.155 196.586 488.132 196.559 488.1C196.531 488.068 196.514 488.029 196.508 487.987C196.506 487.946 196.516 487.904 196.537 487.868C196.559 487.832 196.59 487.803 196.627 487.784C197.117 487.558 201.403 485.552 202.597 486.292C202.698 486.359 202.777 486.453 202.828 486.562C202.878 486.672 202.898 486.793 202.884 486.913C202.875 487.131 202.816 487.344 202.713 487.537C202.61 487.729 202.464 487.895 202.287 488.023C201.582 488.453 200.757 488.645 199.935 488.573ZM197.344 487.892C198.633 488.143 201.021 488.453 202 487.713C202.133 487.62 202.24 487.496 202.315 487.353C202.39 487.21 202.429 487.051 202.43 486.889C202.43 486.722 202.43 486.662 202.323 486.626C201.714 486.208 199.147 487.152 197.344 487.892Z" fill="#407BFF"/>
<path d="M196.712 488.167C196.67 488.184 196.623 488.184 196.581 488.167C196.561 488.139 196.551 488.106 196.551 488.072C196.551 488.037 196.561 488.004 196.581 487.976C196.581 487.797 197.608 483.51 199.96 483.785C200.545 483.857 200.712 484.143 200.736 484.382C200.891 485.469 198.157 487.666 196.843 488.203L196.712 488.167ZM199.685 484.119C198.181 484.119 197.297 486.615 197.011 487.606C198.431 486.866 200.378 485.087 200.282 484.382C200.282 484.382 200.282 484.179 199.852 484.131L199.685 484.119Z" fill="#407BFF"/>
<path d="M216.365 185.93L218.18 184.998C218.18 184.998 217.488 186.694 216.365 185.93Z" fill="#263238"/>
<path d="M425.816 224.675C425.757 225.499 425.685 226.084 425.601 226.765C425.518 227.445 425.422 228.054 425.315 228.687C425.1 229.964 424.849 231.218 424.575 232.472C424.016 234.97 423.327 237.437 422.509 239.863C420.843 244.765 418.581 249.445 415.775 253.797L414.676 255.421L414.402 255.815L414.234 256.053L413.984 256.388C413.62 256.818 413.22 257.218 412.79 257.582C411.386 258.844 409.711 259.767 407.894 260.28C405.107 261.03 402.209 261.284 399.333 261.032C394.254 260.613 389.261 259.471 384.504 257.641L385.793 252.495C390.284 252.954 394.804 253.046 399.309 252.77C401.215 252.662 403.092 252.259 404.874 251.576C405.335 251.385 405.745 251.086 406.068 250.704C405.936 250.883 406.736 249.51 407.262 248.651C409.35 244.795 411.035 240.733 412.288 236.531C412.933 234.406 413.482 232.257 413.96 230.108C414.199 229.021 414.414 227.935 414.605 226.86L414.855 225.248L415.07 223.78L425.816 224.675Z" fill="#E6A078"/>
<path d="M428.3 217.666C428.563 224.353 425.972 236.412 425.972 236.412L409.423 234.406C409.423 234.406 408.814 216.759 412.026 212.496C417.411 205.368 428.061 211.338 428.3 217.666Z" fill="#263238"/>
<path d="M388.049 253.2L378.139 249.677L380.204 257.104C380.204 257.104 384.837 259.815 387.488 256.734L388.049 253.2Z" fill="#E6A078"/>
<path d="M374.736 251.576L373.375 256.818L380.217 257.104L378.151 249.677L374.736 251.576Z" fill="#E6A078"/>
<path d="M328.195 286.274C335.093 286.378 341.942 285.11 348.344 282.543C354.747 279.975 360.575 276.161 365.489 271.32C370.404 266.48 374.306 260.71 376.97 254.347C379.634 247.984 381.006 241.155 381.006 234.257C381.006 227.359 379.634 220.53 376.97 214.167C374.306 207.804 370.404 202.034 365.489 197.194C360.575 192.353 354.747 188.538 348.344 185.971C341.942 183.404 335.093 182.136 328.195 182.24H321.449V286.274H328.195Z" fill="#407BFF"/>
<path d="M321.448 286.273C350.18 286.273 373.471 262.982 373.471 234.251C373.471 205.52 350.18 182.228 321.448 182.228C292.717 182.228 269.426 205.52 269.426 234.251C269.426 262.982 292.717 286.273 321.448 286.273Z" fill="#407BFF"/>
<path opacity="0.4" d="M321.448 286.273C350.18 286.273 373.471 262.982 373.471 234.251C373.471 205.52 350.18 182.228 321.448 182.228C292.717 182.228 269.426 205.52 269.426 234.251C269.426 262.982 292.717 286.273 321.448 286.273Z" fill="black"/>
<path opacity="0.2" d="M354.065 266.874C372.078 248.861 372.078 219.657 354.065 201.645C336.052 183.632 306.848 183.632 288.835 201.645C270.823 219.657 270.823 248.861 288.835 266.874C306.848 284.887 336.052 284.887 354.065 266.874Z" fill="#407BFF"/>
<path d="M345.16 237.224C343 234.801 340.092 233.17 336.898 232.591C339.039 231.936 340.973 230.735 342.509 229.105C344.426 226.915 345.453 224.086 345.387 221.177C345.421 219.438 345.078 217.713 344.381 216.119C343.685 214.526 342.651 213.103 341.351 211.947C338.669 209.456 334.816 208.21 329.793 208.21H326.701V199.47H320.862V208.21H313.627V199.47H307.788V208.21H295.096V218.765H299.693V249.749H295.132V260.292H307.824V269.032H313.662V260.292H320.898V269.032H326.737V260.292H327.477C329.876 260.177 332.267 259.938 334.641 259.576C336.77 259.411 338.849 258.844 340.766 257.904C342.909 256.69 344.69 254.926 345.924 252.794C347.191 250.578 347.838 248.062 347.799 245.51C347.921 242.524 346.986 239.59 345.16 237.224ZM315.895 218.765H322.999C325.447 218.765 327.155 219.195 328.134 220.042C328.634 220.489 329.028 221.044 329.284 221.664C329.54 222.284 329.653 222.954 329.614 223.624C329.656 224.319 329.545 225.015 329.289 225.663C329.033 226.31 328.639 226.894 328.134 227.373C327.155 228.233 325.411 228.663 322.904 228.663H315.895V218.765ZM329.972 247.636C328.778 248.615 326.88 249.104 324.11 249.104H315.895V238.561H324.074C326.892 238.561 328.862 239.027 329.984 239.958C330.534 240.405 330.973 240.972 331.267 241.616C331.561 242.261 331.702 242.964 331.68 243.672C331.711 244.418 331.574 245.162 331.278 245.848C330.982 246.534 330.536 247.145 329.972 247.636Z" fill="white"/>
<path d="M378.712 183.375C378.712 184.151 378.271 184.784 377.769 184.796C377.268 184.807 376.85 184.175 376.862 183.411C376.874 182.646 377.291 182.002 377.805 181.99C378.318 181.978 378.724 182.611 378.712 183.375Z" fill="#263238"/>
<path d="M378.032 182.037L376.109 181.488C376.109 181.488 377.1 182.957 378.032 182.037Z" fill="#263238"/>
<path d="M378.043 184.139C377.321 185.919 376.361 187.594 375.189 189.118C375.59 189.392 376.044 189.577 376.522 189.659C377 189.742 377.491 189.72 377.959 189.595L378.043 184.139Z" fill="#A02724"/>
<path d="M377.734 178.24C377.805 178.258 377.879 178.258 377.949 178.24C378.499 178.043 379.087 177.976 379.667 178.044C380.247 178.112 380.804 178.314 381.292 178.634C381.389 178.707 381.511 178.739 381.63 178.722C381.69 178.714 381.747 178.694 381.798 178.663C381.85 178.633 381.895 178.593 381.931 178.545C381.967 178.497 381.994 178.443 382.009 178.385C382.024 178.327 382.027 178.266 382.019 178.207C382.01 178.148 381.99 178.091 381.96 178.039C381.93 177.987 381.889 177.942 381.842 177.906C381.232 177.505 380.538 177.249 379.813 177.158C379.089 177.067 378.353 177.143 377.663 177.381C377.605 177.398 377.552 177.427 377.506 177.466C377.46 177.505 377.423 177.552 377.396 177.606C377.369 177.659 377.354 177.718 377.35 177.778C377.347 177.838 377.356 177.898 377.376 177.954C377.405 178.029 377.453 178.095 377.516 178.146C377.579 178.196 377.654 178.229 377.734 178.24Z" fill="#263238"/>
<path d="M401.601 191.625C401.087 197.44 403.033 206.956 407.427 210.192C407.427 210.192 404.12 216.305 393.529 217.726C381.876 219.29 387.344 212.735 387.344 212.735C393.541 210.347 392.884 205.726 391.308 201.476L401.601 191.625Z" fill="#E6A078"/>
<path d="M380.433 224.544C379.167 230.596 377.573 236.575 375.657 242.454C373.784 248.375 371.543 254.173 368.946 259.815L368.457 260.889C368.254 261.307 367.991 261.797 367.752 262.238C367.284 263.065 366.765 263.862 366.2 264.626C365.164 265.988 364.035 267.276 362.821 268.483C360.549 270.728 358.132 272.822 355.586 274.751C350.653 278.489 345.435 281.834 339.98 284.757L337.055 280.316C341.58 276.542 346.105 272.602 350.284 268.567C352.345 266.608 354.298 264.54 356.135 262.37C356.974 261.37 357.748 260.317 358.451 259.218C358.752 258.739 359.027 258.245 359.275 257.737L359.562 257.056L359.956 256.041C361.006 253.343 361.938 250.573 362.881 247.803C363.824 245.033 364.648 242.215 365.472 239.445C367.084 233.809 368.6 228.018 369.925 222.418L380.433 224.544Z" fill="#E6A078"/>
<path d="M340.516 284.339L335.023 287.921L332.301 283.253C332.301 283.253 337.698 276.805 340.957 281.39L340.516 284.339Z" fill="#E6A078"/>
<path d="M339.096 279.527L335.991 279.062L332.505 279.802L331.609 280.817L333.878 281.151L334.475 282.047L335.239 282.536L339.096 279.527Z" fill="#E6A078"/>
<path d="M329.568 288.387L326.547 285.951L332.302 283.277L335.024 287.945L329.568 288.387Z" fill="#E6A078"/>
<path d="M418.808 486.448L409.172 487.164L406.307 465.039L415.942 464.323L418.808 486.448Z" fill="#E6A078"/>
<path d="M480.502 458.341L472.156 463.415L458.281 446.078L466.627 441.004L480.502 458.341Z" fill="#E6A078"/>
<path d="M469.66 461.553L477.576 453.935C477.707 453.801 477.883 453.719 478.07 453.706C478.257 453.693 478.443 453.749 478.591 453.864L485.337 459.069C485.5 459.214 485.631 459.391 485.72 459.59C485.809 459.789 485.856 460.004 485.856 460.222C485.856 460.439 485.809 460.655 485.72 460.853C485.631 461.052 485.5 461.229 485.337 461.374C482.532 463.989 481.051 465.111 477.565 468.466C475.427 470.532 472.502 473.756 469.541 476.609C466.58 479.463 463.702 476.765 464.681 475.32C469.099 468.848 468.43 466.425 468.836 463.117C468.918 462.515 469.21 461.961 469.66 461.553Z" fill="#263238"/>
<path d="M408.574 485.791H419.403C419.59 485.789 419.771 485.854 419.914 485.975C420.056 486.095 420.15 486.263 420.179 486.448L421.636 495.009C421.667 495.223 421.651 495.44 421.59 495.648C421.529 495.855 421.425 496.047 421.283 496.21C421.141 496.373 420.966 496.504 420.77 496.593C420.573 496.683 420.359 496.729 420.143 496.728C416.358 496.728 414.532 496.442 409.768 496.442C406.842 496.442 400.789 496.74 396.741 496.74C392.693 496.74 392.383 492.74 394.054 492.382C401.565 490.758 404.49 488.513 406.974 486.412C407.416 486.021 407.983 485.8 408.574 485.791Z" fill="#263238"/>
<path opacity="0.2" d="M406.318 465.039L407.906 477.337L417.423 475.737L415.954 464.334L406.318 465.039Z" fill="black"/>
<path opacity="0.2" d="M466.627 441.004L458.281 446.09L464.024 453.254L472.55 448.395L466.627 441.004Z" fill="black"/>
<path d="M423.667 268.244L384.647 273.486C369.531 218.753 373.997 217.272 373.997 217.272C376.917 215.895 379.92 214.699 382.988 213.69L383.525 213.523C386.044 212.771 386.57 212.663 389.925 211.899C395.692 210.884 401.041 210.096 407.644 209.511L408.838 209.416C410.032 209.332 411.226 209.273 412.42 209.237C413.196 209.237 413.96 209.237 414.688 209.177H418.497C419.244 209.194 419.978 209.366 420.655 209.682C421.332 209.998 421.935 210.451 422.428 211.012C422.921 211.573 423.292 212.23 423.517 212.942C423.743 213.654 423.818 214.405 423.739 215.147C420.42 244.054 421.482 253.51 423.667 268.244Z" fill="#263238"/>
<path opacity="0.2" d="M380.886 234.024C381.663 239.684 380.938 245.449 378.784 250.74C376.182 240.066 374.785 232.83 374.08 227.815C377.017 227.684 380.122 228.83 380.886 234.024Z" fill="black"/>
<path d="M374.331 217.117C367.657 220.938 363.012 230.048 361.615 235.338L375.836 248.352C375.836 248.352 385.03 230.657 382.63 225.869C380.122 220.89 376.863 215.672 374.331 217.117Z" fill="#263238"/>
<path d="M404.897 180.891C404.169 190.443 404.073 194.431 399.154 199.374C391.763 206.813 380.133 204.15 377.972 194.73C376.038 186.228 377.531 172.044 386.987 168.199C389.01 167.295 391.233 166.934 393.438 167.151C395.643 167.368 397.754 168.156 399.561 169.438C401.369 170.719 402.812 172.449 403.748 174.457C404.683 176.465 405.079 178.683 404.897 180.891Z" fill="#E6A078"/>
<path d="M385.208 184.724C386.187 181.345 378.593 177.5 377.781 172.318C376.73 165.596 381.936 160.163 386.796 163.327C388.766 158.826 402.139 156.927 409.482 162.503C417.744 168.76 407.619 175.375 415.858 180.915C422.425 185.333 423.32 188.079 419.261 193.368C416.18 197.392 424.144 196.532 422.126 203.338C420.108 210.144 378.915 212.64 384.384 197.368C389.243 183.876 383.273 191.625 385.208 184.724Z" fill="#263238"/>
<path d="M387.523 183.972C387.465 185.743 386.86 187.453 385.792 188.867C384.311 190.873 382.58 190.336 382.21 188.485C381.828 186.825 382.15 183.781 384.025 182.396C385.9 181.011 387.511 181.99 387.523 183.972Z" fill="#E6A078"/>
<path d="M418.843 193.727C418.807 193.726 418.772 193.714 418.743 193.691C418.715 193.669 418.694 193.638 418.684 193.603C418.675 193.568 418.677 193.531 418.691 193.497C418.705 193.463 418.729 193.435 418.76 193.416C421.351 191.924 422.736 189.834 422.676 187.661C422.605 184.867 420.288 182.049 416.503 180.127C411.99 177.834 412.336 174.73 412.682 171.769C413.029 168.808 413.375 165.632 408.969 163.077C408.93 163.052 408.902 163.014 408.889 162.971C408.876 162.927 408.879 162.88 408.897 162.838C408.922 162.799 408.961 162.772 409.005 162.76C409.049 162.749 409.096 162.756 409.136 162.778C413.745 165.453 413.375 168.677 413.017 171.805C412.659 174.933 412.348 177.691 416.599 179.876C420.503 181.846 422.879 184.772 422.963 187.697C422.963 190.085 421.578 192.21 418.879 193.751C418.866 193.744 418.854 193.736 418.843 193.727Z" fill="#263238"/>
<path d="M394.951 272.101C394.951 272.101 410.103 336.123 417.183 372.91C424.646 411.715 460.49 452.144 460.49 452.144L472.657 445.362C472.657 445.362 450.102 408.468 442.807 372.23C427.953 298.679 438.031 283.874 423.703 268.256L394.951 272.101Z" fill="#407BFF"/>
<path d="M459.284 453.278L474.472 444.813L472.251 440.323L455.213 448.168L459.284 453.278Z" fill="#263238"/>
<path opacity="0.2" d="M402.998 286.011C414.783 296.243 413.505 332.577 412.275 348.887C407.332 325.628 401.386 299.742 397.947 284.757C399.141 283.826 400.837 284.172 402.998 286.011Z" fill="black"/>
<path d="M466.341 465.97C466.455 465.989 466.572 465.989 466.687 465.97C467.881 465.97 469.302 464.108 470.018 463.009C470.042 462.972 470.054 462.928 470.054 462.884C470.054 462.84 470.042 462.796 470.018 462.759C469.994 462.719 469.958 462.688 469.915 462.671C469.872 462.654 469.824 462.651 469.78 462.663C469.397 462.735 465.947 463.463 465.493 464.609C465.443 464.735 465.426 464.872 465.445 465.006C465.464 465.14 465.518 465.267 465.601 465.373C465.771 465.652 466.033 465.862 466.341 465.97ZM469.314 463.26C468.311 464.693 467.344 465.541 466.675 465.553C466.532 465.553 466.392 465.515 466.268 465.444C466.145 465.373 466.042 465.27 465.971 465.147C465.933 465.101 465.907 465.046 465.897 464.987C465.887 464.929 465.891 464.868 465.911 464.812C466.162 464.203 467.941 463.594 469.314 463.272V463.26Z" fill="#407BFF"/>
<path d="M385.231 273.51C385.231 273.51 378.413 349.532 382.079 378.498C385.947 408.659 405.636 474.269 405.636 474.269L419.523 472.478C419.523 472.478 408.239 407.453 406.233 377.603C404.048 345.042 413.756 269.653 413.756 269.653L385.231 273.51Z" fill="#407BFF"/>
<path d="M402.724 475.093L422.533 472.538L422.222 466.687L400.742 468.765L402.724 475.093Z" fill="#263238"/>
<path d="M466.854 462.985C467.842 463.253 468.876 463.306 469.886 463.141C469.926 463.13 469.963 463.108 469.992 463.079C470.021 463.05 470.042 463.013 470.053 462.973C470.062 462.935 470.061 462.896 470.05 462.859C470.04 462.821 470.02 462.787 469.994 462.758C469.91 462.675 468.024 460.729 466.627 460.788C466.446 460.791 466.269 460.834 466.108 460.914C465.946 460.995 465.805 461.111 465.695 461.254C465.564 461.38 465.481 461.548 465.459 461.728C465.437 461.909 465.478 462.092 465.576 462.245C465.906 462.63 466.356 462.891 466.854 462.985ZM469.349 462.77C468.155 462.902 466.316 462.556 465.958 462.006C465.898 461.911 465.851 461.779 466.042 461.541C466.115 461.449 466.207 461.374 466.312 461.323C466.418 461.271 466.533 461.243 466.651 461.242C467.687 461.459 468.63 461.993 469.349 462.77Z" fill="#407BFF"/>
<path d="M404.992 487.474C406.008 487.456 407.02 487.34 408.013 487.128C408.059 487.119 408.101 487.095 408.133 487.061C408.165 487.027 408.186 486.984 408.192 486.937C408.2 486.89 408.193 486.841 408.171 486.798C408.15 486.755 408.115 486.72 408.073 486.698C407.631 486.471 403.727 484.501 402.568 485.17C402.46 485.228 402.369 485.314 402.304 485.419C402.239 485.524 402.202 485.644 402.198 485.767C402.177 485.974 402.206 486.183 402.283 486.377C402.36 486.57 402.482 486.742 402.64 486.877C403.335 487.335 404.163 487.545 404.992 487.474ZM407.249 486.806C405.124 487.152 403.536 487.068 402.939 486.543C402.838 486.449 402.76 486.334 402.71 486.206C402.66 486.078 402.641 485.94 402.652 485.803C402.652 485.754 402.666 485.706 402.691 485.664C402.716 485.622 402.752 485.587 402.795 485.564C403.428 485.206 405.649 486.042 407.249 486.806Z" fill="#407BFF"/>
<path d="M407.966 487.152C408.013 487.163 408.062 487.163 408.109 487.152C408.14 487.126 408.164 487.093 408.178 487.055C408.193 487.018 408.198 486.977 408.192 486.937C408.192 486.77 407.739 482.83 405.578 482.83H405.387C404.766 482.889 404.587 483.2 404.551 483.462C404.372 484.549 406.7 486.638 407.882 487.164L407.966 487.152ZM405.578 483.247C406.975 483.247 407.524 485.54 407.691 486.519C406.497 485.803 404.909 484.131 405.005 483.51C405.005 483.45 405.005 483.295 405.446 483.259L405.578 483.247Z" fill="#407BFF"/>
<path d="M424 265.892L426.125 269.128C426.292 269.379 426.006 269.689 425.552 269.749L384.634 275.241C384.287 275.241 383.977 275.157 383.929 274.943L383.213 271.528C383.213 271.289 383.44 271.038 383.834 270.99L423.331 265.689C423.451 265.663 423.575 265.668 423.692 265.703C423.809 265.739 423.915 265.804 424 265.892Z" fill="#407BFF"/>
<path opacity="0.5" d="M424 265.892L426.125 269.128C426.292 269.379 426.006 269.689 425.552 269.749L384.634 275.241C384.287 275.241 383.977 275.157 383.929 274.943L383.213 271.528C383.213 271.289 383.44 271.038 383.834 270.99L423.331 265.689C423.451 265.663 423.575 265.668 423.692 265.703C423.809 265.739 423.915 265.804 424 265.892Z" fill="white"/>
<path d="M419.166 271.038L420.229 270.895C420.432 270.895 420.587 270.74 420.551 270.608L419.584 266.167C419.584 266.047 419.357 265.964 419.142 265.987L418.091 266.131C417.877 266.131 417.721 266.286 417.757 266.417L418.724 270.859C418.76 270.931 418.951 271.038 419.166 271.038Z" fill="#407BFF"/>
<path d="M392.443 274.62L393.494 274.477C393.709 274.477 393.852 274.321 393.828 274.19L392.849 269.748C392.849 269.617 392.634 269.534 392.419 269.569L391.357 269.701C391.154 269.701 390.999 269.868 391.034 269.999L392.002 274.429C392.037 274.62 392.228 274.62 392.443 274.62Z" fill="#407BFF"/>
</svg>
