<svg width="18" height="18" viewBox="0 0 18 18" fill="none" xmlns="http://www.w3.org/2000/svg">
<path d="M8.5808 10.203C8.3819 10.203 8.19117 10.1239 8.05055 9.98326L5.39855 7.32901C5.25794 7.18836 5.17896 6.99763 5.17896 6.79876C5.17896 6.59988 5.25794 6.40915 5.39855 6.26851L10.1708 1.49625C10.2529 1.41383 10.353 1.35168 10.4633 1.31475L12.054 0.784505C12.1863 0.740399 12.3282 0.734018 12.4638 0.766077C12.5995 0.798137 12.7235 0.86737 12.822 0.966005L14.4135 2.55675C14.5121 2.65534 14.5811 2.77941 14.6131 2.91507C14.645 3.05072 14.6385 3.19259 14.5943 3.32476L14.0633 4.91625C14.0267 5.02654 13.9648 5.12672 13.8825 5.20876L9.11105 9.98326C8.97043 10.1239 8.77969 10.203 8.5808 10.203Z" fill="#0057FF"/>
<path d="M5.39842 7.32898L4.33642 8.39023C4.26669 8.45988 4.21137 8.5426 4.17363 8.63365C4.13588 8.7247 4.11646 8.82229 4.11646 8.92085C4.11646 9.01942 4.13588 9.11701 4.17363 9.20806C4.21137 9.29911 4.26669 9.38183 4.33642 9.45148L5.92792 11.0415C6.06856 11.1821 6.2593 11.2611 6.45817 11.2611C6.65704 11.2611 6.84777 11.1821 6.98842 11.0415L8.04892 9.98173L5.39842 7.32898Z" fill="#0057FF"/>
<path d="M6 13.5037H3C2.80109 13.5037 2.61032 13.4246 2.46967 13.284C2.32902 13.1433 2.25 12.9526 2.25 12.7537C2.25 12.5547 2.32902 12.364 2.46967 12.2233C2.61032 12.0827 2.80109 12.0037 3 12.0037H6C6.19891 12.0037 6.38968 12.0827 6.53033 12.2233C6.67098 12.364 6.75 12.5547 6.75 12.7537C6.75 12.9526 6.67098 13.1433 6.53033 13.284C6.38968 13.4246 6.19891 13.5037 6 13.5037Z" fill="#0057FF"/>
<path d="M15 17.2538H3C2.80109 17.2538 2.61032 17.1748 2.46967 17.0341C2.32902 16.8935 2.25 16.7027 2.25 16.5038C2.25 16.3049 2.32902 16.1141 2.46967 15.9735C2.61032 15.8328 2.80109 15.7538 3 15.7538H15C15.1989 15.7538 15.3897 15.8328 15.5303 15.9735C15.671 16.1141 15.75 16.3049 15.75 16.5038C15.75 16.7027 15.671 16.8935 15.5303 17.0341C15.3897 17.1748 15.1989 17.2538 15 17.2538Z" fill="#0057FF"/>
<path d="M11.112 15.7538C11.2008 15.5136 11.2475 15.2599 11.25 15.0038C11.25 14.407 11.0129 13.8348 10.591 13.4128C10.169 12.9908 9.59674 12.7538 9 12.7538C8.40326 12.7538 7.83097 12.9908 7.40901 13.4128C6.98705 13.8348 6.75 14.407 6.75 15.0038C6.75247 15.2599 6.79916 15.5136 6.888 15.7538H11.112Z" fill="#0057FF"/>
<path d="M13.4048 5.68726L12.3435 6.74851C13.0893 7.5716 13.5016 8.64305 13.5 9.75376C13.4953 10.6078 13.2497 11.4431 12.7913 12.1637C12.3329 12.8843 11.6803 13.4609 10.9088 13.827C11.1304 14.1799 11.2486 14.5878 11.25 15.0045C11.2479 15.1069 11.2379 15.2089 11.22 15.3098C12.33 14.8629 13.2821 14.0961 13.9552 13.1068C14.6283 12.1174 14.992 10.9503 15 9.75376C15.0022 8.24519 14.4321 6.79195 13.4048 5.68726ZM7.06501 13.8743C6.77952 13.7585 6.50472 13.618 6.24376 13.4543C6.16566 13.4845 6.08298 13.5013 5.99926 13.5038H3.99451C4.75121 14.3495 5.71163 14.9878 6.78451 15.3578C6.76261 15.241 6.75106 15.1225 6.75001 15.0038C6.7521 14.6059 6.86088 14.2158 7.06501 13.8743Z" fill="#0057FF"/>
</svg>
