<svg width="100" height="32" viewBox="0 0 100 32" fill="none" xmlns="http://www.w3.org/2000/svg">
<g clip-path="url(#clip0)">
<path d="M92.0366 0.000104H7.96787C7.66143 0.000104 7.35867 0.000104 7.05304 0.001704C6.79719 0.003304 6.54339 0.007952 6.28509 0.011864C5.72395 0.0181854 5.16413 0.065445 4.61049 0.153232C4.05763 0.24293 3.52209 0.412037 3.02198 0.654832C2.52248 0.899681 2.06607 1.21784 1.66931 1.59776C1.27048 1.97661 0.938012 2.41452 0.684708 2.89463C0.430706 3.37379 0.25458 3.88725 0.162413 4.41729C0.06937 4.94665 0.0193027 5.48212 0.0126604 6.01889C0.0049054 6.26417 0.00408644 6.51026 0 6.75558V25.247C0.00408644 25.4954 0.0049054 25.736 0.0126604 25.9845C0.0193047 26.5212 0.069372 27.0567 0.162413 27.586C0.254325 28.1164 0.430462 28.6301 0.684708 29.1095C0.937897 29.588 1.27041 30.0242 1.66931 30.4009C2.06457 30.7825 2.52127 31.1009 3.02198 31.3439C3.52208 31.5873 4.05757 31.7574 4.61049 31.8485C5.16422 31.9356 5.72399 31.9829 6.28509 31.9899C6.54339 31.9954 6.79719 31.9985 7.05304 31.9985C7.35866 32.0001 7.66145 32.0001 7.96787 32.0001H92.0366C92.337 32.0001 92.6422 32.0001 92.9425 31.9985C93.1971 31.9985 93.4583 31.9954 93.7129 31.9899C94.2729 31.9832 94.8317 31.936 95.3842 31.8485C95.9389 31.7568 96.4764 31.5867 96.9789 31.3439C97.4791 31.1007 97.9354 30.7824 98.3303 30.4009C98.7282 30.0227 99.0614 29.5869 99.3178 29.1095C99.5701 28.6298 99.7446 28.1161 99.8351 27.586C99.9283 27.0566 99.9802 26.5213 99.9902 25.9845C99.9935 25.736 99.9935 25.4954 99.9935 25.247C100 24.9563 100 24.6673 100 24.3719V7.62901C100 7.33604 100 7.04541 99.9935 6.75558C99.9935 6.51026 99.9935 6.26417 99.9902 6.01886C99.9802 5.48204 99.9283 4.94669 99.8351 4.41726C99.7443 3.88753 99.5699 3.37411 99.3178 2.8946C98.8019 1.93226 97.9839 1.14892 96.9789 0.65476C96.4763 0.412558 95.9389 0.243496 95.3842 0.15316C94.8318 0.0649862 94.273 0.0177102 93.7129 0.011752C93.4583 0.007848 93.1971 0.00316 92.9425 0.0016C92.6422 0 92.337 0 92.0366 0V0.000104Z" fill="#8499B1"/>
<path d="M7.05706 31.3002C6.80244 31.3002 6.55398 31.2971 6.30137 31.2916C5.77805 31.2851 5.25596 31.2415 4.73938 31.1612C4.25769 31.0817 3.79106 30.934 3.35488 30.7228C2.92271 30.5134 2.52853 30.2388 2.18745 29.9096C1.84143 29.5842 1.55335 29.2068 1.33464 28.7924C1.11351 28.3752 0.960475 27.9281 0.880866 27.4666C0.794896 26.9707 0.748382 26.4692 0.741726 25.9666C0.736428 25.7979 0.729492 25.2361 0.729492 25.2361V6.75567C0.729492 6.75567 0.73688 6.20254 0.741768 6.04004C0.748141 5.53818 0.794384 5.03752 0.880097 4.54238C0.959853 4.0796 1.113 3.63119 1.33425 3.2127C1.55217 2.79855 1.83864 2.42088 2.18258 2.09434C2.52612 1.76469 2.92156 1.48868 3.35447 1.27636C3.78965 1.06587 4.25539 0.919181 4.73611 0.841211C5.25439 0.760064 5.77829 0.716192 6.30342 0.709963L7.05747 0.700195H92.9383L93.7014 0.710355C94.2217 0.716275 94.7409 0.759755 95.2544 0.840427C95.74 0.919375 96.2106 1.06709 96.6507 1.27871C97.518 1.70658 98.2237 2.38353 98.6689 3.21465C98.8866 3.63026 99.0374 4.075 99.1161 4.53379C99.2029 5.03299 99.2514 5.53759 99.2614 6.04356C99.2638 6.27012 99.2638 6.51348 99.2638 6.75567C99.2704 7.05567 99.2704 7.34121 99.2704 7.6291V24.372C99.2704 24.6627 99.2704 24.9463 99.2638 25.2322C99.2638 25.4924 99.2638 25.7307 99.2605 25.976C99.2508 26.4729 99.2031 26.9685 99.1177 27.4588C99.0397 27.9236 98.8875 28.3742 98.6665 28.7948C98.4462 29.2047 98.1598 29.5788 97.8178 29.9033C97.4764 30.2343 97.0815 30.5106 96.6483 30.7213C96.2094 30.9341 95.7395 31.0824 95.2544 31.1612C94.7379 31.2419 94.2157 31.2855 93.6924 31.2916C93.4476 31.2971 93.1913 31.3002 92.9424 31.3002L92.0366 31.3018L7.05706 31.3002Z" fill="white"/>
<path d="M46.0588 13.304L43.5228 19H42.6828L40.1467 13.304H41.2188L43.1148 17.704L45.0108 13.304H46.0588ZM46.1284 14.96H47.1204V19H46.1284V14.96ZM47.1764 13.128V14.112H46.0644V13.128H47.1764ZM51.3503 17.032H48.5663C48.5876 17.464 48.6943 17.784 48.8863 17.992C49.0836 18.1947 49.3743 18.296 49.7583 18.296C50.201 18.296 50.6116 18.152 50.9903 17.864L51.2783 18.552C51.0863 18.7067 50.849 18.832 50.5663 18.928C50.289 19.0187 50.0063 19.064 49.7183 19.064C49.057 19.064 48.537 18.8773 48.1583 18.504C47.7796 18.1307 47.5903 17.6187 47.5903 16.968C47.5903 16.5573 47.673 16.192 47.8383 15.872C48.0036 15.552 48.2356 15.304 48.5343 15.128C48.833 14.9467 49.1716 14.856 49.5503 14.856C50.105 14.856 50.5423 15.0373 50.8623 15.4C51.1876 15.7573 51.3503 16.2507 51.3503 16.88V17.032ZM49.5743 15.576C49.3076 15.576 49.089 15.656 48.9183 15.816C48.753 15.9707 48.6463 16.1973 48.5983 16.496H50.4783C50.4463 16.192 50.353 15.9627 50.1983 15.808C50.049 15.6533 49.841 15.576 49.5743 15.576ZM58.1588 14.96L56.5748 19H55.7028L54.7028 16.352L53.7268 19H52.8468L51.2628 14.96H52.2868L53.3268 17.808L54.3748 14.96H55.0948L56.1428 17.832L57.1828 14.96H58.1588ZM62.7846 19.072C62.2353 19.072 61.7553 18.9547 61.3446 18.72C60.9393 18.48 60.6246 18.1413 60.4006 17.704C60.182 17.2613 60.0726 16.7413 60.0726 16.144C60.0726 15.552 60.182 15.0373 60.4006 14.6C60.6193 14.1573 60.9313 13.8187 61.3366 13.584C61.7473 13.3493 62.23 13.232 62.7846 13.232C63.3393 13.232 63.8193 13.3493 64.2246 13.584C64.6353 13.8187 64.9473 14.1573 65.1606 14.6C65.3793 15.0373 65.4886 15.552 65.4886 16.144C65.4886 16.7413 65.3793 17.2613 65.1606 17.704C64.942 18.1413 64.63 18.48 64.2246 18.72C63.8193 18.9547 63.3393 19.072 62.7846 19.072ZM62.7846 18.248C63.3126 18.248 63.7233 18.0667 64.0166 17.704C64.31 17.3413 64.4566 16.8213 64.4566 16.144C64.4566 15.472 64.31 14.9573 64.0166 14.6C63.7233 14.2373 63.3126 14.056 62.7846 14.056C62.2566 14.056 61.846 14.2347 61.5526 14.592C61.2593 14.9493 61.1126 15.4667 61.1126 16.144C61.1126 16.8213 61.2593 17.3413 61.5526 17.704C61.846 18.0667 62.2566 18.248 62.7846 18.248ZM68.3857 14.856C69.351 14.856 69.8337 15.4107 69.8337 16.52V19H68.8337V16.568C68.8337 16.248 68.7724 16.016 68.6497 15.872C68.527 15.7227 68.3377 15.648 68.0817 15.648C67.7777 15.648 67.5324 15.7467 67.3457 15.944C67.159 16.136 67.0657 16.392 67.0657 16.712V19H66.0737V16.104C66.0737 15.6773 66.0524 15.296 66.0097 14.96H66.9457L67.0177 15.624C67.1564 15.3787 67.343 15.1893 67.5777 15.056C67.8177 14.9227 68.087 14.856 68.3857 14.856ZM80.5213 13.304L78.5053 19H77.6653L76.2333 14.904L74.7853 19H73.9453L71.9373 13.304H72.9853L74.4093 17.552L75.8893 13.304H76.6253L78.0733 17.584L79.5293 13.304H80.5213ZM83.9175 17.032H81.1335C81.1548 17.464 81.2615 17.784 81.4535 17.992C81.6508 18.1947 81.9415 18.296 82.3255 18.296C82.7682 18.296 83.1788 18.152 83.5575 17.864L83.8455 18.552C83.6535 18.7067 83.4162 18.832 83.1335 18.928C82.8562 19.0187 82.5735 19.064 82.2855 19.064C81.6242 19.064 81.1042 18.8773 80.7255 18.504C80.3468 18.1307 80.1575 17.6187 80.1575 16.968C80.1575 16.5573 80.2402 16.192 80.4055 15.872C80.5708 15.552 80.8028 15.304 81.1015 15.128C81.4002 14.9467 81.7388 14.856 82.1175 14.856C82.6722 14.856 83.1095 15.0373 83.4295 15.4C83.7548 15.7573 83.9175 16.2507 83.9175 16.88V17.032ZM82.1415 15.576C81.8748 15.576 81.6562 15.656 81.4855 15.816C81.3202 15.9707 81.2135 16.1973 81.1655 16.496H83.0455C83.0135 16.192 82.9202 15.9627 82.7655 15.808C82.6162 15.6533 82.4082 15.576 82.1415 15.576ZM86.6683 14.856C87.0203 14.856 87.3296 14.944 87.5963 15.12C87.8683 15.2907 88.079 15.5333 88.2283 15.848C88.3776 16.1627 88.4523 16.528 88.4523 16.944C88.4523 17.36 88.375 17.7307 88.2203 18.056C88.071 18.376 87.8603 18.624 87.5883 18.8C87.3216 18.976 87.015 19.064 86.6683 19.064C86.3696 19.064 86.103 19 85.8683 18.872C85.639 18.744 85.4656 18.5653 85.3483 18.336V19H84.3643V13.112H85.3563V15.568C85.479 15.344 85.655 15.1707 85.8843 15.048C86.1136 14.92 86.375 14.856 86.6683 14.856ZM86.4043 18.28C86.735 18.28 86.991 18.1627 87.1723 17.928C87.3536 17.6933 87.4443 17.3653 87.4443 16.944C87.4443 16.528 87.3536 16.208 87.1723 15.984C86.991 15.7547 86.7323 15.64 86.3963 15.64C86.0603 15.64 85.8016 15.7547 85.6203 15.984C85.439 16.2133 85.3483 16.5387 85.3483 16.96C85.3483 17.3867 85.439 17.7147 85.6203 17.944C85.8016 18.168 86.063 18.28 86.4043 18.28Z" fill="#8499B1"/>
<path d="M12.0625 8C11.1043 8 10.3125 8.7985 10.3125 9.76471V19.4706H9.65625C9.29813 19.4706 9.00015 19.8024 9 20.1324V21.0147C9 22.1031 9.88941 23 10.9687 23H28.0313C29.1106 23 30 22.1031 30 21.0147V20.1324C30 19.7859 29.6873 19.4706 29.3438 19.4706H28.6875V9.76471C28.6875 8.7985 27.8956 8 26.9375 8H12.0625ZM12.0625 9.32353H26.9375C27.1912 9.32353 27.375 9.50885 27.375 9.76471V19.4706H11.625V9.76471C11.625 9.50885 11.8088 9.32353 12.0625 9.32353ZM10.3125 20.7941H28.6875V21.0147C28.6875 21.3928 28.4061 21.6765 28.0313 21.6765H10.9687C10.5938 21.6765 10.2934 21.3923 10.3125 21.0147V20.7941Z" fill="#8499B1"/>
</g>
<defs>
<clipPath id="clip0">
<rect width="100" height="32" fill="white"/>
</clipPath>
</defs>
</svg>
