<svg width="102" height="34" viewBox="0 0 102 34" fill="none" xmlns="http://www.w3.org/2000/svg">
<path d="M97.875 33H4.125C2.40625 33 1 31.56 1 29.8V4.2C1 2.44 2.40625 1 4.125 1H97.875C99.5938 1 101 2.44 101 4.2V29.8C101 31.56 99.5938 33 97.875 33Z" fill="white" stroke="#8499B1" stroke-width="0.75"/>
<path d="M15.2188 24.4406L8.1875 23.4006V17.3206H15.2188V24.4406ZM15.2188 16.7606H8.1875V11.0006L15.2188 9.96059V16.7606ZM24.8281 25.8006L15.7656 24.4406V17.3206H24.8281V25.8006ZM24.8281 16.7606H15.7656V9.96059L24.8281 8.60059V16.7606Z" fill="#8499B1"/>
<path d="M36.9385 13.1603C36.626 13.3203 35.9228 13.4803 35.1416 13.4803C34.2822 13.4803 33.501 13.2403 32.9541 12.6803C32.4854 12.2003 32.1729 11.4003 32.1729 10.4403C32.1729 8.68031 33.3447 7.32031 35.2979 7.32031C36.001 7.32031 36.4697 7.48031 36.7822 7.56031L36.626 8.20031C36.3135 8.04031 35.9228 7.96031 35.376 7.96031C33.9697 7.96031 33.0322 8.84031 33.0322 10.3603C33.0322 11.8803 33.8916 12.7603 35.2979 12.7603C35.7666 12.7603 36.1572 12.6803 36.3135 12.6003V10.8403H35.1416V10.2003H37.0166V13.1603H36.9385Z" fill="#8499B1"/>
<path d="M38.5 11.4C38.5 12.44 39.2031 12.92 39.9063 12.92C40.4531 12.92 40.7656 12.84 41.0781 12.68L41.2344 13.24C41 13.4 40.5313 13.48 39.8281 13.48C38.5781 13.48 37.7969 12.6 37.7969 11.32C37.7969 10.04 38.5 9 39.75 9C41.0781 9 41.4688 10.2 41.4688 11C41.4688 11.16 41.4688 11.32 41.4688 11.4H38.5ZM40.7656 10.84C40.7656 10.36 40.5313 9.56 39.75 9.56C38.9688 9.56 38.6563 10.28 38.5781 10.84H40.7656Z" fill="#8499B1"/>
<path d="M43.3437 7.87988V9.07988H44.4375V9.63988H43.3437V11.9599C43.3437 12.5199 43.5 12.7599 43.8906 12.7599C44.125 12.7599 44.2031 12.7599 44.3594 12.6799V13.2399C44.2031 13.3199 43.9687 13.3199 43.6562 13.3199C43.2656 13.3199 43.0312 13.2399 42.875 12.9999C42.6406 12.7599 42.5625 12.3599 42.5625 11.8799V9.55988H41.9375V8.99988H42.5625V7.95988L43.3437 7.87988Z" fill="#8499B1"/>
<path d="M47.9531 7.88039C47.9531 8.12039 47.7969 8.36039 47.4844 8.36039C47.25 8.36039 47.0156 8.12039 47.0156 7.88039C47.0156 7.64039 47.25 7.40039 47.4844 7.40039C47.7187 7.40039 47.9531 7.64039 47.9531 7.88039ZM47.0937 13.4004V9.08039H47.875V13.4004H47.0937Z" fill="#8499B1"/>
<path d="M49.9844 7.87988V9.07988H51.0781V9.63988H49.9844V11.9599C49.9844 12.5199 50.1406 12.7599 50.5312 12.7599C50.7656 12.7599 50.8437 12.7599 51 12.6799V13.2399C50.8437 13.3199 50.6094 13.3199 50.2969 13.3199C49.9062 13.3199 49.6719 13.2399 49.5156 12.9999C49.2812 12.7599 49.2031 12.3599 49.2031 11.8799V9.55988H48.5781V8.99988H49.2031V7.95988L49.9844 7.87988Z" fill="#8499B1"/>
<path d="M57.4844 11.24C57.4844 12.84 56.3906 13.56 55.375 13.56C54.2813 13.56 53.3438 12.68 53.3438 11.32C53.3438 9.88 54.2813 9 55.375 9C56.7031 9 57.4844 9.88 57.4844 11.24ZM54.2031 11.24C54.2031 12.2 54.75 12.92 55.4531 12.92C56.1563 12.92 56.7031 12.2 56.7031 11.24C56.7031 10.52 56.3125 9.56 55.4531 9.56C54.5938 9.56 54.2031 10.44 54.2031 11.24Z" fill="#8499B1"/>
<path d="M58.4219 10.28C58.4219 9.8 58.4219 9.48 58.4219 9.08H59.125L59.2031 9.8C59.4375 9.4 59.9063 9 60.6094 9C61.1563 9 62.0938 9.32 62.0938 10.84V13.4H61.3125V10.92C61.3125 10.2 61.0781 9.64 60.375 9.64C59.9062 9.64 59.5156 10.04 59.3594 10.44C59.3594 10.52 59.2813 10.68 59.2813 10.84V13.4H58.5V10.28H58.4219Z" fill="#8499B1"/>
<path d="M34.2031 26.3605L32.0938 17.6405H33.2656L34.2812 22.0405C34.5156 23.1605 34.75 24.2005 34.9063 25.0805C35.0625 24.2005 35.2969 23.1605 35.6094 22.0405L36.7031 17.6405H37.875L38.8906 22.0405C39.125 23.0805 39.3594 24.1205 39.5156 25.0005C39.6719 24.0405 39.9062 23.0805 40.2187 21.9605L41.3125 17.5605H42.4062L39.9844 26.2805H38.8125L37.7187 21.7205C37.4844 20.6005 37.25 19.7205 37.1719 18.8405C37.0156 19.7205 36.8594 20.5205 36.5469 21.7205L35.375 26.2805H34.2031V26.3605Z" fill="#8499B1"/>
<path d="M44.3594 18.2805C44.3594 18.6805 44.125 19.0005 43.6562 19.0005C43.2656 19.0005 42.9531 18.6805 42.9531 18.2805C42.9531 17.8805 43.2656 17.5605 43.6562 17.5605C44.125 17.6405 44.3594 17.8805 44.3594 18.2805ZM43.1094 26.3605V20.1205H44.2031V26.3605H43.1094Z" fill="#8499B1"/>
<path d="M45.6094 21.8C45.6094 21.16 45.6094 20.6 45.5312 20.12H46.5469L46.625 21.16C46.9375 20.6 47.6406 19.96 48.6562 19.96C49.5156 19.96 50.7656 20.44 50.7656 22.6V26.36H49.6719V22.76C49.6719 21.72 49.2812 20.92 48.2656 20.92C47.5625 20.92 46.9375 21.48 46.7813 22.12C46.7031 22.28 46.7031 22.44 46.7031 22.68V26.44H45.6094V21.8Z" fill="#8499B1"/>
<path d="M57.7187 17.1601V24.7601C57.7187 25.3201 57.7187 25.9601 57.7969 26.3601H56.7812L56.7031 25.2401C56.3906 25.9601 55.6094 26.4401 54.6719 26.4401C53.1875 26.4401 52.0938 25.1601 52.0938 23.2401C52.0938 21.1601 53.3437 19.8801 54.8281 19.8801C55.7656 19.8801 56.3906 20.3601 56.625 20.8401V17.0801H57.7187V17.1601ZM56.625 22.6001C56.625 22.4401 56.625 22.2801 56.5469 22.1201C56.3906 21.4001 55.7656 20.8401 54.9844 20.8401C53.8125 20.8401 53.1875 21.8801 53.1875 23.2401C53.1875 24.5201 53.8125 25.5601 54.9844 25.5601C55.6875 25.5601 56.3906 25.0801 56.625 24.2001C56.625 24.0401 56.7031 23.8801 56.7031 23.7201V22.6001H56.625Z" fill="#8499B1"/>
<path d="M64.6719 23.16C64.6719 25.48 63.1094 26.52 61.625 26.52C59.9844 26.52 58.7344 25.24 58.7344 23.32C58.7344 21.24 60.0625 19.96 61.7812 19.96C63.5 19.96 64.6719 21.24 64.6719 23.16ZM59.9062 23.24C59.9062 24.6 60.6875 25.64 61.7812 25.64C62.7969 25.64 63.6562 24.6 63.6562 23.24C63.6562 22.2 63.1094 20.84 61.8594 20.84C60.4531 20.76 59.9062 22.04 59.9062 23.24Z" fill="#8499B1"/>
<path d="M66.0781 20.04L66.8594 23.24C67.0156 23.96 67.1719 24.6 67.3281 25.24C67.4844 24.6 67.6406 23.96 67.875 23.24L68.8906 20.04H69.8281L70.7656 23.16C71 23.88 71.1562 24.6 71.3125 25.24C71.3906 24.6 71.5469 23.96 71.7812 23.24L72.6406 20.12H73.7344L71.7812 26.36H70.7656L69.8281 23.4C69.5937 22.68 69.4375 22.12 69.2812 21.32C69.125 22.04 68.9687 22.68 68.7344 23.4L67.7187 26.36H66.7812L64.9844 20.12H66.0781V20.04Z" fill="#8499B1"/>
<path d="M74.5937 25.16C74.9062 25.4 75.5312 25.64 76.0781 25.64C76.8594 25.64 77.25 25.24 77.25 24.68C77.25 24.12 76.9375 23.8 76.1562 23.56C75.0625 23.16 74.5156 22.52 74.5156 21.8C74.5156 20.76 75.2969 19.96 76.625 19.96C77.25 19.96 77.7969 20.12 78.1094 20.36L77.7969 21.16C77.5625 21 77.0937 20.76 76.5469 20.76C75.9219 20.76 75.5313 21.16 75.5313 21.64C75.5313 22.12 75.9219 22.36 76.7031 22.68C77.7188 23.08 78.2656 23.64 78.2656 24.6C78.2656 25.72 77.4062 26.44 76 26.44C75.2969 26.44 74.75 26.28 74.2812 26.04L74.5937 25.16Z" fill="#8499B1"/>
<path d="M83.4219 19L82.0156 19.8L81.7812 18.92L83.5781 17.96H84.5156V26.36H83.4219V19Z" fill="#8499B1"/>
<path d="M92.1719 22.0407C92.1719 24.9207 91.1562 26.4407 89.3594 26.4407C87.7969 26.4407 86.7031 24.9207 86.625 22.1207C86.625 19.3207 87.7969 17.7207 89.4375 17.7207C91.2344 17.8007 92.1719 19.4007 92.1719 22.0407ZM87.7187 22.2007C87.7187 24.3607 88.3437 25.6407 89.3594 25.6407C90.4531 25.6407 91 24.2807 91 22.1207C91 20.0407 90.4531 18.6807 89.3594 18.6807C88.4219 18.6807 87.7187 19.8807 87.7187 22.2007Z" fill="#8499B1"/>
</svg>
