<!-- Generated by IcoMoon.io -->
<svg version="1.1" xmlns="http://www.w3.org/2000/svg" width="35" height="32" viewBox="0 0 35 32">
<title>12</title>
<path fill="#e1eafa" opacity="0.5" d="M20.174 6.261v-1.043h4.174v1.043h2.087v-1.043c-0.001-0.553-0.221-1.084-0.612-1.475s-0.922-0.611-1.475-0.612h-4.174c-0.553 0.001-1.084 0.221-1.475 0.612s-0.611 0.922-0.612 1.475v1.043h2.087z"></path>
<path fill="#e1eafa" opacity="0.5" d="M19.13 15.652c-0.277 0-0.542-0.11-0.738-0.306s-0.306-0.461-0.306-0.738v-2.087c0-0.277 0.11-0.542 0.306-0.738s0.461-0.306 0.738-0.306 0.542 0.11 0.738 0.306c0.196 0.196 0.306 0.461 0.306 0.738v2.087c0 0.277-0.11 0.542-0.306 0.738s-0.461 0.306-0.738 0.306zM25.391 15.652c-0.277 0-0.542-0.11-0.738-0.306s-0.306-0.461-0.306-0.738v-2.087c0-0.277 0.11-0.542 0.306-0.738s0.461-0.306 0.738-0.306 0.542 0.11 0.738 0.306c0.196 0.196 0.306 0.461 0.306 0.738v2.087c0 0.277-0.11 0.542-0.306 0.738s-0.461 0.306-0.738 0.306z"></path>
<path fill="#cfe0ff" opacity="0.5" d="M30.609 6.261h-16.696c-0.553 0-1.084 0.22-1.476 0.611s-0.611 0.922-0.611 1.476v3.13c0 0.553 0.22 1.084 0.611 1.476s0.922 0.611 1.476 0.611h4.174v-1.043c0-0.277 0.11-0.542 0.306-0.738s0.461-0.306 0.738-0.306 0.542 0.11 0.738 0.306c0.196 0.196 0.306 0.461 0.306 0.738v1.043h4.174v-1.043c0-0.277 0.11-0.542 0.306-0.738s0.461-0.306 0.738-0.306 0.542 0.11 0.738 0.306c0.196 0.196 0.306 0.461 0.306 0.738v1.043h4.174c0.553 0 1.084-0.22 1.476-0.611s0.611-0.922 0.611-1.476v-3.13c0-0.553-0.22-1.084-0.611-1.476s-0.922-0.611-1.476-0.611z"></path>
<path fill="#e1eafa" opacity="0.5" d="M30.609 13.565h-4.174v1.043c0 0.277-0.11 0.542-0.306 0.738s-0.461 0.306-0.738 0.306-0.542-0.11-0.738-0.306c-0.196-0.196-0.306-0.461-0.306-0.738v-1.043h-4.174v1.043c0 0.277-0.11 0.542-0.306 0.738s-0.461 0.306-0.738 0.306-0.542-0.11-0.738-0.306c-0.196-0.196-0.306-0.461-0.306-0.738v-1.043h-4.174c-0.553 0-1.084-0.22-1.476-0.611s-0.611-0.922-0.611-1.476v8.348c0 0.553 0.22 1.084 0.611 1.476s0.922 0.611 1.476 0.611h16.696c0.553 0 1.084-0.22 1.476-0.611s0.611-0.922 0.611-1.476v-8.348c0 0.553-0.22 1.084-0.611 1.476s-0.922 0.611-1.476 0.611z"></path>
<path fill="#fff" d="M10.435 13.217v-1.043h4.174v1.043h2.087v-1.043c-0.001-0.553-0.221-1.084-0.612-1.475s-0.922-0.611-1.475-0.612h-4.174c-0.553 0.001-1.084 0.221-1.475 0.612s-0.611 0.922-0.612 1.475v1.043h2.087z"></path>
<path fill="#fff" d="M9.391 22.609c-0.277 0-0.542-0.11-0.738-0.306s-0.306-0.461-0.306-0.738v-2.087c0-0.277 0.11-0.542 0.306-0.738s0.461-0.306 0.738-0.306 0.542 0.11 0.738 0.306c0.196 0.196 0.306 0.461 0.306 0.738v2.087c0 0.277-0.11 0.542-0.306 0.738s-0.461 0.306-0.738 0.306zM15.652 22.609c-0.277 0-0.542-0.11-0.738-0.306s-0.306-0.461-0.306-0.738v-2.087c0-0.277 0.11-0.542 0.306-0.738s0.461-0.306 0.738-0.306 0.542 0.11 0.738 0.306c0.196 0.196 0.306 0.461 0.306 0.738v2.087c0 0.277-0.11 0.542-0.306 0.738s-0.461 0.306-0.738 0.306z"></path>
<path fill="#fff" d="M20.87 13.217h-16.696c-0.554 0-1.084 0.22-1.476 0.611s-0.611 0.922-0.611 1.476v3.13c0 0.553 0.22 1.084 0.611 1.476s0.922 0.611 1.476 0.611h4.174v-1.043c0-0.277 0.11-0.542 0.306-0.738s0.461-0.306 0.738-0.306 0.542 0.11 0.738 0.306c0.196 0.196 0.306 0.461 0.306 0.738v1.043h4.174v-1.043c0-0.277 0.11-0.542 0.306-0.738s0.461-0.306 0.738-0.306 0.542 0.11 0.738 0.306c0.196 0.196 0.306 0.461 0.306 0.738v1.043h4.174c0.553 0 1.084-0.22 1.476-0.611s0.611-0.922 0.611-1.476v-3.13c0-0.553-0.22-1.084-0.611-1.476s-0.922-0.611-1.476-0.611z"></path>
<path fill="#fff" d="M20.87 20.522h-4.174v1.043c0 0.277-0.11 0.542-0.306 0.738s-0.461 0.306-0.738 0.306-0.542-0.11-0.738-0.306c-0.196-0.196-0.306-0.461-0.306-0.738v-1.043h-4.174v1.043c0 0.277-0.11 0.542-0.306 0.738s-0.461 0.306-0.738 0.306-0.542-0.11-0.738-0.306c-0.196-0.196-0.306-0.461-0.306-0.738v-1.043h-4.174c-0.554 0-1.084-0.22-1.476-0.611s-0.611-0.922-0.611-1.476v8.348c0 0.553 0.22 1.084 0.611 1.476s0.922 0.611 1.476 0.611h16.696c0.553 0 1.084-0.22 1.476-0.611s0.611-0.922 0.611-1.476v-8.348c0 0.553-0.22 1.084-0.611 1.476s-0.922 0.611-1.476 0.611z"></path>
</svg>
