<!-- Generated by IcoMoon.io -->
<svg version="1.1" xmlns="http://www.w3.org/2000/svg" width="34" height="32" viewBox="0 0 34 32">
<title>15</title>
<path fill="#0057ff" d="M8.298 7.231l3.081 3.117c1.15-0.914 2.588-1.496 4.149-1.496 1.191 0 2.3 0.332 3.286 0.873l2.547-3.574c-1.684-1.081-3.697-1.704-5.833-1.704-2.752 0-5.299 1.081-7.23 2.784z"></path>
<path fill="#0057ff" d="M19.348 20.945c-0.904 0.665-1.972 1.080-3.122 1.205v4.405c2.259-0.125 4.313-0.997 5.997-2.327l-2.875-3.283z"></path>
<path fill="#0057ff" d="M14.829 30.254v-8.104c-3.327-0.332-5.874-3.2-5.874-6.608 0-1.579 0.534-3.034 1.479-4.197l-5.669-5.735c-2.465 2.701-3.779 6.192-3.779 9.891 0 7.896 6.162 14.379 13.843 14.753z"></path>
<path fill="#0057ff" d="M32.493 19.989l-10.722-2.369c-0.288 0.914-0.78 1.704-1.397 2.41l7.969 9.101c2.547-2.452 4.313-5.527 5.176-8.935l-1.027-0.208z"></path>
<path fill="#0057ff" d="M19.923 10.597c1.315 1.205 2.177 2.992 2.177 4.945 0 0.249 0 0.499-0.041 0.707l10.023 2.203c0.164-0.956 0.246-1.953 0.246-2.909 0-5.195-2.382-10.14-6.408-13.34l-5.997 8.395z"></path>
</svg>
