<!-- Generated by IcoMoon.io -->
<svg version="1.1" xmlns="http://www.w3.org/2000/svg" width="35" height="32" viewBox="0 0 35 32">
<title>16</title>
<path fill="#0057ff" d="M9.158 8.152c0 0.794-0.646 1.443-1.437 1.443h-6.285c-0.79 0-1.437-0.649-1.437-1.443s0.646-1.443 1.437-1.443h6.321c0.79 0.036 1.401 0.649 1.401 1.443zM9.158 13.887c0-0.794-0.646-1.443-1.437-1.443h-6.285c-0.79 0-1.437 0.649-1.437 1.443s0.646 1.443 1.437 1.443h6.321c0.79 0 1.401-0.649 1.401-1.443zM7.758 18.18h-6.321c-0.79 0-1.437 0.649-1.437 1.443s0.646 1.443 1.437 1.443h6.321c0.79 0 1.437-0.649 1.437-1.443-0.036-0.794-0.646-1.443-1.437-1.443zM34.909 7.502v12.771c0 1.732-1.401 3.138-3.125 3.138h-8.584c0 0 0 0.036-0.036 0.036l-3.986 4.004c-0.395 0.397-1.078 0.108-1.078-0.433v-3.608h-3.16c-1.724 0-3.125-1.407-3.125-3.138v-12.771c0-1.732 1.401-3.139 3.125-3.139h16.88c1.688 0 3.089 1.407 3.089 3.139zM22.195 9.053l0.18 6.782c0 0.18 0.144 0.289 0.287 0.289h1.365c0.18 0 0.287-0.144 0.287-0.289l0.18-6.782c0-0.18-0.144-0.361-0.359-0.361h-1.652c-0.144 0.036-0.287 0.18-0.287 0.361zM24.53 17.675c0-0.289-0.216-0.505-0.503-0.505h-1.329c-0.287 0-0.503 0.216-0.503 0.505v0.866c0 0.289 0.215 0.505 0.503 0.505h1.329c0.287 0 0.503-0.216 0.503-0.505v-0.866z"></path>
</svg>
