<!-- Generated by IcoMoon.io -->
<svg version="1.1" xmlns="http://www.w3.org/2000/svg" width="33" height="32" viewBox="0 0 33 32">
<title>2</title>
<path fill="#fff" d="M14.119 8.593v-1.228h5.153v1.228h2.577v-1.228c-0.001-0.651-0.272-1.275-0.755-1.735s-1.138-0.719-1.821-0.72h-5.153c-0.683 0.001-1.338 0.26-1.821 0.72s-0.755 1.084-0.755 1.735v1.228h2.576z"></path>
<path fill="#fff" d="M12.831 19.642c-0.342 0-0.669-0.129-0.911-0.36s-0.377-0.542-0.377-0.868v-2.455c0-0.326 0.136-0.638 0.377-0.868s0.569-0.36 0.911-0.36c0.342 0 0.669 0.129 0.911 0.36s0.377 0.542 0.377 0.868v2.455c0 0.326-0.136 0.638-0.377 0.868s-0.569 0.36-0.911 0.36zM20.561 19.642c-0.342 0-0.669-0.129-0.911-0.36s-0.377-0.542-0.377-0.868v-2.455c0-0.326 0.136-0.638 0.377-0.868s0.569-0.36 0.911-0.36c0.342 0 0.669 0.129 0.911 0.36s0.377 0.542 0.377 0.868v2.455c0 0.326-0.136 0.638-0.377 0.868s-0.569 0.36-0.911 0.36z"></path>
<path fill="#fff" d="M27.002 8.593h-20.612c-0.683 0-1.339 0.259-1.822 0.719s-0.755 1.085-0.755 1.736v3.683c0 0.651 0.271 1.276 0.755 1.736s1.139 0.719 1.822 0.719h5.153v-1.228c0-0.326 0.136-0.638 0.377-0.868s0.569-0.36 0.911-0.36c0.342 0 0.669 0.129 0.911 0.36s0.377 0.542 0.377 0.868v1.228h5.153v-1.228c0-0.326 0.136-0.638 0.377-0.868s0.569-0.36 0.911-0.36c0.342 0 0.669 0.129 0.911 0.36s0.377 0.542 0.377 0.868v1.228h5.153c0.683 0 1.339-0.259 1.822-0.719s0.755-1.085 0.755-1.736v-3.683c0-0.651-0.271-1.276-0.755-1.736s-1.139-0.719-1.822-0.719z"></path>
<path fill="#fff" d="M27.002 17.187h-5.153v1.228c0 0.326-0.136 0.638-0.377 0.868s-0.569 0.36-0.911 0.36c-0.342 0-0.669-0.129-0.911-0.36s-0.377-0.542-0.377-0.868v-1.228h-5.153v1.228c0 0.326-0.136 0.638-0.377 0.868s-0.569 0.36-0.911 0.36-0.669-0.129-0.911-0.36c-0.242-0.23-0.377-0.542-0.377-0.868v-1.228h-5.153c-0.683 0-1.339-0.259-1.822-0.719s-0.755-1.085-0.755-1.736v9.821c0 0.651 0.271 1.276 0.755 1.736s1.139 0.719 1.822 0.719h20.612c0.683 0 1.339-0.259 1.822-0.719s0.755-1.085 0.755-1.736v-9.821c0 0.651-0.271 1.276-0.755 1.736s-1.139 0.719-1.822 0.719z"></path>
<path fill="#0057ff" stroke="#0057ff" stroke-linejoin="miter" stroke-linecap="butt" stroke-miterlimit="4" stroke-width="1.3913" d="M19.496 19.561l-0.292 0.469 2.277 2.277-0.565 0.565-2.277-2.277-0.469 0.292c-1.609 1.003-3.725 0.814-5.12-0.581v0l-0.004-0.004c-1.624-1.601-1.629-4.229 0.004-5.862v0l0.004-0.004c1.6-1.623 4.227-1.629 5.86 0.002 1.376 1.401 1.582 3.519 0.583 5.122zM13.615 19.741c1.305 1.305 3.403 1.305 4.708 0 1.3-1.3 1.31-3.428-0.003-4.711-1.305-1.301-3.401-1.3-4.704 0.003-1.305 1.304-1.305 3.403 0 4.707z"></path>
</svg>
