<!-- Generated by IcoMoon.io -->
<svg version="1.1" xmlns="http://www.w3.org/2000/svg" width="32" height="32" viewBox="0 0 32 32">
<title>20</title>
<path fill="#0057ff" d="M3.013 13.027c-0.454 1.952-0.454 3.982 0 5.933 0.556 2.452 1.793 4.697 3.569 6.476s4.020 3.019 6.471 3.578l1.613 0.32v-8.080l-0.787-0.347c-1.237-0.547-2.226-1.536-2.773-2.773-0.294-0.673-0.445-1.399-0.445-2.133s0.152-1.46 0.445-2.133c0.547-1.23 1.53-2.213 2.76-2.76l0.8-0.36v-8.080l-1.627 0.373c-2.44 0.556-4.674 1.787-6.448 3.553s-3.013 3.995-3.579 6.433z"></path>
<path fill="#0057ff" d="M20.88 18.133c-0.075 0.169-0.16 0.334-0.253 0.493-0.061 0.121-0.133 0.237-0.213 0.347l-0.213 0.32-0.253 0.28c-0.354 0.399-0.768 0.741-1.227 1.013l-0.32 0.187-0.293 0.133-0.787 0.36v8.067l1.627-0.373c2.451-0.559 4.694-1.799 6.471-3.578s3.014-4.024 3.569-6.475l0.347-1.573h-8.133l-0.32 0.8z"></path>
<path fill="#0057ff" d="M18.493 11.293l0.267 0.16c0.47 0.289 0.893 0.648 1.253 1.067l0.147 0.16 0.12 0.173 0.187 0.267c0.076 0.11 0.143 0.226 0.2 0.347 0.079 0.138 0.151 0.28 0.213 0.427l0.347 0.8h8.107l-0.36-1.627c-0.556-2.452-1.793-4.697-3.569-6.475s-4.020-3.019-6.471-3.578l-1.6-0.347v8.067l0.787 0.36c0.128 0.059 0.253 0.126 0.373 0.2z"></path>
</svg>
