<!-- Generated by IcoMoon.io -->
<svg version="1.1" xmlns="http://www.w3.org/2000/svg" width="34" height="32" viewBox="0 0 34 32">
<title>8</title>
<path fill="#0057ff" d="M33.43 1.299c-0.281-0.183-0.628-0.188-0.913-0.012-6.037 3.715-13.451 5.652-23.336 6.096-0.493 0.022-0.882 0.471-0.882 1.017v10.55c0 0.546 0.389 0.995 0.882 1.017 9.884 0.444 17.299 2.381 23.336 6.096 0.139 0.085 0.293 0.128 0.447 0.128 0.161 0 0.323-0.047 0.466-0.141 0.281-0.184 0.453-0.517 0.453-0.878v-22.996c0-0.361-0.172-0.695-0.453-0.878z"></path>
<path fill="#0057ff" d="M5.637 7.432c-3.108 0-5.637 2.8-5.637 6.243s2.529 6.243 5.637 6.243c0.508 0 0.92-0.456 0.92-1.018v-10.449c0-0.563-0.411-1.018-0.92-1.018z"></path>
<path fill="#0057ff" d="M12.713 22.701c-0.154-0.501-0.567-0.846-1.045-0.873l-2.15-0.117c-0.38-0.019-0.749 0.167-0.982 0.504-0.232 0.336-0.301 0.778-0.182 1.18l1.931 6.989c0.156 0.531 0.602 0.891 1.107 0.891h2.231c0.001-0.001 0.002-0.001 0.003 0 0.643 0 1.164-0.578 1.164-1.288 0-0.179-0.033-0.35-0.092-0.504l-1.985-6.782z"></path>
</svg>
