<svg width="500" height="500" viewBox="0 0 500 500" fill="none" xmlns="http://www.w3.org/2000/svg">
<path d="M97.91 167.36C56.83 258.91 250.11 224 266.55 249.22C291.5 287.45 219.65 326.05 245.98 367.05C282.98 424.73 343.74 370 365.42 348.69C387.32 327.17 432.37 271.22 403.7 222.4C359.91 147.83 309.58 200.02 264.37 170.34C243.05 156.34 265.62 123.78 232.7 101.08C175.27 61.47 112.59 134.65 97.91 167.36Z" fill="#407BFF"/>
<path d="M97.91 167.36C56.83 258.91 250.11 224 266.55 249.22C291.5 287.45 219.65 326.05 245.98 367.05C282.98 424.73 343.74 370 365.42 348.69C387.32 327.17 432.37 271.22 403.7 222.4C359.91 147.83 309.58 200.02 264.37 170.34C243.05 156.34 265.62 123.78 232.7 101.08C175.27 61.47 112.59 134.65 97.91 167.36Z" fill="#D1DFFF"/>
<path d="M97.91 167.36C56.83 258.91 250.11 224 266.55 249.22C291.5 287.45 219.65 326.05 245.98 367.05C282.98 424.73 343.74 370 365.42 348.69C387.32 327.17 432.37 271.22 403.7 222.4C359.91 147.83 309.58 200.02 264.37 170.34C243.05 156.34 265.62 123.78 232.7 101.08C175.27 61.47 112.59 134.65 97.91 167.36Z" fill="white"/>
<path d="M250 427.56C357.082 427.56 443.89 422.492 443.89 416.24C443.89 409.988 357.082 404.92 250 404.92C142.917 404.92 56.11 409.988 56.11 416.24C56.11 422.492 142.917 427.56 250 427.56Z" fill="#F5F5F5"/>
<path d="M191.34 394.46H93.1499V412.94H191.34V394.46Z" fill="#407BFF"/>
<path opacity="0.2" d="M191.34 394.46H93.1499V396.56H191.34V394.46Z" fill="black"/>
<path opacity="0.2" d="M104.21 394.46H100.34V412.94H104.21V394.46Z" fill="black"/>
<path opacity="0.2" d="M113.09 394.46H109.22V412.94H113.09V394.46Z" fill="black"/>
<path opacity="0.2" d="M121.98 394.46H118.11V412.94H121.98V394.46Z" fill="black"/>
<path opacity="0.2" d="M130.86 394.46H126.99V412.94H130.86V394.46Z" fill="black"/>
<path opacity="0.2" d="M139.74 394.46H135.87V412.94H139.74V394.46Z" fill="black"/>
<path opacity="0.2" d="M148.63 394.46H144.76V412.94H148.63V394.46Z" fill="black"/>
<path opacity="0.2" d="M157.51 394.46H153.64V412.94H157.51V394.46Z" fill="black"/>
<path opacity="0.2" d="M166.39 394.46H162.52V412.94H166.39V394.46Z" fill="black"/>
<path opacity="0.2" d="M175.28 394.46H171.41V412.94H175.28V394.46Z" fill="black"/>
<path opacity="0.2" d="M184.16 394.46H180.29V412.94H184.16V394.46Z" fill="black"/>
<path d="M187.35 375.98H89.1599V394.46H187.35V375.98Z" fill="#407BFF"/>
<path opacity="0.2" d="M187.35 375.98H89.1599V378.08H187.35V375.98Z" fill="black"/>
<path opacity="0.2" d="M100.21 375.98H96.34V394.46H100.21V375.98Z" fill="black"/>
<path opacity="0.2" d="M109.1 375.98H105.23V394.46H109.1V375.98Z" fill="black"/>
<path opacity="0.2" d="M117.98 375.98H114.11V394.46H117.98V375.98Z" fill="black"/>
<path opacity="0.2" d="M126.86 375.98H122.99V394.46H126.86V375.98Z" fill="black"/>
<path opacity="0.2" d="M135.75 375.98H131.88V394.46H135.75V375.98Z" fill="black"/>
<path opacity="0.2" d="M144.63 375.98H140.76V394.46H144.63V375.98Z" fill="black"/>
<path opacity="0.2" d="M153.51 375.98H149.64V394.46H153.51V375.98Z" fill="black"/>
<path opacity="0.2" d="M162.4 375.98H158.53V394.46H162.4V375.98Z" fill="black"/>
<path opacity="0.2" d="M171.28 375.98H167.41V394.46H171.28V375.98Z" fill="black"/>
<path opacity="0.2" d="M180.16 375.98H176.29V394.46H180.16V375.98Z" fill="black"/>
<path d="M184.52 357.5H86.33V375.98H184.52V357.5Z" fill="#407BFF"/>
<path opacity="0.2" d="M184.52 357.5H86.33V359.6H184.52V357.5Z" fill="black"/>
<path opacity="0.2" d="M97.3899 357.5H93.5199V375.98H97.3899V357.5Z" fill="black"/>
<path opacity="0.2" d="M106.27 357.5H102.4V375.98H106.27V357.5Z" fill="black"/>
<path opacity="0.2" d="M115.16 357.5H111.29V375.98H115.16V357.5Z" fill="black"/>
<path opacity="0.2" d="M124.04 357.5H120.17V375.98H124.04V357.5Z" fill="black"/>
<path opacity="0.2" d="M132.92 357.5H129.05V375.98H132.92V357.5Z" fill="black"/>
<path opacity="0.2" d="M141.81 357.5H137.94V375.98H141.81V357.5Z" fill="black"/>
<path opacity="0.2" d="M150.69 357.5H146.82V375.98H150.69V357.5Z" fill="black"/>
<path opacity="0.2" d="M159.57 357.5H155.7V375.98H159.57V357.5Z" fill="black"/>
<path opacity="0.2" d="M168.46 357.5H164.59V375.98H168.46V357.5Z" fill="black"/>
<path opacity="0.2" d="M177.34 357.5H173.47V375.98H177.34V357.5Z" fill="black"/>
<path d="M188.97 339.03H90.7799V357.51H188.97V339.03Z" fill="#407BFF"/>
<path opacity="0.2" d="M188.97 339.03H90.7799V341.13H188.97V339.03Z" fill="black"/>
<path opacity="0.2" d="M101.83 339.03H97.96V357.51H101.83V339.03Z" fill="black"/>
<path opacity="0.2" d="M110.72 339.03H106.85V357.51H110.72V339.03Z" fill="black"/>
<path opacity="0.2" d="M119.6 339.03H115.73V357.51H119.6V339.03Z" fill="black"/>
<path opacity="0.2" d="M128.48 339.03H124.61V357.51H128.48V339.03Z" fill="black"/>
<path opacity="0.2" d="M137.37 339.03H133.5V357.51H137.37V339.03Z" fill="black"/>
<path opacity="0.2" d="M146.25 339.03H142.38V357.51H146.25V339.03Z" fill="black"/>
<path opacity="0.2" d="M155.13 339.03H151.26V357.51H155.13V339.03Z" fill="black"/>
<path opacity="0.2" d="M164.02 339.03H160.15V357.51H164.02V339.03Z" fill="black"/>
<path opacity="0.2" d="M172.9 339.03H169.03V357.51H172.9V339.03Z" fill="black"/>
<path opacity="0.2" d="M181.78 339.03H177.91V357.51H181.78V339.03Z" fill="black"/>
<path d="M86.4699 339.02H184.66V320.54H86.4699V339.02Z" fill="#407BFF"/>
<path opacity="0.2" d="M86.4699 322.64H184.66V320.54H86.4699V322.64Z" fill="black"/>
<path opacity="0.2" d="M173.6 339.02H177.47V320.54H173.6V339.02Z" fill="black"/>
<path opacity="0.2" d="M164.71 339.02H168.58V320.54H164.71V339.02Z" fill="black"/>
<path opacity="0.2" d="M155.83 339.02H159.7V320.54H155.83V339.02Z" fill="black"/>
<path opacity="0.2" d="M146.95 339.02H150.82V320.54H146.95V339.02Z" fill="black"/>
<path opacity="0.2" d="M138.06 339.02H141.93V320.54H138.06V339.02Z" fill="black"/>
<path opacity="0.2" d="M129.18 339.02H133.05V320.54H129.18V339.02Z" fill="black"/>
<path opacity="0.2" d="M120.3 339.02H124.17V320.54H120.3V339.02Z" fill="black"/>
<path opacity="0.2" d="M111.41 339.02H115.28V320.54H111.41V339.02Z" fill="black"/>
<path opacity="0.2" d="M102.53 339.02H106.4V320.54H102.53V339.02Z" fill="black"/>
<path opacity="0.2" d="M93.6499 339.02H97.5199V320.54H93.6499V339.02Z" fill="black"/>
<path d="M90.4599 320.55H188.65V302.07H90.4599V320.55Z" fill="#407BFF"/>
<path opacity="0.2" d="M90.4599 304.17H188.65V302.07H90.4599V304.17Z" fill="black"/>
<path opacity="0.2" d="M177.59 320.55H181.46V302.07H177.59V320.55Z" fill="black"/>
<path opacity="0.2" d="M168.72 320.55H172.59V302.07H168.72V320.55Z" fill="black"/>
<path opacity="0.2" d="M159.83 320.55H163.7V302.07H159.83V320.55Z" fill="black"/>
<path opacity="0.2" d="M150.94 320.55H154.81V302.07H150.94V320.55Z" fill="black"/>
<path opacity="0.2" d="M142.07 320.55H145.94V302.07H142.07V320.55Z" fill="black"/>
<path opacity="0.2" d="M133.18 320.55H137.05V302.07H133.18V320.55Z" fill="black"/>
<path opacity="0.2" d="M124.29 320.55H128.16V302.07H124.29V320.55Z" fill="black"/>
<path opacity="0.2" d="M115.42 320.55H119.29V302.07H115.42V320.55Z" fill="black"/>
<path opacity="0.2" d="M106.53 320.55H110.4V302.07H106.53V320.55Z" fill="black"/>
<path opacity="0.2" d="M97.64 320.55H101.51V302.07H97.64V320.55Z" fill="black"/>
<path d="M93.29 302.07H191.48V283.59H93.29V302.07Z" fill="#407BFF"/>
<path opacity="0.2" d="M93.29 285.69H191.48V283.59H93.29V285.69Z" fill="black"/>
<path opacity="0.2" d="M180.42 302.07H184.29V283.59H180.42V302.07Z" fill="black"/>
<path opacity="0.2" d="M171.53 302.07H175.4V283.59H171.53V302.07Z" fill="black"/>
<path opacity="0.2" d="M162.65 302.07H166.52V283.59H162.65V302.07Z" fill="black"/>
<path opacity="0.2" d="M153.77 302.07H157.64V283.59H153.77V302.07Z" fill="black"/>
<path opacity="0.2" d="M144.88 302.07H148.75V283.59H144.88V302.07Z" fill="black"/>
<path opacity="0.2" d="M136 302.07H139.87V283.59H136V302.07Z" fill="black"/>
<path opacity="0.2" d="M127.12 302.07H130.99V283.59H127.12V302.07Z" fill="black"/>
<path opacity="0.2" d="M118.23 302.07H122.1V283.59H118.23V302.07Z" fill="black"/>
<path opacity="0.2" d="M109.35 302.07H113.22V283.59H109.35V302.07Z" fill="black"/>
<path opacity="0.2" d="M100.47 302.07H104.34V283.59H100.47V302.07Z" fill="black"/>
<path d="M88.8399 283.59H187.03V265.11H88.8399V283.59Z" fill="#407BFF"/>
<path opacity="0.2" d="M88.8399 267.21H187.03V265.11H88.8399V267.21Z" fill="black"/>
<path opacity="0.2" d="M175.97 283.59H179.84V265.11H175.97V283.59Z" fill="black"/>
<path opacity="0.2" d="M167.1 283.59H170.97V265.11H167.1V283.59Z" fill="black"/>
<path opacity="0.2" d="M158.21 283.59H162.08V265.11H158.21V283.59Z" fill="black"/>
<path opacity="0.2" d="M149.32 283.59H153.19V265.11H149.32V283.59Z" fill="black"/>
<path opacity="0.2" d="M140.45 283.59H144.32V265.11H140.45V283.59Z" fill="black"/>
<path opacity="0.2" d="M131.56 283.59H135.43V265.11H131.56V283.59Z" fill="black"/>
<path opacity="0.2" d="M122.67 283.59H126.54V265.11H122.67V283.59Z" fill="black"/>
<path opacity="0.2" d="M113.8 283.59H117.67V265.11H113.8V283.59Z" fill="black"/>
<path opacity="0.2" d="M104.91 283.59H108.78V265.11H104.91V283.59Z" fill="black"/>
<path opacity="0.2" d="M96.0199 283.59H99.8899V265.11H96.0199V283.59Z" fill="black"/>
<path d="M400.66 192L361.5 198.71C360.747 198.837 360.048 199.185 359.493 199.71C358.938 200.235 358.552 200.913 358.383 201.658C358.215 202.403 358.272 203.182 358.548 203.895C358.823 204.607 359.304 205.222 359.93 205.66L367.15 210.77L322.88 273.35C322.592 273.757 322.227 274.103 321.805 274.369C321.383 274.634 320.913 274.814 320.422 274.897C319.93 274.981 319.427 274.967 318.941 274.856C318.456 274.745 317.996 274.539 317.59 274.25L252.52 228.25C251.696 227.67 250.675 227.44 249.682 227.61C248.689 227.781 247.803 228.338 247.22 229.16L116.05 414.56H163.19L256.42 282.77C256.708 282.363 257.073 282.017 257.495 281.751C257.917 281.486 258.387 281.306 258.878 281.223C259.37 281.139 259.873 281.153 260.359 281.264C260.845 281.375 261.304 281.581 261.71 281.87L326.78 327.87C327.188 328.159 327.648 328.364 328.135 328.474C328.622 328.585 329.126 328.598 329.619 328.514C330.111 328.429 330.582 328.248 331.004 327.982C331.426 327.715 331.792 327.368 332.08 326.96L398.57 232.96L405.8 238.07C406.423 238.499 407.159 238.736 407.915 238.751C408.672 238.766 409.416 238.558 410.056 238.153C410.695 237.748 411.201 237.164 411.511 236.473C411.822 235.783 411.922 235.017 411.8 234.27L405.08 195.11C404.899 194.115 404.335 193.231 403.507 192.649C402.68 192.067 401.658 191.834 400.66 192Z" fill="#407BFF"/>
<path opacity="0.2" d="M400.66 192L361.5 198.71C360.747 198.837 360.048 199.185 359.493 199.71C358.938 200.235 358.552 200.913 358.383 201.658C358.215 202.403 358.272 203.182 358.548 203.895C358.823 204.607 359.304 205.222 359.93 205.66L367.15 210.77L322.88 273.35C322.592 273.757 322.227 274.103 321.805 274.369C321.383 274.634 320.913 274.814 320.422 274.897C319.93 274.981 319.427 274.967 318.941 274.856C318.456 274.745 317.996 274.539 317.59 274.25L252.52 228.25C251.696 227.67 250.675 227.44 249.682 227.61C248.689 227.781 247.803 228.338 247.22 229.16L116.05 414.56H163.19L256.42 282.77C256.708 282.363 257.073 282.017 257.495 281.751C257.917 281.486 258.387 281.306 258.878 281.223C259.37 281.139 259.873 281.153 260.359 281.264C260.845 281.375 261.304 281.581 261.71 281.87L326.78 327.87C327.188 328.159 327.648 328.364 328.135 328.474C328.622 328.585 329.126 328.598 329.619 328.514C330.111 328.429 330.582 328.248 331.004 327.982C331.426 327.715 331.792 327.368 332.08 326.96L398.57 232.96L405.8 238.07C406.423 238.499 407.159 238.736 407.915 238.751C408.672 238.766 409.416 238.558 410.056 238.153C410.695 237.748 411.201 237.164 411.511 236.473C411.822 235.783 411.922 235.017 411.8 234.27L405.08 195.11C404.899 194.115 404.335 193.231 403.507 192.649C402.68 192.067 401.658 191.834 400.66 192Z" fill="black"/>
<path opacity="0.2" d="M160.24 409.11H127.06C127.014 409.108 126.97 409.094 126.931 409.07C126.893 409.045 126.861 409.011 126.84 408.97C126.816 408.931 126.804 408.886 126.804 408.84C126.804 408.794 126.816 408.749 126.84 408.71L248.36 236.91C248.665 236.473 249.053 236.1 249.502 235.813C249.951 235.525 250.452 235.33 250.977 235.237C251.502 235.144 252.04 235.156 252.561 235.271C253.081 235.387 253.574 235.604 254.01 235.91L319.07 281.91C319.452 282.187 319.886 282.385 320.346 282.493C320.806 282.6 321.283 282.615 321.749 282.536C322.214 282.456 322.659 282.285 323.058 282.032C323.457 281.778 323.801 281.448 324.07 281.06L374.78 209.38L366.78 203.69C366.737 203.664 366.704 203.624 366.686 203.577C366.668 203.53 366.666 203.478 366.68 203.43C366.691 203.382 366.716 203.339 366.751 203.305C366.787 203.271 366.832 203.249 366.88 203.24L399.88 197.59C399.912 197.584 399.944 197.585 399.975 197.592C400.007 197.599 400.036 197.612 400.062 197.631C400.088 197.65 400.11 197.673 400.127 197.701C400.144 197.728 400.155 197.758 400.16 197.79L405.81 230.79C405.818 230.839 405.811 230.89 405.792 230.936C405.772 230.981 405.741 231.021 405.7 231.05C405.658 231.077 405.61 231.091 405.56 231.091C405.51 231.091 405.462 231.077 405.42 231.05L397.42 225.36L331.07 319.16C330.765 319.596 330.378 319.968 329.93 320.254C329.481 320.54 328.981 320.735 328.457 320.828C327.933 320.921 327.397 320.91 326.877 320.795C326.358 320.681 325.866 320.465 325.43 320.16L260.36 274.16C259.979 273.891 259.549 273.699 259.094 273.596C258.639 273.493 258.169 273.48 257.709 273.559C257.249 273.638 256.81 273.807 256.415 274.056C256.021 274.305 255.679 274.629 255.41 275.01L160.45 409C160.426 409.034 160.395 409.061 160.358 409.08C160.322 409.099 160.281 409.11 160.24 409.11ZM127.54 408.61H160.11L254.85 274.68C255.467 273.799 256.409 273.198 257.468 273.011C258.527 272.823 259.618 273.064 260.5 273.68L325.57 319.68C325.951 319.949 326.381 320.141 326.836 320.244C327.291 320.347 327.761 320.36 328.221 320.281C328.681 320.202 329.121 320.033 329.515 319.784C329.909 319.535 330.251 319.211 330.52 318.83L397.01 224.83C397.027 224.802 397.05 224.778 397.078 224.761C397.106 224.744 397.137 224.733 397.17 224.73C397.2 224.716 397.232 224.708 397.265 224.708C397.298 224.708 397.33 224.716 397.36 224.73L405.11 230.21L399.6 198.2L367.49 203.7L375.24 209.18C375.292 209.22 375.327 209.276 375.34 209.34C375.365 209.401 375.365 209.469 375.34 209.53L324.49 281.42C324.185 281.855 323.796 282.225 323.346 282.509C322.896 282.792 322.394 282.983 321.87 283.07C320.82 283.245 319.743 283 318.87 282.39L253.81 236.39C253.428 236.113 252.994 235.915 252.534 235.807C252.074 235.7 251.597 235.685 251.131 235.764C250.666 235.844 250.221 236.015 249.822 236.268C249.423 236.522 249.079 236.852 248.81 237.24L127.54 408.61Z" fill="white"/>
<path d="M348.05 351.79H343.94V412.94H348.05V351.79Z" fill="#263238"/>
<path d="M384.01 318.47H379.9V412.94H384.01V318.47Z" fill="#263238"/>
<path d="M420.63 341.13H416.52V412.94H420.63V341.13Z" fill="#263238"/>
<path d="M343.95 351.79H315.13V412.94H343.95V351.79Z" fill="#407BFF"/>
<path opacity="0.2" d="M315.13 351.79V388.05L329.53 351.79H315.13Z" fill="white"/>
<path d="M379.9 318.47H351.08V412.94H379.9V318.47Z" fill="#407BFF"/>
<path opacity="0.2" d="M351.08 318.47V354.73L365.49 318.47H351.08Z" fill="white"/>
<path d="M416.53 341.13H387.71V412.94H416.53V341.13Z" fill="#407BFF"/>
<path opacity="0.2" d="M387.71 341.13V373.4L402.12 341.13H387.71Z" fill="white"/>
<path d="M248.08 407.94L240.35 406.49L241.66 388.2L249.39 389.66L248.08 407.94Z" fill="#E3A392"/>
<path d="M300.1 407.73H292.23L290.28 389.52H298.14L300.1 407.73Z" fill="#E3A392"/>
<path d="M291.59 406.82H301.17C301.326 406.821 301.478 406.875 301.599 406.973C301.721 407.071 301.806 407.207 301.84 407.36L303.4 414.36C303.436 414.53 303.433 414.706 303.392 414.875C303.351 415.044 303.272 415.202 303.161 415.336C303.051 415.471 302.912 415.579 302.754 415.652C302.596 415.725 302.424 415.762 302.25 415.76C299.16 415.71 296.91 415.52 293.03 415.52C290.64 415.52 283.43 415.77 280.13 415.77C276.83 415.77 276.4 412.51 277.75 412.21C283.81 410.89 288.37 409.06 290.31 407.32C290.659 406.999 291.116 406.821 291.59 406.82Z" fill="#263238"/>
<path d="M240.51 404.79L248.98 406.25C249.133 406.277 249.273 406.355 249.376 406.471C249.48 406.587 249.541 406.735 249.55 406.89L249.89 414.04C249.899 414.213 249.868 414.385 249.801 414.545C249.734 414.704 249.632 414.846 249.502 414.96C249.372 415.075 249.218 415.158 249.052 415.205C248.885 415.252 248.71 415.26 248.54 415.23C245.54 414.65 241.11 413.71 237.28 413.05C232.79 412.28 230.6 411.72 225.34 410.81C222.16 410.26 222.85 406.81 224.24 406.72C230.53 406.44 232.75 407.4 238.54 405.07C239.158 404.795 239.84 404.698 240.51 404.79Z" fill="#263238"/>
<path d="M267.44 167.09C267.17 167.89 266.96 168.47 266.71 169.09C266.46 169.71 266.21 170.37 265.95 171C265.43 172.27 264.88 173.51 264.3 174.75C263.142 177.238 261.843 179.659 260.41 182C257.478 187.008 253.659 191.44 249.14 195.08C247.882 196.039 246.543 196.889 245.14 197.62C244.78 197.82 244.41 197.99 244.03 198.16C243.65 198.33 243.31 198.49 242.86 198.66C241.973 198.986 241.06 199.234 240.13 199.4C238.62 199.655 237.091 199.785 235.56 199.79C234.12 199.79 232.74 199.79 231.38 199.66C226.075 199.237 220.826 198.286 215.71 196.82L216.5 190.97C221.5 190.78 226.57 190.62 231.33 190.2C232.52 190.09 233.69 189.95 234.8 189.78C235.816 189.642 236.82 189.421 237.8 189.12C238.12 189.029 238.429 188.901 238.72 188.74C239.05 188.54 239.5 188.35 239.87 188.09C240.685 187.576 241.457 186.998 242.18 186.36C243.775 184.945 245.213 183.363 246.47 181.64C247.839 179.813 249.088 177.899 250.21 175.91C251.38 173.91 252.43 171.78 253.46 169.64C253.96 168.57 254.46 167.48 254.9 166.39L255.57 164.76L256.18 163.22L267.44 167.09Z" fill="#E3A392"/>
<path d="M263.65 157.87C278 157.87 262.23 188.87 262.23 188.87L243.92 181.46C243.92 181.46 248.92 170.68 252.21 164.51C253.276 162.42 254.922 160.681 256.951 159.503C258.98 158.326 261.306 157.758 263.65 157.87Z" fill="#407BFF"/>
<g opacity="0.3">
<path opacity="0.3" d="M263.65 157.87C278 157.87 262.23 188.87 262.23 188.87L243.92 181.46C243.92 181.46 248.92 170.68 252.21 164.51C253.276 162.42 254.922 160.681 256.951 159.503C258.98 158.326 261.306 157.758 263.65 157.87Z" fill="white"/>
</g>
<path opacity="0.2" d="M260.14 167.89C254.89 171.58 251.24 178.43 250.2 183.99L260.66 188.23C262.56 185.39 264.41 182.04 266.45 179.1C267.01 177.57 267.56 175.96 268.04 174.33L260.14 167.89Z" fill="black"/>
<path d="M221 191.72L214.71 188.17L209.89 197.17C212.674 197.641 215.523 197.57 218.28 196.96L221 191.72Z" fill="#E3A392"/>
<path d="M208.69 188.17L205.19 196.11L209.85 197.2L214.67 188.17H208.69Z" fill="#E3A392"/>
<path opacity="0.2" d="M241.66 388.21L240.99 397.63L248.72 399.08L249.39 389.66L241.66 388.21Z" fill="black"/>
<path opacity="0.2" d="M298.14 389.53H290.27L291.29 398.92H299.15L298.14 389.53Z" fill="black"/>
<path d="M302.78 161.3C300.474 169.787 298.803 178.435 297.78 187.17C297.03 193.26 296.59 199.07 296.31 204.35C295.65 216.71 295.93 226.13 295.56 229.35C289.41 228.93 266.24 227.35 253.56 226.43C247.85 181.7 258.76 158.66 258.76 158.66C262.065 158.039 265.404 157.621 268.76 157.41C269.47 157.41 270.2 157.34 270.93 157.33C276.896 157.4 282.852 157.814 288.77 158.57C289.89 158.7 291.03 158.87 292.13 159.05C297.84 159.93 302.78 161.3 302.78 161.3Z" fill="#407BFF"/>
<g opacity="0.3">
<path opacity="0.3" d="M302.78 161.3C300.474 169.787 298.803 178.435 297.78 187.17C297.03 193.26 296.59 199.07 296.31 204.35C295.65 216.71 295.93 226.13 295.56 229.35C289.41 228.93 266.24 227.35 253.56 226.43C247.85 181.7 258.76 158.66 258.76 158.66C262.065 158.039 265.404 157.621 268.76 157.41C269.47 157.41 270.2 157.34 270.93 157.33C276.896 157.4 282.852 157.814 288.77 158.57C289.89 158.7 291.03 158.87 292.13 159.05C297.84 159.93 302.78 161.3 302.78 161.3Z" fill="white"/>
</g>
<path opacity="0.2" d="M292.19 172.62C292.11 179.056 293.914 185.376 297.38 190.8C297.5 189.6 297.64 188.39 297.79 187.17C298.35 182.59 299.07 177.85 300.02 173.06L292.19 172.62Z" fill="black"/>
<path d="M288.49 138.33C286.97 144 285.11 154.43 288.86 158.54C286.963 160.26 284.72 161.553 282.28 162.331C279.841 163.11 277.262 163.355 274.72 163.05C269.79 162.6 269.79 159.13 271.02 157.3C277.53 156.22 277.69 151.46 276.89 146.92L288.49 138.33Z" fill="#E3A392"/>
<path d="M271.11 164.92C271.226 165.803 271.434 166.671 271.73 167.51C271.815 167.777 271.983 168.011 272.21 168.176C272.436 168.341 272.709 168.43 272.99 168.43C273.812 168.418 274.632 168.488 275.44 168.64C275.61 168.68 275.787 168.684 275.959 168.653C276.131 168.623 276.294 168.557 276.44 168.46C277.44 167.83 278.72 166.9 278.39 165.74C278 164.38 275.66 163.15 275.66 163.15C275.66 163.15 271.64 164.14 271.11 164.92Z" fill="#263238"/>
<path d="M273.22 167.51C271.61 171.03 267.89 193.57 267.43 196.98C266.97 200.39 268.54 205.89 270.72 210.26C273.226 206.824 274.653 202.72 274.82 198.47C275.11 193.81 275.39 168.07 275.39 168.07L273.22 167.51Z" fill="#263238"/>
<path d="M275.63 163.15C277.119 164.392 278.349 165.914 279.25 167.63C281.78 167.43 292.95 162.53 291.36 158.75C289.97 158.36 288.75 157.56 288.36 157.97C287.83 158.78 283.09 161.64 275.63 163.15Z" fill="white"/>
<path d="M275.63 163.15C275.63 163.15 271.34 164.6 270.34 167.04C267.75 165.89 266.34 160.7 268.63 157.29C270.06 157.17 271.43 156.46 271.69 156.93C272.09 157.82 271 160.21 275.63 163.15Z" fill="white"/>
<path opacity="0.2" d="M283.76 141.84L276.89 146.91C277.097 147.968 277.208 149.042 277.22 150.12C279.69 149.94 283.22 147.49 283.68 144.95C283.898 143.927 283.925 142.873 283.76 141.84Z" fill="black"/>
<path d="M271.83 120.12C268.83 121.3 267.72 132.91 273.83 131.77C279.94 130.63 277.87 117.75 271.83 120.12Z" fill="#263238"/>
<path d="M291.64 131.73C289.19 139.14 288.14 143.6 283.32 146.47C276.06 150.78 267.67 144.88 267.85 136.89C268.01 129.7 271.98 118.78 280.15 117.73C281.949 117.487 283.78 117.707 285.469 118.371C287.159 119.035 288.65 120.121 289.802 121.524C290.953 122.927 291.727 124.601 292.048 126.388C292.37 128.174 292.23 130.013 291.64 131.73Z" fill="#E3A392"/>
<path d="M288.86 136.83C285.75 136.89 283.2 127.47 289.47 124.83C284.53 124.26 269.36 125.09 266.64 118.31C263.92 111.53 274.47 110.48 278.06 113.04C276.92 109.31 281.56 103.81 289.9 108.81C298.24 113.81 298.14 119.98 297.36 121.81C301.08 122.81 301.81 131.09 297.7 132.2C300.11 135.54 298.03 142.56 291.53 141.06C291.31 145.15 286.75 143.36 287.03 140.22C287.31 137.08 288.86 136.83 288.86 136.83Z" fill="#263238"/>
<path d="M275 138.64C275.879 138.897 276.807 138.941 277.706 138.767C278.605 138.593 279.45 138.206 280.17 137.64C280.207 137.601 280.228 137.549 280.228 137.495C280.228 137.441 280.207 137.389 280.17 137.35C280.133 137.313 280.082 137.293 280.03 137.293C279.978 137.293 279.927 137.313 279.89 137.35C279.225 137.883 278.444 138.251 277.61 138.425C276.776 138.599 275.912 138.573 275.09 138.35C275.065 138.343 275.039 138.34 275.013 138.343C274.987 138.346 274.962 138.355 274.94 138.368C274.917 138.381 274.897 138.399 274.882 138.42C274.867 138.441 274.856 138.465 274.85 138.49C274.857 138.527 274.875 138.561 274.902 138.588C274.929 138.615 274.963 138.633 275 138.64Z" fill="#263238"/>
<path d="M293.19 139.59C291.753 140.931 289.845 141.65 287.88 141.59C285.28 141.48 284.78 138.96 286.17 136.93C287.43 135.1 290.29 132.93 292.57 134.04C293.066 134.289 293.492 134.658 293.809 135.113C294.126 135.568 294.325 136.095 294.386 136.647C294.448 137.198 294.371 137.756 294.162 138.27C293.953 138.784 293.619 139.238 293.19 139.59Z" fill="#E3A392"/>
<path d="M238.38 394.58L251.38 397.65C251.38 397.65 255.98 347 259.93 319.17C260.98 311.79 262.6 301.41 265.07 290.35C268.18 276.42 272.07 261.35 275.29 249.55C278.66 237.12 281.23 228.33 281.23 228.33L253.65 226.4C253.65 226.4 238.72 291.5 237.14 315.4C235.45 340.34 238.38 394.58 238.38 394.58Z" fill="#263238"/>
<path opacity="0.2" d="M265 290.35C268.11 276.42 272 261.35 275.22 249.55L272.35 243.38C265.54 251.51 263.7 276.68 265 290.35Z" fill="black"/>
<path d="M268.49 227.44C268.49 227.44 271.49 294.76 274.79 317.56C278.42 342.56 287.65 397.1 287.65 397.1H302.06C302.06 397.1 298.06 345.23 295.35 320.78C292.26 292.93 295.56 229.33 295.56 229.33L268.49 227.44Z" fill="#263238"/>
<path d="M285.93 397.41H302.89L303.64 392.34L284.92 392.01L285.93 397.41Z" fill="#407BFF"/>
<path d="M237.55 395.45L252.32 398.23L253.99 393.08L237.15 389.89L237.55 395.45Z" fill="#407BFF"/>
<path d="M280.25 131.14C280.08 131.75 279.63 132.14 279.25 132.06C278.87 131.98 278.65 131.37 278.81 130.76C278.97 130.15 279.43 129.76 279.81 129.84C280.19 129.92 280.41 130.53 280.25 131.14Z" fill="#263238"/>
<path d="M273.31 129.32C273.15 129.93 272.69 130.32 272.31 130.23C271.93 130.14 271.72 129.55 271.88 128.93C272.04 128.31 272.5 127.93 272.88 128.01C273.26 128.09 273.47 128.7 273.31 129.32Z" fill="#263238"/>
<path d="M274.85 129.89C273.623 131.572 272.173 133.079 270.54 134.37C271.35 135.66 273.44 135.55 273.44 135.55L274.85 129.89Z" fill="#E48C7A"/>
<path d="M282.4 129.15C282.33 129.146 282.263 129.122 282.207 129.081C282.15 129.04 282.106 128.985 282.08 128.92C281.911 128.483 281.642 128.092 281.295 127.778C280.948 127.463 280.531 127.235 280.08 127.11C280.032 127.101 279.986 127.082 279.946 127.055C279.905 127.029 279.87 126.994 279.842 126.954C279.815 126.913 279.796 126.868 279.786 126.82C279.776 126.772 279.776 126.723 279.785 126.675C279.794 126.627 279.813 126.581 279.84 126.541C279.866 126.5 279.901 126.465 279.941 126.437C279.982 126.41 280.027 126.391 280.075 126.381C280.123 126.371 280.172 126.371 280.22 126.38C280.793 126.526 281.323 126.808 281.765 127.201C282.207 127.594 282.548 128.088 282.76 128.64C282.78 128.685 282.79 128.734 282.791 128.783C282.791 128.833 282.782 128.881 282.763 128.927C282.744 128.973 282.717 129.014 282.682 129.049C282.647 129.084 282.606 129.111 282.56 129.13C282.509 129.149 282.454 129.156 282.4 129.15Z" fill="#263238"/>
<path d="M270.38 125.84C270.303 125.831 270.23 125.8 270.17 125.75C270.135 125.716 270.107 125.674 270.087 125.629C270.068 125.583 270.058 125.534 270.058 125.485C270.058 125.436 270.068 125.387 270.087 125.341C270.107 125.296 270.135 125.254 270.17 125.22C270.544 124.762 271.023 124.4 271.566 124.165C272.109 123.931 272.7 123.829 273.29 123.87C273.386 123.887 273.473 123.94 273.532 124.018C273.591 124.095 273.619 124.193 273.61 124.29C273.595 124.387 273.543 124.475 273.465 124.535C273.386 124.595 273.288 124.622 273.19 124.61C272.723 124.589 272.257 124.677 271.83 124.868C271.402 125.059 271.026 125.348 270.73 125.71C270.688 125.76 270.633 125.798 270.572 125.821C270.511 125.844 270.445 125.85 270.38 125.84Z" fill="#263238"/>
<path d="M289 408.2C288.463 408.241 287.927 408.1 287.48 407.8C287.338 407.678 287.229 407.523 287.163 407.348C287.097 407.174 287.075 406.985 287.1 406.8C287.097 406.692 287.126 406.585 287.183 406.493C287.24 406.4 287.322 406.326 287.42 406.28C288.29 405.83 290.82 407.39 291.11 407.57C291.14 407.588 291.164 407.615 291.179 407.647C291.193 407.68 291.197 407.715 291.19 407.75C291.187 407.788 291.171 407.824 291.146 407.853C291.121 407.882 291.087 407.902 291.05 407.91C290.38 408.083 289.692 408.18 289 408.2ZM287.83 406.57C287.747 406.563 287.663 406.58 287.59 406.62C287.54 406.62 287.48 406.69 287.47 406.84C287.453 406.964 287.466 407.09 287.51 407.207C287.554 407.324 287.626 407.428 287.72 407.51C288.598 407.91 289.596 407.96 290.51 407.65C289.692 407.119 288.778 406.752 287.82 406.57H287.83Z" fill="#407BFF"/>
<path d="M291 407.92H290.91C290.1 407.48 288.52 405.75 288.69 404.92C288.718 404.783 288.791 404.66 288.898 404.571C289.006 404.481 289.14 404.432 289.28 404.43C289.423 404.41 289.568 404.421 289.706 404.462C289.844 404.504 289.972 404.575 290.08 404.67C290.99 405.41 291.18 407.67 291.19 407.78C291.191 407.814 291.183 407.847 291.167 407.877C291.151 407.906 291.128 407.932 291.1 407.95C291.064 407.951 291.029 407.94 291 407.92ZM289.41 404.73H289.33C289.09 404.73 289.07 404.87 289.06 404.92C288.96 405.43 289.96 406.74 290.77 407.35C290.717 406.454 290.393 405.596 289.84 404.89C289.721 404.786 289.568 404.729 289.41 404.73Z" fill="#407BFF"/>
<path d="M239.57 405.73C238.28 405.73 236.01 405.68 235.29 404.79C235.176 404.653 235.099 404.489 235.066 404.315C235.032 404.14 235.044 403.959 235.1 403.79C235.121 403.692 235.168 403.601 235.234 403.526C235.301 403.45 235.385 403.393 235.48 403.36C236.48 403.01 239.36 405.11 239.68 405.36C239.711 405.382 239.733 405.413 239.744 405.45C239.755 405.486 239.754 405.525 239.74 405.56C239.736 405.604 239.716 405.644 239.685 405.675C239.654 405.706 239.614 405.726 239.57 405.73ZM235.63 403.73C235.591 403.743 235.556 403.767 235.529 403.798C235.502 403.83 235.485 403.869 235.48 403.91C235.447 404.015 235.441 404.127 235.462 404.235C235.483 404.343 235.531 404.444 235.6 404.53C236 405.04 237.26 405.33 239.02 405.34C237.83 404.56 236.23 403.61 235.63 403.74V403.73Z" fill="#407BFF"/>
<path d="M239.57 405.73C239.525 405.748 239.475 405.748 239.43 405.73C238.57 405.15 237.01 403.15 237.3 402.3C237.37 402.1 237.56 401.87 238.07 401.9C238.262 401.908 238.449 401.956 238.621 402.04C238.793 402.125 238.946 402.244 239.07 402.39C239.92 403.39 239.77 405.5 239.76 405.59C239.758 405.622 239.748 405.652 239.73 405.678C239.713 405.705 239.688 405.726 239.66 405.74L239.57 405.73ZM237.83 402.26C237.69 402.26 237.66 402.36 237.65 402.39C237.48 402.9 238.51 404.44 239.36 405.17C239.43 404.274 239.217 403.378 238.75 402.61C238.664 402.506 238.557 402.42 238.437 402.358C238.317 402.296 238.185 402.26 238.05 402.25C237.977 402.237 237.902 402.24 237.83 402.26Z" fill="#407BFF"/>
<path d="M267.11 196.42L263.92 194.14L211.62 267.35L214.81 269.63C224.53 276.215 236.44 278.741 247.996 276.668C259.553 274.594 269.841 268.086 276.666 258.533C283.491 248.979 286.312 237.136 284.526 225.532C282.741 213.928 276.491 203.48 267.11 196.42Z" fill="#407BFF"/>
<path opacity="0.1" d="M267.11 196.42L263.92 194.14L211.62 267.35L214.81 269.63C224.53 276.215 236.44 278.741 247.996 276.668C259.553 274.594 269.841 268.086 276.666 258.533C283.491 248.979 286.312 237.136 284.526 225.532C282.741 213.928 276.491 203.48 267.11 196.42Z" fill="black"/>
<path d="M189.65 236.47C188.905 230.284 189.364 224.012 191 218L192 218.26C190.393 224.151 189.944 230.298 190.68 236.36L189.65 236.47Z" fill="#407BFF"/>
<path d="M192.68 248.54C191.788 246.264 191.069 243.924 190.53 241.54L191.53 241.32C192.063 243.649 192.768 245.935 193.64 248.16L192.68 248.54Z" fill="#407BFF"/>
<path d="M246.862 274.787C271.193 269.775 286.854 245.987 281.842 221.656C276.83 197.326 253.042 181.665 228.711 186.677C204.381 191.689 188.72 215.476 193.732 239.807C198.744 264.138 222.531 279.799 246.862 274.787Z" fill="#407BFF"/>
<path d="M227.15 242.12L234.21 232.25C231.757 229.17 230.447 226.223 230.28 223.41C230.153 220.535 231.034 217.705 232.77 215.41C234.42 212.964 236.961 211.259 239.85 210.66C242.836 210.092 245.927 210.666 248.51 212.27L250.21 209.89L253.63 212.33L251.92 214.71C254.012 216.467 255.467 218.864 256.06 221.53C256.507 224.149 256.086 226.843 254.86 229.2L248.34 225.72C248.815 224.822 249.052 223.817 249.028 222.802C249.003 221.786 248.718 220.794 248.2 219.92L241.62 229.14C244.66 232.86 246.283 236.02 246.49 238.62C246.64 241.401 245.781 244.143 244.07 246.34C242.263 249.032 239.505 250.943 236.35 251.69C233.024 252.375 229.562 251.828 226.61 250.15L224.91 252.53L221.49 250.09L223.11 247.82C220.778 245.818 219.207 243.074 218.66 240.05C218.242 236.757 218.902 233.417 220.54 230.53L227.17 234.27C226.545 235.602 226.233 237.059 226.26 238.53C226.272 239.78 226.577 241.009 227.15 242.12ZM244.83 217.37C243.738 217.015 242.562 217.015 241.47 217.37C240.415 217.706 239.499 218.377 238.86 219.28C238.269 220.116 237.954 221.116 237.96 222.14C237.972 223.335 238.318 224.502 238.96 225.51L244.83 217.37ZM230.33 244.9C231.574 245.502 232.99 245.647 234.33 245.31C235.675 244.98 236.852 244.169 237.64 243.03C238.363 242.053 238.717 240.853 238.64 239.64C238.449 238.176 237.822 236.803 236.84 235.7L230.33 244.9Z" fill="white" fill-opacity="0.9"/>
<path opacity="0.1" d="M274.21 227C272.116 217.911 266.635 209.962 258.884 204.774C251.132 199.587 241.694 197.55 232.494 199.081C223.293 200.611 215.022 205.593 209.367 213.01C203.712 220.428 201.099 229.722 202.06 239C200.937 234.126 200.825 229.074 201.728 224.155C202.632 219.236 204.534 214.553 207.315 210.397C210.097 206.24 213.701 202.697 217.903 199.986C222.106 197.275 226.82 195.453 231.754 194.632C236.688 193.812 241.737 194.01 246.591 195.215C251.446 196.42 256.002 198.605 259.979 201.638C263.957 204.67 267.271 208.485 269.719 212.847C272.166 217.208 273.695 222.025 274.21 227Z" fill="black"/>
<path d="M303.79 165.6C304.79 166.87 305.62 168.01 306.46 169.25C307.3 170.49 308.12 171.68 308.92 172.92C310.51 175.4 312.02 177.92 313.42 180.55C314.82 183.18 316.12 185.87 317.3 188.65L318.16 190.76L318.94 192.93C319.2 193.64 319.42 194.4 319.65 195.14L319.98 196.26L320.07 196.54L320.22 197.15C320.315 197.565 320.382 197.986 320.42 198.41C320.515 199.819 320.328 201.234 319.87 202.57C319.524 203.576 319.072 204.541 318.52 205.45C317.607 206.938 316.549 208.332 315.36 209.61C313.251 211.852 310.96 213.916 308.51 215.78C303.853 219.336 298.894 222.478 293.69 225.17L290.45 220.23C294.64 216.66 298.83 212.9 302.62 209.09C304.462 207.266 306.173 205.315 307.74 203.25C308.406 202.387 308.982 201.459 309.46 200.48C309.608 200.159 309.722 199.824 309.8 199.48C309.8 199.26 309.8 199.22 309.8 199.48C309.785 199.553 309.785 199.627 309.8 199.7C309.798 199.73 309.798 199.76 309.8 199.79L309.71 199.57L309.36 198.69C309.12 198.09 308.91 197.5 308.63 196.91L307.83 195.14L306.98 193.37C305.79 191.02 304.52 188.68 303.14 186.37C301.76 184.06 300.33 181.76 298.84 179.5C298.11 178.36 297.35 177.23 296.59 176.12L294.31 172.87L303.79 165.6Z" fill="#E3A392"/>
<path d="M302.78 161.3C310.15 162.79 316.62 180.81 316.62 180.81L301.24 193.34C301.24 193.34 296.24 184.18 292.16 175.34C287.77 165.71 293.85 159.5 302.78 161.3Z" fill="#407BFF"/>
<g opacity="0.3">
<path opacity="0.3" d="M302.78 161.3C310.15 162.79 316.62 180.81 316.62 180.81L301.24 193.34C301.24 193.34 296.24 184.18 292.16 175.34C287.77 165.71 293.85 159.5 302.78 161.3Z" fill="white"/>
</g>
<path d="M292.27 219.54L284.33 220.41L289.48 229.03C289.48 229.03 296.08 226.79 295.28 223.17L292.27 219.54Z" fill="#E3A392"/>
<path d="M279.6 224.96L284.19 231.89L289.48 229.03L284.33 220.41L279.6 224.96Z" fill="#E3A392"/>
</svg>
