<svg width="30" height="28" viewBox="0 0 30 28" fill="none" xmlns="http://www.w3.org/2000/svg">
<path d="M2.23102 14.4725V17.0586C2.23102 17.357 2.37641 17.6554 2.57026 17.8543C2.76411 18.0533 3.00642 18.1527 3.2972 18.1527C3.58797 18.1527 3.83029 18.0533 4.0726 17.8543L7.27113 14.5719H16.9637C18.5145 14.5719 19.7745 13.2789 19.7745 11.6874V2.88455C19.7745 1.29307 18.5145 0 16.9637 0H2.81257C1.26177 0 0.00174008 1.29307 0.00174008 2.88455V11.6377C-0.0467225 13.0302 0.92253 14.2238 2.23102 14.4725Z" fill="#0057FF"/>
<path d="M27.141 9.89722H21.7616V11.6379C21.7616 14.3732 19.5808 16.6112 16.9154 16.6112H10.2275V21.5349C10.2275 23.1263 11.4876 24.4194 13.0384 24.4194H22.7309L25.9294 27.7018C26.1233 27.9008 26.4141 28.0002 26.7048 28.0002C26.9956 28.0002 27.2379 27.9008 27.4318 27.7018C27.6256 27.5029 27.771 27.2045 27.771 26.9061V24.3199C29.031 24.121 30.0003 22.9771 30.0003 21.5846V12.7818C30.0003 11.1903 28.7403 9.89722 27.141 9.89722Z" fill="#0057FF"/>
</svg>
