<svg width="32" height="28" viewBox="0 0 32 28" fill="none" xmlns="http://www.w3.org/2000/svg">
<path d="M31.5723 0.13073C31.3071 -0.0394223 30.9788 -0.0438105 30.7096 0.119516C25.0084 3.57327 18.0054 5.37376 8.67009 5.78671C8.20408 5.80718 7.83691 6.22501 7.83691 6.73254V16.5414C7.83691 17.0494 8.20408 17.4663 8.67009 17.4872C18.0054 17.9002 25.0084 19.7007 30.7096 23.1544C30.8411 23.2334 30.9864 23.2734 31.1313 23.2734C31.2838 23.2734 31.4363 23.23 31.5718 23.1427C31.837 22.9721 31.9998 22.662 31.9998 22.3266V0.946875C32.0003 0.611446 31.8375 0.300882 31.5723 0.13073Z" fill="#0057FF"/>
<path d="M5.32417 5.8335C2.38861 5.8335 0 8.43697 0 11.6377C0 14.8379 2.38816 17.4414 5.32417 17.4414C5.80403 17.4414 6.19267 17.0177 6.19267 16.4951V6.7803C6.19267 6.25717 5.80403 5.8335 5.32417 5.8335Z" fill="#0057FF"/>
<path d="M12.0061 20.0286C11.8607 19.563 11.4703 19.2422 11.0195 19.2174L8.9891 19.1086C8.62999 19.0911 8.2816 19.2642 8.06201 19.5777C7.84243 19.8902 7.77803 20.3007 7.88984 20.6746L9.71316 27.1721C9.86029 27.666 10.282 28.0004 10.7583 28.0004H12.8656C12.8665 27.9999 12.8674 27.9999 12.8683 28.0004C13.4756 28.0004 13.9676 27.4632 13.9676 26.8025C13.9676 26.6358 13.9363 26.4774 13.8804 26.3335L12.0061 20.0286Z" fill="#0057FF"/>
</svg>
