<svg width="16" height="20" viewBox="0 0 16 20" fill="none" xmlns="http://www.w3.org/2000/svg">
<path d="M15.5798 12.92L14.3598 11.4C13.8598 10.8 13.5998 10.04 13.5998 9.26V7.62C13.5998 5.14 11.9798 3.04 9.75983 2.32V1.7C9.75983 1.04 9.21983 0.5 8.55983 0.5H7.45983C6.79983 0.5 6.25983 1.04 6.25983 1.7V2.32C4.01983 3.06 2.39983 5.16 2.39983 7.64V9.28C2.39983 10.06 2.13983 10.82 1.63983 11.42L0.399829 12.94C-0.320171 13.82 0.319829 15.2 1.49983 15.2H14.4998C15.6798 15.2 16.3198 13.82 15.5798 12.92Z" fill="#0057FF"/>
<path d="M7.99981 19.4999C9.55981 19.4999 10.8198 18.2399 10.8198 16.6799H5.17981C5.17981 18.2399 6.43981 19.4999 7.99981 19.4999Z" fill="#0057FF"/>
</svg>
