<svg width="18" height="18" viewBox="0 0 18 18" fill="none" xmlns="http://www.w3.org/2000/svg">
<path d="M12.566 7.74919L17.0771 2.79153C17.4017 2.43482 18 2.66192 18 3.14182V15.7091C18 16.5767 17.2889 17.28 16.4118 17.28H1.58824C0.711077 17.28 0 16.5767 0 15.7091V9.9491C0 9.57148 0.391834 9.31801 0.741611 9.46937L4.61453 11.1453L8.59505 6.46999C8.74519 6.29363 8.9943 6.23516 9.20855 6.32598L12.566 7.74919ZM1.05882 10.7497V15.7091C1.05882 15.9983 1.29585 16.2327 1.58824 16.2327H16.4118C16.7042 16.2327 16.9412 15.9983 16.9412 15.7091V4.5064L13.0994 8.72848C12.9478 8.89513 12.7057 8.9478 12.4973 8.85948L9.15217 7.44148L5.16966 12.1191C5.01856 12.2966 4.76741 12.3545 4.55251 12.2616L1.05882 10.7497ZM12.0366 5.131L16.5477 0.17335C16.7433 -0.0416082 17.078 -0.0590397 17.2953 0.134422C17.5127 0.327885 17.5303 0.658976 17.3347 0.873934L12.57 6.1103C12.4183 6.27694 12.1763 6.32962 11.9679 6.2413L8.62276 4.8233L4.64025 9.50093C4.48915 9.6784 4.238 9.73637 4.0231 9.64337L0.846625 8.26883C0.578753 8.15291 0.456606 7.84416 0.573799 7.57921C0.690993 7.31426 1.00315 7.19345 1.27102 7.30937L4.08512 8.5271L8.06564 3.8518C8.21578 3.67545 8.46488 3.61698 8.67914 3.7078L12.0366 5.131Z" fill="#0057FF"/>
<path d="M1.05882 10.7497V15.7091C1.05882 15.9983 1.29585 16.2327 1.58824 16.2327H16.4118C16.7042 16.2327 16.9412 15.9983 16.9412 15.7091V4.5064L13.0994 8.72848C12.9478 8.89513 12.7057 8.9478 12.4973 8.85948L9.15217 7.44148L5.16966 12.1191C5.01856 12.2966 4.76741 12.3545 4.55251 12.2616L1.05882 10.7497Z" fill="#0057FF"/>
</svg>
