<svg width="61" height="89" viewBox="0 0 61 89" fill="none" xmlns="http://www.w3.org/2000/svg">
<g opacity="0.2" clip-path="url(#clip0)">
<path d="M0 0H9.61V4.81H4.81V9.61H0V0Z" fill="#0057FF"/>
<path d="M25.36 0H34.97V4.81H30.16V9.61H25.36V0Z" fill="#0057FF"/>
<path d="M50.71 0H60.32V4.81H55.52V9.61H50.71V0Z" fill="#0057FF"/>
<path d="M0 26.16H9.61V30.96H4.81V35.77H0V26.16Z" fill="#0057FF"/>
<path d="M25.36 26.16H34.97V30.96H30.16V35.77H25.36V26.16Z" fill="#0057FF"/>
<path d="M50.71 26.16H60.32V30.96H55.52V35.77H50.71V26.16Z" fill="#0057FF"/>
<path d="M0 52.3101H9.61V57.1201H4.81V61.9201H0V52.3101Z" fill="#0057FF"/>
<path d="M25.36 52.3101H34.97V57.1201H30.16V61.9201H25.36V52.3101Z" fill="#0057FF"/>
<path d="M50.71 52.3101H60.32V57.1201H55.52V61.9201H50.71V52.3101Z" fill="#0057FF"/>
<path d="M0 78.47H9.61V83.27H4.81V88.08H0V78.47Z" fill="#0057FF"/>
<path d="M25.36 78.47H34.97V83.27H30.16V88.08H25.36V78.47Z" fill="#0057FF"/>
<path d="M50.71 78.47H60.32V83.27H55.52V88.08H50.71V78.47Z" fill="#0057FF"/>
</g>
<defs>
<clipPath id="clip0">
<rect width="60.32" height="88.08" fill="white"/>
</clipPath>
</defs>
</svg>
