<svg width="34" height="27" viewBox="0 0 34 27" fill="none" xmlns="http://www.w3.org/2000/svg">
<path d="M16.9978 17.9679C16.0321 17.9679 15.0665 17.7758 14.1366 17.4395L6.125 14.2206V21.5711C6.125 22.9163 6.76879 24.0694 7.73446 24.4537L11.2395 25.8469C15.1022 27.3843 19.1795 27.3843 23.0423 25.8469L26.5473 24.4537C27.513 24.0694 28.1568 22.9163 28.1568 21.5711V14.1245L19.8591 17.4395C18.9292 17.8238 17.9635 17.9679 16.9978 17.9679Z" fill="white"/>
<path d="M33.2712 6.05338L19.1437 0.432384C17.7488 -0.144128 16.2467 -0.144128 14.816 0.432384L0.724259 6.05338C-0.24142 6.43772 -0.24142 8.31139 0.724259 8.69573L14.8518 14.3167C16.2467 14.8932 17.7488 14.8932 19.1795 14.3167L31.2683 9.51246V13.7883C31.018 13.9804 30.8391 14.3167 30.8391 14.7011V15.8541C30.8391 16.2865 31.018 16.6708 31.3041 16.8149L30.553 19.169C30.4457 19.5053 30.5888 19.8416 30.8749 19.8897L31.6617 19.9858C31.8048 19.9858 31.9836 19.9858 32.1267 19.9858L32.9135 19.8897C33.1639 19.8416 33.307 19.5053 33.2354 19.169L32.4844 16.8149C32.7705 16.6228 32.9493 16.2865 32.9493 15.8541V14.7011C32.9493 14.3167 32.7705 13.9804 32.5201 13.7883V9.03203L33.307 8.69573C34.2369 8.26335 34.2369 6.43772 33.2712 6.05338Z" fill="white"/>
</svg>
