<svg width="27" height="31" viewBox="0 0 27 31" fill="none" xmlns="http://www.w3.org/2000/svg">
<g clip-path="url(#clip0)">
<path d="M18.5373 9.05883H17.3284C16.699 9.05883 16.3124 8.35463 16.6406 7.80586L21.0735 0.3941C21.3877 -0.131367 22.1346 -0.131367 22.4489 0.3941L26.8818 7.80586C27.21 8.35463 26.8234 9.05883 26.194 9.05883H24.9851V27.1765C24.9851 27.6313 24.6242 28 24.1791 28H19.3433C18.8982 28 18.5373 27.6313 18.5373 27.1765V9.05883ZM15.3134 14V27.1765C15.3134 27.6313 14.9526 28 14.5075 28H9.67164C9.22652 28 8.86567 27.6313 8.86567 27.1765V14C8.86567 13.5452 9.22652 13.1765 9.67164 13.1765H14.5075C14.9526 13.1765 15.3134 13.5452 15.3134 14ZM6.44776 20.5882V27.1765C6.44776 27.6313 6.08692 28 5.64179 28H0.80597C0.360845 28 0 27.6313 0 27.1765V20.5882C0 20.1334 0.360845 19.7647 0.80597 19.7647H5.64179C6.08692 19.7647 6.44776 20.1334 6.44776 20.5882Z" fill="white"/>
</g>
<defs>
<clipPath id="clip0">
<rect width="27" height="31" fill="white"/>
</clipPath>
</defs>
</svg>
