<svg width="38" height="30" viewBox="0 0 38 30" fill="none" xmlns="http://www.w3.org/2000/svg">
<path d="M33.3423 27.4784H4.65765C3.65673 27.4784 2.84277 26.6285 2.84277 25.5848V3.48471C2.84277 2.44017 3.65711 1.59033 4.65765 1.59033H19H33.3423C34.3433 1.59033 35.1572 2.44056 35.1572 3.48471V25.5844C35.1576 26.6285 34.3433 27.4784 33.3423 27.4784ZM4.65765 2.34816C4.05725 2.34816 3.56857 2.85775 3.56857 3.48471V25.5844C3.56857 26.211 4.05725 26.7205 4.65765 26.7205H33.3423C33.9424 26.7205 34.4314 26.211 34.4314 25.5844V3.48471C34.4314 2.85775 33.9424 2.34816 33.3423 2.34816H4.65765Z" fill="white"/>
<path d="M4.65765 2.34816C4.05725 2.34816 3.56857 2.85775 3.56857 3.48471V25.5844C3.56857 26.211 4.05725 26.7205 4.65765 26.7205H33.3423C33.9424 26.7205 34.4314 26.211 34.4314 25.5844V3.48471C34.4314 2.85775 33.9424 2.34816 33.3423 2.34816H4.65765Z" fill="white"/>
<path d="M31.6819 19.3237L24.62 18L17.4475 21.7674L10.8925 21.0238L6 23.7046" stroke="#0057FF"/>
<path d="M27.5504 9.95404L30.8606 6.49958C30.8032 6.40242 30.7428 6.30764 30.6797 6.21484L27.2878 9.75417L27.5504 9.95404Z" fill="#0057FF"/>
<path d="M26.9887 9.52646L30.4578 5.90584C30.3901 5.81899 30.3206 5.73532 30.2476 5.65283L26.7273 9.32699L26.9887 9.52646Z" fill="#0057FF"/>
<path d="M26.4651 8.04802L29.4656 4.91716C29.3785 4.85014 29.2889 4.7851 29.1977 4.72363L26.4655 7.57492V8.04802H26.4651Z" fill="#0057FF"/>
<path d="M26.4651 7.03486L28.875 4.52065C28.7762 4.46395 28.6767 4.4112 28.5745 4.36084L26.4651 6.56216V7.03486Z" fill="#0057FF"/>
<path d="M26.4651 6.02211L28.2135 4.19752C28.1033 4.1531 27.9908 4.11345 27.8768 4.07617L26.4651 5.5494V6.02211Z" fill="#0057FF"/>
<path d="M26.4651 5.0089L27.4698 3.96039C27.3444 3.93065 27.2167 3.90685 27.0883 3.88623L26.4651 4.53659V5.0089Z" fill="#0057FF"/>
<path d="M26.4651 9.06093L29.9922 5.37964C29.9147 5.30231 29.8361 5.22696 29.7544 5.15479L26.4651 8.58783V9.06093Z" fill="#0057FF"/>
<path d="M28.1121 10.3813L31.1958 7.16323C31.1498 7.05497 31.1008 6.94829 31.0483 6.84399L27.8495 10.1823L28.1121 10.3813Z" fill="#0057FF"/>
<path d="M29.2342 11.2378L31.6172 8.75132C31.6008 8.61332 31.5811 8.4773 31.5556 8.34326L28.9731 11.0379L29.2342 11.2378Z" fill="#0057FF"/>
<path d="M28.6725 10.809L31.4529 7.90772C31.4202 7.78637 31.3845 7.66661 31.3446 7.54883L28.4106 10.6107L28.6725 10.809Z" fill="#0057FF"/>
<path d="M30.3563 12.0942L31.4602 10.9418C31.5134 10.7443 31.5559 10.5421 31.5879 10.3367L30.0948 11.8948L30.3563 12.0942Z" fill="#0057FF"/>
<path d="M29.795 11.666L31.6494 9.73122C31.6544 9.63366 31.6574 9.53531 31.6574 9.43617C31.6574 9.3751 31.6551 9.31443 31.6532 9.25415L29.5332 11.467L29.795 11.666Z" fill="#0057FF"/>
<path d="M30.8172 12.444C30.9434 12.2374 31.057 12.0229 31.1569 11.7988L30.6565 12.3211L30.8172 12.444Z" fill="#0057FF"/>
<path d="M26.2683 15.0368C23.3009 15.0368 20.8867 12.5178 20.8867 9.42063C20.8867 6.39486 23.1918 3.9207 26.0657 3.81006V9.36591H26.0688L30.5672 12.7958C30.5665 12.7958 30.5665 12.7958 30.5665 12.7958C29.5845 14.1556 28.0227 15.0368 26.2683 15.0368Z" fill="#0057FF"/>
<path d="M16.5239 10.0662H6.93762V11.6786H16.5239V10.0662Z" fill="#0057FF"/>
<path d="M14.2074 12.5686H6.93689V14.1802H14.2074V12.5686Z" fill="#0057FF"/>
<path d="M14.869 4.95288H6.93762V6.56531H14.869V4.95288Z" fill="#0057FF"/>
<path d="M14.2074 7.45483H6.93689V9.06766H14.2074V7.45483Z" fill="#0057FF"/>
</svg>
