<svg width="38" height="34" viewBox="0 0 38 34" fill="none" xmlns="http://www.w3.org/2000/svg">
<path d="M3.26794 25.5344C3.26794 26.9789 4.44594 28.1271 5.92794 28.1271H32.0719C33.5539 28.1271 34.7319 26.9789 34.7319 25.5344V10.2747H3.26794V25.5344ZM16.2639 18.0897H23.9399C24.3579 18.0897 24.6999 18.4231 24.6999 18.8305C24.6999 19.2379 24.3579 19.5713 23.9399 19.5713H16.2639C15.8459 19.5713 15.5039 19.2379 15.5039 18.8305C15.5039 18.4231 15.8459 18.0897 16.2639 18.0897ZM7.10594 14.6081C6.80194 14.3118 6.80194 13.8674 7.10594 13.5711C7.40994 13.2748 7.86594 13.2748 8.16994 13.5711L13.0339 18.312C13.1859 18.4601 13.2619 18.6453 13.2619 18.8305C13.2619 19.0157 13.1859 19.2009 13.0339 19.349L8.16994 24.0899C8.01794 24.2381 7.82794 24.3122 7.63794 24.3122C7.44794 24.3122 7.25794 24.2381 7.10594 24.0899C6.80194 23.7936 6.80194 23.3492 7.10594 23.0529L11.3999 18.8305L7.10594 14.6081Z" fill="white"/>
<path d="M32.0719 4.5708H5.92794C4.44594 4.5708 3.26794 5.71899 3.26794 7.16348V8.79317H34.7319V7.16348C34.7319 5.75603 33.5159 4.5708 32.0719 4.5708ZM5.58594 7.97832C4.86394 7.97832 4.29394 7.42275 4.29394 6.71902C4.29394 6.01529 4.86394 5.45972 5.58594 5.45972C6.30794 5.45972 6.87794 6.01529 6.87794 6.71902C6.87794 7.42275 6.30794 7.97832 5.58594 7.97832ZM9.49994 7.97832C8.77794 7.97832 8.20794 7.42275 8.20794 6.71902C8.20794 6.01529 8.77794 5.45972 9.49994 5.45972C10.2219 5.45972 10.7919 6.01529 10.7919 6.71902C10.7919 7.42275 10.2219 7.97832 9.49994 7.97832ZM13.4519 7.97832C12.7299 7.97832 12.1599 7.42275 12.1599 6.71902C12.1599 6.01529 12.7299 5.45972 13.4519 5.45972C14.1739 5.45972 14.7439 6.01529 14.7439 6.71902C14.7439 7.42275 14.1739 7.97832 13.4519 7.97832Z" fill="white"/>
</svg>
