<svg width="22" height="23" viewBox="0 0 22 23" fill="none" xmlns="http://www.w3.org/2000/svg">
<path d="M21.6213 13.7496C20.9733 12.4386 19.6079 11.5796 18.1268 11.5796C17.7334 11.5796 17.3168 11.6474 16.9466 11.7605L13.6372 7.05889C15.1877 5.63486 15.2803 3.23886 13.8223 1.72442C12.3643 0.209968 9.91124 0.119553 8.3607 1.54359C6.81015 2.96762 6.71758 5.36361 8.17556 6.87806C8.26813 6.96847 8.3607 7.05889 8.47641 7.1493L4.91247 15.1284C2.85279 14.5633 0.72368 15.7387 0.145118 17.7504C-0.433444 19.7622 0.769965 21.8191 2.82964 22.3842C4.84304 22.9493 6.94901 21.8191 7.57385 19.8526L14.6555 16.9819C15.558 18.858 17.8723 19.6718 19.7931 18.7902C21.7139 17.8861 22.547 15.6483 21.6213 13.7496ZM14.262 15.377C14.262 15.3997 14.262 15.4223 14.262 15.4223L7.66642 18.1121C7.50442 17.2306 7.04158 16.4394 6.3473 15.8743L9.8881 7.91783C10.6518 8.14387 11.4849 8.12126 12.2486 7.87262L15.558 12.5742C14.7249 13.2975 14.262 14.3147 14.262 15.377Z" fill="#0057FF"/>
</svg>
