<svg width="423" height="423" viewBox="0 0 423 423" fill="none" xmlns="http://www.w3.org/2000/svg">
<path d="M423 323.51H0V323.721H423V323.51Z" fill="#EBEBEB"/>
<path d="M72.3984 331.564H44.3789V331.776H72.3984V331.564Z" fill="#EBEBEB"/>
<path d="M191.668 329.271H144.783V329.483H191.668V329.271Z" fill="#EBEBEB"/>
<path d="M93.2216 336.589H76.9868V336.801H93.2216V336.589Z" fill="#EBEBEB"/>
<path d="M362.637 331.462H326.098V331.674H362.637V331.462Z" fill="#EBEBEB"/>
<path d="M375.53 331.462H370.174V331.674H375.53V331.462Z" fill="#EBEBEB"/>
<path d="M274.145 334.432H234.519V334.644H274.145V334.432Z" fill="#EBEBEB"/>
<path d="M200.499 285.779H37.145C35.8653 285.776 34.6387 285.266 33.7346 284.361C32.8305 283.455 32.3228 282.228 32.3228 280.948V51.3181C32.3339 50.0458 32.8466 48.8292 33.7495 47.9326C34.6524 47.0361 35.8725 46.532 37.145 46.5298H200.499C201.78 46.5298 203.009 47.0387 203.915 47.9447C204.821 48.8506 205.33 50.0793 205.33 51.3604V280.948C205.33 282.229 204.821 283.458 203.915 284.364C203.009 285.27 201.78 285.779 200.499 285.779V285.779ZM37.145 46.699C35.9213 46.7012 34.7486 47.1889 33.8842 48.0549C33.0198 48.9209 32.5343 50.0945 32.5343 51.3181V280.948C32.5343 282.172 33.0198 283.345 33.8842 284.211C34.7486 285.077 35.9213 285.565 37.145 285.567H200.499C201.723 285.565 202.897 285.077 203.763 284.212C204.629 283.346 205.116 282.172 205.118 280.948V51.3181C205.116 50.0938 204.629 48.9202 203.763 48.0544C202.897 47.1886 201.723 46.7012 200.499 46.699H37.145Z" fill="#EBEBEB"/>
<path d="M383.5 285.779H220.137C218.857 285.776 217.629 285.267 216.724 284.361C215.819 283.456 215.309 282.228 215.307 280.948V51.3181C215.32 50.045 215.835 48.8284 216.739 47.9321C217.643 47.0358 218.864 46.5319 220.137 46.5298H383.5C384.771 46.5342 385.989 47.0393 386.89 47.9356C387.791 48.8319 388.302 50.0472 388.314 51.3181V280.948C388.314 282.226 387.807 283.452 386.905 284.358C386.002 285.263 384.778 285.774 383.5 285.779V285.779ZM220.137 46.699C218.913 46.7012 217.739 47.1886 216.874 48.0544C216.008 48.9202 215.52 50.0938 215.518 51.3181V280.948C215.52 282.172 216.008 283.346 216.874 284.212C217.739 285.077 218.913 285.565 220.137 285.567H383.5C384.724 285.565 385.898 285.077 386.764 284.212C387.629 283.346 388.117 282.172 388.119 280.948V51.3181C388.117 50.0938 387.629 48.9202 386.764 48.0544C385.898 47.1886 384.724 46.7012 383.5 46.699H220.137Z" fill="#EBEBEB"/>
<path d="M367.95 210.535H351.03V323.603H367.95V210.535Z" fill="#E6E6E6"/>
<path d="M363.492 323.603H367.942V308.206H358.83L363.492 323.603Z" fill="#F0F0F0"/>
<path d="M211.973 210.535H195.053V323.603H211.973V210.535Z" fill="#E6E6E6"/>
<path d="M367.941 210.535H208.081V314.153H367.941V210.535Z" fill="#F0F0F0"/>
<path d="M364.915 243.969H211.112V214.706H364.915V243.969ZM211.958 243.123H364.069V215.552H211.958V243.123Z" fill="#E6E6E6"/>
<path d="M337.841 223.961H241.177C236.837 223.961 232.717 220.45 229.697 214.266H349.313C346.326 220.45 342.181 223.961 337.841 223.961Z" fill="#E6E6E6"/>
<path d="M212.531 323.603H208.081V308.206H217.192L212.531 323.603Z" fill="#F0F0F0"/>
<path d="M364.915 276.98H211.112V247.717H364.915V276.98ZM211.958 276.134H364.069V248.563H211.958V276.134Z" fill="#E6E6E6"/>
<path d="M337.841 256.972H241.177C236.837 256.972 232.717 253.461 229.697 247.277H349.313C346.326 253.461 342.181 256.972 337.841 256.972Z" fill="#E6E6E6"/>
<path d="M364.915 309.983H211.112V280.72H364.915V309.983ZM211.958 309.137H364.069V281.566H211.958V309.137Z" fill="#E6E6E6"/>
<path d="M337.841 289.975H241.177C236.837 289.975 232.717 286.472 229.697 280.28H349.313C346.326 286.472 342.181 289.975 337.841 289.975Z" fill="#E6E6E6"/>
<path d="M119.742 183.734L133.278 195.189C132.592 278.249 135.646 282.75 135.714 297.039H120.232C118.083 227.514 112.001 201.576 119.742 183.734Z" fill="#E0E0E0"/>
<path d="M126.526 321.785C104.741 321.785 86.3579 312.944 81.891 300.99C80.7569 297.696 79.1923 294.567 77.238 291.684L76.8911 291.202H176.161L175.822 291.684C173.868 294.567 172.303 297.696 171.169 300.99C166.66 312.944 148.319 321.785 126.526 321.785Z" fill="#E6E6E6"/>
<path d="M176.367 294.205H76.6913C75.3375 294.212 74.02 293.767 72.9474 292.941C71.8747 292.115 71.1082 290.955 70.7693 289.645V289.645C70.5311 288.742 70.5043 287.797 70.691 286.882C70.8778 285.968 71.2731 285.109 71.8461 284.372C72.4191 283.635 73.1545 283.041 73.9949 282.635C74.8352 282.228 75.758 282.022 76.6913 282.031H176.367C177.297 282.028 178.215 282.24 179.05 282.649C179.885 283.058 180.615 283.653 181.183 284.389C181.751 285.125 182.143 285.982 182.327 286.893C182.512 287.804 182.484 288.746 182.247 289.645V289.645C181.912 290.95 181.153 292.106 180.088 292.932C179.024 293.758 177.714 294.205 176.367 294.205V294.205Z" fill="#F5F5F5"/>
<path d="M127.743 213.192C129.765 191.534 142.633 190.815 173.986 211.542C161 263.495 120.129 294.628 127.743 213.192Z" fill="#E0E0E0"/>
<path d="M123.075 180.663C119.386 161.907 137.702 136.138 169.292 145.791C171.365 195.307 136.958 251.338 123.075 180.663Z" fill="#E0E0E0"/>
<path d="M139.642 177.567C144.321 154.09 115.557 113.829 86.3865 119.1C64.7797 153.828 117.892 286.591 139.642 177.567Z" fill="#E0E0E0"/>
<path d="M128.033 213.369C117.145 180.638 83.9146 171.255 62.6631 208.412C95.3271 268.385 154.276 292.25 128.033 213.369Z" fill="#E0E0E0"/>
<path d="M237.829 64.1181V191.585H352.039V64.1181H237.829Z" fill="#EBEBEB"/>
<path d="M236.787 64.1182V191.585H237.819V64.1182H236.787Z" fill="#E0E0E0"/>
<path d="M343.57 72.5781H246.28V183.125H343.57V72.5781Z" fill="#F5F5F5"/>
<path d="M281.733 69.4731H254.331V107.822H281.733V69.4731Z" fill="white"/>
<path d="M314.507 69.4819H287.114L285.143 107.831H312.536L314.507 69.4819Z" fill="white"/>
<path d="M281.262 113.432H253.86L251.889 151.789H279.291L281.262 113.432Z" fill="white"/>
<path d="M346.524 70.0878L319.157 68.8882L317.477 107.201L344.844 108.4L346.524 70.0878Z" fill="white"/>
<path d="M317.287 121.44L289.905 122.233L291.016 160.567L318.398 159.773L317.287 121.44Z" fill="white"/>
<path d="M47.4849 74.8371H179.351C180.062 74.8371 180.744 74.5546 181.247 74.0516C181.75 73.5487 182.033 72.8666 182.033 72.1553V72.1553C182.033 71.8035 181.963 71.4552 181.828 71.1303C181.694 70.8054 181.496 70.5103 181.247 70.262C180.998 70.0136 180.702 69.8169 180.377 69.683C180.051 69.5492 179.703 69.4808 179.351 69.4819H47.4849C46.7803 69.4886 46.1068 69.7732 45.6109 70.2739C45.1151 70.7745 44.8369 71.4507 44.8369 72.1553V72.1553C44.8369 72.8607 45.1148 73.5378 45.6104 74.0398C46.106 74.5417 46.7795 74.8282 47.4849 74.8371Z" fill="#E0E0E0"/>
<path d="M47.4849 86.1903H179.351C180.062 86.1903 180.744 85.9077 181.247 85.4048C181.75 84.9019 182.033 84.2197 182.033 83.5085V83.5085C182.033 82.7972 181.75 82.1151 181.247 81.6121C180.744 81.1092 180.062 80.8267 179.351 80.8267H47.4849C46.7795 80.8356 46.106 81.122 45.6104 81.624C45.1148 82.126 44.8369 82.803 44.8369 83.5085C44.8369 84.2139 45.1148 84.891 45.6104 85.3929C46.106 85.8949 46.7795 86.1814 47.4849 86.1903V86.1903Z" fill="#E0E0E0"/>
<path d="M179.359 92.1797H47.4846C46.0034 92.1797 44.8027 93.3785 44.8027 94.8573C44.8027 96.3361 46.0034 97.5349 47.4846 97.5349H179.359C180.84 97.5349 182.041 96.3361 182.041 94.8573C182.041 93.3785 180.84 92.1797 179.359 92.1797Z" fill="#E0E0E0"/>
<path d="M58.298 74.8371H190.181C190.536 74.8416 190.888 74.7755 191.216 74.6426C191.545 74.5098 191.844 74.3128 192.096 74.0632C192.348 73.8136 192.548 73.5164 192.684 73.1888C192.82 72.8613 192.889 72.51 192.888 72.1553V72.1553C192.889 71.8039 192.821 71.4558 192.687 71.1309C192.553 70.8061 192.356 70.5109 192.108 70.2625C191.859 70.014 191.564 69.8171 191.239 69.6832C190.914 69.5492 190.566 69.4808 190.215 69.4819H58.298C57.9463 69.4808 57.5977 69.5492 57.2724 69.683C56.9471 69.8169 56.6514 70.0136 56.4022 70.262C56.1531 70.5103 55.9554 70.8054 55.8205 71.1303C55.6856 71.4552 55.6162 71.8035 55.6162 72.1553V72.1553C55.6162 72.8666 55.8988 73.5487 56.4017 74.0517C56.9046 74.5546 57.5868 74.8371 58.298 74.8371V74.8371Z" fill="#F5F5F5"/>
<path d="M58.298 86.1903H190.181C190.536 86.1948 190.888 86.1287 191.216 85.9958C191.545 85.8629 191.844 85.666 192.096 85.4164C192.348 85.1668 192.548 84.8696 192.684 84.542C192.82 84.2145 192.889 83.8631 192.888 83.5085V83.5085C192.889 83.1567 192.821 82.8082 192.687 82.4828C192.553 82.1575 192.357 81.8618 192.108 81.6127C191.86 81.3635 191.565 81.1658 191.24 81.031C190.915 80.8961 190.567 80.8267 190.215 80.8267H58.298C57.5868 80.8267 56.9046 81.1092 56.4017 81.6121C55.8988 82.1151 55.6162 82.7972 55.6162 83.5085V83.5085C55.6162 84.2197 55.8988 84.9019 56.4017 85.4048C56.9046 85.9077 57.5868 86.1903 58.298 86.1903V86.1903Z" fill="#F5F5F5"/>
<path d="M190.173 92.1797H58.298C56.8169 92.1797 55.6162 93.3785 55.6162 94.8573C55.6162 96.3361 56.8169 97.5349 58.298 97.5349H190.173C191.654 97.5349 192.854 96.3361 192.854 94.8573C192.854 93.3785 191.654 92.1797 190.173 92.1797Z" fill="#F5F5F5"/>
<path d="M211.503 361.715C302.094 361.715 375.534 357.428 375.534 352.139C375.534 346.85 302.094 342.562 211.503 342.562C120.911 342.562 47.4717 346.85 47.4717 352.139C47.4717 357.428 120.911 361.715 211.503 361.715Z" fill="#F5F5F5"/>
<path d="M330.593 111.198C328.951 110.851 326.845 108.525 326.608 104.574C326.32 99.4978 331.811 99.2102 334.467 100.42C337.124 101.63 335.652 108.398 330.593 111.198Z" fill="#263238"/>
<path d="M372.246 332.588L365.927 334.728L360.021 320.211L366.333 318.07L372.246 332.588Z" fill="#FFC3BD"/>
<path d="M364.929 334.246L372.619 331.64C372.739 331.594 372.873 331.595 372.992 331.644C373.112 331.693 373.208 331.785 373.262 331.902L375.884 337.359C375.945 337.499 375.977 337.65 375.977 337.802C375.976 337.955 375.945 338.106 375.884 338.246C375.823 338.385 375.733 338.511 375.621 338.615C375.509 338.718 375.377 338.798 375.233 338.848C372.746 339.643 370.902 340.109 367.788 341.166C365.868 341.817 362.035 343.213 359.387 344.11C356.739 345.007 355.75 342.418 356.773 341.767C361.384 339 362.78 336.995 363.998 334.999C364.211 334.647 364.54 334.381 364.929 334.246V334.246Z" fill="#263238"/>
<path opacity="0.2" d="M366.333 318.07L360.021 320.211L363.067 327.698L369.387 325.557L366.333 318.07Z" fill="black"/>
<path d="M332.249 135.639H337.325C335.633 137.077 335.785 175.756 337.215 194.326C333.162 194.58 325.735 193.167 325.735 193.167C325.735 193.167 325.024 164.217 332.249 135.639Z" fill="#407BFF"/>
<path opacity="0.4" d="M332.249 135.639H337.325C335.633 137.077 335.785 175.756 337.215 194.326C333.162 194.58 325.735 193.167 325.735 193.167C325.735 193.167 325.024 164.217 332.249 135.639Z" fill="black"/>
<path d="M329.551 345.286H322.833L321.827 329.737H328.535L329.551 345.286Z" fill="#FFC3BD"/>
<path opacity="0.2" d="M328.535 329.745H321.827L322.351 337.757H329.06L328.535 329.745Z" fill="black"/>
<path d="M318.55 335.016L330.53 334.914C330.53 334.914 328.516 291.151 329.785 270.314C330.174 263.969 330.098 255.179 331.883 245.721C334.151 233.801 337.052 220.899 339.447 210.806C341.985 200.164 340.648 192.634 340.648 192.634L317.053 191.238C317.053 191.238 310.953 247.074 310.945 267.531C310.928 288.858 318.55 335.016 318.55 335.016Z" fill="#263238"/>
<path d="M322.03 344.508H330.21C330.34 344.503 330.468 344.547 330.567 344.632C330.665 344.716 330.729 344.835 330.743 344.965L331.505 350.929C331.518 351.081 331.499 351.234 331.449 351.378C331.4 351.523 331.321 351.655 331.218 351.767C331.114 351.88 330.988 351.969 330.849 352.03C330.709 352.091 330.558 352.122 330.405 352.122C327.774 352.079 325.87 351.927 322.554 351.927C320.515 351.927 313.147 352.139 310.329 352.139C307.512 352.139 307.411 349.355 308.587 349.102C313.866 347.968 319.102 346.411 320.904 344.922C321.219 344.655 321.617 344.508 322.03 344.508Z" fill="#263238"/>
<path d="M317.594 336.471H333.008L332.915 332.148L316.782 331.869L317.594 336.471Z" fill="#407BFF"/>
<path d="M319.692 345.676C319.247 345.714 318.804 345.595 318.439 345.337C318.323 345.233 318.238 345.099 318.193 344.95C318.149 344.801 318.146 344.642 318.186 344.491C318.195 344.396 318.229 344.305 318.284 344.226C318.338 344.148 318.412 344.085 318.499 344.043C319.277 343.654 321.316 344.99 321.553 345.143C321.577 345.161 321.595 345.186 321.604 345.215C321.613 345.244 321.613 345.275 321.604 345.303C321.594 345.333 321.578 345.36 321.556 345.382C321.534 345.404 321.506 345.421 321.477 345.43C320.892 345.575 320.294 345.658 319.692 345.676ZM318.846 344.288C318.773 344.288 318.701 344.302 318.634 344.331C318.601 344.35 318.572 344.377 318.552 344.409C318.531 344.441 318.519 344.478 318.516 344.517C318.492 344.618 318.494 344.724 318.522 344.825C318.55 344.926 318.603 345.017 318.676 345.092C319.015 345.405 319.895 345.447 321.054 345.219C320.382 344.77 319.624 344.464 318.829 344.322L318.846 344.288Z" fill="#407BFF"/>
<path d="M321.478 345.447C321.456 345.455 321.432 345.455 321.41 345.447C320.75 345.075 319.54 343.603 319.76 342.85C319.796 342.732 319.867 342.629 319.964 342.555C320.061 342.481 320.179 342.439 320.302 342.435C320.42 342.421 320.54 342.431 320.653 342.466C320.767 342.501 320.872 342.56 320.962 342.638C321.681 343.281 321.655 345.176 321.655 345.295C321.656 345.324 321.648 345.353 321.633 345.378C321.618 345.404 321.597 345.424 321.571 345.438C321.541 345.451 321.509 345.454 321.478 345.447V345.447ZM320.386 342.723H320.31C320.099 342.723 320.073 342.85 320.065 342.883C319.938 343.332 320.691 344.44 321.325 344.965C321.357 344.217 321.149 343.479 320.733 342.858C320.682 342.809 320.62 342.772 320.553 342.748C320.486 342.725 320.415 342.716 320.344 342.723H320.386Z" fill="#407BFF"/>
<path opacity="0.2" d="M331.885 245.755C334.152 233.835 337.054 220.933 339.448 210.84L336.834 205.578C331.225 212.6 330.371 234.097 331.885 245.755Z" fill="black"/>
<path d="M329.789 192.042C329.789 192.042 337.513 249.477 340.99 268.91C344.805 290.186 359.466 327.284 359.466 327.284L371.031 323.358C371.031 323.358 361.92 292.581 358.722 271.752C355.075 248.064 352.944 193.396 352.944 193.396L329.789 192.042Z" fill="#263238"/>
<path d="M358.197 327.986L372.697 323.07L371.225 318.967L355.963 323.849L358.197 327.986Z" fill="#407BFF"/>
<path d="M363.112 336.107C362.704 336.289 362.244 336.316 361.817 336.183C361.675 336.122 361.552 336.022 361.463 335.895C361.373 335.768 361.32 335.619 361.31 335.464C361.29 335.37 361.293 335.272 361.32 335.179C361.346 335.086 361.395 335.001 361.462 334.931C362.071 334.322 364.415 334.931 364.685 335.016C364.716 335.022 364.743 335.039 364.762 335.064C364.781 335.089 364.79 335.12 364.787 335.151C364.79 335.183 364.783 335.215 364.768 335.244C364.753 335.272 364.73 335.296 364.702 335.312C364.205 335.639 363.671 335.906 363.112 336.107ZM361.851 335.058C361.78 335.077 361.716 335.115 361.665 335.168C361.639 335.196 361.621 335.23 361.612 335.267C361.603 335.304 361.604 335.343 361.614 335.38C361.622 335.485 361.657 335.587 361.716 335.675C361.776 335.762 361.857 335.833 361.953 335.879C362.367 336.065 363.205 335.828 364.22 335.236C363.451 335.015 362.645 334.955 361.851 335.058V335.058Z" fill="#407BFF"/>
<path d="M364.668 335.329H364.626C363.89 335.177 362.291 334.153 362.249 333.375C362.244 333.251 362.279 333.129 362.347 333.026C362.415 332.923 362.514 332.844 362.63 332.8C362.738 332.752 362.854 332.727 362.972 332.727C363.09 332.727 363.207 332.752 363.315 332.8C364.161 333.18 364.787 335.041 364.812 335.118C364.826 335.144 364.834 335.173 364.834 335.202C364.834 335.232 364.826 335.261 364.812 335.287C364.796 335.308 364.773 335.324 364.747 335.331C364.721 335.339 364.694 335.338 364.668 335.329V335.329ZM362.773 333.079H362.706C362.52 333.172 362.52 333.273 362.52 333.316C362.52 333.772 363.603 334.601 364.372 334.898C364.169 334.365 363.712 333.316 363.146 333.079C363.087 333.054 363.023 333.041 362.96 333.041C362.896 333.041 362.832 333.054 362.773 333.079V333.079Z" fill="#407BFF"/>
<path d="M323.637 143.583C320.659 147.373 317.596 150.901 314.331 154.386C311.051 157.903 307.574 161.231 303.917 164.352C302.952 165.131 302.013 165.917 300.973 166.662C299.774 167.608 298.457 168.392 297.056 168.997C294.19 170.111 291.076 170.426 288.046 169.91C285.396 169.484 282.827 168.651 280.432 167.44C279.294 166.883 278.192 166.255 277.132 165.562C276.076 164.864 275.065 164.101 274.104 163.278L276.861 159.048C280.736 160.638 285.127 161.907 288.79 161.882C290.386 161.929 291.967 161.559 293.375 160.807C294.05 160.385 294.682 159.897 295.262 159.352C296.066 158.684 296.852 157.923 297.639 157.195C299.221 155.681 300.786 154.124 302.309 152.474C303.832 150.825 305.363 149.183 306.861 147.491C309.847 144.107 312.842 140.63 315.684 137.204L323.637 143.583Z" fill="#FFC3BD"/>
<path d="M322.877 148.82C320.214 151.85 317.302 154.652 314.171 157.195L311.929 155.114L303.926 147.695C306.144 143.473 309.121 139.696 312.708 136.553C319.002 130.944 326.464 132.729 327.318 139.734C327.64 142.34 325.508 145.724 322.877 148.82Z" fill="#407BFF"/>
<path opacity="0.2" d="M322.875 148.82C320.213 151.85 317.301 154.652 314.17 157.195L311.928 155.114C314.043 150.715 321.48 142.974 322.875 148.82Z" fill="black"/>
<path d="M314.407 201.162C317.588 202.498 322.453 203.386 326.607 202.101C326.328 195.815 326.421 160.367 332.681 135.605H336.386C334.694 136.984 329.534 183.302 331.226 202.574C338.324 204.055 352.274 202.921 354.474 200.747C354.195 197.718 352.663 182.592 352.875 172.034C352.968 167.533 353.171 162.567 353.636 157.356C354.257 149.903 355.439 142.508 357.173 135.233C357.173 135.233 352.943 134.108 348.095 133.38C347.139 133.236 346.166 133.109 345.21 133.008C340.156 132.415 335.071 132.113 329.982 132.103C329.356 132.103 328.739 132.153 328.138 132.196C325.274 132.404 322.427 132.788 319.61 133.346C319.61 133.346 310.55 163.794 314.407 201.162Z" fill="#407BFF"/>
<path opacity="0.2" d="M352.123 145.732C350.354 151.087 350.431 158.507 352.969 162C353.07 162.144 353.18 162.28 353.282 162.398C353.383 160.757 353.51 159.087 353.662 157.39C353.891 154.793 354.187 152.128 354.551 149.429L352.123 145.732Z" fill="black"/>
<path d="M344.322 115.792C343.18 120.64 341.894 129.565 345.168 133.042C343.587 134.53 341.701 135.656 339.641 136.343C337.581 137.029 335.397 137.26 333.239 137.018C329.009 136.671 328.916 133.71 329.914 132.137C335.439 131.155 335.447 127.061 334.627 123.228L344.322 115.792Z" fill="#FFC3BD"/>
<path opacity="0.2" d="M340.379 118.829L334.669 123.22C334.87 124.119 334.995 125.033 335.041 125.952C337.139 125.775 340.117 123.651 340.396 121.477C340.553 120.601 340.547 119.703 340.379 118.829Z" fill="black"/>
<path d="M345.167 107.712C344.601 114.362 344.601 118.279 341.174 121.544C336.014 126.451 327.909 123.016 326.488 116.299C325.21 110.242 326.353 100.394 332.909 98.051C334.378 97.5525 335.947 97.4289 337.476 97.6914C339.004 97.954 340.443 98.5943 341.661 99.5542C342.879 100.514 343.837 101.763 344.45 103.188C345.062 104.613 345.309 106.168 345.167 107.712V107.712Z" fill="#FFC3BD"/>
<path d="M344.788 111.909C343.146 111.57 341.031 109.236 340.803 105.285C340.507 100.209 346.006 99.9211 348.654 101.131C351.302 102.341 349.838 109.134 344.788 111.909Z" fill="#263238"/>
<path d="M341.674 103.161C338.629 104.362 326.776 103.931 324.915 100.894C323.054 97.8564 347.706 100.784 341.674 103.161Z" fill="#263238"/>
<path d="M342.877 102.366C339.747 103.296 327.971 101.858 326.38 98.6771C324.79 95.4961 349.104 100.462 342.877 102.366Z" fill="#263238"/>
<path d="M344.455 101.875C341.258 102.518 329.659 100.023 328.381 96.7062C327.104 93.3899 350.826 100.589 344.455 101.875Z" fill="#263238"/>
<path d="M346.522 102.197C343.282 102.603 331.759 98.2626 330.71 94.8617C329.661 91.4608 352.968 101.393 346.522 102.197Z" fill="#263238"/>
<path d="M347.783 101.52C344.517 101.596 333.536 97.1037 332.834 93.6182C332.132 90.1327 354.28 101.334 347.783 101.52Z" fill="#263238"/>
<path d="M348.154 101.461C345.464 100.944 335.837 95.124 336.133 92.1546C336.463 88.8298 353.56 102.493 348.154 101.461Z" fill="#263238"/>
<path d="M347.934 112.924C347.736 113.722 347.379 114.471 346.885 115.128C346.39 115.785 345.769 116.336 345.058 116.748C343.146 117.839 341.597 116.249 341.674 114.159C341.674 112.272 342.756 109.438 344.914 109.201C345.385 109.162 345.858 109.239 346.292 109.424C346.727 109.609 347.109 109.898 347.407 110.265C347.705 110.632 347.908 111.066 348 111.529C348.092 111.992 348.069 112.471 347.934 112.924V112.924Z" fill="#FFC3BD"/>
<path d="M335.013 109.134C335.013 109.675 334.7 110.098 334.344 110.09C333.989 110.081 333.718 109.616 333.735 109.075C333.752 108.533 334.04 108.102 334.395 108.119C334.75 108.136 335.013 108.567 335.013 109.134Z" fill="#263238"/>
<path d="M328.942 108.821C328.942 109.362 328.629 109.794 328.273 109.777C327.918 109.76 327.647 109.303 327.664 108.761C327.681 108.22 327.969 107.797 328.324 107.814C328.679 107.831 328.95 108.288 328.942 108.821Z" fill="#263238"/>
<path d="M330.871 109.185C330.189 110.808 329.283 112.329 328.181 113.702C328.535 113.98 328.945 114.179 329.383 114.284C329.821 114.389 330.277 114.398 330.719 114.311L330.871 109.185Z" fill="#FF5652"/>
<path d="M332.985 115.902C332.751 115.919 332.517 115.919 332.283 115.902C332.262 115.902 332.242 115.898 332.223 115.889C332.204 115.881 332.186 115.869 332.172 115.854C332.158 115.839 332.147 115.821 332.14 115.802C332.133 115.782 332.129 115.762 332.131 115.741C332.131 115.72 332.135 115.7 332.143 115.681C332.151 115.662 332.163 115.645 332.178 115.63C332.193 115.616 332.211 115.605 332.23 115.598C332.25 115.591 332.271 115.588 332.291 115.589C332.958 115.636 333.627 115.523 334.241 115.258C334.855 114.993 335.396 114.584 335.819 114.066C335.849 114.038 335.888 114.022 335.929 114.022C335.97 114.022 336.009 114.038 336.039 114.066C336.072 114.093 336.095 114.13 336.103 114.172C336.111 114.214 336.103 114.258 336.082 114.294C335.702 114.759 335.232 115.141 334.699 115.417C334.167 115.694 333.583 115.859 332.985 115.902V115.902Z" fill="#263238"/>
<path d="M336.969 107.214C336.913 107.219 336.855 107.21 336.803 107.186C336.751 107.162 336.706 107.125 336.673 107.078C336.455 106.74 336.159 106.458 335.811 106.257C335.462 106.055 335.07 105.939 334.668 105.919C334.584 105.919 334.502 105.887 334.441 105.829C334.379 105.77 334.343 105.691 334.338 105.606C334.336 105.565 334.342 105.523 334.356 105.484C334.371 105.445 334.393 105.41 334.421 105.38C334.45 105.35 334.484 105.326 334.522 105.309C334.56 105.293 334.601 105.285 334.643 105.285C335.149 105.306 335.643 105.446 336.084 105.695C336.525 105.943 336.901 106.293 337.181 106.714C337.229 106.784 337.249 106.869 337.236 106.952C337.224 107.035 337.18 107.111 337.113 107.163C337.071 107.193 337.021 107.211 336.969 107.214V107.214Z" fill="#263238"/>
<path d="M326.358 106.596C326.301 106.616 326.238 106.616 326.18 106.596C326.143 106.577 326.109 106.551 326.081 106.519C326.054 106.486 326.033 106.449 326.021 106.409C326.008 106.369 326.004 106.326 326.008 106.284C326.012 106.242 326.025 106.201 326.045 106.164C326.265 105.715 326.59 105.326 326.994 105.031C327.398 104.736 327.868 104.544 328.363 104.472C328.448 104.467 328.531 104.496 328.596 104.551C328.661 104.606 328.702 104.684 328.71 104.768C328.715 104.809 328.711 104.851 328.7 104.891C328.688 104.931 328.669 104.968 328.643 105C328.617 105.032 328.585 105.059 328.548 105.079C328.512 105.099 328.472 105.111 328.431 105.115C328.038 105.172 327.666 105.326 327.347 105.562C327.028 105.798 326.773 106.11 326.604 106.469C326.575 106.507 326.538 106.539 326.496 106.561C326.453 106.583 326.406 106.595 326.358 106.596V106.596Z" fill="#263238"/>
<path d="M360.989 139.725C362.03 142.069 362.842 144.302 363.679 146.612C364.517 148.921 365.236 151.248 365.913 153.616C367.327 158.442 368.265 163.395 368.713 168.404L368.806 170.384V170.951V171.729C368.806 172.237 368.696 172.668 368.628 173.125C368.313 174.628 367.813 176.085 367.139 177.465C366.002 179.807 364.645 182.037 363.087 184.123C360.169 188.069 356.889 191.734 353.29 195.07L349.458 191.788C351.92 187.905 354.382 183.903 356.48 179.944C357.497 178.07 358.376 176.125 359.111 174.123C359.388 173.337 359.578 172.523 359.678 171.695C359.678 171.569 359.678 171.416 359.678 171.332C359.674 171.298 359.674 171.264 359.678 171.23V171.103V170.909L359.483 169.36C358.75 164.998 357.68 160.699 356.285 156.501C355.608 154.344 354.855 152.187 354.094 150.038C353.333 147.889 352.487 145.715 351.7 143.71L360.989 139.725Z" fill="#FFC3BD"/>
<path d="M359.169 136.248C364.592 139.793 367.105 154.234 367.105 154.234L354.33 159.75C351.294 155.523 349.168 150.712 348.087 145.622C346.276 136.426 353.628 132.61 359.169 136.248Z" fill="#407BFF"/>
<path d="M352.698 190.807L344.822 190.502L348.967 198.116C348.967 198.116 354.678 196.542 354.111 193.421L352.698 190.807Z" fill="#FFC3BD"/>
<path d="M340.623 194.14L344.336 200.248L348.964 198.082L344.819 190.502L340.623 194.14Z" fill="#FFC3BD"/>
<path d="M277.139 159.302L271.302 155.647L270.329 164.107C270.329 164.107 275.963 166.129 277.3 163.261L277.139 159.302Z" fill="#FFC3BD"/>
<path d="M265.55 156.865L263.934 163.21L270.33 164.141L271.303 155.647L265.55 156.865Z" fill="#FFC3BD"/>
<path d="M221.501 113.685C216.628 118.838 209.327 132.213 214.927 136.908C216.878 137.749 218.977 138.195 221.101 138.219C223.226 138.244 225.334 137.847 227.304 137.052L225.993 117.738C225.993 117.738 225.308 110.301 221.501 113.685Z" fill="#263238"/>
<path d="M217.615 157.965C216.951 160.609 216.155 163.218 215.229 165.782C214.315 168.32 213.266 170.816 212.116 173.278C210.969 175.767 209.655 178.175 208.182 180.486C207.437 181.653 206.633 182.795 205.787 183.92C205.364 184.479 204.941 185.037 204.468 185.612C204.239 185.883 203.994 186.145 203.757 186.416L203.402 186.822C203.166 187.08 202.911 187.321 202.64 187.541C202.021 188.033 201.307 188.39 200.542 188.59C199.846 188.764 199.124 188.813 198.41 188.734C197.365 188.606 196.354 188.279 195.432 187.77C194.066 187.007 192.801 186.075 191.668 184.995C189.665 183.101 187.818 181.05 186.143 178.861C182.915 174.642 179.997 170.195 177.413 165.554L180.5 163.549C182.074 165.537 183.69 167.567 185.34 169.521C186.989 171.476 188.647 173.422 190.416 175.249C192.06 177.066 193.833 178.762 195.72 180.325C196.517 180.992 197.392 181.56 198.326 182.017C198.552 182.132 198.8 182.198 199.053 182.211C199.053 182.211 199.003 182.211 198.859 182.211C198.721 182.243 198.589 182.297 198.47 182.372C198.457 182.391 198.44 182.406 198.419 182.414V182.414L198.689 182.068C198.876 181.839 199.062 181.619 199.239 181.382C199.595 180.909 199.942 180.435 200.28 179.936C200.948 178.954 201.591 177.939 202.192 176.873C203.393 174.767 204.468 172.542 205.483 170.283C206.498 168.024 207.378 165.681 208.207 163.32C209.036 160.96 209.797 158.515 210.432 156.239L217.615 157.965Z" fill="#FF8B7B"/>
<path d="M222.919 159.843C222.133 162.051 219.459 166.011 217.361 168.938C215.83 171.053 214.612 172.626 214.612 172.626L213.402 171.78L203.385 164.97C205.272 159.243 207.776 153.126 214.764 151.434C219.163 150.385 224.324 155.901 222.919 159.843Z" fill="#407BFF"/>
<g opacity="0.5">
<path opacity="0.5" d="M222.919 159.843C222.133 162.051 219.459 166.011 217.361 168.938C215.83 171.053 214.612 172.626 214.612 172.626L213.402 171.78L203.385 164.97C205.272 159.243 207.776 153.126 214.764 151.434C219.163 150.385 224.324 155.901 222.919 159.843Z" fill="white"/>
</g>
<path opacity="0.3" d="M217.363 168.938C215.831 171.053 214.613 172.626 214.613 172.626L213.403 171.78C214.004 169.496 215.095 165.917 216.686 164.496C217.225 165.912 217.455 167.426 217.363 168.938V168.938Z" fill="black"/>
<path d="M181.17 165.105L181.5 158.811L173.97 159.86C173.97 159.86 176.094 164.691 178.336 166.713L181.17 165.105Z" fill="#FF8B7B"/>
<path d="M179.062 156.188L173.614 158.007L173.97 159.86L181.499 158.811L179.062 156.188Z" fill="#FF8B7B"/>
<path d="M241.701 345.1L234.569 345.794L229.823 329.069L236.955 328.383L241.701 345.1Z" fill="#FF8B7B"/>
<path d="M293.173 329.018L286.566 332.055L277.403 317.732L284.011 314.695L293.173 329.018Z" fill="#FF8B7B"/>
<path d="M284.594 329.83L291.87 326.048C291.994 325.983 292.138 325.965 292.275 325.998C292.412 326.031 292.532 326.111 292.614 326.226L296.43 331.522C296.521 331.659 296.581 331.814 296.608 331.977C296.635 332.14 296.628 332.306 296.586 332.466C296.545 332.625 296.47 332.774 296.368 332.903C296.265 333.032 296.136 333.138 295.99 333.214C293.452 334.483 292.149 334.973 288.959 336.598C287.005 337.621 282.818 340.176 280.11 341.581C277.403 342.985 275.88 340.396 276.862 339.567C281.354 335.845 282.784 333.07 283.748 330.752C283.922 330.36 284.219 330.037 284.594 329.83Z" fill="#263238"/>
<path d="M233.289 343.62H241.952C242.107 343.622 242.257 343.674 242.379 343.769C242.501 343.863 242.589 343.995 242.629 344.144L244.507 350.971C244.554 351.132 244.562 351.302 244.531 351.466C244.5 351.631 244.43 351.786 244.328 351.918C244.226 352.051 244.094 352.158 243.943 352.23C243.792 352.302 243.626 352.337 243.458 352.334C240.413 352.334 238.975 352.334 235.176 352.334H223.544C220.396 352.334 219.737 349.144 221.006 348.856C226.851 347.562 230.227 345.777 232.004 344.077C232.176 343.918 232.379 343.796 232.6 343.718C232.821 343.639 233.055 343.606 233.289 343.62V343.62Z" fill="#263238"/>
<path opacity="0.2" d="M229.823 329.069L232.276 337.689H239.603L236.963 328.383L229.823 329.069Z" fill="black"/>
<path opacity="0.2" d="M284.019 314.695L277.403 317.732L282.132 325.118L288.74 322.081L284.019 314.695Z" fill="black"/>
<path d="M251.346 191.306L222.049 195.054C209.732 153.6 212.828 152.094 212.828 152.094C212.828 152.094 217.718 150.402 222.709 149.099C223.462 148.904 224.224 148.718 224.968 148.549C229.359 147.673 233.806 147.107 238.276 146.857L240.247 146.73C243.809 146.574 247.377 146.63 250.932 146.899C250.39 152.238 250.001 156.755 249.756 160.706C249.426 165.85 249.324 170.012 249.401 173.616C249.579 179.555 250.23 185.47 251.346 191.306V191.306Z" fill="#407BFF"/>
<g opacity="0.5">
<path opacity="0.5" d="M251.346 191.306L222.049 195.054C209.732 153.6 212.828 152.094 212.828 152.094C212.828 152.094 217.718 150.402 222.709 149.099C223.462 148.904 224.224 148.718 224.968 148.549C229.359 147.673 233.806 147.107 238.276 146.857L240.247 146.73C243.809 146.574 247.377 146.63 250.932 146.899C250.39 152.238 250.001 156.755 249.756 160.706C249.426 165.85 249.324 170.012 249.401 173.616C249.579 179.555 250.23 185.47 251.346 191.306V191.306Z" fill="white"/>
</g>
<path opacity="0.3" d="M249.401 173.599C247.421 169.369 246.457 160.139 247.709 156.975L249.756 160.689C249.426 165.816 249.325 169.978 249.401 173.599Z" fill="black"/>
<path d="M235.05 137.983C235.321 141.604 236.175 145.292 238.273 146.84C234.989 147.823 231.94 149.467 229.314 151.671C225.719 149.776 224.974 148.549 224.974 148.549C229.602 146.798 229.28 143.617 227.318 138.507L230.93 136.561C231.241 136.217 231.647 135.972 232.097 135.856C232.547 135.74 233.021 135.759 233.46 135.911C233.899 136.062 234.283 136.339 234.566 136.708C234.849 137.076 235.017 137.519 235.05 137.983Z" fill="#FF8B7B"/>
<path d="M225.88 145.656C224.603 145.072 222.209 148.236 221.887 149.082C221.566 149.928 222.868 150.19 222.733 151.307C222.598 152.424 223.342 153.413 225.55 154.285C227.758 155.156 232.132 154.632 233.587 152.466C235.042 150.3 244.112 148.566 242.843 146.408C241.574 144.251 240.592 145.461 239.695 143.304C238.799 141.146 235 143.211 233.773 144.336C232.547 145.461 231.261 148.1 225.88 145.656Z" fill="#407BFF"/>
<path opacity="0.2" d="M230.956 136.553C231.248 136.23 231.624 135.994 232.042 135.871C232.46 135.749 232.903 135.744 233.324 135.858C233.744 135.972 234.125 136.2 234.424 136.516C234.722 136.833 234.928 137.226 235.017 137.653C233.647 140.423 231.434 142.689 228.697 144.125C228.601 142.181 228.141 140.273 227.344 138.499L230.956 136.553Z" fill="black"/>
<path d="M240.669 126.629C238.876 133.626 238.267 136.621 233.994 139.565C227.565 143.989 219.367 140.258 219.037 132.873C218.741 126.223 221.727 115.902 229.189 114.421C230.834 114.085 232.538 114.176 234.139 114.683C235.739 115.191 237.184 116.1 238.334 117.323C239.484 118.547 240.303 120.044 240.712 121.673C241.12 123.302 241.106 125.008 240.669 126.629V126.629Z" fill="#FF8B7B"/>
<path d="M241.005 133.516C240.716 134.144 240.305 134.708 239.797 135.177C239.289 135.646 238.693 136.01 238.044 136.248C236.301 136.883 235.294 135.351 235.666 133.642C236.005 132.103 237.316 129.912 239.118 130.03C239.51 130.063 239.887 130.193 240.217 130.408C240.546 130.623 240.816 130.917 241.003 131.263C241.19 131.609 241.289 131.996 241.289 132.389C241.289 132.782 241.191 133.169 241.005 133.516Z" fill="#FF8B7B"/>
<path d="M223.013 118.601C226.448 117.899 234.697 118.482 235.416 121.858C232.48 124.599 233.893 133.431 230.839 136.02C235.297 140.25 244.138 140.292 244.138 140.292C244.138 140.292 252.877 116.545 242.209 115.386C239.967 109.379 227.827 108.838 221.499 113.694" fill="#263238"/>
<path d="M239.418 122.188H235.188C235.04 122.188 234.898 122.129 234.793 122.024C234.688 121.92 234.629 121.778 234.629 121.63C234.632 121.482 234.691 121.341 234.795 121.237C234.9 121.133 235.04 121.073 235.188 121.071H239.418C239.566 121.071 239.708 121.13 239.813 121.235C239.917 121.34 239.976 121.482 239.976 121.63C239.977 121.703 239.964 121.776 239.936 121.845C239.908 121.913 239.867 121.975 239.815 122.027C239.763 122.079 239.701 122.12 239.633 122.148C239.564 122.175 239.491 122.189 239.418 122.188V122.188Z" fill="#407BFF"/>
<path d="M222.049 195.062C222.049 195.062 210.797 251.685 214.545 273.554C218.14 294.518 229.197 335.193 229.197 335.193L241.744 334.872C241.744 334.872 233.867 287.741 233.715 270.221C233.453 241.161 243.503 192.312 243.503 192.312L222.049 195.062Z" fill="#407BFF"/>
<path d="M228.411 335.845L242.928 335.448L242.031 330.685L226.304 331.488L228.411 335.845Z" fill="#263238"/>
<path opacity="0.3" d="M232.266 201.923L237.283 193.108L243.501 192.312C243.501 192.312 238.924 214.528 236.031 237.903C232.554 226.728 231.327 207.067 232.266 201.923Z" fill="black"/>
<path d="M228.42 194.326C228.42 194.326 237.312 242.227 245.239 269.578C251.635 291.667 278.487 321.768 278.487 321.768L287.979 317.005C287.979 317.005 269.959 283.655 265.492 268.647C251.203 220.628 262.379 203.176 251.313 191.306L228.42 194.326Z" fill="#407BFF"/>
<path d="M278.586 324.695L289.761 318.925L288.086 314.162L275.743 321.015L278.586 324.695Z" fill="#263238"/>
<path d="M251.562 189.504L253.254 191.958C253.381 192.144 253.169 192.389 252.831 192.431L222.096 196.374C221.833 196.374 221.596 196.306 221.563 196.137L220.962 193.548C220.962 193.37 221.131 193.184 221.419 193.15L251.088 189.343C251.174 189.329 251.262 189.337 251.345 189.365C251.427 189.393 251.502 189.441 251.562 189.504V189.504Z" fill="#407BFF"/>
<path opacity="0.4" d="M251.562 189.504L253.254 191.958C253.381 192.144 253.169 192.389 252.831 192.431L222.096 196.374C221.833 196.374 221.596 196.306 221.563 196.137L220.962 193.548C220.962 193.37 221.131 193.184 221.419 193.15L251.088 189.343C251.174 189.329 251.262 189.337 251.345 189.365C251.427 189.393 251.502 189.441 251.562 189.504V189.504Z" fill="white"/>
<path d="M248.005 193.362L248.8 193.252C248.961 193.252 249.071 193.142 249.046 193.04L248.2 189.656C248.2 189.555 248.031 189.496 247.87 189.513L247.075 189.614C246.922 189.614 246.812 189.733 246.829 189.834L247.675 193.218C247.701 193.311 247.878 193.379 248.005 193.362Z" fill="#263238"/>
<path d="M224.339 196.391L225.134 196.289C225.287 196.289 225.397 196.171 225.38 196.078L224.534 192.694C224.534 192.592 224.356 192.524 224.204 192.55L223.409 192.651C223.248 192.651 223.138 192.77 223.163 192.863L224.009 196.247C224.026 196.348 224.187 196.416 224.339 196.391Z" fill="#263238"/>
<path d="M236.168 194.876L236.963 194.775C237.124 194.775 237.234 194.656 237.208 194.555L236.404 191.171C236.404 191.078 236.227 191.01 236.074 191.027L235.279 191.129C235.118 191.129 235.009 191.247 235.034 191.348L235.838 194.733C235.863 194.834 236.032 194.893 236.168 194.876Z" fill="#263238"/>
<path d="M228.687 126.333C228.577 126.909 228.179 127.315 227.841 127.239C227.502 127.162 227.249 126.646 227.359 126.071C227.468 125.496 227.866 125.081 228.205 125.157C228.543 125.234 228.797 125.758 228.687 126.333Z" fill="#263238"/>
<path d="M222.174 125.081C222.064 125.656 221.675 126.062 221.328 125.986C220.981 125.91 220.736 125.394 220.846 124.819C220.956 124.243 221.353 123.829 221.734 123.905C222.115 123.981 222.292 124.497 222.174 125.081Z" fill="#263238"/>
<path d="M221.86 123.965L220.548 123.305C220.548 123.305 221.047 124.523 221.86 123.965Z" fill="#263238"/>
<path d="M223.901 126.367C223.136 127.582 222.208 128.686 221.143 129.649C221.396 129.916 221.705 130.124 222.046 130.26C222.388 130.396 222.755 130.456 223.123 130.436L223.901 126.367Z" fill="#FF5652"/>
<path d="M225.323 133.304C225.295 133.286 225.273 133.261 225.26 133.231C225.246 133.201 225.242 133.167 225.247 133.135C225.255 133.089 225.281 133.048 225.319 133.022C225.357 132.995 225.404 132.984 225.45 132.991C226.163 133.147 226.902 133.131 227.608 132.946C228.314 132.761 228.966 132.411 229.511 131.925C229.544 131.894 229.588 131.876 229.633 131.876C229.679 131.876 229.723 131.894 229.756 131.925C229.772 131.94 229.785 131.958 229.794 131.979C229.803 131.999 229.808 132.021 229.808 132.044C229.808 132.066 229.803 132.088 229.794 132.108C229.785 132.129 229.772 132.147 229.756 132.162C229.174 132.696 228.471 133.081 227.708 133.285C226.945 133.488 226.144 133.503 225.374 133.329C225.354 133.327 225.337 133.318 225.323 133.304Z" fill="#263238"/>
<path d="M230.958 124.556C230.905 124.524 230.864 124.477 230.839 124.421C230.66 124.028 230.39 123.683 230.052 123.414C229.714 123.145 229.317 122.959 228.893 122.873C228.848 122.869 228.804 122.856 228.764 122.834C228.724 122.812 228.689 122.783 228.66 122.747C228.632 122.712 228.611 122.671 228.598 122.627C228.586 122.583 228.583 122.537 228.589 122.492C228.601 122.403 228.648 122.321 228.719 122.264C228.789 122.208 228.879 122.18 228.969 122.188C229.509 122.284 230.018 122.509 230.451 122.845C230.884 123.181 231.229 123.618 231.457 124.117C231.498 124.198 231.505 124.293 231.477 124.381C231.448 124.468 231.386 124.54 231.304 124.582C231.249 124.607 231.188 124.618 231.128 124.613C231.067 124.609 231.009 124.589 230.958 124.556V124.556Z" fill="#263238"/>
<path d="M219.898 121.68V121.621C219.885 121.578 219.881 121.533 219.885 121.489C219.89 121.444 219.903 121.401 219.924 121.362C219.946 121.322 219.974 121.288 220.009 121.259C220.044 121.231 220.084 121.21 220.127 121.198C220.647 121.025 221.201 120.98 221.742 121.069C222.283 121.157 222.794 121.376 223.232 121.705C223.302 121.765 223.346 121.85 223.354 121.942C223.362 122.034 223.333 122.125 223.274 122.196C223.214 122.267 223.129 122.311 223.037 122.319C222.945 122.327 222.854 122.298 222.783 122.238C222.436 121.981 222.031 121.812 221.603 121.746C221.176 121.68 220.739 121.718 220.33 121.858C220.249 121.885 220.16 121.882 220.081 121.849C220.002 121.817 219.937 121.757 219.898 121.68V121.68Z" fill="#263238"/>
<path d="M253.941 154.285C254.906 155.325 255.709 156.273 256.53 157.305C257.35 158.337 258.137 159.344 258.907 160.384C260.421 162.482 261.851 164.614 263.137 166.89C264.475 169.142 265.671 171.476 266.716 173.878C266.995 174.479 267.223 175.105 267.477 175.714C267.731 176.323 267.968 176.941 268.179 177.575C268.391 178.21 268.611 178.802 268.831 179.504L269.135 180.638L269.355 181.763C269.733 184.579 269.632 187.439 269.059 190.223C268.531 192.82 267.781 195.368 266.817 197.837C265.873 200.238 264.808 202.59 263.628 204.884C262.443 207.157 261.138 209.365 259.719 211.5L256.538 209.622C257.537 207.473 258.518 205.197 259.355 202.938C260.23 200.7 260.99 198.418 261.631 196.102C262.271 193.863 262.738 191.578 263.027 189.267C263.155 188.169 263.217 187.064 263.213 185.959C263.193 184.933 263.083 183.911 262.883 182.905L262.714 182.211L262.503 181.551C262.333 181.078 262.08 180.494 261.868 179.978C261.657 179.462 261.42 178.912 261.166 178.379C260.912 177.846 260.692 177.321 260.413 176.805C259.372 174.707 258.146 172.685 256.91 170.663C255.675 168.641 254.288 166.704 252.858 164.8C252.156 163.836 251.428 162.888 250.684 161.958C249.939 161.027 249.161 160.088 248.459 159.285L253.941 154.285Z" fill="#FF8B7B"/>
<path d="M258.026 207.591L252.189 210.442L258.179 215.121C258.179 215.121 260.776 211.99 260.666 208.97L258.026 207.591Z" fill="#FF8B7B"/>
<path d="M249.416 216.229L254.509 218.869L258.138 215.121L252.149 210.442L249.416 216.229Z" fill="#FF8B7B"/>
<path d="M250.929 146.882C254.558 147.373 260.04 157.508 260.04 157.508L250.81 166.577C250.81 166.577 243.738 158.515 243.924 153.803C244.093 149.801 246.301 146.265 250.929 146.882Z" fill="#407BFF"/>
<g opacity="0.5">
<path opacity="0.5" d="M250.929 146.882C254.558 147.373 260.04 157.508 260.04 157.508L250.81 166.577C250.81 166.577 243.738 158.515 243.924 153.803C244.093 149.801 246.301 146.265 250.929 146.882Z" fill="white"/>
</g>
<path d="M281.717 332.478C281.677 332.482 281.637 332.482 281.598 332.478C281.437 332.433 281.289 332.347 281.171 332.228C281.052 332.11 280.966 331.962 280.921 331.801C280.881 331.705 280.867 331.601 280.88 331.499C280.894 331.396 280.934 331.299 280.997 331.217C281.573 330.481 284.195 330.726 284.491 330.752C284.525 330.756 284.557 330.77 284.583 330.793C284.609 330.816 284.627 330.845 284.635 330.879C284.644 330.91 284.644 330.943 284.635 330.975C284.626 331.006 284.608 331.034 284.585 331.056C283.857 331.632 282.563 332.562 281.717 332.478ZM284.035 331.039C282.986 330.972 281.573 331.039 281.268 331.403C281.246 331.442 281.234 331.486 281.234 331.53C281.234 331.575 281.246 331.618 281.268 331.657C281.294 331.766 281.349 331.867 281.426 331.948C281.503 332.03 281.6 332.09 281.708 332.122C282.14 332.207 283.011 331.809 284.009 330.997L284.035 331.039Z" fill="#407BFF"/>
<path d="M284.256 331.014C283.41 330.887 281.718 330.168 281.523 329.424C281.483 329.293 281.49 329.152 281.543 329.026C281.595 328.899 281.69 328.795 281.811 328.73C281.917 328.65 282.04 328.596 282.171 328.572C282.302 328.549 282.436 328.557 282.564 328.595C283.587 328.849 284.569 330.701 284.611 330.777C284.626 330.805 284.633 330.835 284.633 330.866C284.633 330.897 284.626 330.928 284.611 330.955C284.594 330.979 284.571 330.999 284.544 331.013C284.518 331.026 284.488 331.032 284.459 331.031L284.256 331.014ZM282.411 328.916C282.341 328.904 282.269 328.906 282.199 328.922C282.129 328.938 282.063 328.968 282.005 329.009C281.827 329.136 281.827 329.246 281.853 329.322C281.997 329.813 283.266 330.473 284.137 330.65C283.782 330.05 283.096 329.077 282.445 328.958L282.411 328.916Z" fill="#407BFF"/>
<path d="M229.46 345.041C228.868 345.084 228.278 344.945 227.768 344.644C227.636 344.545 227.529 344.417 227.454 344.27C227.379 344.124 227.339 343.962 227.336 343.798C227.324 343.707 227.337 343.614 227.374 343.53C227.412 343.447 227.472 343.375 227.548 343.324C228.334 342.799 231.27 344.17 231.854 344.407C231.885 344.421 231.912 344.445 231.929 344.476C231.945 344.506 231.952 344.541 231.947 344.576C231.944 344.612 231.929 344.647 231.905 344.675C231.88 344.702 231.847 344.721 231.811 344.728C231.04 344.912 230.252 345.017 229.46 345.041V345.041ZM228.089 343.552C227.971 343.544 227.854 343.571 227.751 343.628C227.726 343.646 227.706 343.671 227.695 343.699C227.683 343.728 227.679 343.759 227.683 343.789C227.686 343.902 227.714 344.013 227.767 344.113C227.82 344.213 227.896 344.299 227.988 344.364C228.495 344.745 229.68 344.796 231.228 344.517C230.238 344.034 229.179 343.708 228.089 343.552V343.552Z" fill="#407BFF"/>
<path d="M231.801 344.745H231.733C230.76 344.347 228.797 342.774 228.907 341.953C228.907 341.775 229.051 341.555 229.499 341.505C231.192 341.302 231.936 344.415 231.97 344.542C231.977 344.574 231.976 344.608 231.966 344.639C231.955 344.67 231.936 344.698 231.911 344.719C231.878 344.74 231.839 344.749 231.801 344.745V344.745ZM229.652 341.826H229.542C229.356 341.826 229.263 341.902 229.246 341.987C229.186 342.461 230.54 343.679 231.538 344.246C231.293 343.476 230.667 341.826 229.635 341.826H229.652Z" fill="#407BFF"/>
<path d="M228.368 125.208L227.065 124.548C227.065 124.548 227.573 125.775 228.368 125.208Z" fill="#263238"/>
<path d="M98.8481 345.176L105.642 345.075L107.198 329.322L100.413 329.424L98.8481 345.176Z" fill="#B55B52"/>
<path d="M65.2231 345.202H72.0165L74.6814 329.475H67.8965L65.2231 345.202Z" fill="#B55B52"/>
<path d="M72.9566 344.415H64.6742C64.5398 344.416 64.4095 344.462 64.305 344.547C64.2004 344.631 64.1278 344.749 64.099 344.88L62.7538 350.921C62.7233 351.068 62.7262 351.22 62.7625 351.365C62.7988 351.511 62.8675 351.647 62.9634 351.762C63.0593 351.878 63.1801 351.97 63.3166 352.032C63.4532 352.095 63.602 352.125 63.7521 352.122C66.417 352.08 68.3543 351.919 71.713 351.919C73.7772 351.919 80.0038 352.139 82.8548 352.139C85.7058 352.139 86.078 349.322 84.9106 349.06C79.6738 347.917 75.7315 346.344 74.0564 344.83C73.7511 344.564 73.3609 344.417 72.9566 344.415Z" fill="#263238"/>
<path d="M105.579 344.322L98.16 344.44C98.0262 344.44 97.8963 344.486 97.7929 344.571C97.6894 344.656 97.6188 344.774 97.5932 344.906L96.3411 350.963C96.3086 351.11 96.3102 351.262 96.3459 351.408C96.3815 351.554 96.4502 351.69 96.5466 351.805C96.6431 351.92 96.7647 352.012 96.9022 352.073C97.0396 352.133 97.1892 352.162 97.3394 352.156C100.013 352.071 103.879 351.851 107.238 351.8C111.171 351.741 114.572 351.902 119.175 351.8C121.966 351.758 122.694 348.932 121.527 348.696C116.197 347.613 111.857 347.554 107.221 344.796C106.727 344.49 106.16 344.326 105.579 344.322Z" fill="#263238"/>
<path d="M110.681 138.372C112.864 142.458 115.173 146.662 117.5 150.732C119.826 154.801 122.255 158.845 124.843 162.576C125.156 163.058 125.495 163.498 125.825 163.946L126.315 164.615L126.535 164.919L126.62 165.038C126.831 165.344 127.124 165.584 127.466 165.731C128.38 166.129 130.308 166.078 132.254 165.613C134.358 165.079 136.411 164.36 138.388 163.464C139.42 162.999 140.469 162.533 141.493 162.009C142.516 161.484 143.565 160.926 144.513 160.418L147.668 164.428C146.704 165.384 145.782 166.188 144.783 166.966C143.785 167.745 142.795 168.565 141.729 169.293C139.546 170.841 137.193 172.135 134.716 173.151C133.35 173.696 131.933 174.104 130.486 174.369C128.771 174.668 127.014 174.642 125.309 174.293C123.3 173.872 121.453 172.886 119.987 171.45C119.801 171.273 119.632 171.086 119.463 170.9L119.116 170.503L118.481 169.758C118.058 169.268 117.635 168.768 117.238 168.269C114.132 164.341 111.273 160.224 108.676 155.943C106.138 151.713 103.719 147.483 101.494 142.991L110.681 138.372Z" fill="#B65B52"/>
<path d="M98.5857 138.575C96.7499 144.801 109.643 161.78 109.643 161.78L122.671 153.422C120.226 148.038 117.208 142.932 113.67 138.194C108.289 131.367 100.591 131.739 98.5857 138.575Z" fill="#407BFF"/>
<path opacity="0.2" d="M98.5857 138.575C96.7499 144.801 109.643 161.78 109.643 161.78L122.671 153.422C120.226 148.038 117.208 142.932 113.67 138.194C108.289 131.367 100.591 131.739 98.5857 138.575Z" fill="white"/>
<path opacity="0.2" d="M106.503 145.884C109.177 147.026 113.11 153.498 115.158 158.236L109.642 161.78C106.56 157.66 103.789 153.317 101.351 148.786C103.094 146.874 105.09 145.284 106.503 145.884Z" fill="black"/>
<path d="M143.956 160.74L148.693 157.923L152.754 164.978C152.754 164.978 147.483 168.066 144.074 164.479L143.956 160.74Z" fill="#B55B52"/>
<path d="M155.319 157.991L157.442 163.43L152.755 164.978L148.694 157.923L155.319 157.991Z" fill="#B55B52"/>
<path opacity="0.2" d="M107.196 329.322L106.393 337.444L99.5991 337.554L100.403 329.432L107.196 329.322Z" fill="black"/>
<path opacity="0.2" d="M67.8897 329.483H74.6831L73.3041 337.588H66.5107L67.8897 329.483Z" fill="black"/>
<path d="M68.3159 135.817C75.6254 161.586 74.4494 188.979 74.8893 194.58L111.183 193.218C117.35 154.767 106.276 133.363 106.276 133.363C106.276 133.363 103.949 132.915 100.785 132.585C99.7871 132.483 98.7211 132.399 97.6044 132.34C96.9868 132.34 96.3608 132.28 95.7263 132.272C90.5911 132.35 85.4646 132.72 80.3714 133.38C79.3985 133.499 78.4172 133.651 77.4696 133.803C76.5221 133.956 75.7184 134.116 74.9316 134.277C71.1669 135.013 68.3159 135.817 68.3159 135.817Z" fill="#407BFF"/>
<path opacity="0.2" d="M68.3159 135.817C75.6254 161.586 74.4494 188.979 74.8893 194.58L111.183 193.218C117.35 154.767 106.276 133.363 106.276 133.363C106.276 133.363 103.949 132.915 100.785 132.585C99.7871 132.483 98.7211 132.399 97.6044 132.34C96.9868 132.34 96.3608 132.28 95.7263 132.272C90.5911 132.35 85.4646 132.72 80.3714 133.38C79.3985 133.499 78.4172 133.651 77.4696 133.803C76.5221 133.956 75.7184 134.116 74.9316 134.277C71.1669 135.013 68.3159 135.817 68.3159 135.817Z" fill="white"/>
<path opacity="0.2" d="M76.0386 146.882C76.69 149.378 75.9456 160.765 73.3399 163.574C72.9846 159.928 72.4939 156.121 71.8848 152.229L76.0386 146.882Z" fill="black"/>
<path d="M97.8563 132.323H97.5941C96.9765 132.323 96.3504 132.263 95.7159 132.255C90.566 132.343 85.4253 132.724 80.3187 133.397C79.5743 133.49 78.8298 133.6 78.0938 133.718L79.2189 134.683C82.5522 137.534 86.4353 140.173 92.1881 140.173H92.9241C95.8598 140.055 97.7379 139.099 98.5247 137.314C98.8196 136.489 98.9128 135.605 98.7965 134.737C98.6802 133.869 98.3579 133.041 97.8563 132.323V132.323Z" fill="white"/>
<path d="M80.5626 115.902C81.8992 120.783 83.5405 129.793 80.3257 133.355C83.219 135.834 86.9668 138.659 92.8634 138.431C98.76 138.202 97.4318 134.201 95.7229 132.213C90.097 131.299 89.9363 127.188 90.6469 123.271L80.5626 115.902Z" fill="#B55B52"/>
<path opacity="0.2" d="M84.6608 118.939L90.5828 123.296C90.414 124.209 90.3234 125.134 90.3121 126.062C88.1802 125.91 85.1092 123.812 84.72 121.621C84.5362 120.738 84.5161 119.829 84.6608 118.939V118.939Z" fill="black"/>
<path d="M94.9049 111.189C96.8337 113.152 100.378 102.45 96.5969 99.853C92.8152 97.2558 85.4466 101.52 94.9049 111.189Z" fill="#263238"/>
<path d="M79.4116 108.516C80.3252 115.191 80.5198 119.151 84.1661 122.34C89.6482 127.137 97.7021 123.448 98.8019 116.638C99.7917 110.504 98.1335 100.615 91.374 98.432C89.8844 97.9435 88.2947 97.8439 86.7558 98.1427C85.2169 98.4415 83.7799 99.1287 82.5814 100.139C81.3828 101.149 80.4624 102.45 79.9076 103.916C79.3528 105.382 79.1821 106.966 79.4116 108.516V108.516Z" fill="#B55B52"/>
<path d="M80.2865 114.565C82.4776 116.257 84.398 105.115 80.2865 103.11C76.1749 101.105 69.4577 106.418 80.2865 114.565Z" fill="#263238"/>
<path d="M77.7131 104.625C84.1511 106.833 102.247 104.777 99.0492 91.6047C97.6871 85.9196 91.5282 90.7587 91.1052 93.9058C87.9581 91.317 82.1123 91.8839 82.7975 96.0208C79.4051 95.031 66.5797 98.1358 77.7131 104.625Z" fill="#263238"/>
<path d="M76.9373 116.138C77.4396 116.82 78.0721 117.395 78.7982 117.831C79.5242 118.267 80.3295 118.554 81.1673 118.676C83.3923 118.998 84.2129 116.934 83.35 114.988C82.5717 113.237 80.4821 110.961 78.3671 111.536C76.2521 112.111 75.7191 114.455 76.9373 116.138Z" fill="#B55B52"/>
<path d="M108.915 335.862L97.418 336.039C97.418 336.039 101.25 290.617 100.218 269.484C99.9052 263.055 98.6108 254.062 96.9104 244.426C94.77 232.277 93.7379 227.438 90.9884 212.092C89.0087 201.144 87.3506 194.106 87.3506 194.106L111.208 193.209C111.208 193.209 118.56 246.609 118.331 267.327C118.069 288.849 108.915 335.862 108.915 335.862Z" fill="#263238"/>
<path opacity="0.2" d="M95.5966 208.116C99.8774 218.775 99.962 243.749 97.9908 250.779C97.6524 248.698 97.2886 246.549 96.9079 244.401C94.7591 232.252 93.727 227.413 90.9859 212.067C90.9352 211.762 90.876 211.466 90.8252 211.17C92.2277 209.884 93.8419 208.851 95.5966 208.116V208.116Z" fill="black"/>
<path d="M98.3157 193.666C98.3157 193.666 93.9842 249.95 90.7948 269.595C87.3093 291.1 76.4635 336.014 76.4635 336.014H64.0273C64.0273 336.014 68.1304 295.406 70.6769 274.256C73.5702 250.23 74.9069 194.52 74.9069 194.52L98.3157 193.666Z" fill="#263238"/>
<path d="M77.9514 336.285H63.3071V331.911L79.6772 331.624L77.9514 336.285Z" fill="#407BFF"/>
<path opacity="0.5" d="M77.9514 336.285H63.3071V331.911L79.6772 331.624L77.9514 336.285Z" fill="white"/>
<path d="M110.362 336.082L96.665 336.293L96.5889 331.869L111.901 331.395L110.362 336.082Z" fill="#407BFF"/>
<path opacity="0.5" d="M110.362 336.082L96.665 336.293L96.5889 331.869L111.901 331.395L110.362 336.082Z" fill="white"/>
<path d="M89.7339 109.633C89.7339 110.183 90.0977 110.606 90.453 110.572C90.8083 110.538 91.0621 110.081 91.0198 109.54C90.9775 108.998 90.6645 108.575 90.3007 108.601C89.937 108.626 89.6747 109.134 89.7339 109.633Z" fill="#263238"/>
<path d="M95.9005 109.176C95.9005 109.726 96.2643 110.14 96.628 110.115C96.9918 110.09 97.2371 109.624 97.1948 109.083C97.1525 108.541 96.8311 108.11 96.4758 108.135C96.1204 108.161 95.8666 108.626 95.9005 109.176Z" fill="#263238"/>
<path d="M93.9648 109.591C94.7383 111.214 95.7319 112.723 96.9174 114.075C96.5683 114.364 96.1607 114.574 95.7226 114.691C95.2845 114.808 94.8262 114.829 94.3794 114.751L93.9648 109.591Z" fill="#A02724"/>
<path d="M92.1543 116.384C91.5392 116.359 90.9357 116.208 90.3813 115.94C89.8269 115.672 89.3333 115.294 88.9311 114.827C88.9053 114.793 88.8943 114.749 88.9007 114.706C88.907 114.663 88.9301 114.625 88.9649 114.599C88.9997 114.573 89.0433 114.562 89.0861 114.569C89.129 114.575 89.1675 114.598 89.1933 114.633C89.647 115.142 90.2144 115.537 90.8495 115.785C91.4846 116.034 92.1693 116.129 92.848 116.063C92.8893 116.06 92.93 116.074 92.9615 116.101C92.993 116.127 93.013 116.165 93.0172 116.206C93.0196 116.228 93.0174 116.25 93.0109 116.271C93.0044 116.292 92.9937 116.311 92.9795 116.328C92.9652 116.345 92.9477 116.358 92.928 116.368C92.9083 116.378 92.8868 116.383 92.865 116.384C92.6284 116.401 92.3909 116.401 92.1543 116.384V116.384Z" fill="#263238"/>
<path d="M87.6775 107.78C87.6226 107.78 87.5691 107.762 87.5252 107.729C87.4539 107.684 87.4032 107.613 87.3842 107.53C87.3652 107.448 87.3794 107.361 87.4237 107.289C87.6932 106.85 88.0647 106.483 88.5064 106.218C88.9482 105.953 89.4474 105.798 89.9617 105.767C90.0469 105.767 90.1287 105.8 90.189 105.861C90.2493 105.921 90.2832 106.003 90.2832 106.088C90.2832 106.173 90.2493 106.255 90.189 106.315C90.1287 106.376 90.0469 106.41 89.9617 106.41V106.41C89.5577 106.441 89.1673 106.569 88.8228 106.782C88.4784 106.996 88.1901 107.289 87.982 107.636C87.951 107.688 87.9056 107.729 87.8514 107.754C87.7973 107.78 87.7368 107.789 87.6775 107.78V107.78Z" fill="#263238"/>
<path d="M98.4049 106.858C98.3527 106.854 98.3023 106.837 98.2581 106.809C98.2138 106.781 98.1771 106.743 98.1511 106.697C97.9564 106.342 97.6813 106.038 97.3478 105.809C97.0142 105.58 96.6316 105.432 96.2307 105.377C96.1454 105.377 96.0636 105.343 96.0033 105.283C95.943 105.223 95.9092 105.141 95.9092 105.056C95.9092 104.971 95.943 104.889 96.0033 104.829C96.0636 104.768 96.1454 104.734 96.2307 104.734C96.7374 104.793 97.2228 104.972 97.6465 105.256C98.0703 105.54 98.4202 105.921 98.6672 106.367C98.6895 106.403 98.7042 106.444 98.7104 106.486C98.7165 106.528 98.714 106.571 98.7029 106.613C98.6918 106.654 98.6724 106.692 98.6459 106.726C98.6194 106.759 98.5863 106.787 98.5487 106.807C98.5054 106.835 98.4561 106.852 98.4049 106.858V106.858Z" fill="#263238"/>
<path d="M75.2004 345.608C74.6011 345.591 74.0053 345.508 73.4238 345.362C73.3928 345.354 73.365 345.337 73.3439 345.313C73.3228 345.289 73.3094 345.259 73.3054 345.227C73.3008 345.196 73.3056 345.164 73.3192 345.135C73.3327 345.106 73.3544 345.082 73.3815 345.066C73.6268 344.914 75.818 343.569 76.5709 343.949C76.6521 343.995 76.7197 344.062 76.7672 344.142C76.8147 344.222 76.8404 344.313 76.8417 344.406C76.8603 344.564 76.84 344.723 76.7825 344.871C76.7249 345.018 76.6319 345.149 76.5117 345.252C76.1259 345.512 75.6648 345.637 75.2004 345.608V345.608ZM73.8891 345.168C75.0481 345.396 75.928 345.354 76.3002 345.041C76.3834 344.972 76.4473 344.883 76.4858 344.782C76.5244 344.681 76.5362 344.572 76.5202 344.465C76.5227 344.427 76.5145 344.388 76.4966 344.354C76.4787 344.32 76.4518 344.291 76.4187 344.271C76.0295 344.034 74.7859 344.618 73.8891 345.168Z" fill="#407BFF"/>
<path d="M73.4679 345.362C73.4375 345.371 73.4053 345.371 73.3749 345.362C73.3507 345.348 73.3314 345.326 73.3194 345.3C73.3073 345.275 73.3031 345.246 73.3072 345.218C73.3072 345.134 73.4764 343.171 74.2632 342.528C74.3556 342.446 74.4649 342.386 74.5833 342.351C74.7017 342.316 74.8263 342.307 74.9484 342.325C75.0679 342.325 75.1839 342.366 75.2765 342.442C75.369 342.517 75.4325 342.623 75.456 342.74C75.5998 343.501 74.2462 344.99 73.5441 345.371L73.4679 345.362ZM74.8384 342.63C74.7006 342.629 74.5674 342.68 74.4662 342.774C73.9762 343.38 73.6812 344.12 73.6202 344.897C74.3224 344.364 75.1853 343.205 75.1007 342.799C75.1007 342.757 75.1007 342.655 74.8638 342.63H74.7961H74.8384Z" fill="#407BFF"/>
<path d="M106.256 345.219C106.229 345.207 106.205 345.188 106.187 345.165C106.169 345.141 106.158 345.113 106.154 345.083C106.147 345.052 106.151 345.019 106.165 344.99C106.179 344.961 106.202 344.937 106.231 344.923C106.544 344.753 109.251 343.332 110.08 343.772C110.158 343.815 110.224 343.877 110.271 343.953C110.319 344.028 110.346 344.115 110.351 344.204V344.204C110.37 344.348 110.354 344.495 110.304 344.633C110.254 344.77 110.171 344.893 110.063 344.99C109.327 345.659 107.381 345.422 106.281 345.219H106.256ZM109.868 344.034C109.352 343.865 107.88 344.449 106.814 344.982C108.32 345.21 109.437 345.126 109.843 344.753C109.915 344.688 109.97 344.606 110.003 344.515C110.035 344.423 110.044 344.325 110.029 344.229C110.03 344.194 110.021 344.16 110.003 344.13C109.985 344.1 109.959 344.076 109.928 344.06L109.868 344.034Z" fill="#407BFF"/>
<path d="M106.259 345.218C106.235 345.203 106.216 345.181 106.202 345.156C106.189 345.131 106.182 345.103 106.183 345.075C106.183 344.999 106.343 343.163 107.198 342.444C107.313 342.342 107.447 342.264 107.592 342.215C107.737 342.166 107.891 342.146 108.044 342.156V342.156C108.484 342.156 108.619 342.41 108.653 342.596C108.788 343.357 107.189 344.855 106.369 345.235C106.331 345.241 106.293 345.235 106.259 345.218V345.218ZM108.188 342.477H108.027C107.909 342.466 107.79 342.48 107.678 342.518C107.566 342.556 107.463 342.617 107.376 342.697C106.883 343.296 106.588 344.031 106.529 344.804C107.376 344.288 108.441 343.112 108.357 342.655C108.34 342.63 108.289 342.52 108.188 342.477Z" fill="#407BFF"/>
<path d="M75.8264 144.539L69.4476 158.439C68.407 160.765 67.341 163.075 66.3512 165.41C65.8605 166.569 65.336 167.728 64.8707 168.887L64.5069 169.733C64.3885 170.029 64.3208 170.232 64.2278 170.477C64.0332 170.951 63.9063 171.476 63.7455 171.975C63.1729 174.138 62.8605 176.362 62.8149 178.599C62.7393 180.988 62.8354 183.38 63.1026 185.756C63.3648 188.176 63.7625 190.621 64.2701 193.057C64.7777 195.494 65.3868 197.981 66.0467 200.29L61.3683 202.321C60.683 201.052 60.1162 199.876 59.5663 198.624C59.0164 197.372 58.5088 196.145 58.0266 194.876C57.0639 192.324 56.267 189.713 55.6409 187.059C54.2015 181.469 53.9393 175.641 54.871 169.944C55.0402 169.2 55.184 168.447 55.4209 167.694L55.7424 166.594L56.0554 165.638C56.4615 164.361 56.9014 163.1 57.3244 161.848C58.2212 159.31 59.1348 156.874 60.1247 154.437C62.0789 149.53 64.2024 144.776 66.5712 140.055L75.8264 144.539Z" fill="#B65B52"/>
<path d="M68.3142 135.816C62.1215 137.762 56.0303 158.768 56.0303 158.768L70.3615 165.037C70.3615 165.037 74.9976 154.885 77.6625 146.933C80.5728 138.261 75.8182 133.465 68.3142 135.816Z" fill="#407BFF"/>
<path opacity="0.2" d="M68.3142 135.816C62.1215 137.762 56.0303 158.768 56.0303 158.768L70.3615 165.037C70.3615 165.037 74.9976 154.885 77.6625 146.933C80.5728 138.261 75.8182 133.465 68.3142 135.816Z" fill="white"/>
<path d="M65.6662 199.14L69.0079 205.172L61.1317 207.219C61.1317 207.219 58.7459 201.373 61.5631 199.512L65.6662 199.14Z" fill="#B55B52"/>
<path d="M69.5928 212.016L62.3595 212.617L61.1328 207.219L69.0091 205.172L69.5928 212.016Z" fill="#B55B52"/>
<path d="M211.499 238.869C211.437 240.963 210.563 242.951 209.062 244.411C207.56 245.872 205.549 246.691 203.454 246.694H182.168C183.925 249.129 184.976 252.001 185.205 254.994C185.433 257.988 184.831 260.986 183.463 263.659C182.096 266.332 180.018 268.576 177.457 270.142C174.896 271.709 171.952 272.538 168.949 272.538C165.947 272.538 163.003 271.709 160.442 270.142C157.881 268.576 155.803 266.332 154.435 263.659C153.068 260.986 152.466 257.988 152.694 254.994C152.923 252.001 153.974 249.129 155.731 246.694H134.437C132.307 246.69 130.265 245.842 128.759 244.335C127.253 242.829 126.404 240.788 126.4 238.657V169.641C126.404 167.51 127.252 165.467 128.758 163.96C130.264 162.452 132.306 161.602 134.437 161.595H203.454C205.548 161.601 207.559 162.422 209.059 163.884C210.559 165.346 211.431 167.335 211.491 169.429V190.926C209.057 189.174 206.187 188.127 203.196 187.901C200.205 187.676 197.211 188.28 194.541 189.647C191.872 191.014 189.632 193.092 188.068 195.65C186.504 198.209 185.676 201.15 185.676 204.149C185.676 207.148 186.504 210.089 188.068 212.648C189.632 215.207 191.872 217.284 194.541 218.651C197.211 220.018 200.205 220.622 203.196 220.397C206.187 220.171 209.057 219.124 211.491 217.372V238.657C211.489 238.728 211.492 238.799 211.499 238.869V238.869Z" fill="#407BFF"/>
<path opacity="0.3" d="M168.943 270.052C166.392 270.058 163.888 269.359 161.71 268.031C159.531 266.703 157.763 264.799 156.599 262.529C155.435 260.258 154.922 257.71 155.117 255.167C155.311 252.623 156.205 250.182 157.7 248.115L160.474 244.266H134.435C132.949 244.261 131.526 243.668 130.476 242.617C129.427 241.566 128.836 240.142 128.834 238.657V169.64C128.834 168.153 129.423 166.727 130.473 165.674C131.523 164.621 132.948 164.027 134.435 164.022H203.451C204.911 164.033 206.31 164.607 207.356 165.626C208.401 166.645 209.012 168.029 209.06 169.488V186.653C209.059 186.67 209.054 186.687 209.045 186.701C209.036 186.716 209.024 186.728 209.009 186.738C208.994 186.746 208.976 186.75 208.959 186.75C208.941 186.75 208.924 186.746 208.908 186.738C206.71 185.856 204.364 185.405 201.996 185.409C199.503 185.356 197.025 185.802 194.707 186.719C192.389 187.636 190.277 189.007 188.495 190.751C186.713 192.495 185.298 194.578 184.332 196.876C183.365 199.174 182.868 201.642 182.868 204.136C182.868 206.629 183.365 209.097 184.332 211.395C185.298 213.694 186.713 215.776 188.495 217.52C190.277 219.264 192.389 220.635 194.707 221.552C197.025 222.47 199.503 222.915 201.996 222.862C204.364 222.869 206.711 222.418 208.908 221.534C208.924 221.525 208.941 221.521 208.959 221.521C208.976 221.521 208.994 221.525 209.009 221.534C209.024 221.543 209.036 221.555 209.045 221.57C209.054 221.585 209.059 221.601 209.06 221.618V238.877C208.981 240.316 208.357 241.671 207.315 242.667C206.274 243.663 204.892 244.225 203.451 244.24H177.437L180.186 248.081C180.206 248.102 180.217 248.129 180.217 248.157C180.217 248.186 180.206 248.213 180.186 248.233C180.177 248.243 180.166 248.25 180.153 248.255C180.141 248.261 180.128 248.263 180.114 248.263C180.101 248.263 180.088 248.261 180.075 248.255C180.063 248.25 180.052 248.243 180.042 248.233L177.166 244.215C177.155 244.198 177.15 244.179 177.15 244.16C177.15 244.14 177.155 244.121 177.166 244.105C177.176 244.089 177.19 244.076 177.206 244.068C177.222 244.059 177.24 244.054 177.259 244.054H203.485C204.87 244.037 206.196 243.496 207.198 242.54C208.199 241.584 208.801 240.284 208.883 238.902V221.796C206.699 222.649 204.374 223.085 202.03 223.082C199.245 223.086 196.492 222.476 193.97 221.295C191.447 220.114 189.216 218.391 187.435 216.25C185.655 214.108 184.368 211.6 183.668 208.904C182.967 206.208 182.87 203.391 183.382 200.653C183.895 197.915 185.005 195.324 186.634 193.064C188.263 190.805 190.37 188.932 192.805 187.58C195.24 186.228 197.943 185.429 200.722 185.241C203.501 185.053 206.287 185.48 208.883 186.492V169.496C208.837 168.092 208.249 166.759 207.243 165.779C206.237 164.798 204.89 164.244 203.485 164.234H134.435C133.726 164.235 133.024 164.376 132.37 164.648C131.715 164.92 131.121 165.319 130.62 165.821C130.12 166.323 129.723 166.918 129.453 167.574C129.183 168.229 129.044 168.931 129.045 169.64V238.657C129.045 240.087 129.613 241.458 130.623 242.47C131.634 243.482 133.004 244.052 134.435 244.054H160.661C160.679 244.052 160.698 244.056 160.715 244.065C160.732 244.074 160.745 244.088 160.754 244.105C160.764 244.121 160.77 244.14 160.77 244.16C160.77 244.179 160.764 244.198 160.754 244.215L157.86 248.242C156.18 250.553 155.273 253.337 155.271 256.194C155.271 259.816 156.71 263.289 159.271 265.849C161.831 268.41 165.305 269.849 168.926 269.849C172.547 269.849 176.02 268.41 178.581 265.849C181.142 263.289 182.58 259.816 182.58 256.194C182.58 256.167 182.591 256.141 182.61 256.122C182.629 256.103 182.655 256.093 182.682 256.093C182.696 256.091 182.71 256.093 182.723 256.098C182.737 256.102 182.749 256.11 182.759 256.119C182.77 256.129 182.778 256.14 182.783 256.153C182.789 256.166 182.792 256.18 182.792 256.194C182.785 259.866 181.324 263.385 178.729 265.982C176.133 268.58 172.615 270.043 168.943 270.052V270.052Z" fill="white"/>
<path d="M288.562 161.586H267.285C269.037 164.021 270.082 166.893 270.306 169.884C270.531 172.876 269.925 175.871 268.557 178.54C267.189 181.21 265.11 183.45 262.551 185.014C259.991 186.578 257.049 187.406 254.05 187.406C251.05 187.406 248.108 186.578 245.549 185.014C242.989 183.45 240.911 181.21 239.542 178.54C238.174 175.871 237.568 172.876 237.793 169.884C238.017 166.893 239.063 164.021 240.814 161.586H219.537C217.407 161.593 215.365 162.441 213.858 163.947C212.351 165.452 211.5 167.493 211.492 169.623V190.917C209.058 189.164 206.187 188.118 203.197 187.892C200.206 187.666 197.212 188.27 194.542 189.638C191.873 191.005 189.633 193.082 188.069 195.641C186.504 198.2 185.677 201.141 185.677 204.14C185.677 207.139 186.504 210.08 188.069 212.638C189.633 215.197 191.873 217.275 194.542 218.642C197.212 220.009 200.206 220.613 203.197 220.387C206.187 220.162 209.058 219.115 211.492 217.363V238.657C211.498 240.788 212.348 242.831 213.855 244.338C215.363 245.846 217.405 246.695 219.537 246.702H288.562C290.693 246.695 292.735 245.845 294.241 244.338C295.747 242.83 296.595 240.787 296.599 238.657V169.631C296.595 167.5 295.747 165.458 294.241 163.95C292.735 162.443 290.693 161.593 288.562 161.586V161.586Z" fill="#263238"/>
<path opacity="0.3" d="M288.56 244.266H219.535C218.047 244.266 216.621 243.675 215.569 242.623C214.517 241.571 213.926 240.144 213.926 238.657V212.617L210.077 215.392C208.009 216.883 205.569 217.774 203.026 217.967C200.483 218.16 197.937 217.646 195.668 216.483C193.398 215.32 191.495 213.553 190.166 211.376C188.838 209.199 188.137 206.698 188.14 204.148C188.139 204.134 188.141 204.12 188.145 204.107C188.15 204.093 188.157 204.081 188.167 204.071C188.176 204.061 188.188 204.052 188.201 204.047C188.214 204.041 188.227 204.038 188.242 204.038C188.271 204.038 188.299 204.05 188.319 204.07C188.34 204.091 188.352 204.119 188.352 204.148C188.348 206.659 189.038 209.122 190.346 211.265C191.654 213.408 193.528 215.148 195.762 216.294C197.996 217.439 200.503 217.946 203.007 217.756C205.511 217.567 207.913 216.69 209.95 215.222L213.968 212.329C213.984 212.319 214.003 212.313 214.022 212.312C214.041 212.311 214.06 212.315 214.077 212.323C214.094 212.332 214.109 212.345 214.119 212.36C214.13 212.376 214.136 212.395 214.138 212.414V238.64C214.138 240.071 214.706 241.444 215.718 242.456C216.731 243.468 218.104 244.037 219.535 244.037H288.56C289.992 244.037 291.365 243.468 292.377 242.456C293.389 241.444 293.958 240.071 293.958 238.64V169.631C293.955 168.201 293.386 166.829 292.374 165.817C291.363 164.806 289.991 164.236 288.56 164.234H271.708C272.821 167.104 273.218 170.203 272.864 173.261C272.51 176.319 271.416 179.245 269.677 181.785C267.937 184.325 265.605 186.403 262.882 187.839C260.158 189.275 257.126 190.025 254.048 190.025C250.969 190.025 247.937 189.275 245.214 187.839C242.49 186.403 240.158 184.325 238.419 181.785C236.679 179.245 235.585 176.319 235.231 173.261C234.877 170.203 235.274 167.104 236.387 164.234H219.535C218.104 164.236 216.733 164.806 215.721 165.817C214.709 166.829 214.14 168.201 214.138 169.631V195.857C214.137 195.878 214.131 195.898 214.12 195.915C214.11 195.933 214.096 195.948 214.078 195.959C214.061 195.967 214.042 195.971 214.023 195.971C214.004 195.971 213.986 195.967 213.968 195.959L209.95 193.066C207.638 191.388 204.854 190.485 201.997 190.485C201.971 190.485 201.945 190.475 201.926 190.456C201.907 190.437 201.896 190.411 201.896 190.384C201.895 190.37 201.897 190.356 201.901 190.342C201.906 190.329 201.913 190.317 201.923 190.306C201.932 190.296 201.944 190.288 201.957 190.282C201.969 190.277 201.983 190.274 201.997 190.274C204.899 190.272 207.727 191.187 210.077 192.888L213.926 195.663V169.631C213.928 168.145 214.52 166.719 215.571 165.668C216.623 164.616 218.048 164.025 219.535 164.022H236.54C236.558 164.023 236.576 164.028 236.592 164.037C236.608 164.046 236.622 164.058 236.633 164.073C236.639 164.088 236.642 164.104 236.642 164.12C236.642 164.136 236.639 164.152 236.633 164.166C235.754 166.37 235.306 168.722 235.313 171.095C235.417 175.993 237.436 180.654 240.936 184.081C244.437 187.508 249.141 189.427 254.039 189.427C258.938 189.427 263.642 187.508 267.142 184.081C270.643 180.654 272.661 175.993 272.765 171.095C272.773 168.722 272.325 166.37 271.446 164.166C271.437 164.152 271.433 164.136 271.433 164.12C271.433 164.103 271.437 164.087 271.446 164.073C271.456 164.058 271.469 164.045 271.486 164.036C271.502 164.027 271.52 164.022 271.539 164.022H288.543C290.03 164.025 291.456 164.616 292.507 165.668C293.558 166.719 294.15 168.145 294.152 169.631V238.657C294.15 240.141 293.561 241.563 292.513 242.614C291.465 243.665 290.044 244.259 288.56 244.266V244.266Z" fill="white"/>
</svg>
