<svg width="500" height="340" viewBox="0 0 500 340" fill="none" xmlns="http://www.w3.org/2000/svg">
<path d="M100.689 302.34C182.929 345.34 316.269 345.34 398.509 302.34C480.749 259.34 480.749 189.72 398.509 146.76C316.269 103.8 182.929 103.76 100.689 146.76C18.4493 189.76 18.4493 259.37 100.689 302.34Z" fill="#F5F5F5"/>
<path d="M146.122 104.71L165.942 93.27L146.122 81.8301L126.122 93.27L146.122 104.71Z" stroke="#EBEBEB" stroke-width="1.08419" stroke-linecap="round" stroke-linejoin="round"/>
<path d="M130.73 93.28L146.13 48.77V102.17L130.73 93.28Z" fill="#E0E0E0"/>
<path d="M146.13 102.17L161.52 93.28L146.13 48.77V102.17Z" fill="#E6E6E6"/>
<path d="M121.901 118.67L141.721 107.23L121.901 95.79L101.901 107.23L121.901 118.67Z" stroke="#EBEBEB" stroke-width="1.08419" stroke-linecap="round" stroke-linejoin="round"/>
<path d="M106.509 107.24L121.899 41.1396V116.13L106.509 107.24Z" fill="#E0E0E0"/>
<path d="M121.903 116.13L137.293 107.24L121.903 41.1396V116.13Z" fill="#E6E6E6"/>
<path d="M97.6809 132.63L117.501 121.19L97.6809 109.75L77.6709 121.19L97.6809 132.63Z" stroke="#EBEBEB" stroke-width="1.08419" stroke-linecap="round" stroke-linejoin="round"/>
<path d="M82.292 121.2L97.682 81.8301V130.09L82.292 121.2Z" fill="#E0E0E0"/>
<path d="M97.6797 130.09L113.07 121.2L97.6797 81.8301V130.09Z" fill="#E6E6E6"/>
<path d="M73.4607 146.59L93.2807 135.15L73.4607 123.71L53.4507 135.15L73.4607 146.59Z" stroke="#EBEBEB" stroke-width="1.08419" stroke-linecap="round" stroke-linejoin="round"/>
<path d="M58.063 135.16L73.463 68.3198V144.05L58.063 135.16Z" fill="#E0E0E0"/>
<path d="M73.4595 144.05L88.8495 135.16L73.4595 68.3198V144.05Z" fill="#E6E6E6"/>
<path d="M337.612 89.5L443.312 150.52" stroke="#EBEBEB" stroke-width="1.08419" stroke-miterlimit="10" stroke-linecap="round"/>
<path d="M443.31 144.05C443.182 136.39 442.644 128.742 441.7 121.14C440.7 112.88 438.7 98.9399 430.75 94.3399C422.8 89.7399 419.8 98.0599 418.65 102.15C417.15 107.46 409.36 104.1 408.28 95.3499C407.2 86.5999 406.49 58.7199 397.15 53.3499C387.81 47.9799 384.8 60.9299 383.74 64.5499C381.65 71.6599 375.52 69.6999 373.52 64.9899C371.52 60.2799 366.06 59.1299 364 65.7599C361.94 72.3899 360.67 79.9999 354 76.0899C348.14 72.6599 350.83 66.4099 345.12 63.4399C340.6 61.0999 338.5 72.2599 338.5 83.5499L443.31 144.05Z" fill="#E0E0E0"/>
<path d="M435.629 85.8597C435.629 87.0797 434.529 87.4297 433.189 86.6597L425.19 82.0197C424.532 81.647 423.969 81.1271 423.546 80.5009C423.123 79.8746 422.85 79.1589 422.75 78.4097C422.75 77.1997 423.85 76.8397 425.19 77.6197L433.189 82.2597C433.847 82.6303 434.409 83.1483 434.833 83.7729C435.256 84.3976 435.529 85.1119 435.629 85.8597V85.8597Z" fill="#E6E6E6"/>
<path d="M402.79 46.6298C402.79 47.8498 401.7 48.1998 400.35 47.4298L392.35 42.7898C391.691 42.4188 391.127 41.8995 390.704 41.2729C390.28 40.6463 390.009 39.9296 389.91 39.1798C389.91 37.9698 391 37.6098 392.35 38.3898L400.35 43.0298C401.009 43.3991 401.572 43.9167 401.995 44.5416C402.419 45.1665 402.691 45.8814 402.79 46.6298V46.6298Z" fill="#E6E6E6"/>
<path d="M376.781 53.85C376.781 55.07 375.691 55.42 374.351 54.65L366.351 50.01C365.692 49.639 365.128 49.1197 364.705 48.4931C364.281 47.8665 364.01 47.1498 363.911 46.4C363.911 45.19 365.001 44.83 366.351 45.61L374.351 50.25C375.007 50.6211 375.568 51.1394 375.99 51.7641C376.411 52.3888 376.682 53.1028 376.781 53.85V53.85Z" fill="#E6E6E6"/>
<path d="M352.12 56.2401C352.12 57.4601 351.03 57.8101 349.68 57.0301L341.68 52.4001C341.024 52.0268 340.463 51.5066 340.041 50.8803C339.62 50.254 339.349 49.5386 339.25 48.7901C339.25 47.5801 340.34 47.2201 341.68 48.0001L349.68 52.6301C350.338 53.0023 350.901 53.5219 351.324 54.1483C351.748 54.7747 352.02 55.4907 352.12 56.2401V56.2401Z" fill="#E6E6E6"/>
<path d="M333.211 80.4899V14.3799" stroke="#EBEBEB" stroke-width="1.08419" stroke-miterlimit="10" stroke-linecap="round"/>
<path d="M77.0009 226.72C77.0009 226.72 78.6409 212.04 74.0909 198.06C69.8109 184.84 61.2109 177.83 56.0009 175.73C46.1509 171.8 45.2709 182.65 52.6509 190.16C58.0609 195.68 71.0809 207.06 73.3209 226.36L77.0009 226.72Z" fill="#0057FF"/>
<path opacity="0.7" d="M77.0009 226.72C77.0009 226.72 78.6409 212.04 74.0909 198.06C69.8109 184.84 61.2109 177.83 56.0009 175.73C46.1509 171.8 45.2709 182.65 52.6509 190.16C58.0609 195.68 71.0809 207.06 73.3209 226.36L77.0009 226.72Z" fill="white"/>
<path d="M53.3394 178.76C59.2894 182.76 75.2794 194.31 75.8594 226.61" stroke="#FAFAFA" stroke-width="1.08419" stroke-miterlimit="10" stroke-linecap="round"/>
<path d="M72.811 236.75C69.751 221.95 63.501 216.58 52.331 210.86C47.551 208.42 41.951 205.7 39.931 202.59C37.911 199.48 38.931 195.3 45.811 195.39C58.381 195.56 72.701 210.71 74.611 227.31L72.811 236.75Z" fill="#0057FF"/>
<path opacity="0.8" d="M72.811 236.75C69.751 221.95 63.501 216.58 52.331 210.86C47.551 208.42 41.951 205.7 39.931 202.59C37.911 199.48 38.931 195.3 45.811 195.39C58.381 195.56 72.701 210.71 74.611 227.31L72.811 236.75Z" fill="white"/>
<path d="M44.7515 198.61C54.2415 199.9 69.2315 210.96 73.9915 230.61" stroke="#FAFAFA" stroke-width="1.08419" stroke-miterlimit="10" stroke-linecap="round"/>
<path d="M423.4 219.79C427.25 212.39 430.24 191.63 425.29 182.03C420.34 172.43 412.98 173.2 411.84 176.31C410.84 179.18 413.31 184.31 416.51 190.42C419.71 196.53 422.41 209.62 419.38 215.72L423.4 219.79Z" fill="#0057FF"/>
<path opacity="0.7" d="M423.4 219.79C427.25 212.39 430.24 191.63 425.29 182.03C420.34 172.43 412.98 173.2 411.84 176.31C410.84 179.18 413.31 184.31 416.51 190.42C419.71 196.53 422.41 209.62 419.38 215.72L423.4 219.79Z" fill="white"/>
<path d="M416.7 176.81C419.85 179.34 428.87 194.81 422.56 216.04" stroke="#FAFAFA" stroke-width="1.08419" stroke-miterlimit="10" stroke-linecap="round"/>
<path d="M422.181 227.63C419.861 222.99 414.781 215.31 418.241 210.04C421.701 204.77 425.321 209.43 428.101 205.99C430.881 202.55 427.701 196.99 430.101 193.99C434.741 188.09 438.101 194.94 441.741 194.04C444.371 193.39 447.301 187.56 454.871 188.27C462.441 188.98 462.061 194.98 458.691 197.8C455.321 200.62 451.321 203.43 453.921 207.66C456.221 211.41 457.411 218.34 449.541 221.03C442.021 223.6 445.741 226.86 444.541 230.54C443.341 234.22 436.241 237.71 428.691 234.87L422.181 227.63Z" fill="#0057FF"/>
<path opacity="0.8" d="M422.181 227.63C419.861 222.99 414.781 215.31 418.241 210.04C421.701 204.77 425.321 209.43 428.101 205.99C430.881 202.55 427.701 196.99 430.101 193.99C434.741 188.09 438.101 194.94 441.741 194.04C444.371 193.39 447.301 187.56 454.871 188.27C462.441 188.98 462.061 194.98 458.691 197.8C455.321 200.62 451.321 203.43 453.921 207.66C456.221 211.41 457.411 218.34 449.541 221.03C442.021 223.6 445.741 226.86 444.541 230.54C443.341 234.22 436.241 237.71 428.691 234.87L422.181 227.63Z" fill="white"/>
<path d="M455.912 191.67C447.712 193.87 428.072 209.83 426.412 229.86" stroke="#FAFAFA" stroke-width="1.08419" stroke-miterlimit="10" stroke-linecap="round"/>
<path d="M450.002 212.7C445.952 211.78 435.662 211.65 431.812 213.52" stroke="#FAFAFA" stroke-width="1.08419" stroke-miterlimit="10" stroke-linecap="round"/>
<path d="M434.1 195.75C434.1 195.75 437.1 201.56 436.67 206.45" stroke="#FAFAFA" stroke-width="1.08419" stroke-miterlimit="10" stroke-linecap="round"/>
<path d="M322.239 139C320.898 134.359 318.503 130.091 315.239 126.53C311.382 122.324 306.87 118.768 301.879 116C296.083 112.717 289.921 110.129 283.519 108.29C276.467 106.255 269.232 104.915 261.919 104.29C254.365 103.6 246.763 103.6 239.209 104.29C231.899 104.915 224.668 106.254 217.619 108.29C211.213 110.127 205.047 112.715 199.249 116C194.258 118.792 189.75 122.371 185.899 126.6C182.638 130.163 180.243 134.431 178.899 139.07C177.704 143.362 177.704 147.898 178.899 152.19C180.232 156.831 182.629 161.097 185.899 164.65C189.752 168.883 194.264 172.465 199.259 175.26C205.05 178.542 211.21 181.127 217.609 182.96C224.661 185.004 231.895 186.357 239.209 187C246.764 187.68 254.364 187.68 261.919 187C269.237 186.355 276.474 184.998 283.529 182.95C289.928 181.117 296.088 178.532 301.879 175.25V175.25C306.876 172.458 311.388 168.875 315.239 164.64C318.505 161.084 320.901 156.819 322.239 152.18C323.435 147.868 323.435 143.312 322.239 139Z" fill="#005986"/>
<path d="M178 139.02H323.13V146.42L178 146.01V139.02Z" fill="#005986"/>
<path d="M239.211 97.6602L250.551 139L217.621 101.7C224.668 99.6511 231.899 98.298 239.211 97.6602V97.6602Z" fill="#E3F6FF"/>
<path d="M261.919 97.66L250.579 139L239.239 97.64C246.784 96.9584 254.375 96.9651 261.919 97.66V97.66Z" fill="#E3F6FF"/>
<path d="M283.52 101.7L250.58 139L261.92 97.6401C269.235 98.2845 276.469 99.6444 283.52 101.7Z" fill="#E3F6FF"/>
<path d="M315.229 120C318.491 123.566 320.886 127.837 322.229 132.48L250.589 139L315.229 120Z" fill="#E3F6FF"/>
<path d="M322.239 132.49C323.424 136.78 323.424 141.311 322.239 145.6L250.589 139L322.239 132.49Z" fill="#E3F6FF"/>
<path d="M322.239 145.6C320.899 150.241 318.503 154.509 315.239 158.07L250.589 139.07L322.239 145.6Z" fill="#E3F6FF"/>
<path d="M315.239 158.07C311.387 162.301 306.876 165.881 301.879 168.67L250.569 139L315.239 158.07Z" fill="#E3F6FF"/>
<path d="M250.579 139.05L283.529 176.38C276.474 178.416 269.236 179.756 261.919 180.38L250.569 139.02L250.579 139.05Z" fill="#E3F6FF"/>
<path d="M250.568 139.06L261.918 180.42C254.364 181.11 246.762 181.11 239.208 180.42L250.568 139.06Z" fill="#E3F6FF"/>
<path d="M250.549 139.05L239.19 180.41C231.873 179.786 224.635 178.447 217.58 176.41L250.549 139.05Z" fill="#E3F6FF"/>
<path d="M250.55 139.05L217.55 176.38C211.152 174.539 204.993 171.951 199.2 168.67L250.55 139.05Z" fill="#E3F6FF"/>
<path d="M250.54 139L185.89 158C182.622 154.442 180.225 150.173 178.89 145.53L250.54 139Z" fill="#E3F6FF"/>
<path d="M250.54 139L178.9 145.6C177.705 141.312 177.705 136.779 178.9 132.49L250.54 139Z" fill="#E3F6FF"/>
<path d="M250.539 139L178.899 132.45C180.245 127.809 182.64 123.539 185.899 119.97L250.539 139Z" fill="#E3F6FF"/>
<path d="M199.251 109.42L250.541 139L185.901 120C189.753 115.779 194.261 112.206 199.251 109.42V109.42Z" fill="#E3F6FF"/>
<path d="M301.88 109.42L250.58 139L283.52 101.68C289.924 103.525 296.087 106.123 301.88 109.42V109.42Z" fill="#E3F6FF"/>
<path d="M301.879 109.42C306.871 112.203 311.379 115.776 315.229 120L250.589 139L301.879 109.42Z" fill="#E3F6FF"/>
<path d="M250.551 139L199.231 168.63C194.236 165.839 189.725 162.259 185.871 158.03L250.521 139.03L250.551 139Z" fill="#E3F6FF"/>
<path d="M217.62 101.7L250.55 139L199.25 109.38C205.048 106.102 211.214 103.524 217.62 101.7V101.7Z" fill="#E3F6FF"/>
<path d="M250.58 139.05L301.88 168.67C296.087 171.951 289.928 174.539 283.53 176.38L250.58 139.05Z" fill="#E3F6FF"/>
<path d="M206.68 97.2803L247.43 120.8L245.43 87.5503C230.44 88.1903 217.71 91.3903 206.68 97.2803Z" fill="#0057FF"/>
<path opacity="0.2" d="M206.68 97.2803L247.43 120.8L245.43 87.5503C230.44 88.1903 217.71 91.3903 206.68 97.2803Z" fill="white"/>
<path d="M247.43 120.8V133.64L206.68 110.11V97.2803L247.43 120.8Z" fill="#0057FF"/>
<path opacity="0.1" d="M247.43 120.8V133.64L206.68 110.11V97.2803L247.43 120.8Z" fill="#0042C2"/>
<path d="M300.26 100.58L253.49 121.68V134.51L300.26 113.41V100.58Z" fill="#0057FF"/>
<path opacity="0.3" d="M300.26 100.58L253.49 121.68V134.51L300.26 113.41V100.58Z" fill="#0042C2"/>
<path d="M300.26 100.58C287.67 92.0102 270.88 87.4902 251.42 87.4302L252.67 108.22L253.49 121.68L300.26 100.58Z" fill="#0057FF"/>
<path opacity="0.1" d="M300.26 100.58C287.67 92.0102 270.88 87.4902 251.42 87.4302L252.67 108.22L253.49 121.68L300.26 100.58Z" fill="#0042C2"/>
<path d="M251.408 87.4302V100.26L253.488 134.51V121.68L251.408 87.4302Z" fill="#263238"/>
<path d="M263.001 146.39L286.911 169.39C288.251 168.88 289.491 168.39 290.911 167.71C307.381 160.29 315.991 149.17 315.981 137.95V125.25C314.171 120.42 309.191 120.43 303.981 116.18L255.151 138.18L254.661 138.4L263.001 146.39Z" fill="#0057FF"/>
<path opacity="0.6" d="M263.001 146.39L286.911 169.39C288.251 168.88 289.491 168.39 290.911 167.71C307.381 160.29 315.991 149.17 315.981 137.95V125.25C314.171 120.42 309.191 120.43 303.981 116.18L255.151 138.18L254.661 138.4L263.001 146.39Z" fill="white"/>
<path d="M263 133.56L286.91 156.56C288.25 156.05 289.49 155.56 290.91 154.87C318.48 142.42 324 119.62 304 103.31L255.17 125.31L254.68 125.53L263 133.56Z" fill="#0057FF"/>
<path opacity="0.8" d="M263 133.56L286.91 156.56C288.25 156.05 289.49 155.56 290.91 154.87C318.48 142.42 324 119.62 304 103.31L255.17 125.31L254.68 125.53L263 133.56Z" fill="white"/>
<path d="M286.868 169.37V156.53L254.628 125.56V138.39L286.868 169.37Z" fill="#0057FF"/>
<path opacity="0.6" d="M286.868 169.37V156.53L254.628 125.56V138.39L286.868 169.37Z" fill="white"/>
<path d="M202.44 112.56C195.57 116.89 187.94 119.62 185.16 124.88V137.72C185.16 144.41 188.27 151.19 194.72 157.39C203.72 166.02 217.97 172.12 234.9 174.55C250.568 176.863 266.553 175.699 281.72 171.14V158.31L260.67 150.91L248.31 139L202.44 112.56Z" fill="#0057FF"/>
<path opacity="0.6" d="M202.44 112.56C195.57 116.89 187.94 119.62 185.16 124.88V137.72C185.16 144.41 188.27 151.19 194.72 157.39C203.72 166.02 217.97 172.12 234.9 174.55C250.568 176.863 266.553 175.699 281.72 171.14V158.31L260.67 150.91L248.31 139L202.44 112.56Z" fill="#0042C2"/>
<path d="M202.44 99.73C182.7 112.15 179.52 129.95 194.72 144.55C203.72 153.19 217.97 159.28 234.9 161.72C250.568 164.028 266.551 162.864 281.72 158.31L260.67 138.08L248.31 126.21L202.44 99.73Z" fill="#0057FF"/>
<path opacity="0.3" d="M202.44 99.73C182.7 112.15 179.52 129.95 194.72 144.55C203.72 153.19 217.97 159.28 234.9 161.72C250.568 164.028 266.551 162.864 281.72 158.31L260.67 138.08L248.31 126.21L202.44 99.73Z" fill="#0042C2"/>
<path d="M431.491 239.65C430.15 235.009 427.754 230.741 424.491 227.18C420.642 222.95 416.134 219.37 411.141 216.58C405.345 213.297 399.183 210.709 392.781 208.87C385.729 206.835 378.494 205.495 371.181 204.87C363.626 204.18 356.025 204.18 348.471 204.87C341.161 205.496 333.93 206.835 326.881 208.87C320.479 210.709 314.316 213.297 308.521 216.58C303.524 219.369 299.013 222.949 295.161 227.18C291.9 230.743 289.505 235.011 288.161 239.65C286.966 243.942 286.966 248.478 288.161 252.77C289.494 257.411 291.891 261.677 295.161 265.23C299.014 269.463 303.525 273.045 308.521 275.84C314.314 279.119 320.473 281.703 326.871 283.54C333.927 285.571 341.165 286.91 348.481 287.54C356.035 288.22 363.636 288.22 371.191 287.54C378.507 286.911 385.744 285.572 392.801 283.54C399.202 281.708 405.362 279.12 411.151 275.83V275.83C416.151 273.042 420.666 269.462 424.521 265.23C427.784 261.672 430.18 257.408 431.521 252.77C432.701 248.475 432.691 243.94 431.491 239.65Z" fill="#005986"/>
<path d="M287.249 239.64H432.378V247.04L287.249 246.63V239.64Z" fill="#005986"/>
<path d="M348.46 198.28L359.81 239.64L326.87 202.32C333.917 200.272 341.148 198.919 348.46 198.28V198.28Z" fill="#E3F6FF"/>
<path d="M371.169 198.28L359.829 239.64L348.479 198.28C356.027 197.591 363.622 197.591 371.169 198.28Z" fill="#E3F6FF"/>
<path d="M392.769 202.32L359.829 239.64L371.169 198.28C378.484 198.918 385.718 200.271 392.769 202.32V202.32Z" fill="#E3F6FF"/>
<path d="M424.482 220.63C427.746 224.195 430.142 228.466 431.482 233.11L359.842 239.66L424.482 220.63Z" fill="#E3F6FF"/>
<path d="M431.491 233.11C432.681 237.399 432.681 241.931 431.491 246.22L359.851 239.66L431.491 233.11Z" fill="#E3F6FF"/>
<path d="M431.492 246.22C430.149 250.86 427.753 255.127 424.492 258.69L359.842 239.69L431.492 246.22Z" fill="#E3F6FF"/>
<path d="M424.499 258.69C420.639 262.917 416.124 266.496 411.129 269.29L359.819 239.66L424.499 258.69Z" fill="#E3F6FF"/>
<path d="M359.829 239.67L392.779 277C385.722 279.032 378.485 280.371 371.169 281L359.819 239.64L359.829 239.67Z" fill="#E3F6FF"/>
<path d="M359.82 239.68L371.171 281C363.616 281.685 356.015 281.685 348.46 281L359.82 239.68Z" fill="#E3F6FF"/>
<path d="M359.811 239.67L348.461 281C341.145 280.371 333.907 279.031 326.851 277L359.811 239.67Z" fill="#E3F6FF"/>
<path d="M359.808 239.67L326.808 277C320.412 275.156 314.253 272.568 308.458 269.29L359.808 239.67Z" fill="#E3F6FF"/>
<path d="M359.79 239.66L295.14 258.66C291.871 255.102 289.475 250.833 288.14 246.19L359.79 239.66Z" fill="#E3F6FF"/>
<path d="M359.789 239.66L288.149 246.22C286.954 241.932 286.954 237.399 288.149 233.11L359.789 239.66Z" fill="#E3F6FF"/>
<path d="M359.788 239.65L288.148 233.1C289.491 228.458 291.887 224.187 295.148 220.62L359.788 239.65Z" fill="#E3F6FF"/>
<path d="M308.51 210L359.79 239.61L295.15 220.61C299.001 216.375 303.513 212.792 308.51 210V210Z" fill="#E3F6FF"/>
<path d="M411.129 210L359.829 239.61L392.769 202.29C399.172 204.125 405.336 206.713 411.129 210V210Z" fill="#E3F6FF"/>
<path d="M411.131 210C416.123 212.786 420.632 216.362 424.481 220.59L359.851 239.59L411.131 210Z" fill="#E3F6FF"/>
<path d="M359.808 239.65L308.498 269.29C303.505 266.496 298.994 262.917 295.138 258.69L359.788 239.69L359.808 239.65Z" fill="#E3F6FF"/>
<path d="M326.872 202.32L359.812 239.64L308.512 210C314.307 206.724 320.47 204.146 326.872 202.32V202.32Z" fill="#E3F6FF"/>
<path d="M359.829 239.67L411.129 269.29C405.336 272.572 399.177 275.159 392.779 277L359.829 239.67Z" fill="#E3F6FF"/>
<path d="M295.891 223.41V244.19C295.364 242.291 295.095 240.331 295.091 238.36V223.41H295.891Z" fill="#0057FF"/>
<path opacity="0.3" d="M295.891 223.41V244.19C295.364 242.291 295.095 240.331 295.091 238.36V223.41H295.891Z" fill="#0042C2"/>
<path d="M359.788 223.43L295.888 229.27C294.828 225.446 294.828 221.405 295.888 217.58L359.788 223.43Z" fill="#0057FF"/>
<path d="M359.789 223.41L295.889 217.56C297.09 213.419 299.228 209.611 302.139 206.43L359.789 223.41Z" fill="#0057FF"/>
<path d="M314.049 197L359.789 223.41L302.139 206.41C305.578 202.654 309.599 199.477 314.049 197V197Z" fill="#0057FF"/>
<path d="M330.431 190.12L359.811 223.4L314.051 197C319.22 194.068 324.718 191.758 330.431 190.12V190.12Z" fill="#0057FF"/>
<path d="M349.689 186.52L359.809 223.4L330.429 190.12C336.715 188.291 343.166 187.086 349.689 186.52V186.52Z" fill="#0057FF"/>
<path d="M369.999 186.52L359.829 223.4L349.708 186.52C356.458 185.898 363.25 185.898 369.999 186.52V186.52Z" fill="#0057FF"/>
<path d="M389.209 190.12L359.829 223.4L369.999 186.52C376.505 187.089 382.939 188.295 389.209 190.12V190.12Z" fill="#0057FF"/>
<g opacity="0.2">
<path opacity="0.2" d="M359.788 223.43L295.888 229.27C294.828 225.446 294.828 221.405 295.888 217.58L359.788 223.43Z" fill="white"/>
<path opacity="0.2" d="M359.788 223.41L295.888 217.56C297.089 213.419 299.228 209.611 302.138 206.43L359.788 223.41Z" fill="white"/>
<path opacity="0.2" d="M314.049 197L359.789 223.41L302.139 206.41C305.578 202.654 309.6 199.477 314.049 197V197Z" fill="white"/>
<path opacity="0.2" d="M330.427 190.12L359.807 223.4L314.047 197C319.216 194.068 324.715 191.758 330.427 190.12V190.12Z" fill="white"/>
<path opacity="0.2" d="M349.685 186.52L359.805 223.4L330.425 190.12C336.712 188.291 343.163 187.086 349.685 186.52V186.52Z" fill="white"/>
<path opacity="0.2" d="M369.999 186.52L359.829 223.4L349.708 186.52C356.458 185.898 363.249 185.898 369.999 186.52V186.52Z" fill="white"/>
<path opacity="0.2" d="M389.209 190.12L359.829 223.4L369.999 186.52C376.505 187.089 382.939 188.295 389.209 190.12V190.12Z" fill="white"/>
</g>
<path d="M413.999 233.39L404.409 242.39L397.119 249.28L390.169 255.82L389.239 256.69V271.62C394.95 269.984 400.448 267.678 405.619 264.75C410.074 262.252 414.098 259.055 417.539 255.28C420.448 252.11 422.581 248.306 423.769 244.17C424.299 242.272 424.571 240.311 424.579 238.34V223.42L413.999 233.39Z" fill="#0057FF"/>
<path opacity="0.3" d="M413.999 233.39L404.409 242.39L397.119 249.28L390.169 255.82L389.239 256.69V271.62C394.95 269.984 400.448 267.678 405.619 264.75C410.074 262.252 414.098 259.055 417.539 255.28C420.448 252.11 422.581 248.306 423.769 244.17C424.299 242.272 424.571 240.311 424.579 238.34V223.42L413.999 233.39Z" fill="#0042C2"/>
<path d="M417.502 206.45C420.408 209.634 422.547 213.441 423.752 217.58L359.842 223.43L417.502 206.45Z" fill="#0057FF"/>
<path d="M424.552 223.44C424.544 225.414 424.271 227.378 423.742 229.28L404.382 227.5L359.842 223.42L413.972 218.42L423.742 217.53C424.277 219.455 424.549 221.443 424.552 223.44Z" fill="#0057FF"/>
<path d="M423.742 229.28C422.552 233.415 420.419 237.218 417.512 240.39L397.092 234.39L359.842 223.39L404.382 227.47L423.742 229.28Z" fill="#0057FF"/>
<path d="M417.511 240.39C414.07 244.165 410.045 247.362 405.591 249.86L390.141 240.92L359.851 223.44L397.101 234.44L417.511 240.39Z" fill="#0057FF"/>
<path d="M405.589 197L359.829 223.42L389.209 190.14C394.92 191.776 400.417 194.078 405.589 197V197Z" fill="#0057FF"/>
<path d="M405.592 197C410.043 199.491 414.064 202.682 417.502 206.45L359.842 223.45L405.592 197Z" fill="#0057FF"/>
<path d="M405.591 249.86C400.42 252.784 394.922 255.087 389.211 256.72L359.851 223.44L390.141 240.92L405.591 249.86Z" fill="#0057FF"/>
<g opacity="0.2">
<path opacity="0.2" d="M417.499 206.45C420.406 209.634 422.544 213.441 423.749 217.58L359.839 223.43L417.499 206.45Z" fill="white"/>
<path opacity="0.2" d="M424.549 223.44C424.541 225.414 424.269 227.378 423.739 229.28L404.379 227.5L359.839 223.42L413.969 218.42L423.739 217.53C424.274 219.455 424.547 221.443 424.549 223.44Z" fill="white"/>
<path opacity="0.2" d="M423.739 229.28C422.549 233.415 420.417 237.218 417.509 240.39L397.089 234.39L359.839 223.39L404.379 227.47L423.739 229.28Z" fill="white"/>
<path opacity="0.2" d="M417.508 240.39C414.068 244.165 410.043 247.362 405.588 249.86L390.138 240.92L359.848 223.44L397.098 234.44L417.508 240.39Z" fill="white"/>
<path opacity="0.2" d="M405.589 197L359.829 223.42L389.209 190.14C394.92 191.776 400.417 194.078 405.589 197V197Z" fill="white"/>
<path opacity="0.2" d="M405.589 197C410.04 199.491 414.061 202.682 417.499 206.45L359.839 223.45L405.589 197Z" fill="white"/>
<path opacity="0.2" d="M405.588 249.86C400.417 252.784 394.919 255.087 389.208 256.72L359.848 223.44L390.138 240.92L405.588 249.86Z" fill="white"/>
</g>
<path d="M389.22 256.73V271.66L359.81 238.34V223.4L389.22 256.73Z" fill="#263238"/>
<path d="M359.809 238.34L295.889 244.21V229.27L359.809 223.4V238.34Z" fill="#0057FF"/>
<path opacity="0.1" d="M359.809 238.34L295.889 244.21V229.27L359.809 223.4V238.34Z" fill="#0042C2"/>
<path d="M212.999 239.65C211.659 235.009 209.263 230.741 205.999 227.18C202.149 222.951 197.641 219.372 192.649 216.58C186.851 213.295 180.685 210.707 174.279 208.87C167.23 206.835 159.999 205.495 152.689 204.87C145.135 204.18 137.533 204.18 129.979 204.87C122.666 205.496 115.431 206.835 108.379 208.87C101.97 210.708 95.801 213.296 89.9992 216.58C85.0064 219.37 80.4981 222.95 76.6492 227.18C73.3854 230.741 70.9896 235.009 69.6492 239.65C68.4639 243.943 68.4639 248.477 69.6492 252.77C70.9874 257.409 73.3835 261.674 76.6492 265.23C80.4973 269.464 85.0057 273.047 89.9992 275.84C95.7904 279.122 101.95 281.707 108.349 283.54C115.406 285.572 122.643 286.911 129.959 287.54C137.514 288.22 145.114 288.22 152.669 287.54C159.985 286.911 167.223 285.572 174.279 283.54C180.68 281.708 186.84 279.12 192.629 275.83V275.83C197.63 273.043 202.145 269.463 205.999 265.23C209.265 261.674 211.661 257.409 212.999 252.77C214.184 248.477 214.184 243.943 212.999 239.65V239.65Z" fill="#005986"/>
<path d="M68.75 239.64H213.88V247.04L68.75 246.63V239.64Z" fill="#005986"/>
<path d="M130.001 198.28L141.341 239.64L108.401 202.32C115.452 200.272 122.686 198.919 130.001 198.28Z" fill="#E3F6FF"/>
<path d="M152.67 198.28L141.33 239.64L130 198.28C137.541 197.593 145.129 197.593 152.67 198.28Z" fill="#E3F6FF"/>
<path d="M174.26 202.32L141.331 239.64L152.671 198.28C159.982 198.918 167.213 200.271 174.26 202.32V202.32Z" fill="#E3F6FF"/>
<path d="M206 220.63C209.263 224.195 211.659 228.466 213 233.11L141.35 239.66L206 220.63Z" fill="#E3F6FF"/>
<path d="M213 233.11C214.184 237.4 214.184 241.931 213 246.22L141.35 239.66L213 233.11Z" fill="#E3F6FF"/>
<path d="M213 246.22C211.659 250.861 209.264 255.129 206 258.69L141.35 239.69L213 246.22Z" fill="#E3F6FF"/>
<path d="M206.001 258.69C202.144 262.917 197.633 266.496 192.641 269.29L141.321 239.66L206.001 258.69Z" fill="#E3F6FF"/>
<path d="M141.329 239.67L174.279 277C167.222 279.032 159.985 280.371 152.669 281L141.309 239.64L141.329 239.67Z" fill="#E3F6FF"/>
<path d="M141.31 239.68L152.67 281C145.129 281.683 137.541 281.683 130 281L141.31 239.68Z" fill="#E3F6FF"/>
<path d="M141.299 239.67L129.999 281C122.683 280.372 115.445 279.032 108.389 277L141.299 239.67Z" fill="#E3F6FF"/>
<path d="M141.3 239.67L108.3 277C101.92 275.156 95.7776 272.568 90.0005 269.29L141.3 239.67Z" fill="#E3F6FF"/>
<path d="M141.288 239.66L76.6377 258.66C73.3736 255.099 70.9778 250.831 69.6377 246.19L141.288 239.66Z" fill="#E3F6FF"/>
<path d="M141.289 239.66L69.6392 246.22C68.4543 241.931 68.4543 237.4 69.6392 233.11L141.289 239.66Z" fill="#E3F6FF"/>
<path d="M141.288 239.65L69.6377 233.1C70.9781 228.456 73.3738 224.185 76.6377 220.62L141.288 239.65Z" fill="#E3F6FF"/>
<path d="M89.9989 210L141.289 239.61L76.6489 220.61C80.4963 216.375 85.0048 212.792 89.9989 210V210Z" fill="#E3F6FF"/>
<path d="M192.631 210L141.331 239.61L174.261 202.29C180.668 204.123 186.834 206.711 192.631 210V210Z" fill="#E3F6FF"/>
<path d="M192.631 210C197.632 212.799 202.147 216.389 206.001 220.63L141.361 239.63L192.631 210Z" fill="#E3F6FF"/>
<path d="M141.299 239.65L89.9987 269.29C85.0043 266.499 80.493 262.919 76.6387 258.69L141.289 239.69L141.299 239.65Z" fill="#E3F6FF"/>
<path d="M108.36 202.32L141.3 239.64L90.0005 210C95.7955 206.724 101.958 204.146 108.36 202.32V202.32Z" fill="#E3F6FF"/>
<path d="M141.331 239.67L192.631 269.29C186.838 272.572 180.679 275.159 174.281 277L141.331 239.67Z" fill="#E3F6FF"/>
<path d="M160.611 214L168.881 204.62C168.881 193.62 155.441 193.35 149.501 192.82C143.561 192.29 133.371 188.88 133.371 201.4L136.211 211.76C144.411 211.233 152.643 211.989 160.611 214V214Z" fill="#0057FF"/>
<path opacity="0.6" d="M160.611 214L168.881 204.62C168.881 193.62 155.441 193.35 149.501 192.82C143.561 192.29 133.371 188.88 133.371 201.4L136.211 211.76C144.411 211.233 152.643 211.989 160.611 214V214Z" fill="white"/>
<path d="M160.611 199.27L168.881 189.9C157.301 186.887 145.304 185.799 133.371 186.68L136.211 197C144.413 196.483 152.645 197.249 160.611 199.27V199.27Z" fill="#0057FF"/>
<path opacity="0.8" d="M160.611 199.27L168.881 189.9C157.301 186.887 145.304 185.799 133.371 186.68L136.211 197C144.413 196.483 152.645 197.249 160.611 199.27V199.27Z" fill="white"/>
<path d="M136.211 197.04V211.78L133.371 201.42V186.68L136.211 197.04Z" fill="#0057FF"/>
<path d="M168.88 189.9L160.61 199.27V214.02L168.88 204.64V189.9Z" fill="#0057FF"/>
<g opacity="0.6">
<path opacity="0.6" d="M136.211 197.04V211.78L133.371 201.42V186.68L136.211 197.04Z" fill="white"/>
<path opacity="0.6" d="M168.88 189.9L160.61 199.27V214.02L168.88 204.64V189.9Z" fill="white"/>
</g>
<path d="M164.648 200.46V215.2C168.098 216.314 171.428 217.772 174.588 219.55C177.345 221.116 179.878 223.047 182.118 225.29L198.338 220.52C195.113 217.228 191.44 214.407 187.428 212.14C182.998 209.6 178.258 199.3 164.648 200.46Z" fill="#0057FF"/>
<path opacity="0.6" d="M164.648 200.46V215.2C168.098 216.314 171.428 217.772 174.588 219.55C177.345 221.116 179.878 223.047 182.118 225.29L198.338 220.52C195.113 217.228 191.44 214.407 187.428 212.14C182.998 209.6 178.258 199.3 164.648 200.46Z" fill="#0042C2"/>
<path d="M172.918 191.1L164.648 200.46C168.102 201.565 171.433 203.023 174.588 204.81C177.345 206.376 179.878 208.306 182.118 210.55L198.338 205.78C195.118 202.482 191.445 199.661 187.428 197.4C182.83 194.787 177.966 192.675 172.918 191.1V191.1Z" fill="#0057FF"/>
<path opacity="0.3" d="M172.918 191.1L164.648 200.46C168.102 201.565 171.433 203.023 174.588 204.81C177.345 206.376 179.878 208.306 182.118 210.55L198.338 205.78C195.118 202.482 191.445 199.661 187.428 197.4C182.83 194.787 177.966 192.675 172.918 191.1V191.1Z" fill="#0042C2"/>
<path d="M182.121 210.55L198.341 205.77V220.52L182.121 225.29V210.55Z" fill="#0057FF"/>
<path opacity="0.6" d="M182.121 210.55L198.341 205.77V220.52L182.121 225.29V210.55Z" fill="#0042C2"/>
<path d="M206.481 223.63H201.001C200.801 223.37 200.631 223.11 200.431 222.85L184.191 212.85V227.6C187.651 232.05 188.961 236.91 188.061 241.68L206.001 243.35C206.304 241.863 206.455 240.348 206.451 238.83V238.83L206.481 223.63Z" fill="#0057FF"/>
<path opacity="0.6" d="M206.481 223.63H201.001C200.801 223.37 200.631 223.11 200.431 222.85L184.191 212.85V227.6C187.651 232.05 188.961 236.91 188.061 241.68L206.001 243.35C206.304 241.863 206.455 240.348 206.451 238.83V238.83L206.481 223.63Z" fill="#0042C2"/>
<path d="M188.049 227L205.999 228.61C207.459 221.68 205.609 214.55 200.419 208.11L184.179 212.88C187.639 217.33 188.999 222.2 188.049 227Z" fill="#0057FF"/>
<path opacity="0.3" d="M188.049 227L205.999 228.61C207.459 221.68 205.609 214.55 200.419 208.11L184.179 212.88C187.639 217.33 188.999 222.2 188.049 227Z" fill="#0042C2"/>
<path d="M205.999 228.61V243.36L188.049 241.71V226.97L205.999 228.61Z" fill="#0057FF"/>
<path opacity="0.6" d="M205.999 228.61V243.36L188.049 241.71V226.97L205.999 228.61Z" fill="#0042C2"/>
<path d="M131.732 212.2V197.45C121.732 192.84 103.112 197.52 96.8721 211.25L109.712 218.67C116.609 215.221 124.066 213.03 131.732 212.2Z" fill="#0057FF"/>
<path opacity="0.3" d="M131.732 212.2V197.45C121.732 192.84 103.112 197.52 96.8721 211.25L109.712 218.67C116.609 215.221 124.066 213.03 131.732 212.2Z" fill="#0042C2"/>
<path d="M131.73 197.45L128.88 187.06C116.79 188.42 105.72 191.75 96.8804 196.51L109.72 203.92C116.614 200.472 124.067 198.281 131.73 197.45Z" fill="#0057FF"/>
<path opacity="0.1" d="M131.73 197.45L128.88 187.06C116.79 188.42 105.72 191.75 96.8804 196.51L109.72 203.92C116.614 200.472 124.067 198.281 131.73 197.45Z" fill="#0042C2"/>
<path d="M109.712 203.92V218.67L96.8721 211.25V196.51L109.712 203.92Z" fill="#263238"/>
<path d="M96.2793 205.78L93.6393 213.09C85.0093 218.43 79.5593 224.86 77.3193 231.59L95.3193 233.23C96.9693 228.62 100.729 224.23 106.549 220.53V205.78H96.2793Z" fill="#0057FF"/>
<path opacity="0.3" d="M96.2793 205.78L93.6393 213.09C85.0093 218.43 79.5593 224.86 77.3193 231.59L95.3193 233.23C96.9693 228.62 100.729 224.23 106.549 220.53V205.78H96.2793Z" fill="#0042C2"/>
<path d="M106.509 205.78L93.6393 198.35C85.0093 203.68 79.5593 210.12 77.3193 216.84L95.3193 218.49C96.9293 213.88 100.689 209.48 106.509 205.78Z" fill="#0057FF"/>
<path opacity="0.1" d="M106.509 205.78L93.6393 198.35C85.0093 203.68 79.5593 210.12 77.3193 216.84L95.3193 218.49C96.9293 213.88 100.689 209.48 106.509 205.78Z" fill="#0042C2"/>
<path d="M77.3193 216.84V231.59L95.2793 233.23V218.49L77.3193 216.84Z" fill="#263238"/>
<path d="M94.5689 235.82V221.07L89.2289 220.59L76.1489 224V238.73C76.2327 244.583 78.3545 250.223 82.1489 254.68L98.3889 249.91C94.9989 245.46 93.6789 240.59 94.5689 235.82Z" fill="#0057FF"/>
<path opacity="0.3" d="M94.5689 235.82V221.07L89.2289 220.59L76.1489 224V238.73C76.2327 244.583 78.3545 250.223 82.1489 254.68L98.3889 249.91C94.9989 245.46 93.6789 240.59 94.5689 235.82Z" fill="#0042C2"/>
<path d="M82.21 239.94L98.45 235.16V249.91L82.21 254.68V239.94Z" fill="#263238"/>
<path d="M94.5808 221.07L76.5808 219.43C75.1208 226.37 76.9708 233.49 82.1608 239.94L98.4008 235.16C95.0008 230.71 93.6808 225.84 94.5808 221.07Z" fill="#0057FF"/>
<path opacity="0.1" d="M94.5808 221.07L76.5808 219.43C75.1208 226.37 76.9708 233.49 82.1608 239.94L98.4008 235.16C95.0008 230.71 93.6808 225.84 94.5808 221.07Z" fill="#0042C2"/>
<path d="M113.79 254.66C106.18 250.27 102.38 244.52 102.38 238.77V224H180.25V238.74C180.25 244.5 176.45 250.25 168.84 254.64C153.64 263.44 129 263.44 113.79 254.66Z" fill="#005986"/>
<path d="M141.319 246.5C162.82 246.5 180.249 236.435 180.249 224.02C180.249 211.605 162.82 201.54 141.319 201.54C119.819 201.54 102.389 211.605 102.389 224.02C102.389 236.435 119.819 246.5 141.319 246.5Z" fill="#E3F6FF"/>
<path d="M109.71 258.88V257L84.2803 242.27V257C87.5064 260.295 91.1829 263.116 95.2003 265.38C99.7977 267.993 104.662 270.105 109.71 271.68L117.97 262.32C115.13 261.396 112.367 260.245 109.71 258.88V258.88Z" fill="#0057FF"/>
<path opacity="0.3" d="M109.71 258.88V257L84.2803 242.27V257C87.5064 260.295 91.1829 263.116 95.2003 265.38C99.7977 267.993 104.662 270.105 109.71 271.68L117.97 262.32C115.13 261.396 112.367 260.245 109.71 258.88V258.88Z" fill="#0042C2"/>
<path d="M108 243.23C105.24 241.669 102.703 239.741 100.46 237.5L84.2397 242.27C87.4685 245.562 91.1445 248.383 95.1598 250.65C99.7593 253.259 104.623 255.371 109.67 256.95L117.93 247.58C114.479 246.475 111.152 245.017 108 243.23V243.23Z" fill="#0057FF"/>
<path opacity="0.1" d="M108 243.23C105.24 241.669 102.703 239.741 100.46 237.5L84.2397 242.27C87.4685 245.562 91.1445 248.383 95.1598 250.65C99.7593 253.259 104.623 255.371 109.67 256.95L117.93 247.58C114.479 246.475 111.152 245.017 108 243.23V243.23Z" fill="#0042C2"/>
<path d="M109.708 271.69V256.95L117.968 247.58V262.33L109.708 271.69Z" fill="#263238"/>
<path d="M113.749 258.14V272.89C125.329 275.904 137.326 276.992 149.259 276.11V261.37L113.749 258.14Z" fill="#0057FF"/>
<path opacity="0.1" d="M113.749 258.14V272.89C125.329 275.904 137.326 276.992 149.259 276.11V261.37L113.749 258.14Z" fill="#0042C2"/>
<path d="M122 248.77L113.73 258.14C125.31 261.152 137.306 262.244 149.24 261.37L146.42 251C138.214 251.532 129.974 250.78 122 248.77V248.77Z" fill="#0057FF"/>
<path opacity="0.2" d="M122 248.77L113.73 258.14C125.31 261.152 137.306 262.244 149.24 261.37L146.42 251C138.214 251.532 129.974 250.78 122 248.77V248.77Z" fill="white"/>
<path d="M176.122 257L189.002 264.44C197.632 259.11 203.082 252.67 205.322 245.94V231.2L187.322 244.3C185.702 248.91 181.942 253.31 176.122 257Z" fill="#0057FF"/>
<path opacity="0.1" d="M176.122 257L189.002 264.44C197.632 259.11 203.082 252.67 205.322 245.94V231.2L187.322 244.3C185.702 248.91 181.942 253.31 176.122 257Z" fill="#0042C2"/>
<path d="M176.122 242.26L189.002 249.7C197.632 244.36 203.082 237.93 205.322 231.2L187.322 229.56C185.702 234.17 181.942 238.56 176.122 242.26Z" fill="#0057FF"/>
<path opacity="0.2" d="M176.122 242.26L189.002 249.7C197.632 244.36 203.082 237.93 205.322 231.2L187.322 229.56C185.702 234.17 181.942 238.56 176.122 242.26Z" fill="white"/>
<path d="M188.992 249.7V264.44L176.122 257.01V242.26L188.992 249.7Z" fill="#0057FF"/>
<path opacity="0.3" d="M188.992 249.7V264.44L176.122 257.01V242.26L188.992 249.7Z" fill="#0042C2"/>
<path d="M153.748 261V265C152.798 265.15 151.858 265.28 150.898 265.39L153.748 275.77C165.398 274.47 176.538 271.32 185.748 266.34V251.55L153.748 261Z" fill="#0057FF"/>
<path opacity="0.1" d="M153.748 261V265C152.798 265.15 151.858 265.28 150.898 265.39L153.748 275.77C165.398 274.47 176.538 271.32 185.748 266.34V251.55L153.748 261Z" fill="#0042C2"/>
<path d="M150.898 250.6L153.748 261C165.398 259.7 176.538 256.56 185.748 251.58L172.878 244.14C165.999 247.596 158.554 249.784 150.898 250.6V250.6Z" fill="#0057FF"/>
<path opacity="0.2" d="M150.898 250.6L153.748 261C165.398 259.7 176.538 256.56 185.748 251.58L172.878 244.14C165.999 247.596 158.554 249.784 150.898 250.6V250.6Z" fill="white"/>
<path d="M153.748 260.97V275.71L150.898 265.35V250.6L153.748 260.97Z" fill="#0057FF"/>
<path opacity="0.3" d="M153.748 260.97V275.71L150.898 265.35V250.6L153.748 260.97Z" fill="#0042C2"/>
<path d="M403.313 162.34C403.278 161.69 403.09 161.057 402.765 160.492C402.44 159.928 401.988 159.447 401.443 159.09L374.363 143.46C373.363 142.86 372.493 143.35 372.493 144.55V170.72C372.527 171.371 372.714 172.004 373.039 172.569C373.364 173.133 373.818 173.613 374.363 173.97L385.703 180.51L389.283 195C389.271 195.265 389.365 195.524 389.544 195.72C389.723 195.916 389.973 196.033 390.238 196.045C390.503 196.057 390.762 195.963 390.958 195.784C391.154 195.605 391.271 195.355 391.283 195.09L394.563 185.62L401.493 189.62C402.493 190.22 403.363 189.73 403.363 188.54L403.313 162.34Z" fill="#0057FF"/>
<path opacity="0.5" d="M403.313 162.34C403.278 161.69 403.09 161.057 402.765 160.492C402.44 159.928 401.988 159.447 401.443 159.09L374.363 143.46C373.363 142.86 372.493 143.35 372.493 144.55V170.72C372.527 171.371 372.714 172.004 373.039 172.569C373.364 173.133 373.818 173.613 374.363 173.97L385.703 180.51L389.283 195C389.271 195.265 389.365 195.524 389.544 195.72C389.723 195.916 389.973 196.033 390.238 196.045C390.503 196.057 390.762 195.963 390.958 195.784C391.154 195.605 391.271 195.355 391.283 195.09L394.563 185.62L401.493 189.62C402.493 190.22 403.363 189.73 403.363 188.54L403.313 162.34Z" fill="white"/>
<path d="M382.753 155.38C383.306 155.694 383.816 156.077 384.273 156.52C384.681 156.917 385.046 157.356 385.363 157.83C385.638 158.249 385.862 158.699 386.033 159.17C386.174 159.571 386.264 159.987 386.303 160.41C386.303 160.84 386.353 161.29 386.353 161.76C386.353 162.23 386.353 162.66 386.303 163.06C386.279 163.382 386.187 163.696 386.033 163.98C385.883 164.243 385.646 164.444 385.363 164.55C385.006 164.648 384.63 164.648 384.273 164.55C383.735 164.425 383.221 164.212 382.753 163.92C382.198 163.609 381.683 163.229 381.223 162.79C380.813 162.404 380.451 161.971 380.143 161.5C379.62 160.727 379.294 159.838 379.193 158.91C379.193 158.48 379.193 158.03 379.193 157.56C379.193 157.09 379.193 156.66 379.193 156.27C379.224 155.944 379.319 155.628 379.473 155.34C379.618 155.073 379.856 154.87 380.143 154.77C380.492 154.66 380.865 154.643 381.223 154.72C381.768 154.848 382.286 155.072 382.753 155.38V155.38ZM392.313 161.47C392.415 161.395 392.536 161.35 392.663 161.34C392.845 161.352 393.02 161.41 393.173 161.51L394.603 162.34C394.767 162.433 394.91 162.559 395.023 162.71C395.116 162.838 395.169 162.991 395.173 163.15C395.177 163.183 395.177 163.217 395.173 163.25C395.155 163.287 395.132 163.321 395.103 163.35L383.323 172.05C383.22 172.126 383.1 172.174 382.973 172.19C382.79 172.178 382.613 172.116 382.463 172.01L381.033 171.19C380.867 171.096 380.723 170.966 380.613 170.81C380.517 170.687 380.461 170.536 380.453 170.38C380.445 170.344 380.445 170.306 380.453 170.27C380.467 170.231 380.491 170.196 380.523 170.17L392.313 161.47ZM384.013 161.47C384.027 161.324 384.027 161.176 384.013 161.03V159.74C384.026 159.584 384.026 159.426 384.013 159.27C383.98 158.919 383.875 158.578 383.703 158.27C383.472 157.895 383.144 157.591 382.753 157.39C382.293 157.12 381.973 157.05 381.753 157.17C381.658 157.246 381.582 157.342 381.528 157.451C381.474 157.559 381.445 157.679 381.443 157.8C381.443 157.89 381.443 158.03 381.443 158.24C381.443 158.45 381.443 158.65 381.443 158.87C381.443 159.09 381.443 159.31 381.443 159.52C381.443 159.73 381.443 159.89 381.443 160C381.48 160.35 381.586 160.69 381.753 161C381.998 161.38 382.344 161.685 382.753 161.88C383.213 162.15 383.533 162.22 383.703 162.1C383.793 162.028 383.867 161.937 383.919 161.833C383.971 161.729 383.999 161.616 384.003 161.5L384.013 161.47ZM393.073 169.68C393.629 169.994 394.143 170.377 394.603 170.82C395.008 171.217 395.37 171.656 395.683 172.13C395.965 172.545 396.191 172.995 396.353 173.47C396.492 173.872 396.586 174.288 396.633 174.71C396.633 175.14 396.633 175.59 396.633 176.06C396.633 176.53 396.633 176.96 396.633 177.36C396.602 177.682 396.507 177.995 396.353 178.28C396.285 178.415 396.19 178.534 396.075 178.632C395.96 178.73 395.827 178.804 395.683 178.85C395.33 178.953 394.956 178.953 394.603 178.85C394.062 178.725 393.545 178.512 393.073 178.22C392.521 177.909 392.01 177.529 391.553 177.09C391.143 176.702 390.777 176.269 390.463 175.8C390.186 175.382 389.961 174.932 389.793 174.46C389.653 174.059 389.562 173.643 389.523 173.22C389.523 172.78 389.523 172.33 389.523 171.86C389.523 171.39 389.523 170.96 389.523 170.57C389.546 170.244 389.638 169.927 389.793 169.64C389.94 169.375 390.178 169.173 390.463 169.07C390.821 168.982 391.195 168.982 391.553 169.07C392.093 169.192 392.608 169.409 393.073 169.71V169.68ZM394.343 175.8C394.351 175.653 394.351 175.506 394.343 175.36V174.1C394.343 173.9 394.343 173.74 394.343 173.64C394.301 173.291 394.196 172.952 394.033 172.64C393.785 172.262 393.439 171.958 393.033 171.76C392.573 171.49 392.253 171.42 392.083 171.54C391.988 171.616 391.912 171.712 391.858 171.821C391.804 171.929 391.775 172.049 391.773 172.17C391.763 172.316 391.763 172.463 391.773 172.61C391.773 172.81 391.773 173.02 391.773 173.24C391.773 173.46 391.773 173.68 391.773 173.9C391.764 174.056 391.764 174.213 391.773 174.37C391.804 174.722 391.91 175.062 392.083 175.37C392.31 175.747 392.64 176.052 393.033 176.25C393.493 176.52 393.813 176.59 394.033 176.47C394.127 176.391 394.203 176.293 394.256 176.183C394.31 176.073 394.339 175.952 394.343 175.83V175.8Z" fill="#FAFAFA"/>
<path d="M286.16 61.9999C286.124 61.3498 285.936 60.7172 285.611 60.1528C285.287 59.5885 284.834 59.108 284.29 58.7499L257.21 43.1299C256.21 42.5299 255.34 43.0099 255.34 44.2099V70.3799C255.375 71.0317 255.562 71.6662 255.887 72.2325C256.212 72.7987 256.665 73.2808 257.21 73.6399L268.55 80.1798L272.13 94.6398C272.17 94.8638 272.284 95.0678 272.455 95.2181C272.625 95.3683 272.842 95.4559 273.069 95.4664C273.296 95.4769 273.52 95.4096 273.704 95.2757C273.888 95.1418 274.021 94.9493 274.08 94.7298L277.36 85.2598L284.29 89.2598C285.29 89.8598 286.16 89.3798 286.16 88.1798V61.9999Z" fill="#0057FF"/>
<path opacity="0.5" d="M286.16 61.9999C286.124 61.3498 285.936 60.7172 285.611 60.1528C285.287 59.5885 284.834 59.108 284.29 58.7499L257.21 43.1299C256.21 42.5299 255.34 43.0099 255.34 44.2099V70.3799C255.375 71.0317 255.562 71.6662 255.887 72.2325C256.212 72.7987 256.665 73.2808 257.21 73.6399L268.55 80.1798L272.13 94.6398C272.17 94.8638 272.284 95.0678 272.455 95.2181C272.625 95.3683 272.842 95.4559 273.069 95.4664C273.296 95.4769 273.52 95.4096 273.704 95.2757C273.888 95.1418 274.021 94.9493 274.08 94.7298L277.36 85.2598L284.29 89.2598C285.29 89.8598 286.16 89.3798 286.16 88.1798V61.9999Z" fill="white"/>
<path d="M265.602 55.0797C266.154 55.3941 266.665 55.7772 267.122 56.2197C267.527 56.6192 267.892 57.0581 268.212 57.5297C268.49 57.9467 268.715 58.3968 268.882 58.8697C269.022 59.2703 269.113 59.6868 269.152 60.1097C269.152 60.5397 269.202 60.9898 269.202 61.4598C269.202 61.9298 269.202 62.3597 269.152 62.7597C269.129 63.0854 269.037 63.4024 268.882 63.6898C268.736 63.9539 268.497 64.1538 268.212 64.2497C267.859 64.3646 267.483 64.3819 267.122 64.2998C266.582 64.1751 266.068 63.9587 265.602 63.6598C265.044 63.3521 264.53 62.9721 264.072 62.5297C263.662 62.144 263.299 61.711 262.991 61.2397C262.709 60.8251 262.484 60.3744 262.322 59.8997C262.182 59.4981 262.089 59.0822 262.042 58.6597C262.042 58.2197 262.042 57.7697 262.042 57.3097C262.042 56.8497 262.042 56.3997 262.042 56.0097C262.072 55.6843 262.168 55.3682 262.322 55.0797C262.466 54.813 262.705 54.6098 262.991 54.5097C263.346 54.4212 263.717 54.4212 264.072 54.5097C264.611 54.61 265.128 54.8029 265.602 55.0797V55.0797ZM275.162 61.1697C275.266 61.0991 275.386 61.0545 275.512 61.0397C275.695 61.0518 275.871 61.114 276.022 61.2197L277.452 62.0397C277.613 62.1358 277.756 62.2613 277.872 62.4097C277.964 62.5383 278.016 62.6915 278.022 62.8498C278.025 62.8863 278.025 62.9232 278.022 62.9598C278.002 62.9953 277.978 63.0288 277.952 63.0597L266.172 71.7598C266.067 71.8304 265.947 71.875 265.822 71.8898C265.638 71.8777 265.462 71.8155 265.312 71.7098L263.882 70.8898C263.716 70.7992 263.572 70.6728 263.461 70.5198C263.369 70.3912 263.317 70.238 263.311 70.0798C263.302 70.0471 263.302 70.0124 263.311 69.9798C263.325 69.9377 263.349 69.8999 263.382 69.8698L275.162 61.1697ZM266.861 61.1697C266.876 61.0234 266.876 60.876 266.861 60.7297V59.4397C266.875 59.2867 266.875 59.1328 266.861 58.9797C266.832 58.6278 266.726 58.2866 266.551 57.9797C266.325 57.5999 265.995 57.2915 265.602 57.0897C265.142 56.8297 264.822 56.7497 264.602 56.8797C264.509 56.9575 264.434 57.0536 264.38 57.1621C264.327 57.2705 264.297 57.3889 264.292 57.5097C264.292 57.5897 264.292 57.7397 264.292 57.9397C264.292 58.1397 264.292 58.3497 264.292 58.5797C264.292 58.8097 264.292 59.0197 264.292 59.2297C264.292 59.4397 264.292 59.5997 264.292 59.6997C264.331 60.0497 264.436 60.389 264.602 60.6997C264.847 61.0801 265.193 61.3848 265.602 61.5797C266.062 61.8497 266.381 61.9197 266.551 61.7997C266.644 61.7284 266.719 61.6377 266.773 61.5341C266.826 61.4304 266.857 61.3163 266.861 61.1997V61.1697ZM275.922 69.3798C276.48 69.6942 276.994 70.0808 277.452 70.5298C277.859 70.9211 278.222 71.3572 278.532 71.8298C278.812 72.2455 279.037 72.6959 279.202 73.1698C279.34 73.5717 279.433 73.9875 279.482 74.4098C279.482 74.8498 279.482 75.2998 279.482 75.7698C279.482 76.2398 279.482 76.6698 279.482 77.0598C279.451 77.3852 279.356 77.7014 279.202 77.9898C279.057 78.2565 278.818 78.4597 278.532 78.5598C278.178 78.6588 277.805 78.6588 277.452 78.5598C276.91 78.4351 276.394 78.2223 275.922 77.9298C275.373 77.6128 274.863 77.2337 274.402 76.7998C273.994 76.4058 273.628 75.9701 273.312 75.4998C273.037 75.0806 272.812 74.6309 272.642 74.1598C272.501 73.7592 272.41 73.3427 272.372 72.9198C272.372 72.4898 272.322 72.0398 272.322 71.5698C272.322 71.0998 272.322 70.6698 272.372 70.2698C272.396 69.9443 272.488 69.6275 272.642 69.3398C272.792 69.0798 273.029 68.8814 273.312 68.7798C273.664 68.6663 274.039 68.6456 274.402 68.7198C274.944 68.8604 275.458 69.0938 275.922 69.4098V69.3798ZM277.192 75.4998C277.2 75.3532 277.2 75.2063 277.192 75.0598V73.7998C277.192 73.5998 277.192 73.4398 277.192 73.3398C277.157 72.9889 277.052 72.6486 276.882 72.3398C276.637 71.9564 276.291 71.6483 275.882 71.4498C275.422 71.1898 275.102 71.1098 274.932 71.2398C274.835 71.3143 274.757 71.4098 274.704 71.5189C274.65 71.6281 274.622 71.7481 274.622 71.8698C274.611 72.0129 274.611 72.1566 274.622 72.2998C274.622 72.4998 274.622 72.7098 274.622 72.9398C274.622 73.1698 274.622 73.3798 274.622 73.5898C274.612 73.7463 274.612 73.9032 274.622 74.0598C274.651 74.4117 274.757 74.7529 274.932 75.0598C275.158 75.4396 275.488 75.748 275.882 75.9498C276.342 76.2098 276.675 76.2798 276.882 76.1598C276.976 76.0838 277.053 75.988 277.106 75.8792C277.16 75.7703 277.189 75.651 277.192 75.5298V75.4998Z" fill="#FAFAFA"/>
<path d="M100.242 161.53C100.278 160.88 100.465 160.247 100.79 159.682C101.115 159.118 101.568 158.637 102.112 158.28L129.192 142.65C130.192 142.05 131.062 142.54 131.062 143.74V169.91C131.028 170.56 130.841 171.194 130.516 171.759C130.191 172.323 129.738 172.803 129.192 173.16L117.852 179.7L114.272 194.17C114.284 194.435 114.19 194.694 114.011 194.89C113.832 195.086 113.582 195.203 113.317 195.215C113.052 195.227 112.793 195.133 112.597 194.954C112.401 194.775 112.284 194.525 112.272 194.26L109.002 184.79L102.072 188.79C101.072 189.39 100.202 188.9 100.202 187.71L100.242 161.53Z" fill="#0057FF"/>
<g opacity="0.5">
<path opacity="0.5" d="M100.242 161.53C100.278 160.88 100.465 160.247 100.79 159.682C101.115 159.118 101.568 158.637 102.112 158.28L129.192 142.65C130.192 142.05 131.062 142.54 131.062 143.74V169.91C131.028 170.56 130.841 171.194 130.516 171.759C130.191 172.323 129.738 172.803 129.192 173.16L117.852 179.7L114.272 194.17C114.284 194.435 114.19 194.694 114.011 194.89C113.832 195.086 113.582 195.203 113.317 195.215C113.052 195.227 112.793 195.133 112.597 194.954C112.401 194.775 112.284 194.525 112.272 194.26L109.002 184.79L102.072 188.79C101.072 189.39 100.202 188.9 100.202 187.71L100.242 161.53Z" fill="white"/>
</g>
<path d="M109.702 159.58C110.244 159.243 110.839 159.003 111.462 158.87C111.881 158.785 112.314 158.806 112.722 158.93C113.051 159.048 113.325 159.283 113.492 159.59C113.671 159.92 113.777 160.285 113.802 160.66C113.842 161.12 113.862 161.62 113.862 162.16C113.862 162.7 113.842 163.22 113.802 163.72C113.758 164.211 113.654 164.695 113.492 165.16C113.301 165.703 113.042 166.221 112.722 166.7C112.36 167.246 111.938 167.749 111.462 168.2C110.931 168.706 110.34 169.146 109.702 169.51C109.154 169.845 108.557 170.092 107.932 170.24C107.518 170.332 107.088 170.315 106.682 170.19C106.354 170.071 106.08 169.837 105.912 169.53C105.73 169.2 105.621 168.835 105.592 168.46C105.592 168 105.592 167.46 105.592 166.96C105.592 166.46 105.592 165.9 105.592 165.4C105.64 164.909 105.748 164.425 105.912 163.96C106.1 163.415 106.359 162.897 106.682 162.42C107.046 161.875 107.465 161.369 107.932 160.91C108.466 160.396 109.06 159.95 109.702 159.58V159.58ZM120.702 153.87C120.816 153.651 120.95 153.444 121.102 153.25C121.271 153.058 121.47 152.896 121.692 152.77L123.352 151.77C123.49 151.668 123.663 151.625 123.832 151.65C123.952 151.65 124.012 151.78 124.012 151.94C124.019 151.993 124.019 152.047 124.012 152.1L123.932 152.31L110.312 178.09C110.199 178.306 110.065 178.51 109.912 178.7C109.746 178.894 109.546 179.057 109.322 179.18L107.672 180.18C107.53 180.281 107.355 180.324 107.182 180.3C107.062 180.3 107.002 180.17 107.002 180.01C106.995 179.957 106.995 179.903 107.002 179.85L107.082 179.64L120.702 153.87ZM111.162 165C111.176 164.82 111.176 164.64 111.162 164.46V162.97C111.177 162.8 111.177 162.63 111.162 162.46C111.157 162.32 111.122 162.182 111.06 162.057C110.998 161.931 110.91 161.82 110.802 161.73C110.602 161.59 110.232 161.73 109.702 161.98C109.293 162.186 108.944 162.494 108.688 162.874C108.433 163.254 108.279 163.693 108.242 164.15C108.228 164.333 108.228 164.517 108.242 164.7C108.242 164.94 108.242 165.19 108.242 165.45C108.242 165.71 108.242 165.95 108.242 166.19C108.227 166.356 108.227 166.524 108.242 166.69C108.242 166.831 108.275 166.97 108.337 167.097C108.4 167.224 108.49 167.334 108.602 167.42C108.802 167.56 109.162 167.47 109.702 167.17C110.154 166.944 110.534 166.598 110.802 166.17C111.001 165.809 111.124 165.411 111.162 165V165ZM121.632 162.4C122.178 162.063 122.776 161.82 123.402 161.68C123.817 161.595 124.247 161.616 124.652 161.74C124.981 161.859 125.255 162.093 125.422 162.4C125.604 162.73 125.713 163.095 125.742 163.47C125.742 163.93 125.792 164.47 125.792 164.97C125.792 165.47 125.792 166.03 125.742 166.53C125.695 167.021 125.588 167.505 125.422 167.97C125.233 168.517 124.974 169.038 124.652 169.52C123.886 170.676 122.859 171.636 121.652 172.32C121.109 172.657 120.515 172.904 119.892 173.05C119.475 173.147 119.04 173.13 118.632 173C118.302 172.885 118.027 172.649 117.862 172.34C117.682 172.01 117.576 171.645 117.552 171.27C117.552 170.82 117.492 170.27 117.492 169.78C117.492 169.29 117.492 168.71 117.552 168.21C117.595 167.722 117.7 167.242 117.862 166.78C118.054 166.233 118.312 165.713 118.632 165.23C118.996 164.683 119.419 164.176 119.892 163.72C120.41 163.195 120.995 162.741 121.632 162.37V162.4ZM123.092 167.78C123.106 167.6 123.106 167.42 123.092 167.24V165.76C123.107 165.59 123.107 165.42 123.092 165.25C123.093 165.109 123.061 164.969 122.998 164.842C122.936 164.716 122.845 164.605 122.732 164.52C122.532 164.38 122.172 164.46 121.632 164.77C121.183 164.999 120.803 165.344 120.532 165.77C120.339 166.126 120.217 166.517 120.172 166.92C120.163 167.1 120.163 167.28 120.172 167.46C120.172 167.71 120.172 167.96 120.172 168.21C120.172 168.46 120.172 168.72 120.172 168.95C120.162 169.116 120.162 169.283 120.172 169.45C120.178 169.59 120.213 169.728 120.275 169.853C120.337 169.979 120.424 170.09 120.532 170.18C120.732 170.32 121.102 170.24 121.632 169.93C122.084 169.704 122.464 169.358 122.732 168.93C122.939 168.568 123.062 168.165 123.092 167.75V167.78Z" fill="#FAFAFA"/>
</svg>
