<svg width="24" height="16" viewBox="0 0 24 16" fill="none" xmlns="http://www.w3.org/2000/svg">
<path d="M6.2963 2.60418C6.2963 3.14982 5.85185 3.59625 5.30864 3.59625H0.987654C0.444444 3.59625 0 3.14982 0 2.60418C0 2.05854 0.444444 1.61211 0.987654 1.61211H5.33333C5.87654 1.63691 6.2963 2.05854 6.2963 2.60418ZM6.2963 6.54765C6.2963 6.00201 5.85185 5.55558 5.30864 5.55558H0.987654C0.444444 5.55558 0 6.00201 0 6.54765C0 7.09329 0.444444 7.53972 0.987654 7.53972H5.33333C5.87654 7.53972 6.2963 7.09329 6.2963 6.54765ZM5.33333 9.49906H0.987654C0.444444 9.49906 0 9.94549 0 10.4911C0 11.0368 0.444444 11.4832 0.987654 11.4832H5.33333C5.87654 11.4832 6.32099 11.0368 6.32099 10.4911C6.2963 9.94549 5.87654 9.49906 5.33333 9.49906ZM24 2.15775V10.9376C24 12.128 23.037 13.0953 21.8519 13.0953H15.9506C15.9506 13.0953 15.9506 13.1201 15.9259 13.1201L13.1852 15.8731C12.9136 16.1459 12.4444 15.9475 12.4444 15.5755V13.0953H10.2716C9.08642 13.0953 8.12346 12.128 8.12346 10.9376V2.15775C8.12346 0.967267 9.08642 0 10.2716 0H21.8765C23.037 0 24 0.967267 24 2.15775ZM15.2593 3.22422L15.3827 7.88695C15.3827 8.01095 15.4815 8.08536 15.5802 8.08536H16.5185C16.642 8.08536 16.716 7.98615 16.716 7.88695L16.8395 3.22422C16.8395 3.10021 16.7407 2.97621 16.5926 2.97621H15.4568C15.358 3.00101 15.2593 3.10021 15.2593 3.22422ZM16.8642 9.15183C16.8642 8.95342 16.716 8.80461 16.5185 8.80461H15.6049C15.4074 8.80461 15.2593 8.95342 15.2593 9.15183V9.74707C15.2593 9.94549 15.4074 10.0943 15.6049 10.0943H16.5185C16.716 10.0943 16.8642 9.94549 16.8642 9.74707V9.15183Z" fill="white"/>
</svg>
