<svg width="21" height="18" viewBox="0 0 21 18" fill="none" xmlns="http://www.w3.org/2000/svg">
<path d="M19.884 1.0481H1.11602C0.794016 1.0481 0.541016 1.29873 0.541016 1.61772V16.6101C0.541016 16.9291 0.794016 17.1797 1.11602 17.1797H19.907C20.229 17.1797 20.482 16.9291 20.482 16.6101V1.61772C20.459 1.29873 20.206 1.0481 19.884 1.0481ZM17.538 2.0962C17.998 1.86835 18.573 2.07341 18.803 2.52911C19.033 2.9848 18.826 3.55442 18.366 3.78227C17.906 4.01012 17.331 3.80506 17.101 3.34936C16.894 2.87088 17.078 2.30126 17.538 2.0962ZM14.456 2.0962C14.916 1.86835 15.491 2.07341 15.721 2.52911C15.951 2.9848 15.744 3.55442 15.284 3.78227C14.824 4.01012 14.249 3.80506 14.019 3.34936C13.789 2.87088 13.973 2.30126 14.456 2.0962ZM11.351 2.0962C11.811 1.86835 12.386 2.07341 12.616 2.52911C12.846 2.9848 12.639 3.55442 12.179 3.78227C11.719 4.01012 11.144 3.80506 10.914 3.34936C10.684 2.87088 10.891 2.30126 11.351 2.0962ZM19.309 16.0405H1.69102V5.03544H19.332V16.0405H19.309Z" fill="white"/>
<path d="M7.41833 9.7063H4.81934V15.3569H7.41833V9.7063Z" fill="white"/>
<path d="M11.7885 7.90625H9.18945V15.3341H11.7885V7.90625Z" fill="white"/>
<path d="M16.181 5.81006H13.582V15.3341H16.181V5.81006Z" fill="white"/>
</svg>
