<svg width="18" height="20" viewBox="0 0 18 20" fill="none" xmlns="http://www.w3.org/2000/svg">
<path d="M2.4043 1.17188V1.76011V4.70129H6.0043V1.17188H2.4043ZM7.25586 1.17188V1.76011V4.70129H10.8559V1.17188H7.25586ZM12.0559 1.17188V1.76011V4.70129H15.6559V1.17188H12.0559ZM2.45586 5.87776V6.46599V9.40717H6.05586V5.87776H2.45586ZM7.25586 5.87776V6.46599V9.40717H10.8559V5.87776H7.25586ZM12.0559 5.87776V6.46599V9.40717H15.6559V5.87776H12.0559ZM2.45586 10.5836V11.1719V14.1131H6.05586V10.5836H2.45586ZM7.25586 10.5836V11.1719V14.1131H10.8559V10.5836H7.25586ZM12.0559 10.5836V11.1719V14.1131H15.6559V10.5836H12.0559ZM7.25586 15.2895V15.8778V18.8189H10.8559V15.2895H7.25586Z" fill="#0057FF"/>
</svg>
