<svg width="10" height="6" viewBox="0 0 10 6" fill="none" xmlns="http://www.w3.org/2000/svg">
<path d="M4.91027 5.9955C4.71362 5.9743 4.52768 5.88576 4.37795 5.74204L0.358517 1.90012C0.258414 1.81064 0.175463 1.69965 0.114593 1.57372C0.0537238 1.44778 0.0161788 1.30949 0.00418912 1.16705C-0.00780052 1.02462 0.00601018 0.880954 0.0448005 0.74459C0.0835908 0.608226 0.146569 0.481955 0.229992 0.373272C0.313415 0.264589 0.41558 0.175708 0.530414 0.11193C0.645249 0.048152 0.77041 0.0107713 0.898457 0.00200558C1.0265 -0.0067606 1.15483 0.0132666 1.27579 0.0609021C1.39676 0.108538 1.50791 0.182817 1.60263 0.279305L5 3.5276L8.39737 0.279305C8.49209 0.182817 8.60324 0.108538 8.72421 0.0609021C8.84517 0.0132666 8.97349 -0.0067606 9.10154 0.00200558C9.22959 0.0107713 9.35475 0.048152 9.46959 0.11193C9.58442 0.175708 9.68658 0.264589 9.77001 0.373272C9.85343 0.481955 9.91641 0.608226 9.9552 0.74459C9.99399 0.880954 10.0078 1.02462 9.99581 1.16705C9.98382 1.30949 9.94627 1.44778 9.88541 1.57372C9.82454 1.69965 9.74158 1.81064 9.64148 1.90012L5.62205 5.74204C5.52472 5.83535 5.41154 5.90587 5.28926 5.94942C5.16698 5.99296 5.03809 6.00863 4.91027 5.9955Z" fill="#2C3952"/>
<path d="M4.91027 5.9955C4.71362 5.9743 4.52768 5.88576 4.37795 5.74204L0.358517 1.90012C0.258414 1.81064 0.175463 1.69965 0.114593 1.57372C0.0537238 1.44778 0.0161788 1.30949 0.00418912 1.16705C-0.00780052 1.02462 0.00601018 0.880954 0.0448005 0.74459C0.0835908 0.608226 0.146569 0.481955 0.229992 0.373272C0.313415 0.264589 0.41558 0.175708 0.530414 0.11193C0.645249 0.048152 0.77041 0.0107713 0.898457 0.00200558C1.0265 -0.0067606 1.15483 0.0132666 1.27579 0.0609021C1.39676 0.108538 1.50791 0.182817 1.60263 0.279305L5 3.5276L8.39737 0.279305C8.49209 0.182817 8.60324 0.108538 8.72421 0.0609021C8.84517 0.0132666 8.97349 -0.0067606 9.10154 0.00200558C9.22959 0.0107713 9.35475 0.048152 9.46959 0.11193C9.58442 0.175708 9.68658 0.264589 9.77001 0.373272C9.85343 0.481955 9.91641 0.608226 9.9552 0.74459C9.99399 0.880954 10.0078 1.02462 9.99581 1.16705C9.98382 1.30949 9.94627 1.44778 9.88541 1.57372C9.82454 1.69965 9.74158 1.81064 9.64148 1.90012L5.62205 5.74204C5.52472 5.83535 5.41154 5.90587 5.28926 5.94942C5.16698 5.99296 5.03809 6.00863 4.91027 5.9955Z" fill="#0057FF"/>
</svg>
