<svg width="521" height="521" viewBox="0 0 521 521" fill="none" xmlns="http://www.w3.org/2000/svg">
<path d="M102.022 174.389C59.2164 269.784 260.614 233.408 277.745 259.687C303.742 299.523 228.875 339.744 256.311 382.466C294.865 442.569 358.177 385.54 380.767 363.335C403.587 340.911 450.529 282.611 420.655 231.741C375.026 154.039 322.582 208.421 275.473 177.494C253.258 162.906 276.776 128.979 242.473 105.325C182.631 64.0516 117.318 140.305 102.022 174.389Z" fill="#407BFF"/>
<path d="M102.022 174.389C59.2164 269.784 260.614 233.408 277.745 259.687C303.742 299.523 228.875 339.744 256.311 382.466C294.865 442.569 358.177 385.54 380.767 363.335C403.587 340.911 450.529 282.611 420.655 231.741C375.026 154.039 322.582 208.421 275.473 177.494C253.258 162.906 276.776 128.979 242.473 105.325C182.631 64.0516 117.318 140.305 102.022 174.389Z" fill="#D1DFFF"/>
<path d="M102.022 174.389C59.2164 269.784 260.614 233.408 277.745 259.687C303.742 299.523 228.875 339.744 256.311 382.466C294.865 442.569 358.177 385.54 380.767 363.335C403.587 340.911 450.529 282.611 420.655 231.741C375.026 154.039 322.582 208.421 275.473 177.494C253.258 162.906 276.776 128.979 242.473 105.325C182.631 64.0516 117.318 140.305 102.022 174.389Z" fill="white"/>
<path d="M260.5 445.518C372.08 445.518 462.534 440.237 462.534 433.722C462.534 427.208 372.08 421.927 260.5 421.927C148.92 421.927 58.4668 427.208 58.4668 433.722C58.4668 440.237 148.92 445.518 260.5 445.518Z" fill="#F5F5F5"/>
<path d="M199.375 411.027H97.0605V430.284H199.375V411.027Z" fill="#407BFF"/>
<path opacity="0.2" d="M199.375 411.027H97.0605V413.216H199.375V411.027Z" fill="black"/>
<path opacity="0.2" d="M108.585 411.027H104.553V430.284H108.585V411.027Z" fill="black"/>
<path opacity="0.2" d="M117.839 411.027H113.807V430.284H117.839V411.027Z" fill="black"/>
<path opacity="0.2" d="M127.103 411.027H123.07V430.284H127.103V411.027Z" fill="black"/>
<path opacity="0.2" d="M136.355 411.027H132.322V430.284H136.355V411.027Z" fill="black"/>
<path opacity="0.2" d="M145.609 411.027H141.576V430.284H145.609V411.027Z" fill="black"/>
<path opacity="0.2" d="M154.872 411.027H150.84V430.284H154.872V411.027Z" fill="black"/>
<path opacity="0.2" d="M164.124 411.027H160.092V430.284H164.124V411.027Z" fill="black"/>
<path opacity="0.2" d="M173.378 411.027H169.346V430.284H173.378V411.027Z" fill="black"/>
<path opacity="0.2" d="M182.642 411.027H178.609V430.284H182.642V411.027Z" fill="black"/>
<path opacity="0.2" d="M191.894 411.027H187.861V430.284H191.894V411.027Z" fill="black"/>
<path d="M195.218 391.771H92.9043V411.027H195.218V391.771Z" fill="#407BFF"/>
<path opacity="0.2" d="M195.218 391.771H92.9043V393.959H195.218V391.771Z" fill="black"/>
<path opacity="0.2" d="M104.417 391.771H100.385V411.027H104.417V391.771Z" fill="black"/>
<path opacity="0.2" d="M113.681 391.771H109.648V411.027H113.681V391.771Z" fill="black"/>
<path opacity="0.2" d="M122.935 391.771H118.902V411.027H122.935V391.771Z" fill="black"/>
<path opacity="0.2" d="M132.187 391.771H128.154V411.027H132.187V391.771Z" fill="black"/>
<path opacity="0.2" d="M141.45 391.771H137.418V411.027H141.45V391.771Z" fill="black"/>
<path opacity="0.2" d="M150.704 391.771H146.672V411.027H150.704V391.771Z" fill="black"/>
<path opacity="0.2" d="M159.956 391.771H155.924V411.027H159.956V391.771Z" fill="black"/>
<path opacity="0.2" d="M169.22 391.771H165.188V411.027H169.22V391.771Z" fill="black"/>
<path opacity="0.2" d="M178.474 391.771H174.441V411.027H178.474V391.771Z" fill="black"/>
<path opacity="0.2" d="M187.726 391.771H183.693V411.027H187.726V391.771Z" fill="black"/>
<path d="M192.269 372.515H89.9551V391.771H192.269V372.515Z" fill="#407BFF"/>
<path opacity="0.2" d="M192.269 372.515H89.9551V374.703H192.269V372.515Z" fill="black"/>
<path opacity="0.2" d="M101.48 372.515H97.4473V391.771H101.48V372.515Z" fill="black"/>
<path opacity="0.2" d="M110.732 372.515H106.699V391.771H110.732V372.515Z" fill="black"/>
<path opacity="0.2" d="M119.995 372.515H115.963V391.771H119.995V372.515Z" fill="black"/>
<path opacity="0.2" d="M129.249 372.515H125.217V391.771H129.249V372.515Z" fill="black"/>
<path opacity="0.2" d="M138.501 372.515H134.469V391.771H138.501V372.515Z" fill="black"/>
<path opacity="0.2" d="M147.765 372.515H143.732V391.771H147.765V372.515Z" fill="black"/>
<path opacity="0.2" d="M157.019 372.515H152.986V391.771H157.019V372.515Z" fill="black"/>
<path opacity="0.2" d="M166.271 372.515H162.238V391.771H166.271V372.515Z" fill="black"/>
<path opacity="0.2" d="M175.535 372.515H171.502V391.771H175.535V372.515Z" fill="black"/>
<path opacity="0.2" d="M184.788 372.515H180.756V391.771H184.788V372.515Z" fill="black"/>
<path d="M196.906 353.269H94.5918V372.525H196.906V353.269Z" fill="#407BFF"/>
<path opacity="0.2" d="M196.906 353.269H94.5918V355.458H196.906V353.269Z" fill="black"/>
<path opacity="0.2" d="M106.107 353.269H102.074V372.525H106.107V353.269Z" fill="black"/>
<path opacity="0.2" d="M115.368 353.269H111.336V372.525H115.368V353.269Z" fill="black"/>
<path opacity="0.2" d="M124.622 353.269H120.59V372.525H124.622V353.269Z" fill="black"/>
<path opacity="0.2" d="M133.876 353.269H129.844V372.525H133.876V353.269Z" fill="black"/>
<path opacity="0.2" d="M143.138 353.269H139.105V372.525H143.138V353.269Z" fill="black"/>
<path opacity="0.2" d="M152.392 353.269H148.359V372.525H152.392V353.269Z" fill="black"/>
<path opacity="0.2" d="M161.644 353.269H157.611V372.525H161.644V353.269Z" fill="black"/>
<path opacity="0.2" d="M170.908 353.269H166.875V372.525H170.908V353.269Z" fill="black"/>
<path opacity="0.2" d="M180.161 353.269H176.129V372.525H180.161V353.269Z" fill="black"/>
<path opacity="0.2" d="M189.413 353.269H185.381V372.525H189.413V353.269Z" fill="black"/>
<path d="M90.1001 353.259H192.414V334.003H90.1001V353.259Z" fill="#407BFF"/>
<path opacity="0.2" d="M90.1001 336.191H192.414V334.003H90.1001V336.191Z" fill="black"/>
<path opacity="0.2" d="M180.891 353.259H184.924V334.003H180.891V353.259Z" fill="black"/>
<path opacity="0.2" d="M171.628 353.259H175.66V334.003H171.628V353.259Z" fill="black"/>
<path opacity="0.2" d="M162.374 353.259H166.406V334.003H162.374V353.259Z" fill="black"/>
<path opacity="0.2" d="M153.122 353.259H157.154V334.003H153.122V353.259Z" fill="black"/>
<path opacity="0.2" d="M143.858 353.259H147.891V334.003H143.858V353.259Z" fill="black"/>
<path opacity="0.2" d="M134.604 353.259H138.637V334.003H134.604V353.259Z" fill="black"/>
<path opacity="0.2" d="M125.352 353.259H129.385V334.003H125.352V353.259Z" fill="black"/>
<path opacity="0.2" d="M116.089 353.259H120.121V334.003H116.089V353.259Z" fill="black"/>
<path opacity="0.2" d="M106.835 353.259H110.867V334.003H106.835V353.259Z" fill="black"/>
<path opacity="0.2" d="M97.5827 353.259H101.615V334.003H97.5827V353.259Z" fill="black"/>
<path d="M94.2583 334.013H196.572V314.757H94.2583V334.013Z" fill="#407BFF"/>
<path opacity="0.2" d="M94.2583 316.945H196.572V314.757H94.2583V316.945Z" fill="black"/>
<path opacity="0.2" d="M185.048 334.013H189.08V314.757H185.048V334.013Z" fill="black"/>
<path opacity="0.2" d="M175.805 334.013H179.838V314.757H175.805V334.013Z" fill="black"/>
<path opacity="0.2" d="M166.542 334.013H170.574V314.757H166.542V334.013Z" fill="black"/>
<path opacity="0.2" d="M157.278 334.013H161.311V314.757H157.278V334.013Z" fill="black"/>
<path opacity="0.2" d="M148.036 334.013H152.068V314.757H148.036V334.013Z" fill="black"/>
<path opacity="0.2" d="M138.772 334.013H142.805V314.757H138.772V334.013Z" fill="black"/>
<path opacity="0.2" d="M129.508 334.013H133.541V314.757H129.508V334.013Z" fill="black"/>
<path opacity="0.2" d="M120.266 334.013H124.299V314.757H120.266V334.013Z" fill="black"/>
<path opacity="0.2" d="M111.003 334.013H115.035V314.757H111.003V334.013Z" fill="black"/>
<path opacity="0.2" d="M101.741 334.013H105.773V314.757H101.741V334.013Z" fill="black"/>
<path d="M97.2075 314.757H199.521V295.501H97.2075V314.757Z" fill="#407BFF"/>
<path opacity="0.2" d="M97.2075 297.689H199.521V295.501H97.2075V297.689Z" fill="black"/>
<path opacity="0.2" d="M187.997 314.757H192.029V295.501H187.997V314.757Z" fill="black"/>
<path opacity="0.2" d="M178.733 314.757H182.766V295.501H178.733V314.757Z" fill="black"/>
<path opacity="0.2" d="M169.481 314.757H173.514V295.501H169.481V314.757Z" fill="black"/>
<path opacity="0.2" d="M160.227 314.757H164.26V295.501H160.227V314.757Z" fill="black"/>
<path opacity="0.2" d="M150.964 314.757H154.996V295.501H150.964V314.757Z" fill="black"/>
<path opacity="0.2" d="M141.712 314.757H145.744V295.501H141.712V314.757Z" fill="black"/>
<path opacity="0.2" d="M132.458 314.757H136.49V295.501H132.458V314.757Z" fill="black"/>
<path opacity="0.2" d="M123.194 314.757H127.227V295.501H123.194V314.757Z" fill="black"/>
<path opacity="0.2" d="M113.942 314.757H117.975V295.501H113.942V314.757Z" fill="black"/>
<path opacity="0.2" d="M104.688 314.757H108.721V295.501H104.688V314.757Z" fill="black"/>
<path d="M92.5708 295.501H194.885V276.245H92.5708V295.501Z" fill="#407BFF"/>
<path opacity="0.2" d="M92.5708 278.433H194.885V276.245H92.5708V278.433Z" fill="black"/>
<path opacity="0.2" d="M183.36 295.501H187.393V276.245H183.36V295.501Z" fill="black"/>
<path opacity="0.2" d="M174.118 295.501H178.15V276.245H174.118V295.501Z" fill="black"/>
<path opacity="0.2" d="M164.854 295.501H168.887V276.245H164.854V295.501Z" fill="black"/>
<path opacity="0.2" d="M155.591 295.501H159.623V276.245H155.591V295.501Z" fill="black"/>
<path opacity="0.2" d="M146.348 295.501H150.381V276.245H146.348V295.501Z" fill="black"/>
<path opacity="0.2" d="M137.085 295.501H141.117V276.245H137.085V295.501Z" fill="black"/>
<path opacity="0.2" d="M127.821 295.501H131.854V276.245H127.821V295.501Z" fill="black"/>
<path opacity="0.2" d="M118.579 295.501H122.611V276.245H118.579V295.501Z" fill="black"/>
<path opacity="0.2" d="M109.315 295.501H113.348V276.245H109.315V295.501Z" fill="black"/>
<path opacity="0.2" d="M100.051 295.501H104.084V276.245H100.051V295.501Z" fill="black"/>
<path d="M417.487 200.064L376.683 207.056C375.898 207.188 375.17 207.55 374.591 208.098C374.013 208.645 373.611 209.351 373.435 210.128C373.26 210.904 373.319 211.716 373.606 212.458C373.893 213.201 374.395 213.841 375.047 214.298L382.57 219.622L336.441 284.831C336.141 285.255 335.76 285.615 335.32 285.892C334.881 286.169 334.391 286.356 333.879 286.443C333.367 286.53 332.843 286.515 332.337 286.4C331.83 286.284 331.352 286.069 330.928 285.768L263.126 237.836C262.267 237.232 261.203 236.992 260.168 237.17C259.133 237.348 258.211 237.928 257.603 238.785L120.924 431.971H170.044L267.189 294.646C267.489 294.222 267.87 293.862 268.31 293.585C268.749 293.308 269.239 293.121 269.751 293.034C270.263 292.947 270.787 292.962 271.293 293.077C271.8 293.193 272.278 293.408 272.702 293.708L340.504 341.64C340.929 341.941 341.409 342.155 341.917 342.27C342.424 342.385 342.949 342.399 343.462 342.311C343.975 342.223 344.466 342.035 344.906 341.757C345.346 341.479 345.727 341.117 346.027 340.692L415.31 242.744L422.843 248.069C423.493 248.516 424.259 248.763 425.048 248.778C425.836 248.794 426.612 248.577 427.278 248.155C427.944 247.733 428.471 247.125 428.795 246.405C429.118 245.686 429.222 244.888 429.095 244.109L422.093 203.305C421.905 202.268 421.316 201.347 420.454 200.74C419.593 200.134 418.527 199.891 417.487 200.064Z" fill="#407BFF"/>
<path opacity="0.2" d="M417.487 200.064L376.683 207.056C375.898 207.188 375.17 207.55 374.591 208.098C374.013 208.645 373.611 209.351 373.435 210.128C373.26 210.904 373.319 211.716 373.606 212.458C373.893 213.201 374.395 213.841 375.047 214.298L382.57 219.622L336.441 284.831C336.141 285.255 335.76 285.615 335.32 285.892C334.881 286.169 334.391 286.356 333.879 286.443C333.367 286.53 332.843 286.515 332.337 286.4C331.83 286.284 331.352 286.069 330.928 285.768L263.126 237.836C262.267 237.232 261.203 236.992 260.168 237.17C259.133 237.348 258.211 237.928 257.603 238.785L120.924 431.971H170.044L267.189 294.646C267.489 294.222 267.87 293.862 268.31 293.585C268.749 293.308 269.239 293.121 269.751 293.034C270.263 292.947 270.787 292.962 271.293 293.077C271.8 293.193 272.278 293.408 272.702 293.708L340.504 341.64C340.929 341.941 341.409 342.155 341.917 342.27C342.424 342.385 342.949 342.399 343.462 342.311C343.975 342.223 344.466 342.035 344.906 341.757C345.346 341.479 345.727 341.117 346.027 340.692L415.31 242.744L422.843 248.069C423.493 248.516 424.259 248.763 425.048 248.778C425.836 248.794 426.612 248.577 427.278 248.155C427.944 247.733 428.471 247.125 428.795 246.405C429.118 245.686 429.222 244.888 429.095 244.109L422.093 203.305C421.905 202.268 421.316 201.347 420.454 200.74C419.593 200.134 418.527 199.891 417.487 200.064Z" fill="black"/>
<path opacity="0.2" d="M166.97 426.293H132.396C132.348 426.291 132.302 426.276 132.262 426.25C132.222 426.225 132.189 426.189 132.167 426.147C132.142 426.106 132.129 426.059 132.129 426.011C132.129 425.963 132.142 425.917 132.167 425.876L258.791 246.86C259.108 246.404 259.513 246.016 259.981 245.717C260.449 245.417 260.971 245.214 261.518 245.117C262.065 245.02 262.626 245.032 263.168 245.152C263.71 245.273 264.223 245.499 264.678 245.818L332.471 293.75C332.869 294.039 333.321 294.246 333.8 294.357C334.28 294.469 334.776 294.485 335.262 294.402C335.747 294.32 336.211 294.141 336.626 293.877C337.041 293.613 337.4 293.269 337.681 292.865L390.52 218.174L382.184 212.245C382.14 212.217 382.105 212.176 382.087 212.127C382.068 212.078 382.065 212.024 382.08 211.974C382.092 211.924 382.118 211.879 382.155 211.844C382.192 211.809 382.238 211.785 382.289 211.776L416.675 205.889C416.707 205.883 416.741 205.884 416.774 205.891C416.806 205.898 416.837 205.912 416.864 205.931C416.892 205.951 416.915 205.975 416.932 206.004C416.95 206.032 416.961 206.064 416.966 206.097L422.854 240.483C422.861 240.534 422.855 240.587 422.835 240.635C422.814 240.683 422.781 240.724 422.739 240.754C422.695 240.782 422.645 240.797 422.593 240.797C422.541 240.797 422.491 240.782 422.447 240.754L414.111 234.825L344.975 332.565C344.657 333.019 344.253 333.406 343.786 333.705C343.319 334.003 342.798 334.206 342.252 334.303C341.706 334.4 341.147 334.388 340.606 334.269C340.064 334.149 339.552 333.924 339.098 333.607L271.295 285.675C270.898 285.394 270.45 285.194 269.976 285.087C269.502 284.979 269.011 284.966 268.532 285.049C268.053 285.131 267.595 285.307 267.184 285.566C266.773 285.826 266.417 286.163 266.137 286.56L167.189 426.178C167.164 426.213 167.131 426.242 167.093 426.262C167.055 426.282 167.013 426.292 166.97 426.293ZM132.896 425.772H166.834L265.553 286.217C266.196 285.298 267.177 284.673 268.281 284.477C269.385 284.282 270.521 284.533 271.441 285.175L339.244 333.107C339.64 333.387 340.088 333.587 340.562 333.694C341.036 333.802 341.527 333.815 342.006 333.733C342.485 333.65 342.943 333.474 343.354 333.215C343.765 332.956 344.121 332.618 344.401 332.221L413.684 234.273C413.702 234.244 413.726 234.219 413.755 234.201C413.784 234.183 413.817 234.172 413.851 234.169C413.882 234.154 413.915 234.146 413.95 234.146C413.984 234.146 414.018 234.154 414.049 234.169L422.124 239.879L416.383 206.524L382.924 212.255L391 217.966C391.053 218.007 391.09 218.066 391.104 218.132C391.13 218.196 391.13 218.267 391.104 218.33L338.118 293.24C337.8 293.693 337.395 294.079 336.926 294.374C336.457 294.669 335.935 294.868 335.388 294.959C334.294 295.141 333.171 294.886 332.262 294.25L264.47 246.318C264.071 246.029 263.619 245.823 263.14 245.711C262.66 245.599 262.164 245.584 261.678 245.666C261.193 245.749 260.729 245.927 260.314 246.191C259.899 246.455 259.54 246.8 259.26 247.204L132.896 425.772Z" fill="white"/>
<path d="M362.667 366.565H358.385V430.284H362.667V366.565Z" fill="#263238"/>
<path d="M400.138 331.846H395.855V430.283H400.138V331.846Z" fill="#263238"/>
<path d="M438.296 355.457H434.014V430.283H438.296V355.457Z" fill="#263238"/>
<path d="M358.396 366.565H328.365V430.284H358.396V366.565Z" fill="#407BFF"/>
<path opacity="0.2" d="M328.365 366.565V404.348L343.37 366.565H328.365Z" fill="white"/>
<path d="M395.855 331.846H365.824V430.283H395.855V331.846Z" fill="#407BFF"/>
<path opacity="0.2" d="M365.824 331.846V369.629L380.839 331.846H365.824Z" fill="white"/>
<path d="M434.025 355.457H403.994V430.283H434.025V355.457Z" fill="#407BFF"/>
<path opacity="0.2" d="M403.994 355.457V389.083L419.009 355.457H403.994Z" fill="white"/>
<path d="M258.5 425.073L250.445 423.563L251.81 404.504L259.865 406.026L258.5 425.073Z" fill="#E3A392"/>
<path d="M312.705 424.855H304.505L302.473 405.88H310.663L312.705 424.855Z" fill="#E3A392"/>
<path d="M303.836 423.906H313.819C313.982 423.907 314.139 423.963 314.266 424.065C314.393 424.168 314.481 424.31 314.517 424.469L316.142 431.763C316.18 431.94 316.177 432.124 316.134 432.3C316.091 432.476 316.009 432.64 315.894 432.78C315.779 432.92 315.634 433.033 315.469 433.109C315.305 433.186 315.125 433.224 314.944 433.222C311.724 433.17 309.38 432.972 305.337 432.972C302.846 432.972 295.334 433.232 291.895 433.232C288.456 433.232 288.008 429.835 289.415 429.523C295.73 428.147 300.481 426.24 302.503 424.427C302.867 424.093 303.342 423.907 303.836 423.906Z" fill="#263238"/>
<path d="M250.611 421.791L259.437 423.312C259.596 423.34 259.742 423.421 259.85 423.542C259.958 423.663 260.021 423.817 260.031 423.979L260.385 431.43C260.394 431.609 260.362 431.789 260.292 431.955C260.222 432.121 260.116 432.269 259.981 432.389C259.845 432.508 259.685 432.595 259.512 432.644C259.338 432.692 259.156 432.701 258.978 432.669C255.852 432.065 251.236 431.086 247.245 430.398C242.567 429.596 240.285 429.012 234.804 428.064C231.49 427.491 232.209 423.896 233.658 423.802C240.212 423.51 242.525 424.511 248.558 422.083C249.202 421.796 249.913 421.695 250.611 421.791Z" fill="#263238"/>
<path d="M278.672 174.108C278.391 174.941 278.172 175.546 277.912 176.192C277.651 176.838 277.391 177.525 277.12 178.182C276.578 179.505 276.005 180.797 275.4 182.089C274.193 184.682 272.84 187.205 271.347 189.644C268.292 194.862 264.313 199.481 259.604 203.273C258.292 204.273 256.898 205.159 255.436 205.92C255.06 206.128 254.675 206.306 254.279 206.483C253.883 206.66 253.529 206.827 253.06 207.004C252.136 207.344 251.184 207.602 250.215 207.775C248.642 208.04 247.049 208.176 245.453 208.181C243.953 208.181 242.515 208.181 241.098 208.046C235.57 207.605 230.1 206.613 224.77 205.086L225.593 198.991C230.803 198.793 236.086 198.626 241.046 198.188C242.286 198.074 243.505 197.928 244.661 197.751C245.72 197.607 246.766 197.377 247.787 197.063C248.121 196.968 248.442 196.835 248.746 196.667C249.09 196.459 249.559 196.261 249.944 195.99C250.794 195.454 251.598 194.851 252.351 194.187C254.013 192.713 255.512 191.064 256.821 189.269C258.248 187.365 259.55 185.371 260.719 183.298C261.938 181.214 263.032 178.995 264.105 176.765C264.626 175.65 265.147 174.514 265.606 173.378L266.304 171.68L266.939 170.075L278.672 174.108Z" fill="#E3A392"/>
<path d="M274.723 164.5C289.675 164.5 273.243 196.802 273.243 196.802L254.164 189.081C254.164 189.081 259.374 177.848 262.802 171.419C263.913 169.241 265.628 167.43 267.742 166.202C269.857 164.975 272.281 164.384 274.723 164.5Z" fill="#407BFF"/>
<g opacity="0.3">
<path opacity="0.3" d="M274.723 164.5C289.675 164.5 273.243 196.802 273.243 196.802L254.164 189.081C254.164 189.081 259.374 177.848 262.802 171.419C263.913 169.241 265.628 167.43 267.742 166.202C269.857 164.975 272.281 164.384 274.723 164.5Z" fill="white"/>
</g>
<path opacity="0.2" d="M271.066 174.941C265.596 178.786 261.793 185.924 260.709 191.717L271.608 196.135C273.588 193.176 275.516 189.685 277.641 186.622C278.225 185.028 278.798 183.35 279.298 181.652L271.066 174.941Z" fill="black"/>
<path d="M230.282 199.772L223.728 196.073L218.705 205.451C221.606 205.942 224.575 205.868 227.447 205.232L230.282 199.772Z" fill="#E3A392"/>
<path d="M217.456 196.073L213.809 204.347L218.664 205.482L223.687 196.073H217.456Z" fill="#E3A392"/>
<path opacity="0.2" d="M251.809 404.515L251.111 414.33L259.166 415.841L259.864 406.026L251.809 404.515Z" fill="black"/>
<path opacity="0.2" d="M310.662 405.89H302.461L303.524 415.675H311.714L310.662 405.89Z" fill="black"/>
<path d="M315.497 168.074C313.094 176.918 311.352 185.929 310.287 195.031C309.505 201.377 309.047 207.431 308.755 212.933C308.067 225.812 308.359 235.627 307.973 238.983C301.565 238.545 277.422 236.899 264.209 235.94C258.26 189.331 269.628 165.324 269.628 165.324C273.071 164.676 276.551 164.241 280.048 164.021C280.788 164.021 281.548 163.948 282.309 163.938C288.525 164.011 294.732 164.442 300.898 165.23C302.065 165.365 303.253 165.542 304.399 165.73C310.349 166.647 315.497 168.074 315.497 168.074Z" fill="#407BFF"/>
<g opacity="0.3">
<path opacity="0.3" d="M315.497 168.074C313.094 176.918 311.352 185.929 310.287 195.031C309.505 201.377 309.047 207.431 308.755 212.933C308.067 225.812 308.359 235.627 307.973 238.983C301.565 238.545 277.422 236.899 264.209 235.94C258.26 189.331 269.628 165.324 269.628 165.324C273.071 164.676 276.551 164.241 280.048 164.021C280.788 164.021 281.548 163.948 282.309 163.938C288.525 164.011 294.732 164.442 300.898 165.23C302.065 165.365 303.253 165.542 304.399 165.73C310.349 166.647 315.497 168.074 315.497 168.074Z" fill="white"/>
</g>
<path opacity="0.2" d="M304.462 179.87C304.378 186.577 306.258 193.162 309.87 198.813C309.995 197.563 310.141 196.302 310.297 195.031C310.88 190.259 311.631 185.32 312.62 180.328L304.462 179.87Z" fill="black"/>
<path d="M300.607 144.14C299.023 150.048 297.085 160.916 300.992 165.198C299.016 166.991 296.678 168.338 294.136 169.149C291.594 169.96 288.908 170.215 286.258 169.898C281.121 169.429 281.121 165.813 282.403 163.906C289.186 162.781 289.353 157.821 288.52 153.09L300.607 144.14Z" fill="#E3A392"/>
<path d="M282.496 171.847C282.617 172.766 282.833 173.671 283.142 174.545C283.231 174.824 283.406 175.067 283.642 175.239C283.878 175.412 284.163 175.504 284.455 175.504C285.311 175.491 286.166 175.565 287.008 175.723C287.185 175.764 287.369 175.769 287.548 175.737C287.728 175.705 287.898 175.636 288.05 175.535C289.092 174.879 290.426 173.91 290.082 172.701C289.675 171.284 287.237 170.002 287.237 170.002C287.237 170.002 283.048 171.034 282.496 171.847Z" fill="#263238"/>
<path d="M284.695 174.545C283.017 178.213 279.141 201.7 278.662 205.253C278.183 208.806 279.819 214.537 282.09 219.091C284.701 215.51 286.188 211.234 286.362 206.806C286.664 201.95 286.956 175.129 286.956 175.129L284.695 174.545Z" fill="#263238"/>
<path d="M287.207 170.002C288.758 171.296 290.04 172.882 290.979 174.67C293.615 174.462 305.254 169.356 303.598 165.417C302.149 165.011 300.878 164.177 300.472 164.605C299.919 165.449 294.98 168.429 287.207 170.002Z" fill="white"/>
<path d="M287.206 170.002C287.206 170.002 282.736 171.513 281.694 174.055C278.995 172.857 277.526 167.449 279.912 163.896C281.402 163.771 282.83 163.031 283.101 163.521C283.517 164.448 282.382 166.939 287.206 170.002Z" fill="white"/>
<path opacity="0.2" d="M295.678 147.797L288.52 153.08C288.735 154.182 288.851 155.302 288.863 156.425C291.437 156.237 295.115 153.684 295.595 151.038C295.822 149.972 295.85 148.873 295.678 147.797Z" fill="black"/>
<path d="M283.247 125.165C280.121 126.394 278.964 138.492 285.331 137.304C291.698 136.116 289.541 122.695 283.247 125.165Z" fill="#263238"/>
<path d="M303.89 137.263C301.337 144.984 300.243 149.631 295.22 152.622C287.655 157.113 278.913 150.965 279.101 142.639C279.267 135.147 283.404 123.769 291.917 122.675C293.792 122.421 295.7 122.651 297.46 123.343C299.22 124.035 300.774 125.166 301.974 126.628C303.174 128.09 303.98 129.835 304.315 131.696C304.651 133.557 304.504 135.474 303.89 137.263Z" fill="#E3A392"/>
<path d="M300.992 142.577C297.751 142.639 295.094 132.824 301.627 130.073C296.48 129.479 280.673 130.344 277.839 123.279C275.004 116.214 285.997 115.12 289.738 117.788C288.55 113.901 293.385 108.17 302.075 113.38C310.766 118.59 310.661 125.019 309.849 126.926C313.725 127.968 314.486 136.596 310.203 137.752C312.714 141.233 310.547 148.547 303.774 146.984C303.545 151.246 298.793 149.381 299.085 146.109C299.377 142.837 300.992 142.577 300.992 142.577Z" fill="#263238"/>
<path d="M286.551 144.463C287.467 144.731 288.434 144.776 289.371 144.595C290.308 144.414 291.188 144.011 291.938 143.421C291.977 143.38 291.999 143.326 291.999 143.27C291.999 143.213 291.977 143.159 291.938 143.119C291.899 143.08 291.847 143.059 291.792 143.059C291.738 143.059 291.685 143.08 291.646 143.119C290.953 143.674 290.139 144.058 289.27 144.239C288.401 144.42 287.501 144.393 286.645 144.161C286.619 144.153 286.591 144.15 286.564 144.154C286.537 144.157 286.511 144.166 286.488 144.179C286.464 144.193 286.444 144.211 286.428 144.233C286.412 144.255 286.401 144.28 286.395 144.307C286.402 144.345 286.421 144.381 286.449 144.409C286.477 144.436 286.512 144.455 286.551 144.463Z" fill="#263238"/>
<path d="M305.504 145.453C304.006 146.85 302.018 147.599 299.971 147.537C297.261 147.422 296.74 144.796 298.189 142.681C299.502 140.774 302.482 138.513 304.858 139.67C305.374 139.929 305.818 140.313 306.149 140.787C306.479 141.262 306.686 141.811 306.75 142.386C306.814 142.96 306.734 143.542 306.516 144.077C306.298 144.613 305.95 145.086 305.504 145.453Z" fill="#E3A392"/>
<path d="M248.392 411.152L261.938 414.351C261.938 414.351 266.731 361.574 270.847 332.575C271.941 324.885 273.629 314.069 276.203 302.545C279.444 288.03 283.497 272.327 286.852 260.031C290.364 247.079 293.042 237.92 293.042 237.92L264.303 235.909C264.303 235.909 248.746 303.743 247.1 328.647C245.339 354.634 248.392 411.152 248.392 411.152Z" fill="#263238"/>
<path opacity="0.2" d="M276.13 302.545C279.37 288.029 283.424 272.327 286.779 260.031L283.788 253.602C276.692 262.073 274.775 288.3 276.13 302.545Z" fill="black"/>
<path d="M279.768 236.992C279.768 236.992 282.894 307.14 286.332 330.897C290.115 356.947 299.732 413.778 299.732 413.778H314.747C314.747 413.778 310.579 359.73 307.756 334.253C304.536 305.233 307.974 238.962 307.974 238.962L279.768 236.992Z" fill="#263238"/>
<path d="M297.939 414.101H315.611L316.393 408.818L296.887 408.474L297.939 414.101Z" fill="#407BFF"/>
<path d="M247.528 412.059L262.918 414.955L264.659 409.589L247.111 406.265L247.528 412.059Z" fill="#407BFF"/>
<path d="M292.02 136.648C291.843 137.283 291.374 137.69 290.978 137.606C290.582 137.523 290.353 136.887 290.52 136.252C290.687 135.616 291.166 135.21 291.562 135.293C291.958 135.376 292.187 136.012 292.02 136.648Z" fill="#263238"/>
<path d="M284.789 134.751C284.622 135.387 284.143 135.793 283.747 135.7C283.351 135.606 283.132 134.991 283.299 134.345C283.465 133.699 283.945 133.303 284.341 133.386C284.737 133.47 284.955 134.105 284.789 134.751Z" fill="#263238"/>
<path d="M286.393 135.345C285.115 137.097 283.604 138.668 281.902 140.013C282.746 141.358 284.924 141.243 284.924 141.243L286.393 135.345Z" fill="#E48C7A"/>
<path d="M294.261 134.574C294.189 134.57 294.119 134.545 294.06 134.502C294.001 134.46 293.955 134.402 293.928 134.335C293.752 133.879 293.471 133.472 293.11 133.144C292.748 132.817 292.314 132.578 291.844 132.449C291.794 132.439 291.746 132.42 291.704 132.392C291.661 132.364 291.625 132.328 291.596 132.286C291.567 132.243 291.548 132.196 291.537 132.146C291.527 132.097 291.527 132.045 291.536 131.995C291.546 131.945 291.565 131.898 291.593 131.855C291.621 131.813 291.657 131.776 291.699 131.748C291.741 131.719 291.789 131.699 291.838 131.689C291.888 131.679 291.94 131.678 291.989 131.688C292.587 131.84 293.139 132.134 293.599 132.543C294.06 132.953 294.415 133.467 294.636 134.043C294.657 134.09 294.667 134.141 294.668 134.192C294.669 134.243 294.659 134.294 294.639 134.342C294.62 134.389 294.591 134.433 294.555 134.469C294.519 134.505 294.475 134.534 294.428 134.553C294.375 134.573 294.317 134.58 294.261 134.574Z" fill="#263238"/>
<path d="M281.736 131.125C281.655 131.116 281.579 131.083 281.517 131.031C281.48 130.995 281.451 130.953 281.431 130.905C281.411 130.858 281.4 130.807 281.4 130.755C281.4 130.704 281.411 130.653 281.431 130.605C281.451 130.558 281.48 130.515 281.517 130.479C281.907 130.002 282.406 129.625 282.971 129.38C283.537 129.136 284.153 129.03 284.768 129.072C284.868 129.09 284.958 129.145 285.02 129.226C285.082 129.307 285.111 129.409 285.101 129.51C285.086 129.611 285.032 129.703 284.95 129.765C284.868 129.827 284.766 129.855 284.664 129.843C284.177 129.821 283.691 129.914 283.246 130.113C282.801 130.312 282.409 130.612 282.1 130.99C282.056 131.042 282 131.082 281.936 131.105C281.872 131.129 281.803 131.136 281.736 131.125Z" fill="#263238"/>
<path d="M301.139 425.344C300.579 425.387 300.021 425.24 299.555 424.927C299.407 424.801 299.294 424.639 299.225 424.457C299.155 424.275 299.133 424.078 299.159 423.885C299.156 423.773 299.186 423.661 299.245 423.565C299.305 423.469 299.39 423.392 299.492 423.344C300.399 422.875 303.035 424.5 303.337 424.688C303.369 424.707 303.394 424.735 303.409 424.768C303.424 424.802 303.428 424.839 303.421 424.875C303.417 424.915 303.401 424.953 303.375 424.983C303.349 425.012 303.314 425.033 303.275 425.042C302.576 425.222 301.86 425.323 301.139 425.344ZM299.92 423.646C299.833 423.639 299.746 423.657 299.67 423.698C299.617 423.698 299.555 423.771 299.545 423.927C299.526 424.056 299.541 424.187 299.586 424.309C299.632 424.431 299.707 424.54 299.805 424.625C300.72 425.042 301.76 425.094 302.712 424.771C301.86 424.218 300.908 423.836 299.909 423.646H299.92Z" fill="#407BFF"/>
<path d="M303.223 425.052H303.129C302.285 424.594 300.639 422.791 300.816 421.926C300.845 421.784 300.921 421.655 301.033 421.562C301.145 421.47 301.285 421.418 301.431 421.416C301.58 421.395 301.731 421.407 301.875 421.45C302.019 421.493 302.152 421.567 302.264 421.666C303.213 422.437 303.411 424.792 303.421 424.907C303.422 424.942 303.413 424.976 303.397 425.007C303.38 425.038 303.356 425.064 303.327 425.084C303.29 425.084 303.254 425.074 303.223 425.052ZM301.566 421.728H301.483C301.233 421.728 301.212 421.874 301.201 421.926C301.097 422.458 302.139 423.823 302.983 424.458C302.929 423.525 302.59 422.631 302.014 421.895C301.89 421.787 301.731 421.728 301.566 421.728Z" fill="#407BFF"/>
<path d="M249.633 422.77C248.288 422.77 245.923 422.718 245.173 421.791C245.054 421.648 244.974 421.478 244.939 421.296C244.905 421.113 244.917 420.925 244.975 420.749C244.997 420.647 245.045 420.552 245.115 420.474C245.184 420.395 245.272 420.336 245.371 420.301C246.413 419.936 249.414 422.124 249.747 422.385C249.779 422.408 249.803 422.441 249.814 422.478C249.826 422.516 249.824 422.557 249.81 422.593C249.805 422.639 249.785 422.681 249.753 422.713C249.72 422.746 249.678 422.766 249.633 422.77ZM245.527 420.686C245.486 420.7 245.45 420.725 245.422 420.758C245.394 420.791 245.377 420.831 245.371 420.874C245.337 420.984 245.331 421.1 245.352 421.213C245.374 421.325 245.424 421.431 245.496 421.52C245.913 422.051 247.226 422.354 249.059 422.364C247.82 421.551 246.152 420.561 245.527 420.697V420.686Z" fill="#407BFF"/>
<path d="M249.633 422.771C249.586 422.789 249.534 422.789 249.487 422.771C248.591 422.166 246.965 420.082 247.267 419.196C247.34 418.988 247.538 418.748 248.07 418.78C248.269 418.788 248.465 418.838 248.644 418.926C248.823 419.014 248.983 419.138 249.112 419.29C249.997 420.332 249.841 422.531 249.831 422.625C249.829 422.658 249.818 422.689 249.8 422.717C249.781 422.744 249.756 422.766 249.727 422.781L249.633 422.771ZM247.82 419.155C247.674 419.155 247.643 419.259 247.632 419.29C247.455 419.822 248.528 421.426 249.414 422.187C249.487 421.253 249.264 420.32 248.778 419.519C248.688 419.411 248.577 419.322 248.452 419.257C248.327 419.193 248.19 419.154 248.049 419.144C247.973 419.13 247.894 419.134 247.82 419.155Z" fill="#407BFF"/>
<path d="M278.328 204.669L275.004 202.294L220.508 278.579L223.832 280.954C233.96 287.816 246.37 290.448 258.412 288.287C270.453 286.127 281.174 279.346 288.286 269.391C295.397 259.436 298.337 247.096 296.476 235.004C294.616 222.912 288.103 212.026 278.328 204.669Z" fill="#407BFF"/>
<path opacity="0.1" d="M278.328 204.669L275.004 202.294L220.508 278.579L223.832 280.954C233.96 287.816 246.37 290.448 258.412 288.287C270.453 286.127 281.174 279.346 288.286 269.391C295.397 259.436 298.337 247.096 296.476 235.004C294.616 222.912 288.103 212.026 278.328 204.669Z" fill="black"/>
<path d="M197.615 246.402C196.839 239.956 197.317 233.42 199.022 227.156L200.064 227.427C198.389 233.565 197.922 239.97 198.688 246.287L197.615 246.402Z" fill="#407BFF"/>
<path d="M200.773 258.979C199.844 256.607 199.095 254.169 198.533 251.685L199.575 251.455C200.131 253.882 200.866 256.265 201.774 258.583L200.773 258.979Z" fill="#407BFF"/>
<path d="M257.23 286.328C282.583 281.105 298.902 256.319 293.679 230.966C288.456 205.613 263.67 189.294 238.317 194.517C212.965 199.74 196.646 224.526 201.869 249.879C207.091 275.231 231.877 291.55 257.23 286.328Z" fill="#407BFF"/>
<path d="M236.691 252.289L244.047 242.004C241.491 238.795 240.126 235.725 239.952 232.793C239.82 229.797 240.738 226.849 242.547 224.457C244.266 221.908 246.914 220.132 249.924 219.508C253.036 218.915 256.257 219.514 258.948 221.185L260.719 218.705L264.283 221.248L262.501 223.728C264.681 225.558 266.197 228.056 266.815 230.834C267.281 233.563 266.842 236.37 265.565 238.826L258.771 235.2C259.266 234.265 259.513 233.218 259.487 232.159C259.462 231.101 259.165 230.067 258.625 229.157L251.769 238.764C254.936 242.64 256.628 245.933 256.843 248.642C257 251.54 256.104 254.397 254.321 256.686C252.438 259.491 249.565 261.482 246.277 262.261C242.811 262.975 239.205 262.404 236.128 260.656L234.357 263.136L230.793 260.594L232.481 258.228C230.051 256.142 228.414 253.283 227.844 250.132C227.409 246.701 228.096 243.221 229.803 240.212L236.712 244.109C236.06 245.497 235.736 247.015 235.763 248.548C235.776 249.85 236.094 251.132 236.691 252.289ZM255.113 226.499C253.976 226.129 252.75 226.129 251.612 226.499C250.513 226.85 249.559 227.548 248.893 228.49C248.277 229.361 247.949 230.403 247.955 231.47C247.967 232.715 248.328 233.931 248.997 234.981L255.113 226.499ZM240.004 255.186C241.301 255.813 242.776 255.964 244.172 255.613C245.574 255.269 246.8 254.424 247.621 253.237C248.375 252.22 248.744 250.968 248.663 249.705C248.464 248.179 247.811 246.749 246.788 245.599L240.004 255.186Z" fill="white" fill-opacity="0.9"/>
<path opacity="0.1" d="M285.727 236.534C283.545 227.063 277.834 218.78 269.757 213.375C261.68 207.969 251.845 205.847 242.258 207.442C232.671 209.036 224.053 214.227 218.16 221.956C212.268 229.685 209.545 239.371 210.546 249.038C209.377 243.959 209.259 238.695 210.201 233.569C211.143 228.443 213.124 223.564 216.022 219.233C218.921 214.902 222.676 211.21 227.055 208.385C231.435 205.56 236.346 203.662 241.487 202.807C246.628 201.952 251.89 202.158 256.948 203.414C262.006 204.669 266.754 206.947 270.898 210.106C275.043 213.266 278.497 217.241 281.047 221.786C283.597 226.331 285.19 231.35 285.727 236.534Z" fill="black"/>
<path d="M316.549 172.555C317.591 173.879 318.456 175.066 319.331 176.358C320.206 177.651 321.061 178.891 321.894 180.183C323.551 182.767 325.124 185.393 326.583 188.133C328.042 190.874 329.397 193.677 330.626 196.573L331.522 198.772L332.335 201.033C332.606 201.773 332.835 202.565 333.075 203.336L333.419 204.503L333.513 204.795L333.669 205.43C333.768 205.863 333.838 206.301 333.877 206.743C333.976 208.212 333.781 209.685 333.304 211.078C332.944 212.126 332.472 213.132 331.897 214.079C330.946 215.629 329.843 217.081 328.605 218.414C326.407 220.75 324.019 222.9 321.467 224.843C316.614 228.548 311.447 231.822 306.025 234.627L302.648 229.48C307.014 225.76 311.38 221.842 315.33 217.872C317.249 215.971 319.031 213.938 320.665 211.786C321.358 210.888 321.959 209.921 322.457 208.9C322.611 208.566 322.73 208.217 322.811 207.858C322.811 207.629 322.811 207.587 322.811 207.858C322.796 207.934 322.796 208.012 322.811 208.087C322.809 208.119 322.809 208.15 322.811 208.181L322.717 207.952L322.353 207.035C322.103 206.41 321.884 205.795 321.592 205.18L320.758 203.336L319.873 201.492C318.633 199.043 317.309 196.605 315.871 194.198C314.433 191.79 312.943 189.394 311.391 187.039C310.63 185.851 309.838 184.674 309.046 183.517L306.671 180.131L316.549 172.555Z" fill="#E3A392"/>
<path d="M315.498 168.074C323.177 169.627 329.919 188.404 329.919 188.404L313.893 201.46C313.893 201.46 308.683 191.915 304.432 182.704C299.857 172.67 306.193 166.199 315.498 168.074Z" fill="#407BFF"/>
<g opacity="0.3">
<path opacity="0.3" d="M315.498 168.074C323.177 169.627 329.919 188.404 329.919 188.404L313.893 201.46C313.893 201.46 308.683 191.915 304.432 182.704C299.857 172.67 306.193 166.199 315.498 168.074Z" fill="white"/>
</g>
<path d="M304.545 228.76L296.271 229.667L301.638 238.649C301.638 238.649 308.515 236.315 307.681 232.543L304.545 228.76Z" fill="#E3A392"/>
<path d="M291.344 234.408L296.127 241.629L301.639 238.649L296.272 229.667L291.344 234.408Z" fill="#E3A392"/>
</svg>
