<svg width="100" height="32" viewBox="0 0 100 32" fill="none" xmlns="http://www.w3.org/2000/svg">
<path fill-rule="evenodd" clip-rule="evenodd" d="M7.65625 15.6804V7.28039C7.65625 6.80039 8.04688 6.40039 8.4375 6.40039C8.82813 6.40039 8.98438 6.48039 9.21875 6.64039L24.2969 15.1204C24.6094 15.2804 24.7656 15.5204 24.7656 15.7604C24.7656 16.0004 24.6094 16.2404 24.2969 16.4004L9.21875 24.8804C9.0625 24.9604 8.82813 25.1204 8.4375 25.1204C8.04688 25.1204 7.65625 24.7204 7.65625 24.2404V15.6804Z" fill="#8499B1" fill-opacity="0.75"/>
<path fill-rule="evenodd" clip-rule="evenodd" d="M17.4219 15.7604L8.28125 6.40039C8.35938 6.40039 8.35937 6.40039 8.4375 6.40039C8.82812 6.40039 8.98437 6.48039 9.21875 6.64039L20.3125 12.8804L17.4219 15.7604Z" fill="white" fill-opacity="0.5"/>
<path fill-rule="evenodd" clip-rule="evenodd" d="M20.2344 18.5597L17.4219 15.6797L20.3125 12.7197L24.2969 14.9597C24.6094 15.1197 24.7656 15.3597 24.7656 15.5997C24.7656 15.8397 24.6094 16.0797 24.2969 16.2397L20.2344 18.5597Z" fill="url(#paint0_linear)"/>
<path fill-rule="evenodd" clip-rule="evenodd" d="M20.2344 18.5597L17.4219 15.6797L20.3125 12.7197L24.2969 14.9597C24.6094 15.1197 24.7656 15.3597 24.7656 15.5997C24.7656 15.8397 24.6094 16.0797 24.2969 16.2397L20.2344 18.5597Z" fill="#8499B1"/>
<path opacity="0.2" fill-rule="evenodd" clip-rule="evenodd" d="M8.35938 24.9597L17.4219 15.6797L20.2344 18.5597L9.21875 24.7197C8.98438 24.8797 8.82813 24.9597 8.35938 24.9597C8.4375 24.9597 8.4375 24.9597 8.35938 24.9597Z" fill="#8499B1"/>
<path fill-rule="evenodd" clip-rule="evenodd" d="M55.547 27.1204C55.1564 26.8004 54.8438 26.2404 54.6876 25.9204L55.9376 25.3604C56.0157 25.5204 56.172 25.7604 56.3282 26.0004C56.6407 26.3204 57.1095 26.6404 57.5782 26.6404C58.047 26.6404 58.5938 26.4004 58.9063 26.0004C59.1407 25.6004 59.297 25.2004 59.297 24.6404V24.1604C58.3595 25.3604 56.4063 25.2004 55.3126 23.9204C54.1407 22.6404 54.1407 20.4804 55.3126 19.2004C56.4845 18.0004 58.2032 17.8404 59.2188 18.9604V18.4004H60.547V24.4004C60.547 25.9204 60.0001 26.8004 59.297 27.3604C58.8282 27.7604 58.1251 27.9204 57.5001 27.9204C56.797 27.8404 56.0939 27.6004 55.547 27.1204ZM88.2813 27.4404L89.6095 24.2404L87.2657 18.7204H88.5938L90.2345 22.6404L91.8751 18.7204H93.2032L89.6095 27.4404H88.2813ZM81.9532 24.4004C81.5626 24.0004 81.4064 23.4404 81.4064 22.8804C81.4064 22.4004 81.5626 21.9204 81.8751 21.6004C82.422 21.0404 83.2032 20.8004 84.0626 20.8004C84.6095 20.8004 85.0782 20.8804 85.4688 21.1204C85.4688 20.1604 84.6876 19.7604 84.0626 19.7604C83.5157 19.7604 82.9688 20.0804 82.7345 20.6404L81.5626 20.1604C81.797 19.6004 82.422 18.5604 83.9845 18.5604C84.7657 18.5604 85.547 18.8004 86.0157 19.3604C86.4845 19.9204 86.6407 20.5604 86.6407 21.4404V24.8004H85.3126V24.2404C85.1564 24.4804 84.8438 24.6404 84.6095 24.8004C84.297 24.9604 83.9063 25.0404 83.5157 25.0404C83.047 24.9604 82.3438 24.8004 81.9532 24.4004ZM40.3126 21.5204C40.3126 19.9204 41.4845 18.1604 43.5939 18.1604C45.6251 18.1604 46.8751 19.9204 46.8751 21.5204C46.8751 23.1204 45.7032 24.8804 43.5939 24.8804C41.4845 24.8804 40.3126 23.1204 40.3126 21.5204ZM47.3439 21.5204C47.3439 19.9204 48.5157 18.1604 50.6251 18.1604C52.6564 18.1604 53.9063 19.9204 53.9063 21.5204C53.9063 23.1204 52.7345 24.8804 50.6251 24.8804C48.5939 24.8804 47.3439 23.1204 47.3439 21.5204ZM31.4845 23.2804C29.5314 21.2804 29.6095 18.0004 31.5626 15.9204C32.5782 14.8804 33.8282 14.4004 35.1563 14.4004C36.4063 14.4004 37.6563 14.8804 38.5938 15.8404L37.6563 16.8804C36.2501 15.4404 33.9845 15.5204 32.6564 16.9604C31.2501 18.4804 31.2501 20.8004 32.6564 22.3204C34.0626 23.8404 36.4063 23.9204 37.8126 22.4004C38.2813 21.9204 38.4376 21.2804 38.5157 20.6404H35.2345V19.2004H39.8438C39.922 19.5204 39.922 19.9204 39.922 20.3204C39.922 21.5204 39.4532 22.7204 38.672 23.5204C37.8126 24.4004 36.5626 24.8804 35.3126 24.8804C33.9063 24.8004 32.5001 24.3204 31.4845 23.2804ZM64.5314 23.8404C63.3595 22.5604 63.3595 20.4004 64.5314 19.0404C65.7032 17.7604 67.6563 17.7604 68.7501 19.0404C69.1407 19.4404 69.3751 20.0004 69.6095 20.5604L65.3126 22.4004C65.547 22.9604 66.0939 23.4404 66.8751 23.4404C67.5782 23.4404 68.047 23.2004 68.5157 22.4804L69.6876 23.2804C69.5314 23.4404 69.3751 23.6004 69.297 23.7604C67.9689 25.1204 65.7032 25.1204 64.5314 23.8404ZM72.6563 24.8004V15.9204H75.4689C77.1095 15.9204 78.4376 17.1204 78.4376 18.5604C78.4376 20.0004 77.2657 21.2004 75.7813 21.2004H74.0626V24.7204H72.6563V24.8004ZM79.2188 24.8004V15.9204H80.547V24.8004H79.2188ZM61.5626 24.6404V14.7204H62.9689V24.6404H61.5626ZM85.3907 22.1604C85.0782 21.9204 84.6095 21.8404 84.1407 21.8404C83.2032 21.8404 82.6563 22.3204 82.6563 22.8804C82.6563 23.4404 83.2032 23.7604 83.7501 23.7604C84.5314 23.7604 85.3907 23.1204 85.3907 22.1604ZM45.3907 21.5204C45.3907 20.5604 44.7657 19.5204 43.5939 19.5204C42.422 19.5204 41.797 20.5604 41.797 21.5204C41.797 22.4804 42.422 23.5204 43.5939 23.5204C44.6876 23.5204 45.3907 22.4804 45.3907 21.5204ZM52.422 21.5204C52.422 20.5604 51.797 19.5204 50.6251 19.5204C49.4532 19.5204 48.8282 20.5604 48.8282 21.5204C48.8282 22.4804 49.4532 23.5204 50.6251 23.5204C51.797 23.5204 52.422 22.4804 52.422 21.5204ZM59.3751 22.0804C59.3751 22.0004 59.3751 21.9204 59.4532 21.8404C59.4532 21.7604 59.4532 21.6004 59.4532 21.5204C59.4532 21.4404 59.4532 21.2804 59.4532 21.2004V21.1204C59.4532 21.0404 59.3751 20.8804 59.3751 20.8004C59.1407 20.0004 58.4376 19.4404 57.7345 19.4404C56.797 19.4404 56.0157 20.4004 56.0157 21.4404C56.0157 22.5604 56.797 23.4404 57.8126 23.4404C58.4376 23.5204 59.0626 22.9604 59.3751 22.0804ZM65.0782 21.3604L67.9688 20.0804C67.6563 19.5204 67.1876 19.3604 66.797 19.3604C65.6251 19.4404 64.922 20.7204 65.0782 21.3604ZM77.0314 18.6404C77.0314 17.8404 76.4064 17.2804 75.547 17.2804H73.9845V20.0804H75.6251C76.4063 20.0804 77.0314 19.4404 77.0314 18.6404Z" fill="#8499B1"/>
<path fill-rule="evenodd" clip-rule="evenodd" d="M89.2969 25.8398H89.2188V25.7598H89.2969H89.2188V25.8398H89.2969Z" fill="#8499B1"/>
<path fill-rule="evenodd" clip-rule="evenodd" d="M89.4531 25.8398C89.4531 25.7598 89.4531 25.7598 89.4531 25.8398C89.375 25.7598 89.375 25.7598 89.4531 25.8398C89.375 25.8398 89.375 25.8398 89.4531 25.8398ZM89.4531 25.7598C89.4531 25.8398 89.4531 25.8398 89.4531 25.7598C89.4531 25.8398 89.375 25.8398 89.4531 25.7598C89.375 25.7598 89.4531 25.7598 89.4531 25.7598Z" fill="#8499B1"/>
<path fill-rule="evenodd" clip-rule="evenodd" d="M89.5313 25.7598H89.4531H89.5313V25.8398V25.7598Z" fill="#8499B1"/>
<path d="M30.3906 8.07977C30.3906 6.63977 31.4063 5.75977 32.6563 5.75977C33.5156 5.75977 34.0625 6.15976 34.4531 6.71976L33.8281 7.11976C33.5938 6.79976 33.2031 6.55977 32.6563 6.55977C31.7969 6.55977 31.1719 7.19977 31.1719 8.15977C31.1719 9.11977 31.7969 9.75977 32.6563 9.75977C33.125 9.75977 33.5156 9.51977 33.6719 9.35977V8.63976H32.4219V7.91976H34.5313V9.59977C34.1406 10.0798 33.5156 10.3998 32.7344 10.3998C31.4062 10.3998 30.3906 9.43977 30.3906 8.07977Z" fill="#8499B1"/>
<path d="M35.4688 10.3198V5.83984H38.4375V6.55984H36.1719V7.67984H38.3594V8.39984H36.1719V9.67984H38.4375V10.3998L35.4688 10.3198Z" fill="#8499B1"/>
<path d="M40.625 10.3198V6.55984H39.2969V5.83984H42.7344V6.55984H41.4062V10.3198H40.625Z" fill="#8499B1"/>
<path d="M45.3906 10.3198V5.83984H46.1719V10.3198H45.3906Z" fill="#8499B1"/>
<path d="M48.2812 10.3198V6.55984H46.9531V5.83984H50.3906V6.55984H49.0625V10.3198H48.2812Z" fill="#8499B1"/>
<path d="M52.8906 8.07977C52.8906 6.71977 53.8281 5.75977 55.1563 5.75977C56.4844 5.75977 57.4219 6.71977 57.4219 8.07977C57.4219 9.43977 56.4844 10.3998 55.1563 10.3998C53.8281 10.3998 52.8906 9.35977 52.8906 8.07977ZM56.5625 8.07977C56.5625 7.11977 56.0156 6.47977 55.0781 6.47977C54.2188 6.47977 53.5938 7.19977 53.5938 8.07977C53.5938 9.03977 54.1406 9.67977 55.0781 9.67977C56.0156 9.67977 56.5625 8.95977 56.5625 8.07977Z" fill="#8499B1"/>
<path d="M61.3281 10.3198L59.0625 7.11984V10.3198H58.2812V5.83984H59.0625L61.3281 8.95985V5.83984H62.1094V10.3198H61.3281Z" fill="#8499B1"/>
<rect x="0.375" y="0.375" width="99.25" height="31.25" rx="4.625" stroke="#8499B1" stroke-width="0.75"/>
<defs>
<linearGradient id="paint0_linear" x1="21.0894" y1="18.8958" x2="21.0894" y2="12.5371" gradientUnits="userSpaceOnUse">
<stop stop-color="#FCC072"/>
<stop offset="1" stop-color="#F58A5B"/>
</linearGradient>
</defs>
</svg>
