<svg width="132" height="17" viewBox="0 0 132 17" fill="none" xmlns="http://www.w3.org/2000/svg">
<path d="M32.192 2.6H34.952V17H37.592V2.6H40.352V0.199999H32.192V2.6ZM52.6027 17C52.3387 16.376 52.3147 15.776 52.3147 14.96V12.368C52.3147 10.616 51.8827 9.344 50.5627 8.792C51.7387 8.24 52.2907 7.112 52.2907 5.384V4.064C52.2907 1.472 51.1147 0.199999 48.3787 0.199999H44.3947V17H47.0347V10.16H47.9467C49.1467 10.16 49.6747 10.736 49.6747 12.296V14.936C49.6747 16.304 49.7707 16.568 49.9147 17H52.6027ZM48.3067 2.6C49.2427 2.6 49.6507 3.128 49.6507 4.328V5.984C49.6507 7.328 49.0507 7.76 48.0667 7.76H47.0347V2.6H48.3067ZM62.7869 0.199999H58.9229L56.2349 17H58.6589L59.1149 13.952H62.3549L62.8109 17H65.4749L62.7869 0.199999ZM60.7229 3.176L61.9949 11.672H59.4509L60.7229 3.176ZM69.5844 17H73.7604C76.4004 17 77.6964 15.536 77.6964 12.848V4.352C77.6964 1.664 76.4004 0.199999 73.7604 0.199999H69.5844V17ZM73.7124 2.6C74.5524 2.6 75.0564 3.032 75.0564 4.232V12.968C75.0564 14.168 74.5524 14.6 73.7124 14.6H72.2244V2.6H73.7124ZM84.9013 2.6H89.4613V0.199999H82.2613V17H89.4613V14.6H84.9013V9.68H88.5253V7.28H84.9013V2.6ZM93.9772 17H100.961V14.6H96.6172V0.199999H93.9772V17ZM104.99 17H107.63V0.199999H104.99V17ZM112.272 0.199999V2.6H117.048L112.032 14.648V17H119.76V14.6H114.744L119.76 2.552V0.199999H112.272ZM126.843 2.6H131.403V0.199999H124.203V17H131.403V14.6H126.843V9.68H130.467V7.28H126.843V2.6Z" fill="#07061E"/>
<path d="M13.818 12.8819L7.99982 5.11719L2.18164 12.8819" stroke="#4671FF" stroke-width="4" stroke-linecap="round" stroke-linejoin="round"/>
</svg>
