<svg width="20" height="20" viewBox="0 0 20 20" fill="none" xmlns="http://www.w3.org/2000/svg">
<path d="M9.16659 17.5C8.94557 17.5 8.73361 17.4122 8.57733 17.2559C8.42105 17.0996 8.33325 16.8877 8.33325 16.6667V3.33333C8.33325 3.11232 8.42105 2.90036 8.57733 2.74408C8.73361 2.5878 8.94557 2.5 9.16659 2.5C9.3876 2.5 9.59956 2.5878 9.75584 2.74408C9.91212 2.90036 9.99992 3.11232 9.99992 3.33333V16.6667C9.99992 16.8877 9.91212 17.0996 9.75584 17.2559C9.59956 17.4122 9.3876 17.5 9.16659 17.5Z" fill="white"/>
<path opacity="0.5" d="M5.83333 10.8333C6.29357 10.8333 6.66667 10.4602 6.66667 9.99996C6.66667 9.53972 6.29357 9.16663 5.83333 9.16663C5.3731 9.16663 5 9.53972 5 9.99996C5 10.4602 5.3731 10.8333 5.83333 10.8333Z" fill="white"/>
<path opacity="0.5" d="M2.49996 10.8333C2.9602 10.8333 3.33329 10.4602 3.33329 9.99996C3.33329 9.53972 2.9602 9.16663 2.49996 9.16663C2.03972 9.16663 1.66663 9.53972 1.66663 9.99996C1.66663 10.4602 2.03972 10.8333 2.49996 10.8333Z" fill="white"/>
<path opacity="0.5" d="M12.5001 10.8333C12.9603 10.8333 13.3334 10.4602 13.3334 9.99996C13.3334 9.53972 12.9603 9.16663 12.5001 9.16663C12.0398 9.16663 11.6667 9.53972 11.6667 9.99996C11.6667 10.4602 12.0398 10.8333 12.5001 10.8333Z" fill="white"/>
<path opacity="0.5" d="M15.8333 10.8333C16.2936 10.8333 16.6667 10.4602 16.6667 9.99996C16.6667 9.53972 16.2936 9.16663 15.8333 9.16663C15.3731 9.16663 15 9.53972 15 9.99996C15 10.4602 15.3731 10.8333 15.8333 10.8333Z" fill="white"/>
<path opacity="0.5" d="M5.83333 4.16667C6.29357 4.16667 6.66667 3.79357 6.66667 3.33333C6.66667 2.8731 6.29357 2.5 5.83333 2.5C5.3731 2.5 5 2.8731 5 3.33333C5 3.79357 5.3731 4.16667 5.83333 4.16667Z" fill="white"/>
<path opacity="0.5" d="M2.49996 4.16667C2.9602 4.16667 3.33329 3.79357 3.33329 3.33333C3.33329 2.8731 2.9602 2.5 2.49996 2.5C2.03972 2.5 1.66663 2.8731 1.66663 3.33333C1.66663 3.79357 2.03972 4.16667 2.49996 4.16667Z" fill="white"/>
<path opacity="0.5" d="M12.5001 4.16667C12.9603 4.16667 13.3334 3.79357 13.3334 3.33333C13.3334 2.8731 12.9603 2.5 12.5001 2.5C12.0398 2.5 11.6667 2.8731 11.6667 3.33333C11.6667 3.79357 12.0398 4.16667 12.5001 4.16667Z" fill="white"/>
<path opacity="0.5" d="M15.8333 4.16667C16.2936 4.16667 16.6667 3.79357 16.6667 3.33333C16.6667 2.8731 16.2936 2.5 15.8333 2.5C15.3731 2.5 15 2.8731 15 3.33333C15 3.79357 15.3731 4.16667 15.8333 4.16667Z" fill="white"/>
<path opacity="0.5" d="M15.8333 7.50004C16.2936 7.50004 16.6667 7.12695 16.6667 6.66671C16.6667 6.20647 16.2936 5.83337 15.8333 5.83337C15.3731 5.83337 15 6.20647 15 6.66671C15 7.12695 15.3731 7.50004 15.8333 7.50004Z" fill="white"/>
<path opacity="0.5" d="M15.8333 14.1667C16.2936 14.1667 16.6667 13.7936 16.6667 13.3333C16.6667 12.8731 16.2936 12.5 15.8333 12.5C15.3731 12.5 15 12.8731 15 13.3333C15 13.7936 15.3731 14.1667 15.8333 14.1667Z" fill="white"/>
<path opacity="0.5" d="M2.49996 7.50004C2.9602 7.50004 3.33329 7.12695 3.33329 6.66671C3.33329 6.20647 2.9602 5.83337 2.49996 5.83337C2.03972 5.83337 1.66663 6.20647 1.66663 6.66671C1.66663 7.12695 2.03972 7.50004 2.49996 7.50004Z" fill="white"/>
<path opacity="0.5" d="M2.49996 14.1667C2.9602 14.1667 3.33329 13.7936 3.33329 13.3333C3.33329 12.8731 2.9602 12.5 2.49996 12.5C2.03972 12.5 1.66663 12.8731 1.66663 13.3333C1.66663 13.7936 2.03972 14.1667 2.49996 14.1667Z" fill="white"/>
<path opacity="0.5" d="M5.83333 17.5C6.29357 17.5 6.66667 17.1269 6.66667 16.6667C6.66667 16.2065 6.29357 15.8334 5.83333 15.8334C5.3731 15.8334 5 16.2065 5 16.6667C5 17.1269 5.3731 17.5 5.83333 17.5Z" fill="white"/>
<path opacity="0.5" d="M2.49996 17.5C2.9602 17.5 3.33329 17.1269 3.33329 16.6667C3.33329 16.2065 2.9602 15.8334 2.49996 15.8334C2.03972 15.8334 1.66663 16.2065 1.66663 16.6667C1.66663 17.1269 2.03972 17.5 2.49996 17.5Z" fill="white"/>
<path opacity="0.5" d="M12.5001 17.5C12.9603 17.5 13.3334 17.1269 13.3334 16.6667C13.3334 16.2065 12.9603 15.8334 12.5001 15.8334C12.0398 15.8334 11.6667 16.2065 11.6667 16.6667C11.6667 17.1269 12.0398 17.5 12.5001 17.5Z" fill="white"/>
<path opacity="0.5" d="M15.8333 17.5C16.2936 17.5 16.6667 17.1269 16.6667 16.6667C16.6667 16.2065 16.2936 15.8334 15.8333 15.8334C15.3731 15.8334 15 16.2065 15 16.6667C15 17.1269 15.3731 17.5 15.8333 17.5Z" fill="white"/>
</svg>
