<svg width="16" height="18" viewBox="0 0 16 18" fill="none" xmlns="http://www.w3.org/2000/svg">
<path opacity="0.5" d="M13.9999 5.37524H1.99992C1.82311 5.37524 1.65354 5.29623 1.52851 5.15557C1.40349 5.01492 1.33325 4.82416 1.33325 4.62524C1.33325 4.42633 1.40349 4.23557 1.52851 4.09491C1.65354 3.95426 1.82311 3.87524 1.99992 3.87524H13.9999C14.1767 3.87524 14.3463 3.95426 14.4713 4.09491C14.5963 4.23557 14.6666 4.42633 14.6666 4.62524C14.6666 4.82416 14.5963 5.01492 14.4713 5.15557C14.3463 5.29623 14.1767 5.37524 13.9999 5.37524ZM5.99992 12.8752H1.99992C1.82311 12.8752 1.65354 12.7962 1.52851 12.6556C1.40349 12.5149 1.33325 12.3242 1.33325 12.1252C1.33325 11.9263 1.40349 11.7356 1.52851 11.5949C1.65354 11.4543 1.82311 11.3752 1.99992 11.3752H5.99992C6.17673 11.3752 6.3463 11.4543 6.47132 11.5949C6.59635 11.7356 6.66659 11.9263 6.66659 12.1252C6.66659 12.3242 6.59635 12.5149 6.47132 12.6556C6.3463 12.7962 6.17673 12.8752 5.99992 12.8752Z" fill="white"/>
<path d="M12.3333 12.8752H9.99992C9.82311 12.8752 9.65354 12.7962 9.52851 12.6556C9.40349 12.5149 9.33325 12.3242 9.33325 12.1252C9.33325 11.9263 9.40349 11.7356 9.52851 11.5949C9.65354 11.4543 9.82311 11.3752 9.99992 11.3752H12.3333C12.5985 11.3752 12.8528 11.2567 13.0404 11.0457C13.2279 10.8348 13.3333 10.5486 13.3333 10.2502C13.3333 9.95188 13.2279 9.66573 13.0404 9.45475C12.8528 9.24377 12.5985 9.12524 12.3333 9.12524H1.99992C1.82311 9.12524 1.65354 9.04623 1.52851 8.90557C1.40349 8.76492 1.33325 8.57416 1.33325 8.37524C1.33325 8.17633 1.40349 7.98557 1.52851 7.84491C1.65354 7.70426 1.82311 7.62524 1.99992 7.62524H12.3333C12.6397 7.62524 12.9431 7.69314 13.2262 7.82506C13.5093 7.95698 13.7665 8.15034 13.9832 8.39409C14.1998 8.63784 14.3717 8.92722 14.489 9.2457C14.6062 9.56418 14.6666 9.90552 14.6666 10.2502C14.6666 10.595 14.6062 10.9363 14.489 11.2548C14.3717 11.5733 14.1998 11.8626 13.9832 12.1064C13.7665 12.3502 13.5093 12.5435 13.2262 12.6754C12.9431 12.8073 12.6397 12.8752 12.3333 12.8752Z" fill="white"/>
<path d="M9.99935 14.1247C9.84367 14.125 9.69288 14.0637 9.57335 13.9515L8.24001 12.702C8.16475 12.6316 8.10419 12.5435 8.06262 12.4438C8.02106 12.3441 7.99951 12.2353 7.99951 12.1252C7.99951 12.0151 8.02106 11.9064 8.06262 11.8067C8.10419 11.707 8.16475 11.6189 8.24001 11.5485L9.57335 10.2982C9.70931 10.1709 9.88467 10.1096 10.0608 10.1278C10.237 10.1459 10.3995 10.242 10.5127 10.395C10.6258 10.548 10.6803 10.7452 10.6642 10.9434C10.6481 11.1416 10.5626 11.3244 10.4267 11.4517L9.70801 12.1252L10.4267 12.798C10.5322 12.8966 10.608 13.0295 10.6439 13.1784C10.6798 13.3274 10.674 13.4852 10.6273 13.6303C10.5806 13.7753 10.4952 13.9007 10.3828 13.9892C10.2704 14.0777 10.1365 14.125 9.99935 14.1247Z" fill="white"/>
</svg>
