<svg width="16" height="16" viewBox="0 0 16 16" fill="none" xmlns="http://www.w3.org/2000/svg">
<path opacity="0.5" d="M12.6667 1.33325H3.33337C2.8031 1.33378 2.2947 1.54467 1.91975 1.91962C1.54479 2.29458 1.3339 2.80298 1.33337 3.33325V9.99992C1.3339 10.5302 1.54479 11.0386 1.91975 11.4135C2.2947 11.7885 2.8031 11.9994 3.33337 11.9999H11.0574L13.5287 14.4713C13.6219 14.5645 13.7407 14.6279 13.87 14.6536C13.9993 14.6794 14.1333 14.6661 14.2551 14.6157C14.3769 14.5653 14.4811 14.4798 14.5543 14.3702C14.6276 14.2606 14.6667 14.1318 14.6667 13.9999V3.33325C14.6662 2.80298 14.4553 2.29458 14.0803 1.91962C13.7054 1.54467 13.197 1.33378 12.6667 1.33325ZM5.33337 7.33325C5.20152 7.33325 5.07263 7.29415 4.96299 7.2209C4.85336 7.14764 4.76791 7.04352 4.71745 6.92171C4.667 6.79989 4.65379 6.66585 4.67952 6.53652C4.70524 6.4072 4.76873 6.28842 4.86197 6.19518C4.9552 6.10195 5.07399 6.03845 5.20331 6.01273C5.33263 5.987 5.46668 6.00021 5.5885 6.05067C5.71031 6.10112 5.81443 6.18657 5.88769 6.2962C5.96094 6.40584 6.00004 6.53473 6.00004 6.66658C6.00004 6.8434 5.9298 7.01297 5.80478 7.13799C5.67975 7.26301 5.51019 7.33325 5.33337 7.33325ZM8.00004 7.33325C7.86819 7.33325 7.73929 7.29415 7.62966 7.2209C7.52003 7.14764 7.43458 7.04352 7.38412 6.92171C7.33366 6.79989 7.32046 6.66585 7.34618 6.53652C7.37191 6.4072 7.4354 6.28842 7.52864 6.19518C7.62187 6.10195 7.74066 6.03845 7.86998 6.01273C7.9993 5.987 8.13335 6.00021 8.25516 6.05067C8.37698 6.10112 8.4811 6.18657 8.55435 6.2962C8.62761 6.40584 8.66671 6.53473 8.66671 6.66658C8.66671 6.8434 8.59647 7.01297 8.47145 7.13799C8.34642 7.26301 8.17685 7.33325 8.00004 7.33325ZM10.6667 7.33325C10.5349 7.33325 10.406 7.29415 10.2963 7.2209C10.1867 7.14764 10.1012 7.04352 10.0508 6.92171C10.0003 6.79989 9.98713 6.66585 10.0129 6.53652C10.0386 6.4072 10.1021 6.28842 10.1953 6.19518C10.2885 6.10195 10.4073 6.03845 10.5366 6.01273C10.666 5.987 10.8 6.00021 10.9218 6.05067C11.0436 6.10112 11.1478 6.18657 11.221 6.2962C11.2943 6.40584 11.3334 6.53473 11.3334 6.66658C11.3334 6.8434 11.2631 7.01297 11.1381 7.13799C11.0131 7.26301 10.8435 7.33325 10.6667 7.33325Z" fill="white"/>
<path d="M5.33329 7.33333C5.70148 7.33333 5.99996 7.03486 5.99996 6.66667C5.99996 6.29848 5.70148 6 5.33329 6C4.9651 6 4.66663 6.29848 4.66663 6.66667C4.66663 7.03486 4.9651 7.33333 5.33329 7.33333Z" fill="white"/>
<path d="M8.00004 7.33333C8.36823 7.33333 8.66671 7.03486 8.66671 6.66667C8.66671 6.29848 8.36823 6 8.00004 6C7.63185 6 7.33337 6.29848 7.33337 6.66667C7.33337 7.03486 7.63185 7.33333 8.00004 7.33333Z" fill="white"/>
<path d="M10.6667 7.33333C11.0349 7.33333 11.3333 7.03486 11.3333 6.66667C11.3333 6.29848 11.0349 6 10.6667 6C10.2985 6 10 6.29848 10 6.66667C10 7.03486 10.2985 7.33333 10.6667 7.33333Z" fill="white"/>
</svg>
