<svg width="18" height="18" viewBox="0 0 18 18" fill="none" xmlns="http://www.w3.org/2000/svg">
<path opacity="0.5" d="M3 12C2.60218 12 2.22064 11.842 1.93934 11.5607C1.65804 11.2794 1.5 10.8978 1.5 10.5C1.5 10.1022 1.65804 9.72064 1.93934 9.43934C2.22064 9.15804 2.60218 9 3 9C3.39782 9 3.77936 9.15804 4.06066 9.43934C4.34196 9.72064 4.5 10.1022 4.5 10.5C4.5 10.8978 4.34196 11.2794 4.06066 11.5607C3.77936 11.842 3.39782 12 3 12ZM3 4.5C2.60218 4.5 2.22064 4.34196 1.93934 4.06066C1.65804 3.77936 1.5 3.39782 1.5 3C1.5 2.60218 1.65804 2.22064 1.93934 1.93934C2.22064 1.65804 2.60218 1.5 3 1.5C3.39782 1.5 3.77936 1.65804 4.06066 1.93934C4.34196 2.22064 4.5 2.60218 4.5 3C4.5 3.39782 4.34196 3.77936 4.06066 4.06066C3.77936 4.34196 3.39782 4.5 3 4.5ZM10.5 4.5C10.1022 4.5 9.72064 4.34196 9.43934 4.06066C9.15804 3.77936 9 3.39782 9 3C9 2.60218 9.15804 2.22064 9.43934 1.93934C9.72064 1.65804 10.1022 1.5 10.5 1.5C10.8978 1.5 11.2794 1.65804 11.5607 1.93934C11.842 2.22064 12 2.60218 12 3C12 3.39782 11.842 3.77936 11.5607 4.06066C11.2794 4.34196 10.8978 4.5 10.5 4.5ZM10.5 12C10.1022 12 9.72064 11.842 9.43934 11.5607C9.15804 11.2794 9 10.8978 9 10.5C9 10.1022 9.15804 9.72064 9.43934 9.43934C9.72064 9.15804 10.1022 9 10.5 9C10.8978 9 11.2794 9.15804 11.5607 9.43934C11.842 9.72064 12 10.1022 12 10.5C12 10.8978 11.842 11.2794 11.5607 11.5607C11.2794 11.842 10.8978 12 10.5 12Z" fill="white"/>
<path d="M7.5 16.5C7.10218 16.5 6.72064 16.342 6.43934 16.0607C6.15804 15.7794 6 15.3978 6 15C6 14.6022 6.15804 14.2206 6.43934 13.9393C6.72064 13.658 7.10218 13.5 7.5 13.5C7.89782 13.5 8.27936 13.658 8.56066 13.9393C8.84196 14.2206 9 14.6022 9 15C9 15.3978 8.84196 15.7794 8.56066 16.0607C8.27936 16.342 7.89782 16.5 7.5 16.5ZM7.5 9C7.10218 9 6.72064 8.84196 6.43934 8.56066C6.15804 8.27936 6 7.89782 6 7.5C6 7.10218 6.15804 6.72064 6.43934 6.43934C6.72064 6.15804 7.10218 6 7.5 6C7.89782 6 8.27936 6.15804 8.56066 6.43934C8.84196 6.72064 9 7.10218 9 7.5C9 7.89782 8.84196 8.27936 8.56066 8.56066C8.27936 8.84196 7.89782 9 7.5 9ZM15 9C14.6022 9 14.2206 8.84196 13.9393 8.56066C13.658 8.27936 13.5 7.89782 13.5 7.5C13.5 7.10218 13.658 6.72064 13.9393 6.43934C14.2206 6.15804 14.6022 6 15 6C15.3978 6 15.7794 6.15804 16.0607 6.43934C16.342 6.72064 16.5 7.10218 16.5 7.5C16.5 7.89782 16.342 8.27936 16.0607 8.56066C15.7794 8.84196 15.3978 9 15 9ZM15 16.5C14.6022 16.5 14.2206 16.342 13.9393 16.0607C13.658 15.7794 13.5 15.3978 13.5 15C13.5 14.6022 13.658 14.2206 13.9393 13.9393C14.2206 13.658 14.6022 13.5 15 13.5C15.3978 13.5 15.7794 13.658 16.0607 13.9393C16.342 14.2206 16.5 14.6022 16.5 15C16.5 15.3978 16.342 15.7794 16.0607 16.0607C15.7794 16.342 15.3978 16.5 15 16.5Z" fill="white"/>
<path opacity="0.25" d="M9.2085 3.75C9.07196 3.52366 8.9998 3.26434 8.9998 3C8.9998 2.73566 9.07196 2.47634 9.2085 2.25H4.2915C4.42804 2.47634 4.5002 2.73566 4.5002 3C4.5002 3.26434 4.42804 3.52366 4.2915 3.75H9.2085ZM3 9C3.264 9.0015 3.52275 9.0735 3.75 9.2085V4.2915C3.52366 4.42804 3.26434 4.5002 3 4.5002C2.73566 4.5002 2.47634 4.42804 2.25 4.2915V9.2085C2.47725 9.0735 2.736 9.0015 3 9Z" fill="white"/>
<path opacity="0.5" d="M15 13.5C15.264 13.5015 15.5227 13.5735 15.75 13.7085V8.7915C15.5237 8.92804 15.2643 9.0002 15 9.0002C14.7357 9.0002 14.4763 8.92804 14.25 8.7915V13.7085C14.4773 13.5735 14.736 13.5015 15 13.5ZM7.5 13.5C7.764 13.5015 8.02275 13.5735 8.25 13.7085V8.7915C8.02366 8.92804 7.76434 9.0002 7.5 9.0002C7.23566 9.0002 6.97634 8.92804 6.75 8.7915V13.7085C6.97725 13.5735 7.236 13.5015 7.5 13.5Z" fill="white"/>
<path opacity="0.25" d="M9.2085 9.75H8.25V11.25H9.2085C9.07197 11.0237 8.99981 10.7643 8.99981 10.5C8.99981 10.2357 9.07197 9.97634 9.2085 9.75ZM6.75 11.25V9.75H4.2915C4.42804 9.97634 4.5002 10.2357 4.5002 10.5C4.5002 10.7643 4.42804 11.0237 4.2915 11.25H6.75Z" fill="white"/>
<path opacity="0.5" d="M13.7085 14.25H8.7915C8.92804 14.4763 9.0002 14.7357 9.0002 15C9.0002 15.2643 8.92804 15.5237 8.7915 15.75H13.7085C13.572 15.5237 13.4998 15.2643 13.4998 15C13.4998 14.7357 13.572 14.4763 13.7085 14.25ZM13.7085 8.25C13.572 8.02366 13.4998 7.76434 13.4998 7.5C13.4998 7.23566 13.572 6.97634 13.7085 6.75H8.7915C8.92804 6.97634 9.0002 7.23566 9.0002 7.5C9.0002 7.76434 8.92804 8.02366 8.7915 8.25H13.7085Z" fill="white"/>
<path opacity="0.25" d="M11.25 6.75V4.2915C11.0237 4.42804 10.7643 4.5002 10.5 4.5002C10.2357 4.5002 9.97634 4.42804 9.75 4.2915V6.75H11.25ZM9.75 8.25V9.2085C9.97634 9.07197 10.2357 8.99981 10.5 8.99981C10.7643 8.99981 11.0237 9.07197 11.25 9.2085V8.25H9.75Z" fill="white"/>
</svg>
