<svg width="18" height="18" viewBox="0 0 18 18" fill="none" xmlns="http://www.w3.org/2000/svg">
<path opacity="0.5" d="M12.2684 7.93129C12.4161 6.93379 11.6646 6.39679 10.6371 6.03904L10.9709 4.68754L10.1571 4.48204L9.83239 5.79829C9.61864 5.74429 9.39889 5.69329 9.18064 5.64304L9.50764 4.31854L8.69389 4.11304L8.36089 5.46454C8.18724 5.42524 8.01398 5.38424 7.84114 5.34154L7.84189 5.33704L6.71989 5.05354L6.50389 5.93254C6.50389 5.93254 7.10689 6.07279 7.09489 6.08104C7.32964 6.11104 7.49764 6.32404 7.47364 6.55954L6.56089 10.263C6.54945 10.3005 6.53066 10.3354 6.50561 10.3656C6.48056 10.3958 6.44976 10.4206 6.415 10.4388C6.38023 10.4569 6.3422 10.468 6.30313 10.4713C6.26405 10.4746 6.22471 10.4701 6.18739 10.458C6.19564 10.4708 5.59639 10.3095 5.59639 10.3095L5.19214 11.2515L6.25114 11.5185C6.44839 11.568 6.64114 11.6205 6.83089 11.6693L6.49414 13.0373L7.30714 13.242L7.64089 11.889C7.86289 11.9505 8.07814 12.0068 8.28889 12.0593L7.95664 13.4055L8.77039 13.611L9.10714 12.246C10.4946 12.5115 11.5379 12.4043 11.9774 11.136C12.0677 10.9572 12.12 10.7617 12.1309 10.5617C12.1419 10.3616 12.1112 10.1615 12.041 9.97394C11.9707 9.78635 11.8624 9.61536 11.7227 9.47175C11.5831 9.32813 11.4152 9.21502 11.2296 9.13954C11.5116 9.08082 11.7663 8.93061 11.9542 8.71226C12.142 8.49391 12.2525 8.21963 12.2684 7.93204V7.93129ZM10.4091 10.5683C10.1579 11.5898 8.45689 11.0378 7.90489 10.8983L8.35189 9.08779C8.90314 9.22654 10.6724 9.50254 10.4091 10.5683ZM10.6611 7.91704C10.4316 8.84629 9.01564 8.37454 8.55664 8.25829L8.96164 6.61579C9.42064 6.73129 10.8996 6.94729 10.6611 7.91704Z" fill="white"/>
<path d="M8.96178 6.61499L8.55678 8.25824C9.01578 8.37374 10.4318 8.84624 10.6613 7.91699C10.8998 6.94724 9.42078 6.73124 8.96178 6.61499ZM8.35203 9.08774L7.90503 10.899C8.45703 11.0377 10.158 11.5897 10.41 10.5682C10.6725 9.50249 8.90328 9.22649 8.35203 9.08774Z" fill="white"/>
<path d="M9 1.5C4.85775 1.5 1.5 4.85775 1.5 9C1.5 13.1423 4.85775 16.5 9 16.5C13.1423 16.5 16.5 13.1423 16.5 9C16.5 4.85775 13.1423 1.5 9 1.5ZM12.2685 7.93125C12.2527 8.21897 12.1423 8.49342 11.9545 8.71193C11.7666 8.93043 11.5119 9.08075 11.2297 9.1395C11.4151 9.215 11.5828 9.32807 11.7223 9.47157C11.8618 9.61507 11.9701 9.7859 12.0404 9.97331C12.1106 10.1607 12.1413 10.3606 12.1305 10.5605C12.1196 10.7603 12.0676 10.9558 11.9775 11.1345C11.538 12.4043 10.4948 12.5115 9.10725 12.246L8.7705 13.611L7.95675 13.4055L8.289 12.0592C8.079 12.0068 7.863 11.9505 7.641 11.889L7.30725 13.242L6.49425 13.0372L6.83175 11.6693C6.64125 11.6205 6.4485 11.568 6.25125 11.5185L5.19225 11.2515L5.5965 10.3095C5.5965 10.3095 6.1965 10.4707 6.1875 10.4587L6.19125 10.4595C6.22843 10.471 6.2675 10.475 6.30623 10.4713C6.34496 10.4676 6.38258 10.4563 6.41693 10.438C6.45129 10.4198 6.4817 10.3949 6.50642 10.3649C6.53114 10.3348 6.54969 10.3002 6.561 10.263L7.47375 6.5595C7.48545 6.44611 7.4524 6.33263 7.38165 6.24325C7.31091 6.15387 7.20805 6.09565 7.095 6.081C7.107 6.07275 6.504 5.9325 6.504 5.9325L6.72 5.0535L7.842 5.337L7.84125 5.3415C8.01 5.3835 8.184 5.424 8.361 5.4645L8.694 4.113L9.50775 4.3185L9.18075 5.643C9.399 5.694 9.61875 5.74425 9.83325 5.79825L10.1573 4.482L10.971 4.6875L10.6372 6.039C11.6648 6.39675 12.4163 6.93375 12.2685 7.93125Z" fill="white"/>
</svg>
