<svg width="18" height="18" viewBox="0 0 18 18" fill="none" xmlns="http://www.w3.org/2000/svg">
<path opacity="0.5" d="M8.25 7.5H12C12.1989 7.5 12.3897 7.57902 12.5303 7.71967C12.671 7.86032 12.75 8.05109 12.75 8.25V12C12.75 12.1989 12.671 12.3897 12.5303 12.5303C12.3897 12.671 12.1989 12.75 12 12.75H8.25C8.05109 12.75 7.86032 12.671 7.71967 12.5303C7.57902 12.3897 7.5 12.1989 7.5 12V8.25C7.5 8.05109 7.57902 7.86032 7.71967 7.71967C7.86032 7.57902 8.05109 7.5 8.25 7.5Z" fill="white"/>
<path d="M7.5 8.25C7.5 8.05109 7.57902 7.86032 7.71967 7.71967C7.86032 7.57902 8.05109 7.5 8.25 7.5H10.5V6C10.5 5.80109 10.421 5.61032 10.2803 5.46967C10.1397 5.32902 9.94891 5.25 9.75 5.25H6C5.80109 5.25 5.61032 5.32902 5.46967 5.46967C5.32902 5.61032 5.25 5.80109 5.25 6V9.75C5.25 9.94891 5.32902 10.1397 5.46967 10.2803C5.61032 10.421 5.80109 10.5 6 10.5H7.5V8.25ZM3 16.5C2.60218 16.5 2.22064 16.342 1.93934 16.0607C1.65804 15.7794 1.5 15.3978 1.5 15C1.5 14.6022 1.65804 14.2206 1.93934 13.9393C2.22064 13.658 2.60218 13.5 3 13.5C3.39782 13.5 3.77936 13.658 4.06066 13.9393C4.34196 14.2206 4.5 14.6022 4.5 15C4.5 15.3978 4.34196 15.7794 4.06066 16.0607C3.77936 16.342 3.39782 16.5 3 16.5ZM3 4.5C2.60218 4.5 2.22064 4.34196 1.93934 4.06066C1.65804 3.77936 1.5 3.39782 1.5 3C1.5 2.60218 1.65804 2.22064 1.93934 1.93934C2.22064 1.65804 2.60218 1.5 3 1.5C3.39782 1.5 3.77936 1.65804 4.06066 1.93934C4.34196 2.22064 4.5 2.60218 4.5 3C4.5 3.39782 4.34196 3.77936 4.06066 4.06066C3.77936 4.34196 3.39782 4.5 3 4.5ZM15 4.5C14.6022 4.5 14.2206 4.34196 13.9393 4.06066C13.658 3.77936 13.5 3.39782 13.5 3C13.5 2.60218 13.658 2.22064 13.9393 1.93934C14.2206 1.65804 14.6022 1.5 15 1.5C15.3978 1.5 15.7794 1.65804 16.0607 1.93934C16.342 2.22064 16.5 2.60218 16.5 3C16.5 3.39782 16.342 3.77936 16.0607 4.06066C15.7794 4.34196 15.3978 4.5 15 4.5ZM15 16.5C14.6022 16.5 14.2206 16.342 13.9393 16.0607C13.658 15.7794 13.5 15.3978 13.5 15C13.5 14.6022 13.658 14.2206 13.9393 13.9393C14.2206 13.658 14.6022 13.5 15 13.5C15.3978 13.5 15.7794 13.658 16.0607 13.9393C16.342 14.2206 16.5 14.6022 16.5 15C16.5 15.3978 16.342 15.7794 16.0607 16.0607C15.7794 16.342 15.3978 16.5 15 16.5Z" fill="white"/>
<path opacity="0.25" d="M13.7085 3.75C13.572 3.52366 13.4998 3.26434 13.4998 3C13.4998 2.73566 13.572 2.47634 13.7085 2.25H4.2915C4.42804 2.47634 4.5002 2.73566 4.5002 3C4.5002 3.26434 4.42804 3.52366 4.2915 3.75H13.7085ZM15 13.5C15.264 13.5015 15.5227 13.5735 15.75 13.7085V4.2915C15.5237 4.42804 15.2643 4.5002 15 4.5002C14.7357 4.5002 14.4763 4.42804 14.25 4.2915V13.7085C14.4773 13.5735 14.736 13.5015 15 13.5ZM3 13.5C3.264 13.5015 3.52275 13.5735 3.75 13.7085V4.2915C3.52366 4.42804 3.26434 4.5002 3 4.5002C2.73566 4.5002 2.47634 4.42804 2.25 4.2915V13.7085C2.47725 13.5735 2.736 13.5015 3 13.5ZM13.7085 14.25H4.2915C4.42804 14.4763 4.5002 14.7357 4.5002 15C4.5002 15.2643 4.42804 15.5237 4.2915 15.75H13.7085C13.572 15.5237 13.4998 15.2643 13.4998 15C13.4998 14.7357 13.572 14.4763 13.7085 14.25Z" fill="white"/>
</svg>
