<svg width="90" height="20" viewBox="0 0 90 20" fill="none" xmlns="http://www.w3.org/2000/svg">
<path d="M46.9141 10C46.9141 11.0571 46.0571 11.9141 45 11.9141C43.9429 11.9141 43.0859 11.0571 43.0859 10C43.0859 8.94287 43.9429 8.08594 45 8.08594C46.0571 8.08594 46.9141 8.94287 46.9141 10Z" fill="#8499B1"/>
<path d="M49.4763 6.61343C49.3843 6.3641 49.2375 6.13843 49.0468 5.95319C48.8615 5.76245 48.636 5.61566 48.3865 5.52365C48.1842 5.44507 47.8802 5.35153 47.3204 5.32605C46.7148 5.29843 46.5332 5.29248 45 5.29248C43.4666 5.29248 43.2851 5.29828 42.6796 5.3259C42.1198 5.35153 41.8156 5.44507 41.6135 5.52365C41.364 5.61566 41.1383 5.76245 40.9532 5.95319C40.7625 6.13843 40.6157 6.36395 40.5235 6.61343C40.4449 6.81577 40.3514 7.11987 40.3259 7.67972C40.2983 8.28519 40.2924 8.46677 40.2924 10.0001C40.2924 11.5333 40.2983 11.7149 40.3259 12.3205C40.3514 12.8804 40.4449 13.1843 40.5235 13.3867C40.6157 13.6361 40.7623 13.8617 40.9531 14.0469C41.1383 14.2376 41.3638 14.3844 41.6133 14.4764C41.8156 14.5552 42.1198 14.6487 42.6796 14.6742C43.2851 14.7018 43.4665 14.7076 44.9998 14.7076C46.5334 14.7076 46.7149 14.7018 47.3203 14.6742C47.8801 14.6487 48.1842 14.5552 48.3865 14.4764C48.8873 14.2833 49.2831 13.8874 49.4763 13.3867C49.5549 13.1843 49.6484 12.8804 49.6741 12.3205C49.7017 11.7149 49.7075 11.5333 49.7075 10.0001C49.7075 8.46677 49.7017 8.28519 49.6741 7.67972C49.6486 7.11987 49.5551 6.81577 49.4763 6.61343ZM45 12.9486C43.3714 12.9486 42.0512 11.6285 42.0512 9.99997C42.0512 8.3714 43.3714 7.05136 45 7.05136C46.6284 7.05136 47.9486 8.3714 47.9486 9.99997C47.9486 11.6285 46.6284 12.9486 45 12.9486ZM48.0652 7.62387C47.6846 7.62387 47.3761 7.31534 47.3761 6.93478C47.3761 6.55423 47.6846 6.2457 48.0652 6.2457C48.4457 6.2457 48.7543 6.55423 48.7543 6.93478C48.7541 7.31534 48.4457 7.62387 48.0652 7.62387Z" fill="#8499B1"/>
<path d="M45 0C39.478 0 35 4.478 35 10C35 15.522 39.478 20 45 20C50.522 20 55 15.522 55 10C55 4.478 50.522 0 45 0ZM50.7076 12.3674C50.6798 12.9787 50.5826 13.396 50.4407 13.7613C50.1424 14.5326 49.5326 15.1424 48.7613 15.4407C48.3961 15.5826 47.9787 15.6796 47.3676 15.7076C46.7552 15.7355 46.5596 15.7422 45.0002 15.7422C43.4406 15.7422 43.2451 15.7355 42.6326 15.7076C42.0215 15.6796 41.604 15.5826 41.2389 15.4407C40.8556 15.2965 40.5086 15.0705 40.2217 14.7783C39.9297 14.4916 39.7037 14.1444 39.5595 13.7613C39.4176 13.3961 39.3204 12.9787 39.2926 12.3676C39.2644 11.7551 39.2578 11.5594 39.2578 10C39.2578 8.44055 39.2644 8.24493 39.2924 7.6326C39.3202 7.02133 39.4173 6.604 39.5592 6.23871C39.7034 5.85556 39.9295 5.50842 40.2217 5.22171C40.5084 4.9295 40.8556 4.70352 41.2387 4.55933C41.604 4.41742 42.0213 4.32037 42.6326 4.29245C43.2449 4.26453 43.4406 4.25781 45 4.25781C46.5594 4.25781 46.7551 4.26453 47.3674 4.2926C47.9787 4.32037 48.396 4.41742 48.7613 4.55917C49.1444 4.70337 49.4916 4.9295 49.7784 5.22171C50.0705 5.50858 50.2966 5.85556 50.4407 6.23871C50.5827 6.604 50.6798 7.02133 50.7077 7.6326C50.7356 8.24493 50.7422 8.44055 50.7422 10C50.7422 11.5594 50.7356 11.7551 50.7076 12.3674Z" fill="#8499B1"/>
<path d="M78.7546 11.8739L82.0075 10.0004L78.7546 8.12695V11.8739Z" fill="#8499B1"/>
<path d="M80 0C74.478 0 70 4.478 70 10C70 15.522 74.478 20 80 20C85.522 20 90 15.522 90 10C90 4.478 85.522 0 80 0ZM86.2485 10.0102C86.2485 10.0102 86.2485 12.0383 85.9912 13.0162C85.847 13.5515 85.425 13.9735 84.8897 14.1176C83.9117 14.375 80 14.375 80 14.375C80 14.375 76.0985 14.375 75.1103 14.1074C74.575 13.9633 74.153 13.5411 74.0088 13.0058C73.7514 12.0383 73.7514 10 73.7514 10C73.7514 10 73.7514 7.97211 74.0088 6.99417C74.1528 6.45889 74.5853 6.02646 75.1103 5.88242C76.0883 5.625 80 5.625 80 5.625C80 5.625 83.9117 5.625 84.8897 5.89264C85.425 6.03668 85.847 6.45889 85.9912 6.99417C86.2589 7.97211 86.2485 10.0102 86.2485 10.0102Z" fill="#8499B1"/>
<path d="M11.6127 19.8701C11.5294 19.8837 11.4457 19.8962 11.3618 19.9077C11.4457 19.8962 11.5294 19.8837 11.6127 19.8701Z" fill="#8499B1"/>
<path d="M11.8129 19.8359C11.773 19.8433 11.7332 19.85 11.6934 19.8568C11.7332 19.85 11.773 19.8433 11.8129 19.8359Z" fill="#8499B1"/>
<path d="M11.1383 19.9346C11.0408 19.9456 10.9426 19.9553 10.8442 19.9636C10.9426 19.9553 11.0408 19.9456 11.1383 19.9346Z" fill="#8499B1"/>
<path d="M11.3309 19.9116C11.284 19.9179 11.2369 19.9237 11.1899 19.9292C11.2369 19.9237 11.284 19.9179 11.3309 19.9116Z" fill="#8499B1"/>
<path d="M12.0841 19.7822C12.049 19.7897 12.0137 19.7972 11.9785 19.8044C12.0137 19.7972 12.049 19.7897 12.0841 19.7822Z" fill="#8499B1"/>
<path d="M12.7604 19.6138C12.732 19.6219 12.7037 19.6295 12.6753 19.6374C12.7037 19.6295 12.732 19.6219 12.7604 19.6138Z" fill="#8499B1"/>
<path d="M12.5552 19.6699C12.5244 19.678 12.4934 19.6862 12.4624 19.694C12.4934 19.6862 12.5244 19.6782 12.5552 19.6699Z" fill="#8499B1"/>
<path d="M12.2894 19.7363C12.2568 19.744 12.2238 19.7511 12.1909 19.7585C12.2238 19.7511 12.2568 19.744 12.2894 19.7363Z" fill="#8499B1"/>
<path d="M10.8412 19.9639C10.7885 19.9683 10.7359 19.9723 10.6831 19.9758C10.7359 19.9723 10.7885 19.9683 10.8412 19.9639Z" fill="#8499B1"/>
<path d="M20 10C20 4.478 15.522 0 10 0C4.478 0 0 4.478 0 10C0 15.522 4.478 20 10 20C10.0587 20 10.1172 19.9988 10.1758 19.9977V12.2131H8.02734V9.70932H10.1758V7.86682C10.1758 5.72998 11.4803 4.56696 13.3864 4.56696C14.2992 4.56696 15.0838 4.63501 15.3125 4.66537V6.89865H13.9981C12.9611 6.89865 12.7603 7.39151 12.7603 8.11462V9.70932H15.2399L14.9167 12.2131H12.7603V19.6136C16.9402 18.4154 20 14.5645 20 10Z" fill="#8499B1"/>
<path d="M10.6606 19.978C10.5565 19.9847 10.452 19.9901 10.3472 19.9936C10.452 19.9901 10.5565 19.9847 10.6606 19.978Z" fill="#8499B1"/>
<path d="M10.3421 19.9932C10.2868 19.995 10.2315 19.9964 10.1761 19.9973C10.2315 19.9964 10.2868 19.995 10.3421 19.9932Z" fill="#8499B1"/>
</svg>
