<svg width="96" height="36" viewBox="0 0 96 36" fill="none" xmlns="http://www.w3.org/2000/svg">
<rect width="96" height="36" rx="10" fill="white"/>
<path d="M29.5354 15.05H36.5983V16.3648H33.8173V23.7767H32.2931V16.3648H29.5238L29.5354 15.05ZM36.2957 17.4586H37.5989V18.6803H37.6222C37.6688 18.5058 37.7502 18.3429 37.8666 18.18C37.9829 18.0171 38.1226 17.8658 38.2971 17.7378C38.46 17.5982 38.6462 17.4935 38.8556 17.412C39.0534 17.3306 39.2628 17.284 39.4723 17.284C39.6352 17.284 39.7515 17.2957 39.8097 17.2957C39.8679 17.3073 39.9377 17.3189 39.9959 17.3189V18.657C39.9028 18.6338 39.7981 18.6221 39.6934 18.6105C39.5886 18.5989 39.4956 18.5872 39.3908 18.5872C39.1581 18.5872 38.937 18.6338 38.7276 18.7269C38.5182 18.8199 38.3436 18.9596 38.1807 19.1341C38.0295 19.3203 37.9015 19.5414 37.8084 19.809C37.7153 20.0766 37.6688 20.3908 37.6688 20.7398V23.7418H36.2725L36.2957 17.4586ZM46.3955 23.7767H45.0225V22.8924H44.9992C44.8247 23.2182 44.5687 23.4626 44.2313 23.6604C43.8938 23.8582 43.5448 23.9513 43.1957 23.9513C42.3696 23.9513 41.7645 23.7535 41.3922 23.3346C41.0198 22.9273 40.8337 22.299 40.8337 21.4729V17.4586H42.2299V21.3333C42.2299 21.8918 42.3347 22.2874 42.5557 22.5085C42.7652 22.7412 43.0677 22.8575 43.4517 22.8575C43.7426 22.8575 43.9869 22.811 44.1847 22.7179C44.3825 22.6248 44.5454 22.5085 44.6618 22.3572C44.7898 22.2059 44.8712 22.0198 44.9294 21.8103C44.9876 21.6009 45.0109 21.3682 45.0109 21.1238V17.4586L46.4072 17.4586V23.7767H46.3955ZM48.7692 21.7521C48.8157 22.1594 48.967 22.4386 49.2346 22.6132C49.5022 22.7761 49.828 22.8575 50.2004 22.8575C50.3284 22.8575 50.4796 22.8459 50.6425 22.8226C50.8054 22.7993 50.9683 22.7644 51.108 22.7063C51.2592 22.6481 51.3756 22.5666 51.4687 22.4503C51.5618 22.3339 51.6083 22.1943 51.5967 22.0198C51.585 21.8452 51.5268 21.694 51.3989 21.5776C51.2709 21.4612 51.1196 21.3798 50.9334 21.2983C50.7473 21.2285 50.5262 21.1704 50.2818 21.1238C50.0375 21.0773 49.7931 21.0191 49.5371 20.9609C49.2812 20.9027 49.0252 20.8329 48.7808 20.7515C48.5365 20.67 48.327 20.5653 48.1292 20.414C47.9431 20.2744 47.7802 20.0999 47.6754 19.8788C47.5591 19.6577 47.5009 19.4017 47.5009 19.0759C47.5009 18.7269 47.5824 18.4476 47.7569 18.2149C47.9198 17.9822 48.1409 17.796 48.3969 17.6564C48.6528 17.5168 48.9437 17.412 49.2579 17.3539C49.5721 17.2957 49.8746 17.2724 50.1538 17.2724C50.4796 17.2724 50.7938 17.3073 51.0847 17.3771C51.3756 17.4469 51.6548 17.5517 51.8876 17.7146C52.1319 17.8658 52.3297 18.0753 52.481 18.3196C52.6439 18.564 52.737 18.8665 52.7835 19.2156H51.329C51.2592 18.8781 51.108 18.657 50.8752 18.5407C50.6309 18.4243 50.3633 18.3662 50.0491 18.3662C49.956 18.3662 49.828 18.3778 49.7 18.3894C49.5604 18.4127 49.4441 18.436 49.3161 18.4825C49.1997 18.5291 49.095 18.5989 49.0135 18.6803C48.9321 18.7618 48.8855 18.8781 48.8855 19.0178C48.8855 19.1923 48.9437 19.3203 49.0601 19.425C49.1764 19.5297 49.3277 19.6112 49.5255 19.6926C49.7117 19.7624 49.9328 19.8206 50.1771 19.8672C50.4215 19.9137 50.6774 19.9719 50.9334 20.0301C51.1894 20.0882 51.4338 20.158 51.6781 20.2395C51.9225 20.3209 52.1435 20.4257 52.3297 20.5769C52.5159 20.7166 52.6788 20.8911 52.7951 21.1005C52.9115 21.31 52.9697 21.5776 52.9697 21.8801C52.9697 22.2525 52.8882 22.5666 52.7137 22.8343C52.5392 23.0902 52.3181 23.3113 52.0505 23.4742C51.7828 23.6371 51.4687 23.7535 51.1429 23.8349C50.8054 23.9047 50.4796 23.9513 50.1538 23.9513C49.7582 23.9513 49.3859 23.9047 49.0484 23.8117C48.711 23.7186 48.4085 23.5789 48.1641 23.4044C47.9198 23.2182 47.722 22.9972 47.5824 22.7179C47.4427 22.4503 47.3613 22.1245 47.3496 21.7405L48.7576 21.7405V21.7521H48.7692ZM53.3653 17.4586H54.4241V15.5503H55.8204V17.4469H57.0771V18.4825H55.8204V21.8569C55.8204 22.0081 55.832 22.1245 55.8437 22.2408C55.8553 22.3456 55.8902 22.4386 55.9251 22.5085C55.9717 22.5783 56.0415 22.6364 56.1229 22.6714C56.216 22.7063 56.3324 22.7295 56.4953 22.7295C56.5884 22.7295 56.6931 22.7295 56.7862 22.7179C56.8793 22.7063 56.984 22.6946 57.0771 22.6714V23.7535C56.9258 23.7767 56.7745 23.7884 56.6233 23.8C56.472 23.8233 56.3324 23.8233 56.1695 23.8233C55.7971 23.8233 55.5062 23.7884 55.2852 23.7186C55.0641 23.6488 54.8896 23.544 54.7616 23.416C54.6336 23.2764 54.5521 23.1135 54.5056 22.9157C54.459 22.7179 54.4358 22.4735 54.4241 22.2176V18.4941H53.3653V17.4353V17.4586ZM58.0545 17.4586H59.3693V18.3196H59.3926C59.5904 17.9473 59.858 17.6913 60.2071 17.5284C60.5561 17.3655 60.9285 17.284 61.3474 17.284C61.8477 17.284 62.2782 17.3655 62.6506 17.5517C63.0229 17.7262 63.3254 17.9589 63.5698 18.2731C63.8141 18.5756 64.0003 18.9363 64.1166 19.3436C64.233 19.7508 64.3028 20.193 64.3028 20.6467C64.3028 21.0773 64.2446 21.4845 64.1399 21.8801C64.0236 22.2757 63.8607 22.6364 63.6396 22.939C63.4185 23.2415 63.1393 23.4859 62.7902 23.672C62.4411 23.8582 62.0455 23.9513 61.5801 23.9513C61.3823 23.9513 61.1728 23.928 60.975 23.8931C60.7772 23.8582 60.5794 23.8 60.3932 23.7186C60.2071 23.6371 60.0325 23.5324 59.8813 23.4044C59.7184 23.2764 59.5904 23.1251 59.4857 22.9622H59.4624V26.1155H58.0661V17.4586H58.0545ZM62.9298 20.6235C62.9298 20.3442 62.8949 20.065 62.8135 19.7973C62.7436 19.5297 62.6273 19.297 62.476 19.0876C62.3248 18.8781 62.1386 18.7152 61.9291 18.5872C61.7081 18.4592 61.4521 18.4011 61.1728 18.4011C60.591 18.4011 60.1489 18.5989 59.8464 19.0061C59.5555 19.4134 59.4042 19.9602 59.4042 20.6351C59.4042 20.9609 59.4391 21.2518 59.5206 21.5194C59.602 21.787 59.7067 22.0198 59.8696 22.2176C60.0209 22.4154 60.2071 22.5666 60.4281 22.683C60.6492 22.7993 60.8936 22.8575 61.1845 22.8575C61.5103 22.8575 61.7662 22.7877 61.9873 22.6597C62.2084 22.5317 62.3829 22.3572 62.5342 22.1594C62.6738 21.9499 62.7785 21.7172 62.8367 21.4496C62.8949 21.1704 62.9298 20.9027 62.9298 20.6235ZM65.3849 15.05L66.7812 15.05V16.3648H65.3849V15.05ZM65.3849 17.4586H66.7812V23.7767L65.3849 23.7767V17.4586ZM68.0262 15.05H69.4225V23.7767H68.0262V15.05ZM73.6812 23.9513C73.1808 23.9513 72.727 23.8698 72.3314 23.6953C71.9358 23.5208 71.61 23.2997 71.3308 23.0088C71.0632 22.7179 70.8537 22.3572 70.7141 21.9499C70.5744 21.5427 70.493 21.0889 70.493 20.6118C70.493 20.1348 70.5628 19.6926 70.7141 19.2854C70.8537 18.8781 71.0632 18.5291 71.3308 18.2265C71.5984 17.9356 71.9358 17.7029 72.3314 17.54C72.727 17.3771 73.1808 17.284 73.6812 17.284C74.1815 17.284 74.6353 17.3655 75.0309 17.54C75.4265 17.7029 75.7523 17.9356 76.0316 18.2265C76.2992 18.5174 76.5086 18.8781 76.6483 19.2854C76.7879 19.6926 76.8693 20.1348 76.8693 20.6118C76.8693 21.1005 76.7995 21.5427 76.6483 21.9499C76.497 22.3572 76.2992 22.7063 76.0316 23.0088C75.764 23.2997 75.4265 23.5324 75.0309 23.6953C74.6353 23.8582 74.1931 23.9513 73.6812 23.9513ZM73.6812 22.8459C73.9837 22.8459 74.263 22.7761 74.484 22.6481C74.7167 22.5201 74.8913 22.3456 75.0425 22.1361C75.1938 21.9267 75.2985 21.6823 75.3683 21.4263C75.4382 21.1587 75.4731 20.8911 75.4731 20.6118C75.4731 20.3442 75.4382 20.0766 75.3683 19.809C75.2985 19.5414 75.1938 19.3086 75.0425 19.0992C74.8913 18.8898 74.7051 18.7269 74.484 18.5989C74.2513 18.4709 73.9837 18.4011 73.6812 18.4011C73.3786 18.4011 73.0994 18.4709 72.8783 18.5989C72.6456 18.7269 72.4711 18.9014 72.3198 19.0992C72.1685 19.3086 72.0638 19.5414 71.994 19.809C71.9242 20.0766 71.8893 20.3442 71.8893 20.6118C71.8893 20.8911 71.9242 21.1587 71.994 21.4263C72.0638 21.694 72.1685 21.9267 72.3198 22.1361C72.4711 22.3456 72.6572 22.5201 72.8783 22.6481C73.111 22.7877 73.3786 22.8459 73.6812 22.8459ZM77.2882 17.4586H78.3471V15.5503H79.7434V17.4469H81V18.4825H79.7434V21.8569C79.7434 22.0081 79.755 22.1245 79.7666 22.2408C79.7783 22.3456 79.8132 22.4386 79.8481 22.5085C79.8946 22.5783 79.9644 22.6364 80.0459 22.6714C80.139 22.7063 80.2553 22.7295 80.4182 22.7295C80.5113 22.7295 80.616 22.7295 80.7091 22.7179C80.8022 22.7063 80.9069 22.6946 81 22.6714V23.7535C80.8487 23.7767 80.6975 23.7884 80.5462 23.8C80.395 23.8233 80.2553 23.8233 80.0924 23.8233C79.7201 23.8233 79.4292 23.7884 79.2081 23.7186C78.987 23.6488 78.8125 23.544 78.6845 23.416C78.5565 23.2764 78.4751 23.1135 78.4285 22.9157C78.382 22.7179 78.3587 22.4735 78.3471 22.2176V18.4941H77.2882V17.4353V17.4586Z" fill="black"/>
<path d="M11 15.0738H17.388L19.3544 9L21.3325 15.0738L27.7205 15.0622L22.5542 18.8205L24.5323 24.8943L19.366 21.136L14.1998 24.8943L16.1662 18.8205L11 15.0738Z" fill="#00B67A"/>
<path d="M15.7241 20.1935L16.1662 18.8205L19.3544 21.136L15.7241 20.1935Z" fill="#005128"/>
</svg>
