<svg width="24" height="24" viewBox="0 0 24 24" fill="none" xmlns="http://www.w3.org/2000/svg">
<path d="M18.54 9.00003L8.88003 3.46003C8.35732 3.15819 7.76403 3.00006 7.16042 3.00172C6.55682 3.00338 5.96441 3.16476 5.44336 3.46947C4.92231 3.77417 4.49119 4.21135 4.19378 4.7366C3.89637 5.26185 3.74327 5.85646 3.75003 6.46003V17.58C3.75003 18.4871 4.11035 19.357 4.75173 19.9983C5.3931 20.6397 6.26299 21 7.17003 21C7.77047 20.999 8.36012 20.8404 8.88003 20.54L18.54 15C19.0591 14.6996 19.49 14.268 19.7896 13.7485C20.0892 13.2289 20.2469 12.6397 20.2469 12.04C20.2469 11.4403 20.0892 10.8511 19.7896 10.3316C19.49 9.81206 19.0591 9.38044 18.54 9.08003V9.00003ZM17.54 13.19L7.88003 18.81C7.66352 18.9327 7.4189 18.9972 7.17003 18.9972C6.92116 18.9972 6.67655 18.9327 6.46003 18.81C6.24413 18.6854 6.06485 18.5061 5.94021 18.2902C5.81558 18.0743 5.74999 17.8293 5.75003 17.58V6.42003C5.74999 6.17072 5.81558 5.9258 5.94021 5.70989C6.06485 5.49397 6.24413 5.31468 6.46003 5.19003C6.67744 5.06918 6.92133 5.00392 7.17003 5.00003C7.41856 5.00513 7.66217 5.07032 7.88003 5.19003L17.54 10.77C17.756 10.8946 17.9354 11.0739 18.0601 11.2898C18.1848 11.5057 18.2505 11.7507 18.2505 12C18.2505 12.2494 18.1848 12.4943 18.0601 12.7102C17.9354 12.9262 17.756 13.1054 17.54 13.23V13.19Z" fill="white"/>
</svg>
