<svg width="32" height="36" viewBox="0 0 32 36" fill="none" xmlns="http://www.w3.org/2000/svg">
<path fill-rule="evenodd" clip-rule="evenodd" d="M5.53573 15.75H4.57145C3.94287 15.75 3.42859 15.2437 3.42859 14.625V7.875C3.42859 7.25625 3.94287 6.75 4.57145 6.75H5.53573C7.30002 2.77734 11.3143 0 16 0C20.6857 0 24.7 2.77734 26.4643 6.75H27.4286C28.0572 6.75 28.5714 7.25625 28.5714 7.875V14.625C28.5714 15.2437 28.0572 15.75 27.4286 15.75H26.4643C24.7 19.7227 20.6857 22.5 16 22.5C11.3143 22.5 7.30002 19.7227 5.53573 15.75ZM10.8572 6.75C8.9643 6.75 7.42859 8.00859 7.42859 9.5625V11.25C7.42859 14.9766 10.5 18 14.2857 18H17.7143C21.5 18 24.5714 14.9766 24.5714 11.25V9.5625C24.5714 8.00859 23.0357 6.75 21.1429 6.75H10.8572ZM12.5715 14.625L13.4286 12.0938L16 11.25L13.4286 10.4062L12.5715 7.875L11.7143 10.4062L9.14288 11.25L11.7143 12.0938L12.5715 14.625ZM16 24.75C18.7286 24.75 21.2643 23.9554 23.4 22.5984C28.2214 23.0976 32 27.0703 32 31.95V32.625C32 34.4882 30.4643 36 28.5714 36H22.8571V31.5C22.8571 30.2554 21.8357 29.25 20.5714 29.25H11.4286C10.1643 29.25 9.14286 30.2554 9.14286 31.5V36H3.42857C1.53571 36 0 34.4882 0 32.625V31.95C0 27.0703 3.77857 23.0976 8.6 22.5984C10.7357 23.9554 13.2714 24.75 16 24.75ZM19.4286 31.5C18.8 31.5 18.2857 32.0062 18.2857 32.625C18.2857 33.2438 18.8 33.75 19.4286 33.75C20.0571 33.75 20.5714 33.2438 20.5714 32.625C20.5714 32.0062 20.0571 31.5 19.4286 31.5ZM11.4286 32.625C11.4286 32.0062 11.9429 31.5 12.5714 31.5C13.2 31.5 13.7143 32.0062 13.7143 32.625V36H11.4286V32.625Z" fill="#0057FF"/>
</svg>
