<svg width="120" height="40" viewBox="0 0 120 40" fill="none" xmlns="http://www.w3.org/2000/svg">
<g clip-path="url(#clip0)">
<path d="M110.135 0.00013H9.53468C9.16798 0.00013 8.80568 0.00013 8.43995 0.00213C8.1338 0.00413 7.83009 0.00994 7.521 0.01483C6.84951 0.0227318 6.17961 0.0818063 5.5171 0.19154C4.85552 0.303663 4.21467 0.515046 3.61622 0.81854C3.0185 1.1246 2.47235 1.5223 1.99757 1.9972C1.5203 2.47077 1.12246 3.01815 0.81935 3.61829C0.5154 4.21724 0.304641 4.85907 0.19435 5.52161C0.0830109 6.18332 0.0230984 6.85265 0.01515 7.52361C0.00587 7.83021 0.00489 8.13783 0 8.44447V31.5587C0.00489 31.8692 0.00587 32.17 0.01515 32.4806C0.0231008 33.1516 0.0830134 33.8209 0.19435 34.4825C0.304336 35.1455 0.515108 35.7877 0.81935 36.3868C1.12233 36.985 1.52022 37.5302 1.99757 38.0011C2.47054 38.4781 3.01705 38.8761 3.61622 39.1798C4.21467 39.4841 4.85545 39.6968 5.5171 39.8106C6.17972 39.9195 6.84956 39.9786 7.521 39.9874C7.83009 39.9942 8.1338 39.9981 8.43995 39.9981C8.80567 40.0001 9.168 40.0001 9.53468 40.0001H110.135C110.494 40.0001 110.859 40.0001 111.219 39.9981C111.523 39.9981 111.836 39.9942 112.141 39.9874C112.811 39.9791 113.479 39.92 114.141 39.8106C114.804 39.696 115.448 39.4834 116.049 39.1798C116.647 38.8759 117.193 38.478 117.666 38.0011C118.142 37.5284 118.541 36.9836 118.848 36.3868C119.15 35.7872 119.358 35.1451 119.467 34.4825C119.578 33.8208 119.64 33.1516 119.652 32.4806C119.656 32.17 119.656 31.8692 119.656 31.5587C119.664 31.1954 119.664 30.8341 119.664 30.4649V9.53626C119.664 9.17005 119.664 8.80677 119.656 8.44447C119.656 8.13783 119.656 7.83021 119.652 7.52357C119.64 6.85255 119.578 6.18337 119.467 5.52157C119.358 4.85941 119.149 4.21763 118.848 3.61825C118.23 2.41533 117.252 1.43616 116.049 0.81845C115.448 0.515697 114.804 0.30437 114.141 0.19145C113.48 0.0812328 112.811 0.0221378 112.141 0.01469C111.836 0.00981 111.523 0.00395 111.219 0.002C110.859 0 110.494 0 110.135 0V0.00013Z" fill="#2C3953"/>
<path d="M8.44487 39.125C8.14019 39.125 7.84287 39.1211 7.54058 39.1143C6.91436 39.1061 6.2896 39.0516 5.67144 38.9512C5.09503 38.8519 4.53664 38.6673 4.0147 38.4033C3.49754 38.1415 3.02585 37.7983 2.6177 37.3867C2.20364 36.98 1.85891 36.5082 1.59719 35.9902C1.33258 35.4688 1.14945 34.9099 1.05419 34.333C0.951311 33.7131 0.895651 33.0863 0.887687 32.458C0.881347 32.2471 0.873047 31.5449 0.873047 31.5449V8.44434C0.873047 8.44434 0.881887 7.75293 0.887737 7.5498C0.895363 6.92248 0.950699 6.29665 1.05327 5.67773C1.14871 5.09925 1.33197 4.53875 1.59673 4.01563C1.85749 3.49794 2.2003 3.02586 2.61187 2.61768C3.02297 2.20562 3.49617 1.8606 4.01421 1.59521C4.53495 1.33209 5.09228 1.14873 5.66753 1.05127C6.28772 0.949836 6.91465 0.894996 7.54304 0.88721L8.44536 0.875H111.214L112.127 0.8877C112.75 0.895099 113.371 0.94945 113.985 1.05029C114.566 1.14898 115.13 1.33362 115.656 1.59814C116.694 2.13299 117.539 2.97916 118.071 4.01807C118.332 4.53758 118.512 5.09351 118.607 5.66699C118.71 6.29099 118.768 6.92174 118.78 7.5542C118.783 7.8374 118.783 8.1416 118.783 8.44434C118.791 8.81934 118.791 9.17627 118.791 9.53613V30.4648C118.791 30.8281 118.791 31.1826 118.783 31.54C118.783 31.8652 118.783 32.1631 118.779 32.4697C118.768 33.0909 118.711 33.7104 118.608 34.3232C118.515 34.9043 118.333 35.4675 118.068 35.9932C117.805 36.5056 117.462 36.9733 117.053 37.3789C116.644 37.7927 116.172 38.1379 115.653 38.4014C115.128 38.6674 114.566 38.8527 113.985 38.9512C113.367 39.0522 112.742 39.1067 112.116 39.1143C111.823 39.1211 111.517 39.125 111.219 39.125L110.135 39.127L8.44487 39.125Z" fill="white"/>
<path d="M57.0588 17.304L54.5228 23H53.6828L51.1467 17.304H52.2188L54.1148 21.704L56.0108 17.304H57.0588ZM57.1284 18.96H58.1204V23H57.1284V18.96ZM58.1764 17.128V18.112H57.0644V17.128H58.1764ZM62.3503 21.032H59.5663C59.5876 21.464 59.6943 21.784 59.8863 21.992C60.0836 22.1947 60.3743 22.296 60.7583 22.296C61.201 22.296 61.6116 22.152 61.9903 21.864L62.2783 22.552C62.0863 22.7067 61.849 22.832 61.5663 22.928C61.289 23.0187 61.0063 23.064 60.7183 23.064C60.057 23.064 59.537 22.8773 59.1583 22.504C58.7796 22.1307 58.5903 21.6187 58.5903 20.968C58.5903 20.5573 58.673 20.192 58.8383 19.872C59.0036 19.552 59.2356 19.304 59.5343 19.128C59.833 18.9467 60.1716 18.856 60.5503 18.856C61.105 18.856 61.5423 19.0373 61.8623 19.4C62.1876 19.7573 62.3503 20.2507 62.3503 20.88V21.032ZM60.5743 19.576C60.3076 19.576 60.089 19.656 59.9183 19.816C59.753 19.9707 59.6463 20.1973 59.5983 20.496H61.4783C61.4463 20.192 61.353 19.9627 61.1983 19.808C61.049 19.6533 60.841 19.576 60.5743 19.576ZM69.1588 18.96L67.5748 23H66.7028L65.7028 20.352L64.7268 23H63.8468L62.2628 18.96H63.2868L64.3268 21.808L65.3748 18.96H66.0948L67.1428 21.832L68.1828 18.96H69.1588ZM73.7846 23.072C73.2353 23.072 72.7553 22.9547 72.3446 22.72C71.9393 22.48 71.6246 22.1413 71.4006 21.704C71.182 21.2613 71.0726 20.7413 71.0726 20.144C71.0726 19.552 71.182 19.0373 71.4006 18.6C71.6193 18.1573 71.9313 17.8187 72.3366 17.584C72.7473 17.3493 73.23 17.232 73.7846 17.232C74.3393 17.232 74.8193 17.3493 75.2246 17.584C75.6353 17.8187 75.9473 18.1573 76.1606 18.6C76.3793 19.0373 76.4886 19.552 76.4886 20.144C76.4886 20.7413 76.3793 21.2613 76.1606 21.704C75.942 22.1413 75.63 22.48 75.2246 22.72C74.8193 22.9547 74.3393 23.072 73.7846 23.072ZM73.7846 22.248C74.3126 22.248 74.7233 22.0667 75.0166 21.704C75.31 21.3413 75.4566 20.8213 75.4566 20.144C75.4566 19.472 75.31 18.9573 75.0166 18.6C74.7233 18.2373 74.3126 18.056 73.7846 18.056C73.2566 18.056 72.846 18.2347 72.5526 18.592C72.2593 18.9493 72.1126 19.4667 72.1126 20.144C72.1126 20.8213 72.2593 21.3413 72.5526 21.704C72.846 22.0667 73.2566 22.248 73.7846 22.248ZM79.3857 18.856C80.351 18.856 80.8337 19.4107 80.8337 20.52V23H79.8337V20.568C79.8337 20.248 79.7724 20.016 79.6497 19.872C79.527 19.7227 79.3377 19.648 79.0817 19.648C78.7777 19.648 78.5324 19.7467 78.3457 19.944C78.159 20.136 78.0657 20.392 78.0657 20.712V23H77.0737V20.104C77.0737 19.6773 77.0524 19.296 77.0097 18.96H77.9457L78.0177 19.624C78.1564 19.3787 78.343 19.1893 78.5777 19.056C78.8177 18.9227 79.087 18.856 79.3857 18.856ZM91.5213 17.304L89.5053 23H88.6653L87.2333 18.904L85.7853 23H84.9453L82.9373 17.304H83.9853L85.4093 21.552L86.8893 17.304H87.6253L89.0733 21.584L90.5293 17.304H91.5213ZM94.9175 21.032H92.1335C92.1548 21.464 92.2615 21.784 92.4535 21.992C92.6508 22.1947 92.9415 22.296 93.3255 22.296C93.7682 22.296 94.1788 22.152 94.5575 21.864L94.8455 22.552C94.6535 22.7067 94.4162 22.832 94.1335 22.928C93.8562 23.0187 93.5735 23.064 93.2855 23.064C92.6242 23.064 92.1042 22.8773 91.7255 22.504C91.3468 22.1307 91.1575 21.6187 91.1575 20.968C91.1575 20.5573 91.2402 20.192 91.4055 19.872C91.5708 19.552 91.8028 19.304 92.1015 19.128C92.4002 18.9467 92.7388 18.856 93.1175 18.856C93.6722 18.856 94.1095 19.0373 94.4295 19.4C94.7548 19.7573 94.9175 20.2507 94.9175 20.88V21.032ZM93.1415 19.576C92.8748 19.576 92.6562 19.656 92.4855 19.816C92.3202 19.9707 92.2135 20.1973 92.1655 20.496H94.0455C94.0135 20.192 93.9202 19.9627 93.7655 19.808C93.6162 19.6533 93.4082 19.576 93.1415 19.576ZM97.6683 18.856C98.0203 18.856 98.3296 18.944 98.5963 19.12C98.8683 19.2907 99.079 19.5333 99.2283 19.848C99.3776 20.1627 99.4523 20.528 99.4523 20.944C99.4523 21.36 99.375 21.7307 99.2203 22.056C99.071 22.376 98.8603 22.624 98.5883 22.8C98.3216 22.976 98.015 23.064 97.6683 23.064C97.3696 23.064 97.103 23 96.8683 22.872C96.639 22.744 96.4656 22.5653 96.3483 22.336V23H95.3643V17.112H96.3563V19.568C96.479 19.344 96.655 19.1707 96.8843 19.048C97.1136 18.92 97.375 18.856 97.6683 18.856ZM97.4043 22.28C97.735 22.28 97.991 22.1627 98.1723 21.928C98.3536 21.6933 98.4443 21.3653 98.4443 20.944C98.4443 20.528 98.3536 20.208 98.1723 19.984C97.991 19.7547 97.7323 19.64 97.3963 19.64C97.0603 19.64 96.8016 19.7547 96.6203 19.984C96.439 20.2133 96.3483 20.5387 96.3483 20.96C96.3483 21.3867 96.439 21.7147 96.6203 21.944C96.8016 22.168 97.063 22.28 97.4043 22.28Z" fill="#2C3952"/>
<path d="M15.78 11C14.5973 11 13.62 11.9703 13.62 13.1443V24.9381H12.81C12.368 24.9381 12.0002 25.3414 12 25.7423V26.8144C12 28.137 13.0978 29.2268 14.43 29.2268H35.49C36.8222 29.2268 37.92 28.137 37.92 26.8144V25.7423C37.92 25.3212 37.5341 24.9382 37.11 24.9381H36.3V13.1443C36.3 11.9703 35.3227 11 34.14 11H15.78ZM15.78 12.6082H34.14C34.4532 12.6082 34.68 12.8334 34.68 13.1443V24.9381H15.24V13.1443C15.24 12.8334 15.4668 12.6082 15.78 12.6082V12.6082ZM13.62 26.5464H36.3V26.8144C36.3 27.2738 35.9528 27.6186 35.49 27.6186H14.43C13.9672 27.6186 13.5964 27.2732 13.62 26.8144V26.5464Z" fill="#2C3952"/>
</g>
<defs>
<clipPath id="clip0">
<rect width="119.664" height="40" fill="white"/>
</clipPath>
</defs>
</svg>
