<svg width="571" height="620" viewBox="0 0 571 620" fill="none" xmlns="http://www.w3.org/2000/svg">
<g clip-path="url(#clip0)">
<path d="M354.453 404.371L413.658 370.232C414.064 370.031 414.511 369.926 414.965 369.926C415.418 369.926 415.866 370.031 416.272 370.232L502.902 420.265C503.064 420.321 503.204 420.426 503.303 420.565C503.402 420.704 503.455 420.871 503.455 421.042C503.455 421.213 503.402 421.379 503.303 421.519C503.204 421.658 503.064 421.763 502.902 421.819L443.711 455.958C443.296 456.17 442.837 456.28 442.371 456.28C441.905 456.28 441.446 456.17 441.031 455.958L354.44 405.925C354.279 405.867 354.14 405.761 354.042 405.621C353.944 405.481 353.892 405.314 353.894 405.143C353.895 404.972 353.95 404.806 354.05 404.668C354.15 404.529 354.291 404.426 354.453 404.371Z" fill="#CFCFCF"/>
<path d="M83.2814 465.896L58.444 451.53C58.1194 451.422 57.8373 451.214 57.6374 450.936C57.4375 450.658 57.33 450.325 57.33 449.983C57.33 449.641 57.4375 449.307 57.6374 449.03C57.8373 448.752 58.1194 448.544 58.444 448.435L360.192 274.398C361.021 273.973 361.94 273.751 362.872 273.751C363.804 273.751 364.723 273.973 365.552 274.398L390.389 288.764C390.714 288.873 390.996 289.08 391.196 289.358C391.396 289.636 391.503 289.969 391.503 290.311C391.503 290.653 391.396 290.987 391.196 291.264C390.996 291.542 390.714 291.75 390.389 291.859L88.641 465.896C87.8091 466.312 86.8915 466.529 85.9612 466.529C85.0308 466.529 84.1133 466.312 83.2814 465.896Z" fill="#CFCFCF"/>
<path d="M341.028 271.485L394.52 240.611C395.185 240.276 395.919 240.102 396.664 240.102C397.409 240.102 398.143 240.276 398.808 240.611L464.535 278.485C464.797 278.571 465.025 278.737 465.186 278.96C465.347 279.183 465.434 279.451 465.434 279.726C465.434 280.001 465.347 280.269 465.186 280.492C465.025 280.715 464.797 280.881 464.535 280.967L411.043 311.841C410.376 312.176 409.64 312.351 408.893 312.351C408.146 312.351 407.41 312.176 406.743 311.841L341.028 273.967C340.767 273.881 340.539 273.715 340.377 273.492C340.216 273.269 340.129 273.001 340.129 272.726C340.129 272.451 340.216 272.183 340.377 271.96C340.539 271.737 340.767 271.571 341.028 271.485Z" fill="#CFCFCF"/>
<path d="M209.259 528.989L276.752 489.875C277.562 489.465 278.458 489.251 279.366 489.251C280.275 489.251 281.17 489.465 281.981 489.875L361.617 535.82C361.934 535.923 362.21 536.124 362.406 536.394C362.602 536.664 362.707 536.988 362.707 537.322C362.707 537.655 362.602 537.979 362.406 538.249C362.21 538.519 361.934 538.72 361.617 538.823L294.19 578.003C293.38 578.413 292.484 578.627 291.576 578.627C290.667 578.627 289.772 578.413 288.961 578.003L209.259 531.993C208.942 531.889 208.666 531.688 208.471 531.419C208.275 531.149 208.17 530.824 208.17 530.491C208.17 530.158 208.275 529.833 208.471 529.564C208.666 529.294 208.942 529.093 209.259 528.989Z" fill="#CFCFCF"/>
<path d="M123.806 509.491L108.969 500.91C108.644 500.801 108.362 500.594 108.162 500.316C107.962 500.038 107.855 499.705 107.855 499.363C107.855 499.021 107.962 498.687 108.162 498.41C108.362 498.132 108.644 497.924 108.969 497.815L199.272 445.732C200.103 445.313 201.021 445.094 201.952 445.094C202.883 445.094 203.801 445.313 204.632 445.732L219.417 454.26C219.741 454.369 220.023 454.577 220.223 454.854C220.423 455.132 220.531 455.466 220.531 455.808C220.531 456.15 220.423 456.483 220.223 456.761C220.023 457.038 219.741 457.246 219.417 457.355L129.113 509.491C128.288 509.898 127.38 510.11 126.459 510.11C125.539 510.11 124.631 509.898 123.806 509.491Z" fill="#CFCFCF"/>
<path d="M239.077 443.564L224.305 435.049C223.981 434.94 223.699 434.732 223.499 434.454C223.299 434.177 223.191 433.843 223.191 433.501C223.191 433.159 223.299 432.826 223.499 432.548C223.699 432.27 223.981 432.062 224.305 431.953L322.609 375.143C323.44 374.724 324.358 374.505 325.289 374.505C326.22 374.505 327.138 374.724 327.969 375.143L342.741 383.671C343.065 383.78 343.347 383.988 343.547 384.265C343.747 384.543 343.855 384.876 343.855 385.218C343.855 385.56 343.747 385.894 343.547 386.171C343.347 386.449 343.065 386.657 342.741 386.766L244.45 443.564C243.618 443.989 242.698 444.211 241.764 444.211C240.829 444.211 239.909 443.989 239.077 443.564Z" fill="#CFCFCF"/>
<path d="M408.885 306.473V268.86L457.789 240.664V278.263L408.885 306.473Z" fill="#407BFF"/>
<path d="M408.886 268.86L347.76 233.611V271.211L408.886 306.473V268.86Z" fill="#407BFF"/>
<path opacity="0.15" d="M408.886 268.86L347.76 233.611V271.211L408.886 306.473V268.86Z" fill="black"/>
<path d="M408.886 268.86L459.24 239.815L396.663 203.704L346.309 232.762L408.886 268.86Z" fill="#407BFF"/>
<path opacity="0.45" d="M408.886 268.86L459.24 239.815L396.663 203.704L346.309 232.762L408.886 268.86Z" fill="white"/>
<path d="M408.885 268.86V278.263L459.24 249.231V239.815L408.885 268.86Z" fill="#407BFF"/>
<path opacity="0.2" d="M408.885 278.263L457.789 250.067V252.13L408.885 280.34V278.263Z" fill="black"/>
<path d="M346.309 232.762L408.886 268.86V278.263L346.309 242.179V232.762Z" fill="#407BFF"/>
<path opacity="0.2" d="M346.309 232.762L408.886 268.86V278.263L346.309 242.179V232.762Z" fill="black"/>
<path opacity="0.2" d="M408.886 278.263L347.76 243.014V245.078L408.886 280.34V278.263Z" fill="black"/>
<path d="M424.991 274.58L441.697 264.942C442.416 264.537 443.004 264.864 443.004 265.7V275.56C442.979 276.013 442.848 276.453 442.621 276.846C442.394 277.238 442.077 277.572 441.697 277.819L424.991 287.458C424.272 287.876 423.683 287.536 423.683 286.7V276.84C423.708 276.387 423.84 275.947 424.067 275.554C424.294 275.162 424.61 274.828 424.991 274.58Z" fill="#455A64"/>
<path d="M426.063 275.704L440.625 267.306C441.109 267.019 441.488 267.306 441.488 267.802V275.194C441.475 275.495 441.39 275.789 441.24 276.05C441.09 276.312 440.879 276.533 440.625 276.696L426.063 285.107C425.579 285.381 425.187 285.107 425.187 284.598V277.206C425.202 276.904 425.29 276.61 425.442 276.348C425.594 276.087 425.807 275.866 426.063 275.704Z" fill="#F5F5F5"/>
<g opacity="0.5">
<path opacity="0.5" d="M426.468 277.65C426.431 277.65 426.394 277.64 426.362 277.622C426.33 277.604 426.303 277.577 426.285 277.545C426.271 277.521 426.262 277.495 426.258 277.467C426.255 277.44 426.256 277.412 426.264 277.385C426.271 277.358 426.284 277.333 426.301 277.311C426.318 277.29 426.339 277.271 426.363 277.258L440.154 269.33C440.178 269.316 440.205 269.307 440.232 269.304C440.26 269.3 440.288 269.302 440.315 269.309C440.341 269.317 440.366 269.329 440.388 269.346C440.41 269.363 440.428 269.385 440.442 269.409C440.467 269.458 440.473 269.514 440.458 269.567C440.444 269.621 440.41 269.666 440.364 269.696L426.572 277.584C426.56 277.602 426.545 277.616 426.527 277.628C426.509 277.639 426.489 277.646 426.468 277.65Z" fill="#455A64"/>
<path opacity="0.5" d="M426.468 279.465C426.43 279.468 426.392 279.46 426.36 279.442C426.327 279.423 426.301 279.395 426.285 279.36C426.271 279.336 426.262 279.31 426.258 279.282C426.255 279.255 426.256 279.227 426.264 279.2C426.271 279.174 426.284 279.149 426.301 279.127C426.318 279.105 426.339 279.087 426.363 279.073L440.154 271.146C440.178 271.132 440.205 271.123 440.232 271.119C440.26 271.115 440.288 271.117 440.315 271.125C440.341 271.132 440.366 271.145 440.388 271.162C440.41 271.179 440.428 271.2 440.442 271.224C440.456 271.248 440.465 271.274 440.469 271.302C440.472 271.329 440.47 271.357 440.463 271.384C440.456 271.411 440.443 271.436 440.426 271.458C440.409 271.48 440.388 271.498 440.364 271.511L426.612 279.439C426.592 279.454 426.568 279.465 426.543 279.47C426.518 279.474 426.492 279.472 426.468 279.465Z" fill="#455A64"/>
<path opacity="0.5" d="M426.468 281.293C426.429 281.294 426.391 281.283 426.358 281.262C426.326 281.241 426.3 281.211 426.285 281.176C426.271 281.152 426.262 281.125 426.258 281.098C426.255 281.07 426.256 281.042 426.264 281.016C426.271 280.989 426.284 280.964 426.301 280.942C426.318 280.92 426.339 280.902 426.363 280.888L440.154 272.961C440.204 272.936 440.26 272.93 440.313 272.945C440.366 272.959 440.412 272.993 440.442 273.039C440.456 273.063 440.465 273.09 440.469 273.117C440.472 273.145 440.47 273.173 440.463 273.199C440.456 273.226 440.443 273.251 440.426 273.273C440.409 273.295 440.388 273.313 440.364 273.327L426.612 281.254C426.592 281.271 426.569 281.284 426.544 281.29C426.519 281.297 426.493 281.298 426.468 281.293Z" fill="#455A64"/>
<path opacity="0.5" d="M426.468 283.109C426.429 283.109 426.391 283.098 426.358 283.078C426.326 283.057 426.3 283.027 426.285 282.991C426.271 282.967 426.262 282.941 426.258 282.913C426.255 282.886 426.256 282.858 426.264 282.831C426.271 282.804 426.284 282.779 426.301 282.757C426.318 282.736 426.339 282.717 426.363 282.704L440.154 274.776C440.204 274.751 440.26 274.746 440.313 274.76C440.366 274.775 440.412 274.808 440.442 274.855C440.456 274.879 440.465 274.905 440.469 274.933C440.472 274.96 440.47 274.988 440.463 275.015C440.456 275.042 440.443 275.067 440.426 275.088C440.409 275.11 440.388 275.128 440.364 275.142L426.612 283.069C426.592 283.086 426.569 283.099 426.544 283.106C426.519 283.112 426.493 283.113 426.468 283.109Z" fill="#455A64"/>
</g>
<path d="M408.885 264.146V226.533L457.789 198.323V235.936L408.885 264.146Z" fill="#407BFF"/>
<path d="M408.886 226.533L347.76 191.271V228.884L408.886 264.146V226.533Z" fill="#407BFF"/>
<path opacity="0.15" d="M408.886 226.533L347.76 191.271V228.884L408.886 264.146V226.533Z" fill="black"/>
<path d="M408.886 226.533L459.24 197.474L396.663 161.376L346.309 190.422L408.886 226.533Z" fill="#407BFF"/>
<path opacity="0.6" d="M408.886 226.533L459.24 197.474L396.663 161.376L346.309 190.422L408.886 226.533Z" fill="white"/>
<path d="M408.885 226.533V235.936L459.24 206.891V197.474L408.885 226.533Z" fill="#407BFF"/>
<path opacity="0.2" d="M408.885 235.936L457.789 207.726V209.79L408.885 237.999V235.936Z" fill="black"/>
<path d="M346.309 190.422L408.886 226.533V235.936L346.309 199.838V190.422Z" fill="#407BFF"/>
<path opacity="0.2" d="M346.309 190.422L408.886 226.533V235.936L346.309 199.838V190.422Z" fill="black"/>
<path opacity="0.2" d="M408.886 235.936L347.76 200.674V202.737L408.886 237.999V235.936Z" fill="black"/>
<path d="M424.991 232.24L441.697 222.615C442.416 222.197 443.004 222.536 443.004 223.359V233.18C442.979 233.631 442.848 234.07 442.621 234.46C442.394 234.851 442.077 235.182 441.697 235.427L424.991 245.065C424.272 245.483 423.683 245.143 423.683 244.321V234.486C423.712 234.036 423.846 233.599 424.072 233.209C424.299 232.82 424.614 232.488 424.991 232.24Z" fill="#455A64"/>
<path d="M426.063 233.363L440.625 224.966C441.109 224.691 441.488 224.966 441.488 225.462V232.867C441.473 233.167 441.387 233.46 441.237 233.721C441.087 233.982 440.877 234.204 440.625 234.369L426.063 242.766C425.579 243.041 425.187 242.766 425.187 242.27V234.865C425.204 234.564 425.293 234.27 425.445 234.009C425.597 233.748 425.809 233.527 426.063 233.363Z" fill="#F5F5F5"/>
<g opacity="0.5">
<path opacity="0.5" d="M426.467 235.322C426.43 235.323 426.393 235.313 426.361 235.295C426.329 235.276 426.302 235.25 426.284 235.218C426.255 235.167 426.247 235.108 426.262 235.052C426.276 234.995 426.312 234.947 426.362 234.917L440.153 226.99C440.203 226.965 440.259 226.959 440.312 226.974C440.365 226.988 440.411 227.022 440.441 227.068C440.455 227.092 440.464 227.119 440.468 227.146C440.471 227.174 440.469 227.202 440.462 227.228C440.455 227.255 440.442 227.28 440.425 227.302C440.408 227.324 440.387 227.342 440.363 227.356L426.611 235.296L426.467 235.322Z" fill="#455A64"/>
<path opacity="0.5" d="M426.468 237.098C426.431 237.099 426.394 237.089 426.362 237.071C426.33 237.052 426.303 237.026 426.285 236.994C426.269 236.97 426.258 236.944 426.254 236.916C426.249 236.888 426.25 236.859 426.258 236.832C426.265 236.805 426.279 236.779 426.297 236.758C426.315 236.736 426.338 236.719 426.363 236.707L440.155 228.805C440.204 228.78 440.26 228.775 440.314 228.789C440.367 228.804 440.413 228.837 440.442 228.884C440.456 228.908 440.465 228.934 440.469 228.962C440.472 228.989 440.471 229.017 440.463 229.044C440.456 229.07 440.443 229.095 440.426 229.117C440.409 229.139 440.388 229.157 440.364 229.171L426.572 237.098H426.468Z" fill="#455A64"/>
<path opacity="0.5" d="M426.468 238.953C426.431 238.953 426.394 238.944 426.362 238.925C426.33 238.907 426.303 238.88 426.285 238.848C426.269 238.825 426.258 238.798 426.254 238.77C426.249 238.743 426.25 238.714 426.258 238.687C426.265 238.659 426.279 238.634 426.297 238.612C426.315 238.591 426.338 238.573 426.363 238.561L440.155 230.568C440.204 230.543 440.26 230.538 440.314 230.552C440.367 230.567 440.413 230.6 440.442 230.647C440.456 230.671 440.465 230.697 440.469 230.725C440.472 230.752 440.471 230.78 440.463 230.807C440.456 230.834 440.443 230.859 440.426 230.88C440.409 230.902 440.388 230.92 440.364 230.934L426.612 238.875L426.468 238.953Z" fill="#455A64"/>
<path opacity="0.5" d="M426.468 240.768C426.431 240.769 426.394 240.759 426.362 240.741C426.33 240.722 426.303 240.696 426.285 240.664C426.269 240.64 426.258 240.614 426.254 240.586C426.249 240.558 426.25 240.529 426.258 240.502C426.265 240.475 426.279 240.449 426.297 240.428C426.315 240.406 426.338 240.388 426.363 240.376L440.155 232.436C440.204 232.414 440.26 232.41 440.312 232.424C440.365 232.438 440.411 232.47 440.442 232.514C440.456 232.538 440.465 232.565 440.469 232.592C440.472 232.62 440.471 232.648 440.463 232.674C440.456 232.701 440.443 232.726 440.426 232.748C440.409 232.77 440.388 232.788 440.364 232.802L426.612 240.742L426.468 240.768Z" fill="#455A64"/>
</g>
<path d="M85.8166 226.481C84.5094 225.697 80.4962 222.092 80.4962 220.421V204.749C80.5419 203.842 80.8029 202.96 81.2575 202.174C81.7121 201.388 82.3473 200.722 83.1107 200.23L367.172 36.327C368.61 35.5042 370.44 34.9165 375.107 37.868C375.823 38.373 376.415 39.0339 376.839 39.8008C377.262 40.5677 377.506 41.4207 377.551 42.2954V57.9674C377.503 58.873 377.24 59.7544 376.786 60.5396C376.332 61.3249 375.698 61.9918 374.937 62.4861L90.8756 226.389C90.0995 226.802 89.2364 227.026 88.3571 227.042C87.4778 227.058 86.6072 226.865 85.8166 226.481Z" fill="#407BFF"/>
<path opacity="0.5" d="M377.525 41.8644C377.342 40.5584 376.218 40.023 374.911 40.7804L90.8755 204.631C90.1102 205.119 89.4771 205.787 89.0323 206.577L81.1889 202.111C81.6351 201.321 82.2735 200.656 83.0451 200.178L367.172 36.34C368.61 35.5042 370.61 35.034 375.094 37.8681C375.756 38.3279 376.314 38.921 376.733 39.6092C377.151 40.2975 377.421 41.0657 377.525 41.8644Z" fill="white"/>
<path d="M90.3789 459.353H90.2743C90.192 459.399 90.1041 459.434 90.0128 459.458H89.8298C89.7117 459.502 89.5889 459.533 89.4638 459.549C89.3858 459.562 89.3065 459.562 89.2285 459.549H88.8233C87.7927 459.637 86.757 459.457 85.8166 459.027C80.9145 456.937 80.4962 454.639 80.4962 452.98V239.332L88.3396 243.798V457.616C88.3396 458.792 88.9278 459.484 89.7775 459.484C89.8943 459.504 90.0137 459.504 90.1305 459.484L90.3789 459.353Z" fill="#EBEBEB"/>
<path opacity="0.1" d="M89.0322 206.577C88.557 207.367 88.2957 208.267 88.274 209.189V243.837L80.4306 239.371V204.696C80.4241 204.592 80.4241 204.487 80.4306 204.383C80.4306 204.161 80.4959 203.952 80.5352 203.73C80.6858 203.165 80.9053 202.622 81.1888 202.111L89.0322 206.577Z" fill="black"/>
<path d="M377.564 290.762C377.514 291.667 377.252 292.548 376.797 293.333C376.343 294.118 375.71 294.786 374.95 295.281L90.8753 459.118C89.4373 459.954 88.2608 459.275 88.2608 457.616V223.098L95.4506 218.958C96.8885 218.122 99.2285 205.454 100.68 204.592L163.021 168.664C164.472 167.828 167.871 177.179 169.309 176.343L377.538 56.1912V290.762H377.564Z" fill="#F5F5F5"/>
<path d="M100.693 283.814L154.289 252.888C155.727 252.065 156.903 252.731 156.903 254.403V406.761C156.852 407.666 156.588 408.546 156.134 409.331C155.68 410.115 155.048 410.783 154.289 411.28L100.693 442.206C99.2415 443.041 98.078 442.362 98.078 440.691V288.346C98.1249 287.438 98.3862 286.554 98.8406 285.766C99.295 284.979 99.9296 284.31 100.693 283.814Z" fill="white"/>
<path d="M169.335 295.137L260.776 242.322C262.214 241.5 263.391 242.166 263.391 243.837V345.235C263.341 346.142 263.078 347.025 262.624 347.812C262.17 348.599 261.537 349.269 260.776 349.767L169.335 402.608C167.897 403.444 166.721 402.764 166.721 401.106V299.656C166.767 298.749 167.028 297.867 167.482 297.081C167.937 296.295 168.572 295.629 169.335 295.137Z" fill="white"/>
<path d="M273.705 234.486L365.211 181.646C366.649 180.81 367.826 181.476 367.826 183.148V284.598C367.774 285.503 367.51 286.383 367.056 287.167C366.602 287.952 365.97 288.62 365.211 289.116L273.705 341.957C272.267 342.793 271.09 342.114 271.09 340.455V238.979C271.14 238.077 271.403 237.2 271.857 236.419C272.312 235.638 272.945 234.976 273.705 234.486Z" fill="white"/>
<path d="M100.693 244.216L365.145 91.6753C366.583 90.8394 367.76 91.5185 367.76 93.1902V121.099C367.708 122.004 367.444 122.885 366.99 123.669C366.536 124.454 365.904 125.122 365.145 125.618L100.693 278.159C99.2415 278.995 98.078 278.316 98.078 276.657V248.748C98.1249 247.84 98.3862 246.956 98.8406 246.168C99.295 245.381 99.9296 244.712 100.693 244.216Z" fill="#455A64"/>
<path d="M269.691 161.272V166.143C269.691 167.136 270.397 167.541 271.26 167.044L348.138 122.64V114.151L271.26 158.555C270.803 158.853 270.423 159.254 270.15 159.726C269.877 160.198 269.72 160.728 269.691 161.272Z" fill="#FAFAFA"/>
<path d="M356.387 109.463C357.25 108.967 357.956 109.372 357.956 110.364V115.235C357.924 115.779 357.765 116.308 357.493 116.779C357.221 117.251 356.842 117.652 356.387 117.952L348.138 122.706V114.217L356.387 109.463Z" fill="#407BFF"/>
<path d="M355.773 116.137L354.858 115.849C354.951 115.46 354.999 115.061 355.001 114.661C355.044 114.29 354.989 113.914 354.842 113.571C354.696 113.227 354.462 112.928 354.165 112.702C353.966 112.587 353.741 112.527 353.511 112.527C353.282 112.527 353.056 112.587 352.858 112.702C352.271 113.15 351.799 113.731 351.479 114.395C351.159 115.06 351 115.791 351.014 116.528C350.972 116.899 351.027 117.275 351.174 117.618C351.32 117.962 351.554 118.261 351.851 118.487C352.03 118.591 352.233 118.645 352.439 118.644C352.707 118.634 352.967 118.558 353.198 118.422C353.892 117.937 354.41 117.241 354.675 116.437L355.603 116.724H355.694C355.767 116.727 355.839 116.706 355.898 116.663C355.957 116.62 356.001 116.559 356.021 116.489C356.03 116.41 356.009 116.331 355.963 116.266C355.918 116.201 355.85 116.155 355.773 116.137ZM352.832 117.9C352.73 117.958 352.615 117.989 352.498 117.989C352.381 117.989 352.266 117.958 352.165 117.9C351.99 117.733 351.854 117.529 351.768 117.303C351.682 117.077 351.648 116.835 351.668 116.594C351.659 115.976 351.789 115.364 352.05 114.803C352.31 114.242 352.693 113.747 353.171 113.355C353.294 113.28 353.433 113.235 353.577 113.224C353.658 113.205 353.743 113.205 353.825 113.224C354 113.391 354.136 113.595 354.222 113.821C354.308 114.047 354.342 114.289 354.322 114.53C354.354 115.169 354.235 115.806 353.977 116.392C353.718 116.977 353.326 117.493 352.832 117.9Z" fill="#FAFAFA"/>
<path d="M166.721 248.748V282.312C166.721 283.971 167.884 284.65 169.335 283.814L365.146 170.871C365.905 170.374 366.536 169.707 366.991 168.922C367.445 168.137 367.708 167.257 367.76 166.352V132.788C367.76 131.116 366.584 130.45 365.146 131.273L169.335 244.216C168.573 244.712 167.938 245.381 167.483 246.168C167.029 246.956 166.768 247.84 166.721 248.748Z" fill="white"/>
<path d="M377.551 56.2435V76.9436L88.274 243.798V223.098L93.6467 219.99C95.0716 219.154 95.5552 217.9 96.2611 215.471L98.0782 209.15C98.6534 206.956 99.2547 205.454 100.693 204.631L163.021 168.664C164.472 167.828 165.636 167.737 166.708 169.552L168.943 173.614C169.767 175.024 170.172 175.86 171.558 175.024L377.551 56.2435Z" fill="#E6E6E6"/>
<path d="M365.289 51.6463C366.845 50.7582 368.087 51.4766 368.087 53.2658C368.036 54.2348 367.756 55.178 367.27 56.018C366.783 56.8579 366.105 57.5708 365.289 58.098C363.747 58.986 362.505 58.2677 362.505 56.4916C362.555 55.5222 362.834 54.5783 363.317 53.7365C363.801 52.8947 364.477 52.1786 365.289 51.6463Z" fill="white"/>
<path d="M353.459 58.4375C355.001 57.5364 356.256 58.2678 356.256 60.0439C356.203 61.0122 355.921 61.9542 355.435 62.7937C354.949 63.6332 354.272 64.3466 353.459 64.8761C351.916 65.7773 350.661 65.0459 350.661 63.2697C350.715 62.3014 350.997 61.3594 351.483 60.5199C351.969 59.6804 352.646 58.9671 353.459 58.4375Z" fill="white"/>
<path d="M341.615 65.2549C343.158 64.3668 344.413 65.0851 344.413 66.8613C344.359 67.8313 344.078 68.7752 343.592 69.6168C343.106 70.4584 342.429 71.1742 341.615 71.7065C340.073 72.5946 338.818 71.8763 338.818 70.0871C338.872 69.1188 339.153 68.1768 339.639 67.3373C340.125 66.4978 340.802 65.7844 341.615 65.2549Z" fill="white"/>
<path d="M122.589 216.45V212.402C122.638 211.496 122.9 210.615 123.354 209.83C123.808 209.044 124.442 208.377 125.203 207.883L360.23 72.3856C361.668 71.5497 362.845 72.2289 362.845 73.9006V77.9361C362.795 78.8433 362.532 79.7261 362.078 80.5133C361.624 81.3004 360.991 81.97 360.23 82.4679L125.203 217.952C123.804 218.814 122.589 218.122 122.589 216.45Z" fill="#FAFAFA"/>
<path d="M356.845 83.2123C356.776 83.2261 356.704 83.2261 356.635 83.2123C356.507 83.147 356.403 83.0416 356.339 82.9121C356.275 82.7825 356.256 82.6358 356.283 82.4941L356.518 80.5612L355.616 79.9082C355.533 79.8488 355.466 79.7703 355.42 79.6792C355.375 79.5882 355.352 79.4875 355.354 79.3858C355.356 79.2284 355.392 79.0733 355.46 78.9312C355.527 78.7891 355.625 78.6635 355.747 78.563L357.132 77.5051C357.16 77.4699 357.182 77.4301 357.198 77.3876L357.812 75.3633C357.851 75.1985 357.937 75.0487 358.06 74.9326C358.183 74.8165 358.338 74.7392 358.505 74.7103C358.619 74.6986 358.734 74.7241 358.833 74.7829C358.932 74.8417 359.009 74.9307 359.054 75.0368L359.564 76.1338L360.74 75.6898C360.846 75.6426 360.965 75.6311 361.078 75.657C361.191 75.6829 361.293 75.7448 361.368 75.8334C361.461 75.9747 361.512 76.1406 361.512 76.3101C361.512 76.4797 361.461 76.6455 361.368 76.7868L360.413 78.6152C360.404 78.6539 360.404 78.6941 360.413 78.7328L360.649 80.4306C360.661 80.5853 360.641 80.7409 360.589 80.8873C360.538 81.0336 360.455 81.1673 360.348 81.2795C360.279 81.3547 360.194 81.4128 360.098 81.4491C360.003 81.4853 359.9 81.4988 359.799 81.4884L358.675 81.3578L357.459 82.912C357.39 83.0091 357.297 83.0874 357.19 83.1398C357.083 83.1923 356.964 83.2172 356.845 83.2123ZM356.178 79.2943L357.093 79.9473C357.188 80.0241 357.261 80.1256 357.302 80.2408C357.344 80.356 357.353 80.4804 357.328 80.6003L357.171 81.9063L357.995 80.8616C358.064 80.7651 358.157 80.6879 358.265 80.6376C358.372 80.5873 358.491 80.5655 358.609 80.5742L359.747 80.7048C359.756 80.6662 359.756 80.6259 359.747 80.5873L359.511 78.8895C359.486 78.6776 359.527 78.4632 359.629 78.2757L360.505 76.6301L359.603 76.9827C359.471 77.0355 359.324 77.035 359.192 76.9814C359.06 76.9278 358.954 76.8253 358.897 76.6954L358.479 75.8334L357.93 77.6227C357.875 77.8287 357.756 78.0119 357.59 78.1451L356.204 79.216C356.192 79.2361 356.183 79.2582 356.178 79.2813V79.2943Z" fill="#455A64"/>
<g opacity="0.3">
<path opacity="0.3" d="M100.274 226.807L96.1697 229.171L97.7253 226.167C97.7895 226.054 97.8232 225.925 97.8232 225.795C97.8232 225.664 97.7895 225.536 97.7253 225.423C97.6077 225.279 97.3985 225.423 97.2547 225.645L95.0455 229.928C95.0182 229.978 94.9963 230.031 94.9801 230.085C94.9677 230.159 94.9677 230.234 94.9801 230.307C94.9652 230.367 94.9652 230.43 94.9801 230.49C94.9942 230.525 95.0166 230.557 95.0455 230.581L97.2678 232.292C97.2997 232.317 97.3388 232.33 97.3789 232.33C97.4191 232.33 97.4581 232.317 97.49 232.292C97.6049 232.218 97.6921 232.108 97.7384 231.979C97.8561 231.705 97.843 231.391 97.7384 231.287L96.1828 230.085L100.274 227.813C100.379 227.73 100.462 227.625 100.519 227.505C100.576 227.385 100.604 227.253 100.601 227.12C100.588 226.833 100.444 226.65 100.274 226.807Z" fill="black"/>
<path opacity="0.3" d="M103.686 224.822L107.791 222.458L106.222 221.257C106.154 221.154 106.118 221.034 106.118 220.91C106.118 220.787 106.154 220.667 106.222 220.564C106.34 220.277 106.549 220.133 106.68 220.238L108.915 221.949V222.04C108.923 222.105 108.923 222.171 108.915 222.236C108.922 222.306 108.922 222.376 108.915 222.445C108.915 222.445 108.915 222.563 108.915 222.615L106.68 226.885C106.639 226.989 106.566 227.076 106.471 227.134C106.455 227.151 106.436 227.164 106.414 227.173C106.393 227.183 106.37 227.187 106.347 227.187C106.323 227.187 106.3 227.183 106.279 227.173C106.257 227.164 106.238 227.151 106.222 227.134C106.158 227.022 106.124 226.896 106.124 226.768C106.124 226.639 106.158 226.513 106.222 226.402L107.791 223.398L103.686 225.762C103.503 225.867 103.359 225.762 103.359 225.449C103.367 225.327 103.4 225.209 103.457 225.101C103.513 224.993 103.591 224.898 103.686 224.822Z" fill="black"/>
<path opacity="0.3" d="M117.138 213.016C117.138 212.768 116.902 212.807 116.798 213.016L116.236 214.4C115.268 214.296 114.118 215.223 113.334 216.881C112.314 219.036 112.314 221.57 113.334 222.549C113.58 222.78 113.898 222.918 114.234 222.939C114.571 222.961 114.904 222.864 115.177 222.667C115.994 222.119 116.631 221.342 117.007 220.434C117.073 220.326 117.108 220.201 117.108 220.075C117.108 219.948 117.073 219.824 117.007 219.715C116.889 219.585 116.68 219.715 116.55 219.977C115.791 221.583 114.549 222.301 113.791 221.57C113.033 220.839 113.033 218.958 113.791 217.339C114.34 216.189 115.099 215.51 115.791 215.471L115.36 216.503C115.255 216.777 115.36 217.025 115.53 216.921L117.203 215.824C117.27 215.769 117.322 215.699 117.354 215.619C117.386 215.539 117.397 215.452 117.386 215.367L117.138 213.016Z" fill="black"/>
<path opacity="0.3" d="M162.551 177.022L164.054 173.862C164.14 173.711 164.185 173.54 164.185 173.366C164.185 173.192 164.14 173.021 164.054 172.869C163.871 172.699 163.584 172.869 163.414 173.248L161.91 176.409L160.42 174.972C160.237 174.802 159.95 174.972 159.78 175.338C159.688 175.485 159.64 175.654 159.64 175.827C159.64 176 159.688 176.17 159.78 176.317L161.27 177.767L159.78 180.94C159.688 181.087 159.64 181.257 159.64 181.43C159.64 181.603 159.688 181.773 159.78 181.92C159.823 181.958 159.879 181.98 159.937 181.98C159.994 181.98 160.05 181.958 160.093 181.92C160.234 181.819 160.347 181.685 160.42 181.528L161.91 178.368L163.414 179.804C163.458 179.84 163.513 179.86 163.571 179.86C163.628 179.86 163.683 179.84 163.728 179.804C163.874 179.71 163.988 179.573 164.054 179.412C164.139 179.263 164.184 179.094 164.184 178.923C164.184 178.751 164.139 178.582 164.054 178.433L162.551 177.022Z" fill="black"/>
<path opacity="0.3" d="M365.93 70.9621C365.77 70.9648 365.612 70.9236 365.474 70.843C365.335 70.7624 365.222 70.6455 365.145 70.505C365.027 70.2987 364.994 70.0539 365.056 69.8239C365.117 69.5939 365.267 69.3974 365.472 69.2774L372.832 65.0329C373.038 64.9141 373.284 64.8818 373.514 64.943C373.744 65.0042 373.941 65.1538 374.061 65.3594C374.131 65.465 374.177 65.584 374.199 65.7087C374.22 65.8335 374.215 65.9613 374.184 66.084C374.154 66.2068 374.098 66.3219 374.02 66.4219C373.943 66.522 373.845 66.6049 373.734 66.6654L366.374 70.9099C366.233 70.9627 366.08 70.9806 365.93 70.9621Z" fill="black"/>
<path opacity="0.3" d="M365.93 75.1544C365.77 75.1571 365.612 75.1159 365.474 75.0353C365.335 74.9547 365.222 74.8378 365.145 74.6973C365.027 74.491 364.994 74.2461 365.056 74.0161C365.117 73.7861 365.267 73.5897 365.472 73.4696L372.832 69.2251C373.038 69.1064 373.284 69.0741 373.514 69.1353C373.744 69.1964 373.941 69.3461 374.061 69.5516C374.131 69.6573 374.177 69.7763 374.199 69.901C374.22 70.0257 374.215 70.1535 374.184 70.2763C374.154 70.3991 374.098 70.5141 374.02 70.6142C373.943 70.7142 373.845 70.7971 373.734 70.8576L366.374 75.1544C366.228 75.1898 366.076 75.1898 365.93 75.1544Z" fill="black"/>
<path opacity="0.3" d="M365.93 79.4511C365.77 79.4538 365.612 79.4126 365.474 79.332C365.335 79.2515 365.222 79.1345 365.145 78.994C365.027 78.7877 364.994 78.5429 365.056 78.3129C365.117 78.0829 365.267 77.8864 365.472 77.7664L372.832 73.5219C373.038 73.4031 373.284 73.3708 373.514 73.432C373.744 73.4932 373.941 73.6429 374.061 73.8484C374.131 73.954 374.177 74.073 374.199 74.1978C374.22 74.3225 374.215 74.4503 374.184 74.5731C374.154 74.6958 374.098 74.8109 374.02 74.9109C373.943 75.011 373.845 75.0939 373.734 75.1544L366.374 79.3989C366.233 79.4517 366.08 79.4697 365.93 79.4511Z" fill="black"/>
</g>
<path d="M88.2739 223.098V243.798L80.4828 239.332V218.658L88.2739 223.098Z" fill="#E0E0E0"/>
<path opacity="0.15" d="M88.2739 223.098V243.798L80.4828 239.332V218.658L88.2739 223.098Z" fill="#CFCFCF"/>
<path d="M138.511 324.822V357.564L116.471 370.31V337.53L138.511 324.822ZM138.511 323.699C138.315 323.7 138.122 323.75 137.949 323.843L115.961 336.55C115.792 336.652 115.652 336.796 115.553 336.967C115.455 337.139 115.402 337.332 115.399 337.53V370.31C115.399 370.609 115.517 370.896 115.728 371.109C115.938 371.322 116.224 371.443 116.523 371.447C116.726 371.446 116.924 371.392 117.099 371.29L139.073 358.556C139.245 358.457 139.388 358.314 139.486 358.142C139.585 357.97 139.636 357.775 139.635 357.577V324.822C139.636 324.624 139.585 324.429 139.486 324.257C139.388 324.085 139.245 323.942 139.073 323.843C138.9 323.75 138.707 323.7 138.511 323.699Z" fill="#407BFF"/>
<path d="M135.204 332.267V341.748L134.511 342.127V339.228C134.511 338.052 133.962 337.373 133.203 337.373C132.855 337.383 132.517 337.486 132.223 337.673L128.955 339.554V353.646C128.955 355.122 129.53 356.049 130.262 356.049C130.504 356.043 130.739 355.971 130.942 355.84L132.955 354.638V355.644L121.935 361.991V360.985L123.974 359.81C124.642 359.258 125.175 358.559 125.531 357.769C125.886 356.979 126.056 356.118 126.027 355.252V341.187L122.772 343.067C122.07 343.54 121.491 344.173 121.082 344.913C120.673 345.653 120.446 346.48 120.419 347.325V350.224L119.726 350.642V341.16L135.151 332.267H135.204ZM135.151 331.13C134.953 331.13 134.758 331.184 134.589 331.287L119.164 340.181C118.992 340.28 118.849 340.423 118.751 340.595C118.652 340.767 118.6 340.962 118.602 341.16V350.642C118.602 350.842 118.655 351.038 118.756 351.21C118.857 351.382 119.002 351.524 119.177 351.621C119.342 351.723 119.532 351.777 119.726 351.778C119.934 351.774 120.136 351.716 120.314 351.608L121.007 351.19C121.172 351.089 121.308 350.947 121.402 350.778C121.496 350.608 121.545 350.418 121.543 350.224V347.325C121.572 346.676 121.749 346.043 122.059 345.473C122.369 344.903 122.805 344.411 123.334 344.034L124.903 343.132V355.278C124.926 355.947 124.804 356.612 124.547 357.23C124.29 357.847 123.903 358.402 123.412 358.857L121.373 360.045C121.201 360.141 121.058 360.281 120.959 360.451C120.861 360.622 120.809 360.815 120.811 361.012V362.017C120.808 362.216 120.859 362.411 120.958 362.584C121.057 362.756 121.2 362.899 121.373 362.997C121.542 363.099 121.737 363.154 121.935 363.154C122.133 363.154 122.328 363.099 122.497 362.997L133.517 356.65C133.686 356.547 133.827 356.404 133.925 356.233C134.024 356.061 134.077 355.868 134.079 355.67V354.638C134.079 354.339 133.961 354.052 133.751 353.839C133.54 353.627 133.254 353.506 132.955 353.502C132.753 353.503 132.554 353.557 132.38 353.659L130.341 354.834H130.262C130.031 354.44 129.935 353.982 129.988 353.528V340.272L132.681 338.718C132.804 338.631 132.948 338.577 133.099 338.561C133.23 338.561 133.334 338.901 133.334 339.293V342.192C133.333 342.39 133.384 342.586 133.483 342.758C133.582 342.93 133.724 343.072 133.896 343.172C134.066 343.275 134.26 343.329 134.458 343.328C134.651 343.327 134.839 343.278 135.007 343.185L135.7 342.806C135.874 342.704 136.018 342.559 136.119 342.385C136.22 342.212 136.274 342.014 136.275 341.813V332.332C136.278 332.133 136.227 331.938 136.128 331.765C136.029 331.593 135.886 331.45 135.713 331.352C135.544 331.249 135.349 331.195 135.151 331.196V331.13Z" fill="#407BFF"/>
<path d="M200.095 337.66C200.013 337.677 199.928 337.677 199.846 337.66C199.78 337.628 199.722 337.584 199.673 337.529C199.625 337.474 199.588 337.41 199.565 337.34C199.542 337.271 199.533 337.198 199.539 337.125C199.544 337.052 199.564 336.981 199.598 336.916L206.134 323.647C206.233 323.492 206.363 323.36 206.516 323.258C206.669 323.157 206.842 323.089 207.023 323.059C207.195 323.041 207.369 323.057 207.536 323.106C207.702 323.155 207.856 323.237 207.99 323.347L213.559 327.003L214.291 327.147L213.768 326.938L220.396 310.822C220.484 310.657 220.609 310.514 220.761 310.405C220.913 310.296 221.088 310.223 221.273 310.193C221.457 310.163 221.646 310.175 221.825 310.23C222.004 310.285 222.168 310.38 222.305 310.509L230.566 319.024C230.67 319.131 230.727 319.275 230.725 319.425C230.722 319.574 230.661 319.716 230.553 319.82C230.446 319.924 230.301 319.981 230.152 319.979C230.002 319.976 229.86 319.915 229.756 319.807L221.507 311.318L214.814 327.369C214.741 327.541 214.632 327.695 214.495 327.821C214.357 327.947 214.194 328.042 214.017 328.1C213.837 328.152 213.649 328.165 213.464 328.138C213.279 328.111 213.102 328.045 212.945 327.944L207.18 324.182L200.644 337.412C200.585 337.501 200.502 337.572 200.405 337.616C200.308 337.66 200.2 337.675 200.095 337.66Z" fill="#407BFF"/>
<path d="M229.912 299.016V328.714L200.186 345.875V316.177L229.899 299.016H229.912ZM230.749 297.292C230.665 297.294 230.582 297.321 230.514 297.37L229.39 298.023L199.624 315.236C199.475 315.329 199.353 315.46 199.271 315.615C199.172 315.767 199.118 315.943 199.114 316.124V347.233C199.114 347.468 199.232 347.599 199.402 347.599C199.48 347.594 199.555 347.571 199.624 347.534L230.579 329.668C230.731 329.569 230.858 329.436 230.949 329.28C231.04 329.123 231.092 328.947 231.102 328.766V297.671C231.102 297.436 230.984 297.292 230.814 297.292H230.749Z" fill="#407BFF"/>
<path d="M209.506 320.108C209.218 320.113 208.934 320.041 208.683 319.899C208.383 319.699 208.143 319.423 207.987 319.099C207.83 318.775 207.764 318.416 207.794 318.057C207.832 317.24 208.065 316.443 208.474 315.734C208.884 315.025 209.457 314.424 210.147 313.983C210.432 313.756 210.779 313.621 211.142 313.594C211.505 313.566 211.868 313.649 212.184 313.831C212.5 314.012 212.754 314.285 212.912 314.612C213.071 314.94 213.128 315.307 213.075 315.667C213.031 316.485 212.795 317.281 212.387 317.992C211.978 318.702 211.408 319.306 210.722 319.755C210.354 319.974 209.935 320.096 209.506 320.108ZM211.363 314.74C211.135 314.757 210.916 314.829 210.722 314.949C210.201 315.292 209.767 315.751 209.453 316.291C209.14 316.83 208.957 317.435 208.918 318.057C208.87 318.215 208.877 318.383 208.937 318.536C208.997 318.689 209.107 318.817 209.249 318.9C209.391 318.983 209.557 319.016 209.72 318.994C209.883 318.971 210.033 318.894 210.147 318.776C210.668 318.433 211.103 317.973 211.416 317.434C211.729 316.894 211.912 316.29 211.951 315.667C211.974 315.508 211.956 315.345 211.899 315.194C211.842 315.043 211.747 314.91 211.624 314.805C211.551 314.768 211.471 314.745 211.389 314.74H211.363Z" fill="#407BFF"/>
<path d="M324.569 245.13C328.164 245.13 330.504 248.683 330.504 254.194C330.333 259.262 328.88 264.204 326.282 268.56C325.357 270.189 324.275 271.724 323.053 273.144C321.732 274.727 320.154 276.078 318.386 277.14C317.158 277.931 315.741 278.382 314.281 278.446C310.686 278.446 308.346 274.894 308.346 269.396C308.518 264.33 309.966 259.389 312.556 255.03C314.422 251.55 317.144 248.602 320.465 246.462C321.693 245.673 323.11 245.222 324.569 245.156V245.13ZM324.569 244.033C322.917 244.089 321.308 244.575 319.902 245.444C316.416 247.685 313.559 250.778 311.601 254.429C308.905 258.965 307.402 264.11 307.235 269.383C307.235 275.756 310.15 279.569 314.294 279.569C315.947 279.518 317.557 279.031 318.961 278.159C320.836 277.032 322.51 275.602 323.916 273.927C328.62 268.392 331.343 261.448 331.654 254.194C331.654 247.821 328.739 244.007 324.582 244.007L324.569 244.033Z" fill="#407BFF"/>
<path d="M316.386 257.994L325.131 258.778L324.935 259.039L316.059 270.075V259.013C316.044 258.83 316.065 258.646 316.121 258.471C316.177 258.296 316.267 258.134 316.386 257.994ZM316.386 256.871C315.589 256.871 314.948 257.798 314.948 259.013V271.054C314.948 271.76 315.17 272.112 315.51 272.112C315.85 272.112 316.111 271.89 316.477 271.433L325.85 259.797C326.687 258.739 326.687 257.838 325.85 257.759L316.477 256.923L316.386 256.871Z" fill="#407BFF"/>
<path d="M361.369 404.201L440.888 450.146V401.432L361.369 355.474V404.201Z" fill="#EBEBEB"/>
<path d="M496.001 418.358L440.888 450.146V401.432L496.001 369.631V418.358Z" fill="#F5F5F5"/>
<path d="M361.369 355.474L416.495 323.686L496.001 369.631L440.888 401.432L361.369 355.474Z" fill="#FAFAFA"/>
<path opacity="0.1" d="M402.808 395.764L440.888 417.731L463.725 404.554L440.888 419.089L402.808 395.764Z" fill="black"/>
<path opacity="0.1" d="M379.958 394.863L440.888 429.995L486.576 403.652L440.888 431.327L379.958 394.863Z" fill="black"/>
<path opacity="0.1" d="M369.017 373.562C369.017 373.562 367.709 380.667 368.389 384.258C368.389 384.258 378.363 384.01 395.187 388.66L369.017 373.562Z" fill="black"/>
<path d="M369.016 373.562L395.187 388.66L366.232 380.301L369.016 373.562Z" fill="#FAFAFA"/>
<path opacity="0.1" d="M402.808 415.668L431.502 442.023C431.502 442.023 432.299 438.405 437.803 435.858L402.808 415.668Z" fill="black"/>
<path d="M402.808 415.668L429.75 438.34L437.803 435.858L402.808 415.668Z" fill="#FAFAFA"/>
<path opacity="0.1" d="M486.824 389.012L486.576 388.66L468.444 399.108L488.85 397.436C489.213 394.476 488.494 391.484 486.824 389.012Z" fill="black"/>
<path d="M468.444 399.108L486.576 388.66L492.615 391.833L468.444 399.108Z" fill="#FAFAFA"/>
<g opacity="0.3">
<path opacity="0.3" d="M375.383 358.87C375.23 358.866 375.083 358.814 374.964 358.72C374.844 358.626 374.757 358.495 374.718 358.349C374.678 358.202 374.687 358.046 374.743 357.904C374.799 357.763 374.9 357.643 375.03 357.564L420.718 331.209C420.881 331.118 421.074 331.094 421.254 331.143C421.435 331.192 421.589 331.309 421.685 331.47C421.732 331.55 421.762 331.639 421.774 331.732C421.786 331.824 421.78 331.918 421.756 332.007C421.731 332.097 421.689 332.181 421.632 332.255C421.575 332.329 421.504 332.39 421.424 332.436L375.736 358.791C375.625 358.841 375.505 358.868 375.383 358.87Z" fill="#455A64"/>
<path opacity="0.3" d="M382.991 363.258C382.839 363.254 382.692 363.202 382.572 363.108C382.452 363.014 382.366 362.884 382.326 362.737C382.286 362.59 382.295 362.434 382.352 362.293C382.408 362.151 382.508 362.032 382.638 361.952L428.391 335.597C428.471 335.536 428.563 335.493 428.661 335.47C428.76 335.448 428.861 335.447 428.96 335.467C429.058 335.487 429.152 335.528 429.233 335.587C429.315 335.646 429.383 335.721 429.432 335.809C429.482 335.896 429.513 335.993 429.522 336.093C429.531 336.193 429.519 336.294 429.486 336.389C429.453 336.484 429.4 336.571 429.331 336.644C429.261 336.717 429.177 336.774 429.084 336.811L383.396 363.167C383.274 363.238 383.132 363.27 382.991 363.258Z" fill="#455A64"/>
<path opacity="0.3" d="M390.612 367.698C390.489 367.7 390.367 367.67 390.26 367.61C390.152 367.551 390.061 367.464 389.998 367.359C389.907 367.195 389.883 367.003 389.932 366.823C389.981 366.642 390.098 366.488 390.259 366.392L435.947 340.037C436.027 339.991 436.116 339.96 436.209 339.948C436.301 339.936 436.395 339.942 436.485 339.967C436.575 339.991 436.659 340.033 436.733 340.09C436.806 340.147 436.868 340.217 436.914 340.298C436.96 340.378 436.991 340.466 437.003 340.557C437.014 340.648 437.008 340.741 436.984 340.83C436.959 340.919 436.918 341.002 436.861 341.074C436.804 341.147 436.733 341.207 436.653 341.252L390.965 367.607C390.857 367.668 390.736 367.699 390.612 367.698Z" fill="#455A64"/>
<path opacity="0.3" d="M398.233 372.047C398.081 372.044 397.934 371.991 397.814 371.897C397.694 371.803 397.608 371.673 397.568 371.526C397.528 371.379 397.537 371.223 397.594 371.082C397.65 370.94 397.75 370.821 397.88 370.741L443.568 344.386C443.729 344.296 443.92 344.273 444.099 344.322C444.277 344.371 444.429 344.488 444.522 344.647C444.614 344.809 444.64 345 444.593 345.181C444.547 345.361 444.432 345.516 444.274 345.614L398.521 371.969C398.433 372.018 398.334 372.045 398.233 372.047Z" fill="#455A64"/>
<path opacity="0.3" d="M405.841 376.435C405.717 376.435 405.595 376.402 405.488 376.34C405.38 376.278 405.29 376.19 405.227 376.083C405.137 375.921 405.114 375.731 405.163 375.553C405.211 375.374 405.329 375.222 405.489 375.129L451.176 348.774C451.257 348.728 451.346 348.697 451.438 348.685C451.531 348.673 451.624 348.679 451.714 348.704C451.804 348.728 451.889 348.77 451.962 348.827C452.036 348.884 452.098 348.955 452.144 349.036C452.19 349.115 452.22 349.203 452.232 349.294C452.244 349.386 452.238 349.478 452.213 349.567C452.189 349.656 452.147 349.739 452.09 349.811C452.033 349.884 451.963 349.944 451.882 349.989L406.129 376.344C406.041 376.396 405.943 376.427 405.841 376.435Z" fill="#455A64"/>
<path opacity="0.3" d="M413.462 380.837C413.31 380.833 413.163 380.78 413.043 380.687C412.923 380.593 412.837 380.462 412.797 380.315C412.758 380.169 412.767 380.013 412.823 379.871C412.879 379.73 412.98 379.61 413.11 379.531L458.797 353.176C458.957 353.102 459.138 353.09 459.306 353.143C459.474 353.196 459.616 353.309 459.704 353.461C459.793 353.613 459.821 353.793 459.784 353.965C459.747 354.137 459.647 354.288 459.503 354.39L413.815 380.758C413.706 380.814 413.585 380.84 413.462 380.837Z" fill="#455A64"/>
<path opacity="0.3" d="M421.07 385.225C420.947 385.222 420.826 385.188 420.719 385.126C420.611 385.065 420.521 384.977 420.456 384.872C420.366 384.711 420.343 384.52 420.392 384.342C420.44 384.164 420.557 384.012 420.717 383.919L466.405 357.564C466.485 357.507 466.576 357.467 466.672 357.448C466.769 357.428 466.868 357.428 466.964 357.449C467.06 357.47 467.15 357.51 467.23 357.568C467.309 357.626 467.376 357.699 467.425 357.784C467.474 357.869 467.505 357.963 467.516 358.061C467.527 358.158 467.517 358.257 467.488 358.35C467.458 358.444 467.409 358.53 467.345 358.604C467.28 358.678 467.2 358.737 467.111 358.778L421.423 385.133C421.316 385.195 421.194 385.227 421.07 385.225Z" fill="#455A64"/>
<path opacity="0.3" d="M428.692 389.613C428.567 389.615 428.444 389.583 428.336 389.521C428.228 389.459 428.139 389.369 428.077 389.26C428.031 389.181 428.001 389.093 427.989 389.002C427.977 388.91 427.983 388.818 428.008 388.729C428.032 388.64 428.074 388.557 428.131 388.485C428.188 388.412 428.258 388.352 428.339 388.307L474.092 361.952C474.172 361.895 474.263 361.855 474.359 361.836C474.455 361.816 474.555 361.817 474.651 361.837C474.747 361.858 474.837 361.899 474.916 361.956C474.996 362.014 475.062 362.088 475.112 362.172C475.161 362.257 475.192 362.351 475.203 362.449C475.214 362.546 475.204 362.645 475.174 362.739C475.145 362.832 475.096 362.919 475.031 362.992C474.966 363.066 474.887 363.125 474.798 363.166L429.045 389.522C428.937 389.582 428.816 389.614 428.692 389.613Z" fill="#455A64"/>
<path opacity="0.3" d="M436.3 394.014C436.147 394.011 436 393.958 435.881 393.864C435.761 393.77 435.674 393.64 435.635 393.493C435.595 393.346 435.604 393.19 435.66 393.049C435.716 392.907 435.817 392.788 435.947 392.708L481.7 366.353C481.862 366.263 482.052 366.24 482.231 366.289C482.409 366.338 482.561 366.455 482.654 366.614C482.701 366.694 482.731 366.782 482.743 366.873C482.755 366.964 482.748 367.057 482.724 367.146C482.7 367.235 482.658 367.318 482.601 367.39C482.544 367.463 482.473 367.523 482.393 367.568L436.705 393.923C436.582 393.994 436.441 394.026 436.3 394.014Z" fill="#455A64"/>
</g>
<path d="M327.485 291.362L236.371 343.928C235.751 344.332 235.235 344.875 234.865 345.515C234.495 346.155 234.281 346.873 234.24 347.611V434.303C234.281 435.043 234.495 435.763 234.865 436.405C235.235 437.047 235.751 437.593 236.371 437.999L239.874 440.011C240.535 440.346 241.265 440.52 242.005 440.52C242.746 440.52 243.476 440.346 244.136 440.011L335.25 387.444C335.869 387.04 336.385 386.496 336.755 385.856C337.125 385.217 337.339 384.499 337.381 383.761V297.069C337.34 296.329 337.126 295.609 336.756 294.967C336.386 294.325 335.87 293.779 335.25 293.373L331.747 291.362C331.086 291.027 330.356 290.852 329.616 290.852C328.875 290.852 328.145 291.027 327.485 291.362Z" fill="#407BFF"/>
<path opacity="0.3" d="M327.485 291.362L236.371 343.928C235.751 344.332 235.235 344.875 234.865 345.515C234.495 346.155 234.281 346.873 234.24 347.611V434.303C234.281 435.043 234.495 435.763 234.865 436.405C235.235 437.047 235.751 437.593 236.371 437.999L239.874 440.011C240.535 440.346 241.265 440.52 242.005 440.52C242.746 440.52 243.476 440.346 244.136 440.011L335.25 387.444C335.869 387.04 336.385 386.496 336.755 385.856C337.125 385.217 337.339 384.499 337.381 383.761V297.069C337.34 296.329 337.126 295.609 336.756 294.967C336.386 294.325 335.87 293.779 335.25 293.373L331.747 291.362C331.086 291.027 330.356 290.852 329.616 290.852C328.875 290.852 328.145 291.027 327.485 291.362Z" fill="black"/>
<path d="M337.302 296.43C337.028 295.542 336.217 295.268 335.25 295.842L244.136 348.409C243.503 348.798 242.985 349.348 242.633 350.002L234.92 345.496C235.268 344.84 235.788 344.289 236.423 343.903L327.55 291.336C328.211 291.001 328.941 290.827 329.681 290.827C330.422 290.827 331.152 291.001 331.812 291.336L335.302 293.361C335.824 293.713 336.269 294.166 336.613 294.693C336.956 295.22 337.191 295.811 337.302 296.43Z" fill="#407BFF"/>
<path opacity="0.2" d="M337.302 296.43C337.028 295.542 336.217 295.268 335.25 295.842L244.136 348.409C243.503 348.798 242.985 349.348 242.633 350.002L234.92 345.496C235.268 344.84 235.788 344.289 236.423 343.903L327.55 291.336C328.211 291.001 328.941 290.827 329.681 290.827C330.422 290.827 331.152 291.001 331.812 291.336L335.302 293.361C335.824 293.713 336.269 294.166 336.613 294.693C336.956 295.22 337.191 295.811 337.302 296.43Z" fill="black"/>
<path d="M335.25 295.868L244.136 348.448C243.516 348.851 243 349.395 242.63 350.035C242.259 350.675 242.045 351.393 242.005 352.131V438.862C242.005 440.168 242.959 440.769 244.136 440.09L335.25 387.523C335.869 387.119 336.385 386.575 336.755 385.936C337.125 385.296 337.339 384.578 337.381 383.84V297.07C337.381 295.712 336.426 295.15 335.25 295.868Z" fill="#407BFF"/>
<path d="M281.81 400.57C279.518 400.582 277.263 399.987 275.274 398.846C269.81 395.686 266.673 388.529 266.673 379.191C266.843 369.97 269.362 360.945 273.993 352.967C275.504 350.359 277.254 347.897 279.222 345.614C281.705 342.679 284.655 340.172 287.954 338.196C293.824 334.813 299.589 334.408 304.164 337.046C309.641 340.207 312.779 347.364 312.779 356.636C312.612 365.864 310.088 374.895 305.445 382.874C302.146 388.952 297.327 394.072 291.458 397.736C288.548 399.513 285.22 400.49 281.81 400.57ZM281.588 347.69C279.757 349.82 278.129 352.115 276.725 354.547C272.369 362.044 269.994 370.524 269.823 379.191C269.823 387.367 272.438 393.557 276.843 396.091C280.399 398.141 285.026 397.736 289.915 394.941C295.27 391.57 299.671 386.885 302.7 381.333C307.058 373.837 309.433 365.356 309.602 356.689C309.602 348.526 306.988 342.323 302.582 339.802C299.027 337.752 294.399 338.157 289.51 340.951C286.512 342.742 283.835 345.019 281.588 347.69Z" fill="white"/>
<path d="M301.889 363.01L283.993 385.212C282.386 387.21 281.078 386.896 281.078 384.493V361.625C281.078 359.209 282.386 357.381 283.993 357.525L301.889 359.118C303.497 359.262 303.497 361.012 301.889 363.01Z" fill="white"/>
<path d="M209.913 362.291V441.317C209.888 441.77 209.757 442.211 209.529 442.603C209.302 442.996 208.986 443.329 208.606 443.577L129.976 488.96C129.257 489.365 128.668 489.039 128.668 488.203V484.076L205.717 439.607V363.193L208.58 361.547C209.325 361.168 209.913 361.469 209.913 362.291Z" fill="#263238"/>
<path d="M205.729 363.193V439.607L128.681 484.076V409.19C128.683 408.728 128.814 408.275 129.06 407.884C129.268 407.475 129.585 407.132 129.975 406.891L205.729 363.193Z" fill="#407BFF"/>
<path opacity="0.8" d="M205.729 363.193V439.607L128.681 484.076V409.19C128.683 408.728 128.814 408.275 129.06 407.884C129.268 407.475 129.585 407.132 129.975 406.891L205.729 363.193Z" fill="white"/>
<path d="M186.722 395.869C186.641 395.792 186.554 395.722 186.461 395.66H186.396L181.52 392.839C181.152 392.636 180.721 392.579 180.313 392.681C179.906 392.783 179.552 393.035 179.323 393.387L161.963 436.133L150.434 428.558L150.198 428.401L145.375 425.619C145.014 425.396 144.58 425.321 144.166 425.411C143.751 425.502 143.387 425.749 143.152 426.103L126.224 460.059V482.626L131.126 485.46L206.775 441.801C207.205 441.557 207.563 441.204 207.811 440.777C208.059 440.35 208.189 439.865 208.187 439.372V417.966L186.722 395.869Z" fill="#407BFF"/>
<path opacity="0.15" d="M186.722 395.869C186.641 395.792 186.554 395.722 186.461 395.66H186.396L181.52 392.839C181.152 392.636 180.721 392.579 180.313 392.681C179.906 392.783 179.552 393.035 179.323 393.387L161.963 436.133L150.434 428.558L150.198 428.401L145.375 425.619C145.014 425.396 144.58 425.321 144.166 425.411C143.751 425.502 143.387 425.749 143.152 426.103L126.224 460.059V482.626L131.126 485.46L206.775 441.801C207.205 441.557 207.563 441.204 207.811 440.777C208.059 440.35 208.189 439.865 208.187 439.372V417.966L186.722 395.869Z" fill="black"/>
<path d="M131.126 485.486V462.893L147.937 428.845C148.066 428.649 148.235 428.482 148.434 428.357C148.632 428.231 148.856 428.15 149.088 428.118C149.321 428.086 149.558 428.104 149.783 428.17C150.009 428.237 150.217 428.352 150.394 428.506L166.526 439.11L184.186 396.156C184.32 395.953 184.497 395.781 184.704 395.654C184.912 395.526 185.145 395.446 185.387 395.419C185.629 395.391 185.874 395.417 186.105 395.495C186.336 395.573 186.546 395.7 186.722 395.869L208.187 417.966V439.398C208.189 439.891 208.059 440.376 207.811 440.803C207.562 441.23 207.205 441.584 206.775 441.827L131.126 485.486Z" fill="#407BFF"/>
<path opacity="0.15" d="M166.525 439.11L161.44 451.478L164.669 437.896L166.525 439.11Z" fill="black"/>
<path d="M213.076 357.433V357.276C212.998 356.889 212.841 356.521 212.617 356.196C212.392 355.87 212.104 355.594 211.769 355.383L209.468 354.077C209.063 353.87 208.615 353.763 208.161 353.763C207.707 353.763 207.259 353.87 206.854 354.077L122.629 402.673C122.244 402.919 121.925 403.255 121.701 403.653C121.462 404.048 121.327 404.497 121.309 404.959V503.784C121.333 504.236 121.465 504.677 121.692 505.069C121.919 505.462 122.236 505.795 122.616 506.043L124.903 507.349C125.259 507.527 125.648 507.632 126.046 507.657C126.443 507.682 126.842 507.626 127.217 507.493H127.309L127.518 507.388L211.769 458.779C212.149 458.528 212.466 458.192 212.693 457.798C212.92 457.403 213.051 456.961 213.076 456.506V357.642C213.089 357.577 213.076 357.498 213.076 357.433ZM209.913 441.318C209.886 441.77 209.753 442.209 209.527 442.602C209.3 442.994 208.984 443.328 208.605 443.577L129.975 488.96C129.256 489.365 128.668 489.039 128.668 488.203V409.19C128.682 408.73 128.812 408.28 129.047 407.884C129.264 407.488 129.579 407.155 129.962 406.918L208.592 361.534C209.311 361.116 209.9 361.443 209.9 362.291L209.913 441.318Z" fill="#37474F"/>
<path d="M127.23 507.506C126.855 507.639 126.456 507.695 126.059 507.67C125.661 507.645 125.273 507.541 124.917 507.362L122.629 506.056C122.249 505.808 121.932 505.475 121.705 505.082C121.478 504.69 121.347 504.249 121.322 503.797V404.945C121.334 404.483 121.47 404.032 121.714 403.639L126.616 406.473C126.379 406.869 126.249 407.319 126.237 407.779V506.604C126.224 507.323 126.655 507.675 127.23 507.506Z" fill="#263238"/>
<path d="M213.076 357.433C213.071 357.381 213.071 357.328 213.076 357.276C212.906 356.728 212.396 356.545 211.769 356.898L127.531 405.572C127.152 405.819 126.837 406.15 126.61 406.54C126.383 406.93 126.251 407.368 126.224 407.819V506.657C126.224 507.375 126.668 507.715 127.23 507.558H127.335L127.544 507.453L211.795 458.844C212.175 458.596 212.49 458.262 212.718 457.87C212.945 457.477 213.076 457.037 213.102 456.585V357.433H213.076ZM209.913 441.318C209.888 441.77 209.756 442.211 209.529 442.603C209.302 442.996 208.986 443.329 208.605 443.577L129.975 488.96C129.256 489.365 128.668 489.039 128.668 488.203V409.19C128.67 408.728 128.801 408.275 129.047 407.884C129.255 407.475 129.572 407.132 129.962 406.891L205.716 363.166L208.579 361.521C209.311 361.09 209.887 361.443 209.887 362.265L209.913 441.318Z" fill="#455A64"/>
<path d="M159.441 407.871L161.349 404.645L157.427 402.373C156.829 402.098 156.168 401.988 155.513 402.054C154.858 402.121 154.232 402.362 153.702 402.751C152.172 403.757 150.9 405.108 149.992 406.697C149.083 408.286 148.563 410.066 148.473 411.893C148.405 412.541 148.51 413.194 148.776 413.788C149.042 414.382 149.461 414.895 149.989 415.276L153.767 417.457L155.584 414.388C157.527 412.677 158.877 410.396 159.441 407.871Z" fill="#407BFF"/>
<path opacity="0.15" d="M159.441 407.871L161.349 404.645L157.427 402.373C156.829 402.098 156.168 401.988 155.513 402.054C154.858 402.121 154.232 402.362 153.702 402.751C152.172 403.757 150.9 405.108 149.992 406.697C149.083 408.286 148.563 410.066 148.473 411.893C148.405 412.541 148.51 413.194 148.776 413.788C149.042 414.382 149.461 414.895 149.989 415.276L153.767 417.457L155.584 414.388C157.527 412.677 158.877 410.396 159.441 407.871Z" fill="black"/>
<path d="M157.558 404.972C160.473 403.287 162.787 404.658 162.787 408.015C162.694 409.841 162.172 411.621 161.264 413.209C160.356 414.797 159.086 416.149 157.558 417.157C154.643 418.828 152.329 417.47 152.329 414.101C152.424 412.276 152.947 410.499 153.855 408.914C154.763 407.328 156.032 405.978 157.558 404.972Z" fill="#407BFF"/>
<path d="M354.088 536.447L290.556 573.093L218.998 531.732L282.543 495.086L354.088 536.447Z" fill="#407BFF"/>
<path opacity="0.5" d="M354.088 536.447L290.556 573.093L218.998 531.732L282.543 495.086L354.088 536.447Z" fill="black"/>
<path d="M282.543 445.405V495.086L218.998 531.732V482.052L282.543 445.405Z" fill="#407BFF"/>
<path opacity="0.23" d="M282.543 445.405V495.086L218.998 531.732V482.052L282.543 445.405Z" fill="black"/>
<path d="M354.087 486.766V536.447L282.543 495.086V445.405L354.087 486.766Z" fill="#407BFF"/>
<path opacity="0.4" d="M354.087 486.766V536.447L282.543 495.086V445.405L354.087 486.766Z" fill="black"/>
<path d="M282.543 445.405L282.634 417.901L354.009 459.314L354.087 486.766L282.543 445.405Z" fill="#407BFF"/>
<path opacity="0.2" d="M282.543 445.405L282.634 417.901L354.009 459.314L354.087 486.766L282.543 445.405Z" fill="black"/>
<path d="M218.998 482.052L211.429 457.094L274.961 420.448L282.543 445.405L218.998 482.052Z" fill="#407BFF"/>
<path opacity="0.1" d="M218.998 482.052L211.429 457.094L274.961 420.448L282.543 445.405L218.998 482.052Z" fill="black"/>
<path d="M234.148 529.812C233.783 529.561 233.476 529.234 233.25 528.853C233.025 528.472 232.885 528.046 232.841 527.605L227.507 440.168C227.503 439.739 227.605 439.316 227.803 438.936C228.001 438.555 228.291 438.23 228.645 437.987L283.117 406.748C283.499 406.552 283.923 406.45 284.352 406.45C284.782 406.45 285.206 406.552 285.588 406.748C285.953 406.996 286.259 407.321 286.485 407.7C286.711 408.079 286.851 408.503 286.895 408.942L292.229 496.444C292.24 496.872 292.142 497.296 291.943 497.676C291.744 498.055 291.45 498.378 291.091 498.612L236.619 529.825C236.235 530.016 235.811 530.114 235.382 530.112C234.953 530.11 234.53 530.007 234.148 529.812Z" fill="#F0F0F0"/>
<path d="M236.62 529.825L291.131 498.586C291.49 498.352 291.783 498.029 291.983 497.65C292.182 497.27 292.28 496.846 292.268 496.418L286.935 408.916C286.935 408.106 286.294 407.753 285.628 408.145L231.155 439.385C230.796 439.622 230.503 439.947 230.304 440.328C230.105 440.71 230.007 441.136 230.018 441.566L235.352 529.002C235.338 529.877 235.94 530.217 236.62 529.825Z" fill="#FAFAFA"/>
<path d="M286.111 408.681C286.19 408.681 286.242 408.877 286.242 409.007L291.575 496.509C291.58 496.817 291.508 497.121 291.367 497.394C291.226 497.668 291.019 497.902 290.765 498.076L236.293 529.316C236.225 529.358 236.149 529.385 236.07 529.394C235.992 529.394 235.953 529.198 235.94 529.068L230.606 441.631C230.606 441.321 230.682 441.015 230.825 440.74C230.968 440.465 231.176 440.229 231.43 440.051L285.902 408.759C285.969 408.717 286.045 408.69 286.124 408.681H286.111ZM286.124 408.041C285.935 408.045 285.75 408.099 285.588 408.197L231.116 439.437C230.757 439.674 230.464 439.999 230.265 440.38C230.066 440.762 229.967 441.188 229.979 441.618L235.312 529.055C235.312 529.642 235.665 529.982 236.083 529.982C236.277 529.975 236.465 529.922 236.632 529.825L291.131 498.586C291.49 498.351 291.783 498.029 291.982 497.65C292.181 497.27 292.28 496.846 292.268 496.418L286.935 408.916C286.935 408.328 286.582 407.988 286.15 407.988L286.124 408.041Z" fill="#EBEBEB"/>
<path d="M236.45 529.904C236.083 530.057 235.687 530.129 235.289 530.113C234.892 530.097 234.502 529.995 234.149 529.812C233.783 529.561 233.477 529.234 233.251 528.853C233.025 528.472 232.886 528.046 232.842 527.605L227.508 440.168C227.486 439.714 227.59 439.262 227.809 438.862L230.293 440.312C230.077 440.689 229.973 441.119 229.992 441.553L235.325 529.055C235.338 529.812 235.848 530.152 236.45 529.904Z" fill="#E0E0E0"/>
<path d="M258.607 432.319L277.797 421.166C278.399 420.826 278.922 421.166 278.961 421.845V422.302C278.971 422.681 278.884 423.057 278.708 423.393C278.532 423.729 278.272 424.015 277.954 424.222L258.764 435.375C258.163 435.715 257.64 435.375 257.601 434.696V434.239C257.592 433.86 257.679 433.485 257.855 433.149C258.031 432.813 258.29 432.528 258.607 432.319Z" fill="#E0E0E0"/>
<path d="M259.065 439.933L278.268 428.78C278.869 428.44 279.392 428.78 279.431 429.472V429.916C279.439 430.295 279.351 430.67 279.175 431.005C278.999 431.341 278.741 431.627 278.425 431.836L259.222 442.989C258.633 443.329 258.11 442.989 258.058 442.31V441.853C258.051 441.474 258.14 441.1 258.316 440.765C258.492 440.429 258.749 440.143 259.065 439.933Z" fill="#E0E0E0"/>
<path d="M259.535 447.547L278.725 436.394C279.327 436.054 279.85 436.394 279.889 437.086V437.53C279.899 437.908 279.814 438.282 279.64 438.618C279.466 438.954 279.21 439.24 278.895 439.45L259.758 450.603C259.156 450.943 258.633 450.603 258.594 449.924V449.467C258.579 449.094 258.657 448.723 258.821 448.388C258.986 448.053 259.231 447.764 259.535 447.547Z" fill="#E0E0E0"/>
<path d="M240.149 474.346L279.641 451.635C280.242 451.282 280.765 451.635 280.804 452.314V452.758C280.81 453.137 280.72 453.51 280.545 453.846C280.369 454.181 280.112 454.467 279.798 454.678L240.345 477.402C239.757 477.742 239.234 477.402 239.182 476.723V476.279C239.167 475.902 239.249 475.527 239.418 475.189C239.587 474.851 239.838 474.561 240.149 474.346Z" fill="#E0E0E0"/>
<path d="M239.705 466.732L279.196 444.021C279.798 443.668 280.32 444.021 280.36 444.7V445.144C280.368 445.523 280.279 445.898 280.103 446.233C279.927 446.569 279.669 446.855 279.353 447.064L239.888 469.775C239.286 470.115 238.764 469.775 238.724 469.096V468.652C238.711 468.275 238.794 467.901 238.966 467.565C239.137 467.23 239.392 466.943 239.705 466.732Z" fill="#E0E0E0"/>
<path d="M240.633 482.012L280.124 459.301C280.725 458.962 281.248 459.301 281.287 459.98V460.424C281.298 460.804 281.211 461.179 281.035 461.515C280.858 461.851 280.599 462.137 280.281 462.344L240.789 485.055C240.188 485.408 239.665 485.055 239.626 484.376V483.932C239.618 483.553 239.706 483.179 239.882 482.843C240.058 482.507 240.316 482.222 240.633 482.012Z" fill="#E0E0E0"/>
<path d="M241.103 489.627L280.595 466.954C281.196 466.615 281.706 466.954 281.758 467.633V468.078C281.766 468.456 281.678 468.831 281.502 469.167C281.326 469.502 281.068 469.788 280.752 469.997L241.26 492.709C240.659 493.061 240.136 492.709 240.097 492.03V491.586C240.079 491.2 240.163 490.816 240.34 490.473C240.516 490.129 240.779 489.837 241.103 489.627Z" fill="#E0E0E0"/>
<path d="M241.561 497.24L281.052 474.529C281.654 474.19 282.177 474.529 282.216 475.208V475.652C282.226 476.032 282.139 476.407 281.963 476.743C281.787 477.079 281.527 477.365 281.209 477.572L241.718 500.297C241.116 500.636 240.594 500.297 240.554 499.604V499.16C240.546 498.781 240.635 498.407 240.811 498.071C240.987 497.735 241.245 497.45 241.561 497.24Z" fill="#E0E0E0"/>
<path d="M242.031 504.828L281.523 482.117C282.124 481.777 282.634 482.117 282.686 482.796V483.24C282.693 483.621 282.604 483.997 282.428 484.334C282.253 484.672 281.995 484.96 281.68 485.173L242.188 507.884C241.587 508.224 241.064 507.884 241.025 507.205V506.748C241.014 506.369 241.101 505.993 241.278 505.657C241.454 505.321 241.713 505.036 242.031 504.828Z" fill="#E0E0E0"/>
<path d="M242.489 512.468L281.98 489.757C282.582 489.418 283.104 489.757 283.144 490.436V490.88C283.153 491.261 283.065 491.638 282.889 491.976C282.713 492.314 282.454 492.602 282.137 492.813L242.646 515.524C242.044 515.864 241.535 515.524 241.482 514.845V514.388C241.474 514.009 241.562 513.635 241.738 513.299C241.914 512.963 242.173 512.678 242.489 512.468Z" fill="#E0E0E0"/>
<path d="M237.443 443.211L253.391 434.082L254.555 453.202L238.606 462.318L237.443 443.211Z" fill="#407BFF"/>
<path d="M240.031 445.183L240.384 450.917L240.881 450.629L240.777 448.866C240.793 448.314 240.948 447.775 241.226 447.299C241.505 446.822 241.898 446.422 242.371 446.137L244.724 444.831L245.247 453.359C245.288 453.909 245.189 454.46 244.961 454.962C244.733 455.464 244.381 455.901 243.94 456.232L242.463 457.081V457.695L250.437 453.137V452.523L248.96 453.372C248.136 453.842 247.417 453.307 247.352 452.184L246.829 443.655L249.195 442.349C250.123 441.814 250.934 442.167 250.999 443.133L251.104 444.896L251.6 444.609L251.248 438.875L240.031 445.183Z" fill="#FAFAFA"/>
<path d="M256.842 542.898C256.476 542.648 256.17 542.32 255.944 541.939C255.718 541.558 255.579 541.132 255.535 540.691L250.201 453.254C250.19 452.824 250.288 452.398 250.487 452.017C250.686 451.635 250.979 451.311 251.338 451.073L305.811 419.834C306.193 419.638 306.616 419.536 307.046 419.536C307.476 419.536 307.899 419.638 308.281 419.834C308.645 420.084 308.95 420.409 309.175 420.788C309.401 421.167 309.542 421.59 309.589 422.028L314.922 509.465C314.925 509.895 314.821 510.319 314.621 510.699C314.42 511.08 314.128 511.405 313.772 511.646L259.299 542.885C258.92 543.08 258.499 543.183 258.072 543.185C257.645 543.187 257.224 543.089 256.842 542.898Z" fill="#F0F0F0"/>
<path d="M259.3 542.911L313.772 511.672C314.129 511.431 314.421 511.106 314.621 510.725C314.822 510.345 314.926 509.921 314.923 509.491L309.589 422.054C309.589 421.244 308.949 420.892 308.282 421.284L253.797 452.588C253.44 452.829 253.148 453.154 252.948 453.535C252.747 453.915 252.643 454.339 252.646 454.769L257.98 542.206C258.032 542.951 258.62 543.303 259.3 542.911Z" fill="#FAFAFA"/>
<path d="M308.805 421.767C308.883 421.767 308.923 421.963 308.936 422.093L314.269 509.595C314.276 509.905 314.205 510.212 314.064 510.488C313.922 510.764 313.714 511 313.459 511.175L258.986 542.415C258.919 542.457 258.843 542.484 258.764 542.493C258.686 542.493 258.646 542.297 258.633 542.167L253.3 454.665C253.293 454.355 253.364 454.048 253.505 453.772C253.647 453.497 253.855 453.26 254.11 453.085L308.583 421.845C308.65 421.803 308.726 421.776 308.805 421.767ZM308.805 421.127C308.616 421.131 308.431 421.185 308.269 421.284L253.797 452.588C253.44 452.829 253.148 453.154 252.948 453.535C252.747 453.915 252.643 454.339 252.646 454.769L257.98 542.206C257.98 542.794 258.333 543.133 258.764 543.133C258.953 543.129 259.138 543.075 259.3 542.977L313.772 511.737C314.129 511.496 314.421 511.171 314.621 510.791C314.822 510.41 314.926 509.986 314.923 509.556L309.589 422.119C309.589 421.532 309.236 421.192 308.805 421.192V421.127Z" fill="#EBEBEB"/>
<path d="M259.143 542.99C258.777 543.149 258.379 543.222 257.981 543.204C257.582 543.186 257.192 543.077 256.842 542.885C256.476 542.639 256.169 542.314 255.943 541.935C255.717 541.555 255.577 541.131 255.535 540.691L250.202 453.254C250.179 452.8 250.283 452.348 250.502 451.948L252.973 453.398C252.762 453.777 252.658 454.206 252.672 454.639L258.006 542.141C258.032 542.885 258.542 543.238 259.143 542.99Z" fill="#E0E0E0"/>
<path d="M281.288 445.405L300.491 434.304C301.092 433.965 301.615 434.304 301.654 434.983V435.441C301.665 435.82 301.578 436.195 301.401 436.532C301.225 436.868 300.966 437.153 300.648 437.36L281.458 448.514C280.856 448.853 280.333 448.514 280.294 447.834V447.377C280.274 446.991 280.356 446.606 280.53 446.26C280.704 445.914 280.965 445.62 281.288 445.405Z" fill="#E0E0E0"/>
<path d="M281.758 453.019L300.961 441.866C301.549 441.527 302.072 441.866 302.125 442.545V443.002C302.132 443.381 302.044 443.756 301.868 444.092C301.692 444.427 301.434 444.713 301.118 444.922L281.98 456.075C281.379 456.415 280.856 456.075 280.817 455.396V454.939C280.802 454.566 280.88 454.195 281.044 453.86C281.208 453.525 281.454 453.236 281.758 453.019Z" fill="#E0E0E0"/>
<path d="M282.229 460.633L301.419 449.48C302.02 449.141 302.543 449.48 302.582 450.159V450.616C302.603 451.003 302.523 451.389 302.348 451.734C302.174 452.08 301.912 452.375 301.589 452.588L282.399 463.742C281.797 464.081 281.275 463.742 281.235 463.062V462.605C281.216 462.219 281.297 461.834 281.471 461.488C281.645 461.142 281.906 460.848 282.229 460.633Z" fill="#E0E0E0"/>
<path d="M262.856 487.432L302.347 464.708C302.948 464.368 303.471 464.708 303.51 465.4V465.844C303.521 466.224 303.434 466.599 303.258 466.935C303.081 467.271 302.822 467.557 302.504 467.764L263.039 490.462C262.437 490.802 261.914 490.462 261.875 489.783V489.339C261.867 488.965 261.952 488.594 262.123 488.261C262.294 487.928 262.546 487.643 262.856 487.432Z" fill="#E0E0E0"/>
<path d="M262.372 479.805L301.876 457.094C302.465 456.755 302.987 457.094 303.04 457.773V458.23C303.048 458.609 302.96 458.984 302.784 459.319C302.608 459.655 302.349 459.941 302.033 460.15L262.542 482.861C261.94 483.201 261.418 482.861 261.378 482.182V481.738C261.369 481.359 261.455 480.983 261.629 480.646C261.802 480.308 262.058 480.019 262.372 479.805Z" fill="#E0E0E0"/>
<path d="M263.326 495.099L302.818 472.387C303.419 472.048 303.942 472.387 303.981 473.066V473.511C303.989 473.889 303.901 474.264 303.725 474.6C303.549 474.935 303.291 475.221 302.974 475.43L263.483 498.142C262.882 498.494 262.359 498.142 262.32 497.463V497.019C262.309 496.639 262.396 496.264 262.572 495.928C262.749 495.592 263.008 495.306 263.326 495.099Z" fill="#E0E0E0"/>
<path d="M263.784 502.713L303.275 480.014C303.876 479.675 304.399 480.014 304.452 480.694V481.138C304.459 481.516 304.371 481.891 304.195 482.227C304.019 482.562 303.761 482.848 303.445 483.057L263.94 505.769C263.352 506.121 262.829 505.769 262.777 505.09V504.646C262.767 504.265 262.854 503.887 263.03 503.549C263.206 503.211 263.465 502.923 263.784 502.713Z" fill="#E0E0E0"/>
<path d="M264.254 510.327L303.746 487.615C304.347 487.276 304.87 487.615 304.909 488.294V488.738C304.917 489.117 304.829 489.492 304.653 489.828C304.477 490.163 304.219 490.449 303.903 490.658L264.411 513.37C263.81 513.722 263.287 513.37 263.248 512.691V512.246C263.24 511.868 263.328 511.493 263.504 511.157C263.68 510.822 263.938 510.536 264.254 510.327Z" fill="#E0E0E0"/>
<path d="M264.712 517.888L304.203 495.229C304.792 494.89 305.314 495.229 305.367 495.908V496.353C305.375 496.731 305.287 497.106 305.111 497.442C304.935 497.777 304.676 498.063 304.36 498.272L264.856 520.984C264.267 521.336 263.744 520.984 263.692 520.305V519.861C263.679 519.472 263.766 519.087 263.945 518.742C264.123 518.396 264.387 518.103 264.712 517.888Z" fill="#E0E0E0"/>
<path d="M265.183 525.555L304.674 502.843C305.275 502.504 305.798 502.843 305.837 503.522V503.966C305.848 504.346 305.761 504.721 305.585 505.057C305.408 505.393 305.149 505.679 304.831 505.886L265.366 528.598C264.764 528.95 264.241 528.598 264.202 527.918V527.474C264.191 527.098 264.275 526.725 264.447 526.389C264.618 526.054 264.871 525.767 265.183 525.555Z" fill="#E0E0E0"/>
<path d="M260.136 456.297L276.085 447.168L277.248 466.288L261.3 475.404L260.136 456.297Z" fill="#407BFF"/>
<path d="M262.725 458.269L263.078 464.003L263.575 463.715L263.47 461.952C263.483 461.4 263.636 460.859 263.915 460.382C264.194 459.905 264.589 459.506 265.065 459.223L267.418 457.917L267.941 466.432C267.981 466.984 267.883 467.537 267.654 468.041C267.426 468.545 267.075 468.984 266.634 469.318L265.156 470.167V470.781L273.13 466.223V465.609L271.653 466.458C270.83 466.928 270.111 466.458 270.045 465.27L269.523 456.741L271.876 455.435C272.817 454.9 273.627 455.253 273.693 456.219L273.797 457.969L274.294 457.695L273.941 451.961L262.725 458.269Z" fill="#FAFAFA"/>
<path d="M279.47 555.971C279.106 555.719 278.8 555.392 278.575 555.011C278.349 554.63 278.209 554.204 278.163 553.764L272.83 466.262C272.818 465.832 272.917 465.406 273.116 465.025C273.314 464.643 273.607 464.318 273.967 464.081L328.439 432.842C328.821 432.646 329.245 432.543 329.674 432.543C330.104 432.543 330.528 432.646 330.91 432.842C331.273 433.092 331.578 433.417 331.804 433.796C332.029 434.174 332.17 434.597 332.217 435.036L337.551 522.472C337.553 522.902 337.45 523.327 337.249 523.707C337.048 524.087 336.757 524.413 336.4 524.653L281.98 555.984C281.591 556.182 281.16 556.283 280.724 556.281C280.287 556.279 279.857 556.173 279.47 555.971Z" fill="#F0F0F0"/>
<path d="M281.98 555.984L336.453 524.745C336.809 524.504 337.101 524.179 337.302 523.798C337.502 523.418 337.606 522.994 337.603 522.564L332.27 435.127C332.27 434.317 331.616 433.965 330.962 434.357L276.438 465.648C276.076 465.884 275.78 466.208 275.579 466.59C275.378 466.971 275.277 467.398 275.287 467.829L280.673 555.214C280.673 556.024 281.261 556.376 281.98 555.984Z" fill="#FAFAFA"/>
<path d="M331.446 434.84C331.524 434.84 331.564 435.036 331.577 435.166L336.884 522.603C336.887 522.912 336.815 523.218 336.674 523.493C336.533 523.768 336.327 524.005 336.074 524.183L281.601 555.423C281.534 555.465 281.458 555.492 281.379 555.501C281.301 555.501 281.248 555.305 281.248 555.175L275.915 467.673C275.91 467.365 275.982 467.061 276.123 466.787C276.265 466.514 276.471 466.28 276.725 466.105L331.198 434.866C331.265 434.824 331.341 434.797 331.42 434.788L331.446 434.84ZM331.42 434.148C331.231 434.152 331.046 434.206 330.884 434.304L276.438 465.648C276.076 465.884 275.78 466.208 275.579 466.59C275.378 466.971 275.277 467.398 275.287 467.829L280.673 555.214C280.673 555.802 281.026 556.141 281.457 556.141C281.647 556.136 281.832 556.082 281.993 555.984L336.466 524.745C336.822 524.504 337.114 524.179 337.315 523.798C337.515 523.418 337.619 522.994 337.616 522.564L332.283 435.127C332.283 434.539 331.93 434.2 331.498 434.2L331.42 434.148Z" fill="#EBEBEB"/>
<path d="M281.784 556.063C281.415 556.218 281.016 556.288 280.616 556.27C280.216 556.252 279.824 556.146 279.471 555.958C279.107 555.709 278.801 555.384 278.575 555.005C278.35 554.626 278.209 554.203 278.163 553.764L272.83 466.262C272.811 465.809 272.91 465.359 273.117 464.956L275.601 466.406C275.39 466.785 275.286 467.213 275.301 467.647L280.634 555.149C280.673 555.958 281.183 556.311 281.784 556.063Z" fill="#E0E0E0"/>
<path d="M303.929 458.478L323.132 447.364C323.733 447.025 324.256 447.364 324.295 448.044V448.501C324.303 448.879 324.215 449.254 324.039 449.59C323.863 449.926 323.605 450.211 323.289 450.42L304.099 461.574C303.497 461.913 302.975 461.574 302.922 460.895V460.437C302.91 460.052 302.996 459.671 303.172 459.328C303.348 458.985 303.609 458.693 303.929 458.478Z" fill="#E0E0E0"/>
<path d="M304.399 466.092L323.59 454.939C324.191 454.6 324.714 454.939 324.766 455.618V456.075C324.774 456.454 324.686 456.829 324.51 457.165C324.334 457.5 324.076 457.786 323.759 457.995L304.556 469.148C303.955 469.488 303.432 469.148 303.393 468.469V468.012C303.385 467.633 303.473 467.259 303.649 466.923C303.825 466.587 304.083 466.302 304.399 466.092Z" fill="#E0E0E0"/>
<path d="M304.857 473.706L324.06 462.553C324.662 462.214 325.185 462.553 325.224 463.232V463.689C325.234 464.069 325.147 464.444 324.971 464.78C324.795 465.116 324.535 465.402 324.217 465.609L305.027 476.762C304.426 477.102 303.903 476.762 303.864 476.083V475.626C303.859 475.249 303.947 474.877 304.12 474.542C304.294 474.208 304.547 473.921 304.857 473.706Z" fill="#E0E0E0"/>
<path d="M285.497 500.492L324.988 477.781C325.59 477.442 326.113 477.781 326.152 478.46V478.917C326.162 479.297 326.075 479.672 325.899 480.008C325.723 480.344 325.463 480.63 325.145 480.837L285.68 503.522C285.079 503.862 284.556 503.522 284.517 502.843V502.399C284.511 502.026 284.598 501.656 284.769 501.324C284.94 500.991 285.19 500.706 285.497 500.492Z" fill="#E0E0E0"/>
<path d="M285.026 492.879L324.531 470.167C325.119 469.828 325.642 470.167 325.694 470.846V471.303C325.702 471.682 325.614 472.057 325.438 472.393C325.262 472.728 325.004 473.014 324.688 473.223L285.196 495.935C284.595 496.274 284.072 495.935 284.02 495.255V494.811C284.017 494.432 284.107 494.057 284.282 493.72C284.458 493.383 284.713 493.094 285.026 492.879Z" fill="#E0E0E0"/>
<path d="M285.968 508.172L325.459 485.46C326.06 485.108 326.583 485.46 326.623 486.139V486.584C326.63 486.962 326.542 487.337 326.366 487.673C326.19 488.008 325.932 488.294 325.616 488.503L286.125 511.215C285.523 511.567 285 511.215 284.961 510.535V510.091C284.951 509.712 285.038 509.337 285.214 509.001C285.39 508.664 285.65 508.379 285.968 508.172Z" fill="#E0E0E0"/>
<path d="M286.425 515.786L325.917 493.074C326.518 492.735 327.041 493.074 327.08 493.753V494.198C327.091 494.575 327.005 494.95 326.831 495.286C326.657 495.621 326.401 495.907 326.086 496.117L286.582 518.829C285.994 519.181 285.471 518.829 285.419 518.15V517.705C285.411 517.327 285.499 516.952 285.675 516.616C285.851 516.281 286.109 515.995 286.425 515.786Z" fill="#E0E0E0"/>
<path d="M286.895 523.4L326.426 500.688C327.027 500.349 327.55 500.688 327.59 501.368V501.812C327.597 502.19 327.509 502.565 327.333 502.901C327.157 503.236 326.899 503.522 326.583 503.731L287.078 526.443C286.477 526.795 285.954 526.443 285.915 525.764V525.32C285.902 524.943 285.985 524.569 286.156 524.233C286.328 523.897 286.582 523.61 286.895 523.4Z" fill="#E0E0E0"/>
<path d="M287.353 531.014L326.845 508.302C327.446 507.963 327.969 508.302 328.008 508.981V509.425C328.014 509.804 327.925 510.178 327.749 510.513C327.573 510.848 327.316 511.134 327.002 511.345L287.497 534.057C286.909 534.409 286.386 534.057 286.334 533.377V532.933C286.327 532.553 286.417 532.178 286.596 531.842C286.774 531.506 287.035 531.221 287.353 531.014Z" fill="#E0E0E0"/>
<path d="M287.824 538.628L327.315 515.916C327.917 515.577 328.44 515.916 328.479 516.595V517.039C328.487 517.418 328.399 517.793 328.223 518.129C328.047 518.464 327.788 518.75 327.472 518.959L287.981 541.671C287.379 542.023 286.857 541.671 286.817 540.991V540.547C286.807 540.168 286.894 539.793 287.07 539.457C287.246 539.12 287.506 538.835 287.824 538.628Z" fill="#E0E0E0"/>
<path d="M282.765 469.37L298.726 460.241L299.889 479.361L283.941 488.477L282.765 469.37Z" fill="#407BFF"/>
<path d="M285.366 471.343L285.719 477.076L286.216 476.775L286.111 475.025C286.124 474.473 286.277 473.932 286.556 473.455C286.835 472.978 287.231 472.579 287.706 472.296L290.059 470.99L290.582 479.505C290.622 480.057 290.524 480.61 290.296 481.114C290.067 481.618 289.716 482.057 289.275 482.391L287.798 483.24V483.854L295.772 479.296V478.682L294.281 479.531C293.471 480.001 292.752 479.466 292.687 478.343L292.164 469.815L294.517 468.509C295.458 467.973 296.268 468.326 296.321 469.292L296.438 471.042L296.935 470.768L296.582 465.035L285.366 471.343Z" fill="#FAFAFA"/>
<path d="M290.556 523.413V573.093L218.998 531.732V482.052L290.556 523.413Z" fill="#407BFF"/>
<path opacity="0.38" d="M290.556 523.413V573.093L218.998 531.732V482.052L290.556 523.413Z" fill="black"/>
<path d="M354.088 536.447V486.766L290.556 523.413V573.093L354.088 536.447Z" fill="#407BFF"/>
<path opacity="0.23" d="M354.088 536.447V486.766L290.556 523.413V573.093L354.088 536.447Z" fill="black"/>
<path opacity="0.7" d="M354.088 486.766L290.556 523.413V573.093L291.733 524.405L354.088 486.766Z" fill="white"/>
<path d="M290.556 523.413L296.517 499.356L359.473 463.036L354.088 486.766L290.556 523.413Z" fill="#407BFF"/>
<path opacity="0.3" d="M290.556 523.413L296.517 499.356L359.473 463.036L354.088 486.766L290.556 523.413Z" fill="black"/>
<path d="M218.998 482.052L204.057 461.43L275.614 502.791L290.556 523.413L218.998 482.052Z" fill="#407BFF"/>
<path opacity="0.45" d="M218.998 482.052L204.057 461.43L275.614 502.791L290.556 523.413L218.998 482.052Z" fill="black"/>
<path opacity="0.7" d="M204.057 461.43L275.614 502.791L290.556 523.413L274.817 503.509L204.057 461.43Z" fill="white"/>
<g opacity="0.7">
<path opacity="0.7" d="M309.263 558.374C309.211 558.374 309.16 558.364 309.112 558.345C309.065 558.325 309.022 558.296 308.985 558.26C308.949 558.223 308.92 558.18 308.9 558.132C308.88 558.085 308.87 558.034 308.87 557.983V549.232C308.87 549.128 308.912 549.029 308.985 548.955C309.059 548.882 309.159 548.841 309.263 548.841C309.366 548.844 309.463 548.886 309.536 548.959C309.609 549.032 309.651 549.129 309.655 549.232V557.983C309.651 558.085 309.609 558.183 309.536 558.256C309.463 558.329 309.366 558.371 309.263 558.374Z" fill="white"/>
<path opacity="0.7" d="M308.125 552.21H307.982C307.933 552.19 307.889 552.161 307.852 552.123C307.815 552.086 307.786 552.042 307.766 551.993C307.747 551.944 307.737 551.892 307.738 551.84C307.739 551.787 307.751 551.736 307.772 551.688L309.158 548.488L310.714 550.277C310.786 550.35 310.826 550.449 310.826 550.551C310.826 550.654 310.786 550.752 310.714 550.826C310.678 550.863 310.636 550.892 310.589 550.913C310.541 550.933 310.491 550.943 310.439 550.943C310.388 550.943 310.337 550.933 310.29 550.913C310.243 550.892 310.2 550.863 310.165 550.826L309.42 549.977L308.531 552.04C308.487 552.105 308.425 552.155 308.353 552.185C308.281 552.215 308.202 552.224 308.125 552.21Z" fill="white"/>
<path opacity="0.7" d="M312.871 556.259C312.767 556.259 312.667 556.217 312.594 556.144C312.52 556.07 312.479 555.971 312.479 555.867V547.13C312.482 547.027 312.524 546.929 312.597 546.856C312.67 546.784 312.768 546.741 312.871 546.738C312.922 546.738 312.973 546.748 313.021 546.768C313.069 546.787 313.112 546.816 313.148 546.853C313.185 546.889 313.213 546.932 313.233 546.98C313.253 547.027 313.263 547.078 313.263 547.13V555.867C313.265 555.919 313.256 555.971 313.237 556.019C313.218 556.067 313.189 556.111 313.152 556.148C313.115 556.185 313.071 556.213 313.023 556.233C312.975 556.252 312.923 556.26 312.871 556.259Z" fill="white"/>
<path opacity="0.7" d="M311.733 550.16H311.577C311.482 550.119 311.407 550.043 311.367 549.948C311.328 549.853 311.328 549.746 311.367 549.65L312.766 546.451L314.309 548.227C314.346 548.262 314.375 548.305 314.396 548.352C314.416 548.399 314.426 548.45 314.426 548.501C314.426 548.552 314.416 548.603 314.396 548.65C314.375 548.697 314.346 548.74 314.309 548.775C314.235 548.847 314.137 548.887 314.034 548.887C313.932 548.887 313.833 548.847 313.76 548.775L313.028 547.913L312.126 549.99C312.084 550.053 312.024 550.103 311.955 550.133C311.885 550.163 311.808 550.172 311.733 550.16Z" fill="white"/>
</g>
<g opacity="0.7">
<path opacity="0.7" d="M298.844 564.251C298.696 564.251 298.551 564.21 298.425 564.134C298.27 564.037 298.144 563.899 298.061 563.736C297.978 563.572 297.941 563.389 297.955 563.207V562.136C297.953 562.084 297.962 562.032 297.981 561.984C298 561.935 298.029 561.891 298.066 561.855C298.102 561.818 298.146 561.789 298.195 561.77C298.243 561.751 298.295 561.742 298.347 561.744C298.451 561.744 298.551 561.785 298.624 561.859C298.698 561.932 298.739 562.032 298.739 562.136V563.207C298.729 563.299 298.752 563.391 298.804 563.468C298.898 563.475 298.992 563.447 299.066 563.389C299.306 563.165 299.495 562.891 299.619 562.587C299.743 562.282 299.8 561.955 299.785 561.626V557.16C299.785 557.056 299.826 556.956 299.9 556.883C299.973 556.809 300.073 556.768 300.177 556.768C300.229 556.766 300.281 556.775 300.329 556.794C300.378 556.813 300.422 556.842 300.458 556.879C300.495 556.915 300.524 556.959 300.543 557.008C300.562 557.056 300.571 557.108 300.569 557.16V561.626C300.59 562.092 300.501 562.556 300.307 562.981C300.114 563.405 299.823 563.778 299.458 564.069C299.273 564.183 299.061 564.246 298.844 564.251Z" fill="white"/>
<path opacity="0.7" d="M294.739 560.647V559.968C294.834 558.236 295.335 556.551 296.203 555.049C297.07 553.547 298.28 552.27 299.733 551.322C300.254 550.881 300.9 550.613 301.58 550.553C302.261 550.494 302.943 550.646 303.533 550.99C304.123 551.333 304.592 551.851 304.876 552.472C305.16 553.092 305.245 553.786 305.118 554.456V554.691L294.739 560.647ZM302.073 551.4C301.382 551.426 300.71 551.633 300.125 552.001C298.883 552.813 297.832 553.884 297.042 555.139C296.252 556.395 295.743 557.806 295.55 559.276L304.334 554.208C304.364 553.716 304.268 553.223 304.055 552.778C303.843 552.333 303.52 551.948 303.118 551.662C302.798 551.487 302.438 551.397 302.073 551.4Z" fill="white"/>
</g>
</g>
<defs>
<clipPath id="clip0">
<rect width="570" height="619" fill="white" transform="translate(0.92569 0.122314)"/>
</clipPath>
</defs>
</svg>
