<svg width="14" height="14" viewBox="0 0 14 14" fill="none" xmlns="http://www.w3.org/2000/svg">
<g clip-path="url(#clip0)">
<path d="M13.7223 7.16078C13.7223 6.68494 13.6837 6.20653 13.6014 5.7384H6.99878V8.43398H10.7798C10.6229 9.30335 10.1188 10.0724 9.38057 10.5611V12.3101H11.6363C12.961 11.091 13.7223 9.29049 13.7223 7.16078Z" fill="#4285F4"/>
<path d="M6.99878 14C8.88671 14 10.4788 13.3801 11.6389 12.3101L9.38313 10.561C8.75553 10.988 7.94532 11.2298 7.00136 11.2298C5.17516 11.2298 3.62674 9.99775 3.07117 8.34131H0.743408V10.1444C1.93172 12.5081 4.35208 14 6.99878 14Z" fill="#4285F4"/>
<path d="M3.06859 8.34134C2.77537 7.47197 2.77537 6.53058 3.06859 5.6612V3.85815H0.743405C-0.249429 5.83611 -0.249429 8.16644 0.743405 10.1444L3.06859 8.34134Z" fill="#4285F4"/>
<path d="M6.99878 2.77015C7.99676 2.75471 8.9613 3.13024 9.68407 3.81957L11.6826 1.82104C10.4171 0.632723 8.73753 -0.0205934 6.99878 -1.65594e-05C4.35208 -1.65594e-05 1.93172 1.49181 0.743408 3.85815L3.0686 5.6612C3.6216 4.00219 5.17258 2.77015 6.99878 2.77015Z" fill="#4285F4"/>
</g>
<defs>
<clipPath id="clip0">
<rect width="13.7222" height="14" fill="white"/>
</clipPath>
</defs>
</svg>
