<svg width="500" height="500" viewBox="0 0 500 500" fill="none" xmlns="http://www.w3.org/2000/svg">
<path d="M250.002 427.56C357.084 427.56 443.892 422.492 443.892 416.24C443.892 409.988 357.084 404.92 250.002 404.92C142.919 404.92 56.1118 409.988 56.1118 416.24C56.1118 422.492 142.919 427.56 250.002 427.56Z" fill="#F5F5F5"/>
<path d="M115.002 99.3698C115.782 92.8698 126.002 87.7598 134.872 90.8298C145.052 94.3598 143.442 103.69 150.172 104.06C156.902 104.43 160.272 116.35 154.382 121.87C148.492 127.39 159.312 129.87 159.672 137.61C160.032 145.35 160.062 151.36 166.402 157.09C174.402 164.3 162.072 187.56 141.822 176.93C123.672 167.4 100.952 181.11 96.8923 167.88C93.3823 156.46 110.602 144.07 107.002 138.54C103.402 133.01 105.792 127.81 109.882 121.12C114.912 112.92 102.562 100.69 115.002 99.3698Z" fill="#263238"/>
<path d="M155.38 153.26C157.85 158.26 160.38 163.39 163.03 168.34C164.37 170.8 165.73 173.25 167.12 175.62C168.423 177.883 169.883 180.051 171.49 182.11L171.82 182.5C171.878 182.575 171.949 182.639 172.03 182.69C172.29 182.868 172.577 183.003 172.88 183.09C173.855 183.364 174.868 183.482 175.88 183.44C178.445 183.333 180.99 182.944 183.47 182.28C186.1 181.64 188.74 180.8 191.38 179.88C194.02 178.96 196.67 177.94 199.21 176.88L201.53 181.09C196.554 184.39 191.228 187.13 185.65 189.26C182.673 190.405 179.566 191.177 176.4 191.56C174.546 191.775 172.671 191.701 170.84 191.34C169.739 191.102 168.679 190.708 167.69 190.17C167.148 189.883 166.632 189.549 166.15 189.17C165.901 188.97 165.664 188.756 165.44 188.53L165 188C162.89 185.681 160.983 183.185 159.3 180.54C157.63 178.05 156.12 175.54 154.67 172.97C151.75 167.86 149.09 162.73 146.67 157.38L155.38 153.26Z" fill="#E3A392"/>
<path d="M149.511 144C153.511 143.86 160.701 158.56 160.701 158.56L150.181 171.33C150.181 171.33 137.901 155.94 139.591 151C141.341 145.77 143.621 144.21 149.511 144Z" fill="#407BFF"/>
<path opacity="0.2" d="M150.182 147.56L155.652 164.71L150.722 170.68L150.182 147.56Z" fill="black"/>
<path d="M206.121 173.56L196.451 178.19L196.271 181.6C199.061 184.39 204.911 182.6 204.911 182.6L212.071 181.67L212.991 177.67C213.112 177.169 213.122 176.648 213.019 176.144C212.916 175.639 212.703 175.163 212.396 174.75C212.089 174.337 211.694 173.996 211.241 173.753C210.787 173.509 210.285 173.368 209.771 173.34L207.771 173.24C207.203 173.213 206.637 173.323 206.121 173.56V173.56Z" fill="#E3A392"/>
<path d="M129.972 408.17H139.472L140.342 386.16H130.832L129.972 408.17Z" fill="#E3A392"/>
<path d="M140.362 407.07H129.682C129.593 407.066 129.505 407.08 129.421 407.11C129.338 407.141 129.261 407.188 129.196 407.248C129.131 407.309 129.078 407.382 129.042 407.463C129.005 407.544 128.985 407.631 128.982 407.72L128.622 416.17C128.63 416.618 128.812 417.044 129.129 417.36C129.447 417.675 129.875 417.855 130.322 417.86C134.032 417.8 135.802 417.58 140.502 417.58C143.392 417.58 150.042 417.88 154.032 417.88C158.022 417.88 157.832 413.93 156.142 413.58C148.532 411.97 144.732 409.76 142.002 407.66C141.536 407.287 140.959 407.08 140.362 407.07V407.07Z" fill="#263238"/>
<g opacity="0.2">
<path opacity="0.2" d="M140.343 386.17L139.893 397.51H130.383L130.833 386.17H140.343Z" fill="black"/>
</g>
<path d="M153.323 148.72C153.533 154.72 152.493 168.77 146.173 201.45L107.583 200.3C108.703 184.61 109.003 174.93 102.463 142.47C107.898 141.513 113.396 140.955 118.913 140.8C124.758 140.556 130.613 140.73 136.433 141.32C140.903 141.86 145.713 142.79 148.873 143.45C150.097 143.704 151.201 144.361 152.008 145.317C152.814 146.272 153.277 147.47 153.323 148.72V148.72Z" fill="#407BFF"/>
<path d="M121.229 121.12C122.169 126.79 122.959 137.12 118.909 140.8C118.909 140.8 122.659 147.8 132.289 150.35C141.179 145.84 136.429 141.35 136.429 141.35C130.189 139.66 130.489 135 131.709 130.66L121.229 121.12Z" fill="#E3A392"/>
<path d="M132.293 150.35L131.143 148.1L124.963 149.5L132.293 150.35Z" fill="#E0E0E0"/>
<path d="M131.141 148.1C129.141 147.2 119.971 141.21 119.611 139.35C118.044 139.501 116.5 139.836 115.011 140.35C115.011 140.35 116.181 147.11 123.391 154.89C125.251 150.67 127.721 148.82 131.141 148.1Z" fill="white"/>
<path d="M132.292 150.35L132.812 148.1L136.602 148.37L132.292 150.35Z" fill="#E0E0E0"/>
<path d="M132.813 148.1C135.873 146.1 135.123 141.81 134.813 139.95C136.373 140.167 137.914 140.501 139.423 140.95C140.876 142.964 141.697 145.366 141.781 147.848C141.865 150.331 141.208 152.782 139.893 154.89C138.413 150.89 135.883 149.45 132.813 148.1Z" fill="white"/>
<path opacity="0.2" d="M125.5 125L131.71 130.62C131.41 131.633 131.199 132.67 131.08 133.72C128.68 133.3 125.46 130.56 125.28 128.04C125.169 127.022 125.244 125.992 125.5 125V125Z" fill="black"/>
<path d="M118.24 109.08C118.65 118.5 118.63 122.5 123.3 127.42C130.3 134.81 141.81 132.23 144.22 122.88C146.39 114.45 145.34 100.45 136.22 96.5501C134.205 95.6713 131.999 95.3236 129.811 95.5401C127.624 95.7566 125.529 96.5301 123.726 97.7868C121.922 99.0435 120.471 100.741 119.511 102.718C118.55 104.696 118.113 106.886 118.24 109.08Z" fill="#E3A392"/>
<path d="M116.93 98.8198C120.42 100.57 125.23 100.27 126.13 102.37C127.03 104.47 124.5 117 119.27 117.1C114.46 110.61 113.74 101.83 116.93 98.8198Z" fill="#263238"/>
<path d="M117.41 100.39C125.11 105.26 150.49 109.81 142.2 98.8197C135.9 90.4797 119.33 94.6797 117.41 100.39Z" fill="#263238"/>
<path d="M146.262 201.449C146.262 201.449 149.992 271.679 150.182 300.539C150.382 330.539 141.932 395.309 141.932 395.309H129.072C129.072 395.309 131.522 329.859 129.542 300.239C127.382 267.949 119.872 200.609 119.872 200.609L146.262 201.449Z" fill="#263238"/>
<path d="M128.001 395.78H143.091L143.711 390.96L126.761 390.38L128.001 395.78Z" fill="#407BFF"/>
<path opacity="0.2" d="M122.59 225.83C123.98 224.1 125.8 224.99 128.18 229.93C136.3 246.77 132.18 273.64 128.7 289.12C127.14 269.85 124.56 244.46 122.59 225.83Z" fill="black"/>
<path d="M133.851 112.65C133.851 113.42 134.231 114.05 134.731 114.06C135.231 114.07 135.651 113.45 135.661 112.69C135.671 111.93 135.281 111.29 134.781 111.28C134.281 111.27 133.861 111.89 133.851 112.65Z" fill="#263238"/>
<path d="M142.511 112.58C142.511 113.35 142.891 113.98 143.391 113.99C143.891 114 144.311 113.38 144.321 112.62C144.331 111.86 143.941 111.22 143.441 111.21C142.941 111.2 142.521 111.82 142.511 112.58Z" fill="#263238"/>
<path d="M143.213 111.25L145.063 110.75C145.063 110.75 144.103 112.17 143.213 111.25Z" fill="#263238"/>
<path d="M139.18 113.32C139.831 115.081 140.723 116.743 141.83 118.26C141.434 118.534 140.982 118.718 140.507 118.799C140.032 118.88 139.545 118.856 139.08 118.73L139.18 113.32Z" fill="#E39E8A"/>
<path d="M134.852 121.66C135.226 121.72 135.604 121.754 135.982 121.76C136.016 121.767 136.051 121.767 136.084 121.759C136.117 121.75 136.148 121.735 136.175 121.714C136.201 121.692 136.223 121.665 136.238 121.634C136.252 121.603 136.26 121.569 136.26 121.535C136.26 121.501 136.252 121.467 136.238 121.436C136.223 121.405 136.201 121.378 136.175 121.356C136.148 121.335 136.117 121.319 136.084 121.311C136.051 121.303 136.016 121.303 135.982 121.31C135.027 121.32 134.083 121.102 133.229 120.675C132.375 120.247 131.636 119.621 131.072 118.85C131.04 118.801 130.989 118.766 130.931 118.753C130.874 118.74 130.813 118.749 130.762 118.78C130.737 118.795 130.715 118.815 130.697 118.84C130.68 118.864 130.668 118.891 130.661 118.92C130.655 118.949 130.654 118.979 130.659 119.008C130.665 119.037 130.676 119.065 130.692 119.09C131.18 119.773 131.799 120.352 132.514 120.794C133.228 121.235 134.023 121.529 134.852 121.66V121.66Z" fill="#263238"/>
<path d="M115.542 117.67C116.151 119.388 117.417 120.794 119.062 121.58C121.252 122.58 122.742 120.74 122.462 118.46C122.212 116.46 120.772 113.46 118.462 113.35C117.943 113.335 117.428 113.452 116.965 113.69C116.503 113.927 116.108 114.277 115.817 114.708C115.525 115.139 115.348 115.636 115.3 116.154C115.252 116.672 115.335 117.193 115.542 117.67V117.67Z" fill="#E3A392"/>
<path d="M130.362 110.12C130.455 110.14 130.552 110.129 130.637 110.087C130.723 110.045 130.791 109.976 130.832 109.89C131.832 108.05 134.462 107.68 134.492 107.68C134.551 107.672 134.609 107.653 134.661 107.624C134.712 107.594 134.758 107.554 134.794 107.507C134.83 107.459 134.857 107.405 134.872 107.347C134.887 107.289 134.891 107.229 134.882 107.17C134.865 107.052 134.801 106.946 134.706 106.874C134.61 106.803 134.49 106.773 134.372 106.79C134.242 106.79 131.222 107.22 130.042 109.47C130.014 109.522 129.997 109.58 129.992 109.639C129.986 109.698 129.992 109.758 130.01 109.814C130.028 109.871 130.056 109.924 130.095 109.969C130.133 110.015 130.179 110.052 130.232 110.08C130.272 110.104 130.316 110.117 130.362 110.12V110.12Z" fill="#263238"/>
<path d="M145.141 108.14C145.218 108.154 145.297 108.148 145.371 108.122C145.445 108.095 145.51 108.05 145.561 107.99C145.6 107.945 145.63 107.892 145.648 107.835C145.667 107.779 145.674 107.719 145.67 107.659C145.665 107.6 145.649 107.542 145.621 107.488C145.594 107.435 145.556 107.388 145.511 107.35C144.973 106.873 144.329 106.534 143.633 106.36C142.937 106.186 142.208 106.182 141.51 106.35C141.403 106.389 141.314 106.469 141.263 106.571C141.212 106.674 141.202 106.792 141.235 106.902C141.268 107.012 141.342 107.105 141.442 107.162C141.541 107.219 141.659 107.236 141.771 107.21V107.21C142.324 107.093 142.897 107.108 143.443 107.256C143.989 107.404 144.492 107.679 144.911 108.06C144.978 108.107 145.058 108.135 145.141 108.14V108.14Z" fill="#263238"/>
<path d="M106.341 157.36C103.601 161.28 100.841 165.47 98.2714 169.62C95.715 173.74 93.3784 177.992 91.2714 182.36L90.8914 183.16L90.7014 183.57C90.7014 183.67 90.7014 183.57 90.7014 183.57C90.7014 183.57 90.6114 183.71 90.6114 184.02C90.6196 184.897 90.7509 185.769 91.0014 186.61C91.6307 188.803 92.4402 190.94 93.4214 193C95.4814 197.32 97.9714 201.7 100.491 205.92L96.6914 208.92C93.0847 205.127 89.8405 201.006 87.0014 196.61C85.4726 194.287 84.1858 191.814 83.1614 189.23C82.5432 187.695 82.1524 186.078 82.0014 184.43C81.9109 183.321 82.0089 182.205 82.2914 181.13C82.2914 180.98 82.3814 180.82 82.4314 180.66L82.5814 180.26L82.7614 179.79L83.1214 178.86C84.1214 176.36 85.1814 173.96 86.3414 171.61C87.5014 169.26 88.7014 167 90.0014 164.69C92.5898 160.165 95.4379 155.795 98.5314 151.6L106.341 157.36Z" fill="#E3A392"/>
<path d="M102.461 142.47C98.5507 143.53 93.5107 156.71 93.5107 156.71L108.201 167.88C108.201 167.88 114.001 156.93 112.521 151.88C111.001 146.63 106.911 141.26 102.461 142.47Z" fill="#407BFF"/>
<path d="M144.092 408.73C144.888 408.815 145.687 408.609 146.342 408.15C146.481 408.007 146.582 407.831 146.634 407.639C146.686 407.446 146.689 407.244 146.642 407.05C146.617 406.923 146.563 406.803 146.485 406.699C146.407 406.595 146.307 406.51 146.192 406.45C144.962 405.82 141.372 407.75 140.962 407.97C140.924 407.996 140.895 408.033 140.879 408.076C140.863 408.119 140.86 408.166 140.872 408.21C140.883 408.257 140.907 408.3 140.943 408.332C140.979 408.365 141.024 408.385 141.072 408.39C142.067 408.595 143.077 408.708 144.092 408.73V408.73ZM145.592 406.73C145.74 406.722 145.887 406.749 146.022 406.81C146.069 406.831 146.11 406.865 146.14 406.907C146.17 406.949 146.188 406.998 146.192 407.05C146.228 407.175 146.231 407.308 146.199 407.434C146.167 407.561 146.103 407.677 146.012 407.77C145.482 408.29 143.932 408.38 141.782 408.03C142.967 407.386 144.257 406.96 145.592 406.77V406.73Z" fill="#407BFF"/>
<path d="M141.111 408.4H141.201C142.281 407.89 144.321 405.84 144.031 404.76C143.971 404.5 143.751 404.19 143.121 404.12C142.904 404.096 142.685 404.118 142.478 404.185C142.272 404.253 142.081 404.363 141.921 404.51C140.821 405.51 140.861 408.07 140.861 408.18C140.864 408.22 140.877 408.259 140.898 408.293C140.919 408.328 140.947 408.357 140.981 408.38C141.022 408.395 141.066 408.402 141.111 408.4ZM142.991 404.54H143.121C143.541 404.54 143.581 404.75 143.601 404.8C143.771 405.45 142.411 407.06 141.321 407.8C141.321 407.06 141.521 405.52 142.241 404.87C142.339 404.767 142.457 404.685 142.587 404.628C142.718 404.572 142.858 404.541 143.001 404.54H142.991Z" fill="#407BFF"/>
<path d="M90.1226 408.17H99.6326L102.793 386.16H93.2826L90.1226 408.17Z" fill="#E3A392"/>
<path d="M100.001 407.069H89.3008C89.1158 407.067 88.9361 407.132 88.7947 407.251C88.6533 407.37 88.5596 407.537 88.5308 407.719L87.2108 416.17C87.1837 416.382 87.2023 416.597 87.2655 416.802C87.3286 417.007 87.4348 417.195 87.5769 417.355C87.719 417.515 87.8937 417.643 88.0893 417.73C88.2848 417.817 88.4968 417.861 88.7108 417.859C92.4308 417.799 94.2308 417.579 98.9308 417.579C101.821 417.579 104.181 417.88 108.171 417.88C112.161 417.88 112.421 413.929 110.761 413.579C103.331 411.969 104.041 409.759 101.561 407.659C101.125 407.289 100.573 407.08 100.001 407.069V407.069Z" fill="#263238"/>
<path d="M101.5 408.73C102.317 408.805 103.135 408.601 103.82 408.15C103.973 408.013 104.09 407.842 104.163 407.651C104.236 407.459 104.263 407.254 104.24 407.05C104.235 406.925 104.198 406.804 104.131 406.699C104.064 406.594 103.971 406.508 103.86 406.45C102.71 405.82 98.8604 407.75 98.4604 407.97C98.4188 407.994 98.3851 408.029 98.3637 408.072C98.3423 408.114 98.3342 408.163 98.3404 408.21C98.3448 408.256 98.3652 408.3 98.3981 408.332C98.4309 408.365 98.4742 408.386 98.5204 408.39C99.501 408.596 100.499 408.71 101.5 408.73V408.73ZM103.22 406.73C103.365 406.72 103.51 406.747 103.64 406.81C103.685 406.832 103.723 406.866 103.749 406.909C103.776 406.951 103.79 407 103.79 407.05C103.807 407.183 103.791 407.318 103.744 407.443C103.697 407.569 103.62 407.681 103.52 407.77C102.94 408.29 101.37 408.38 99.2704 408.03C100.507 407.392 101.843 406.966 103.22 406.77V406.73Z" fill="#407BFF"/>
<path d="M98.5605 408.4H98.6506C99.7906 407.89 102.061 405.84 101.901 404.76C101.901 404.5 101.681 404.19 101.061 404.12C100.837 404.099 100.611 404.122 100.396 404.189C100.182 404.256 99.9825 404.365 99.8106 404.51C98.6005 405.51 98.3505 408.07 98.3405 408.18C98.3357 408.218 98.3415 408.257 98.3574 408.293C98.3733 408.328 98.3986 408.358 98.4306 408.38C98.4717 408.397 98.5162 408.404 98.5605 408.4V408.4ZM100.871 404.54H101.001C101.411 404.54 101.431 404.75 101.441 404.8C101.541 405.45 100.001 407.06 98.8306 407.8C98.9369 406.718 99.3733 405.695 100.081 404.87C100.294 404.666 100.575 404.548 100.871 404.54V404.54Z" fill="#407BFF"/>
<g opacity="0.2">
<path opacity="0.2" d="M102.789 386.17L101.159 397.51H91.6494L93.2794 386.17H102.789Z" fill="black"/>
</g>
<path d="M107.582 200.3C98.3217 215 100.912 269.14 99.4517 298C97.9317 328 90.4517 395.27 90.4517 395.27H103.302C103.302 395.27 115.642 326.85 121.392 297.84C127.742 265.84 135.472 200.26 135.472 200.26L107.582 200.3Z" fill="#263238"/>
<path d="M89.6335 395.78H104.713L105.253 390.96L88.2935 390.38L89.6335 395.78Z" fill="#407BFF"/>
<path d="M134.564 111.32L136.414 110.82C136.414 110.82 135.444 112.24 134.564 111.32Z" fill="#263238"/>
<path d="M107.073 198L106.003 201.44C105.863 201.71 106.173 201.99 106.613 202L146.333 203.18C146.683 203.18 146.973 203.03 147.003 202.81L147.453 199.37C147.453 199.13 147.193 198.92 146.813 198.91L107.733 197.75C107.611 197.729 107.485 197.742 107.369 197.786C107.253 197.83 107.151 197.903 107.073 198Z" fill="#407BFF"/>
<path d="M112.191 202.54H111.191C110.991 202.54 110.831 202.42 110.851 202.29L111.471 197.82C111.471 197.69 111.681 197.59 111.881 197.59H112.881C113.091 197.59 113.241 197.71 113.231 197.84L112.601 202.32C112.581 202.45 112.401 202.55 112.191 202.54Z" fill="#263238"/>
<path d="M143.365 203.47H142.315C142.105 203.47 141.955 203.35 141.975 203.22L142.595 198.75C142.595 198.62 142.805 198.51 143.005 198.52H144.055C144.265 198.52 144.415 198.64 144.405 198.77L143.775 203.24C143.755 203.37 143.575 203.48 143.365 203.47Z" fill="#263238"/>
<path d="M127.771 203H126.771C126.561 203 126.401 202.88 126.421 202.75L127.051 198.27C127.051 198.14 127.251 198.04 127.461 198.05H128.461C128.661 198.05 128.821 198.17 128.801 198.3L128.181 202.77C128.171 202.91 128.001 203 127.771 203Z" fill="#263238"/>
<path d="M97.3816 203.43L107.502 205.17L100.112 211.4C100.212 211.46 94.5016 209.25 93.9316 205.28L97.3816 203.43Z" fill="#E3A392"/>
<path d="M110.341 213L108.111 214.68C107.614 215.05 107.011 215.25 106.391 215.25C105.772 215.25 105.168 215.05 104.671 214.68L100.111 211.37L107.501 205.14L110.751 208.71C111.026 209.009 111.235 209.363 111.364 209.748C111.493 210.133 111.54 210.541 111.501 210.946C111.462 211.35 111.339 211.742 111.139 212.096C110.94 212.45 110.668 212.758 110.341 213V213Z" fill="#E3A392"/>
<path d="M400.616 181.66H156.246C151.331 181.66 147.346 185.645 147.346 190.56V335.56C147.346 340.475 151.331 344.46 156.246 344.46H400.616C405.532 344.46 409.516 340.475 409.516 335.56V190.56C409.516 185.645 405.532 181.66 400.616 181.66Z" fill="white"/>
<path d="M400.616 345H156.236C153.744 344.997 151.354 344.006 149.592 342.244C147.83 340.482 146.839 338.092 146.836 335.6V190.6C146.839 188.108 147.83 185.719 149.592 183.956C151.354 182.194 153.744 181.203 156.236 181.2H400.616C403.109 181.203 405.5 182.194 407.263 183.956C409.027 185.718 410.021 188.107 410.026 190.6V335.6C410.021 338.093 409.027 340.483 407.263 342.245C405.5 344.007 403.109 344.997 400.616 345V345ZM156.236 182.16C154.012 182.165 151.881 183.051 150.309 184.623C148.737 186.196 147.851 188.327 147.846 190.55V335.55C147.849 337.774 148.733 339.907 150.306 341.48C151.879 343.053 154.012 343.937 156.236 343.94H400.616C402.841 343.94 404.975 343.056 406.549 341.483C408.122 339.909 409.006 337.775 409.006 335.55V190.55C409.003 188.326 408.119 186.193 406.546 184.62C404.973 183.048 402.84 182.163 400.616 182.16H156.236Z" fill="#407BFF"/>
<path d="M406.314 344.46H150.544C149.539 344.459 148.545 344.675 147.63 345.092C146.716 345.51 145.902 346.12 145.244 346.88L135.804 357.81C134.926 358.825 134.358 360.071 134.168 361.399C133.978 362.728 134.174 364.083 134.733 365.303C135.291 366.524 136.189 367.558 137.318 368.282C138.448 369.007 139.762 369.391 141.104 369.39H415.754C417.096 369.391 418.41 369.007 419.54 368.282C420.669 367.558 421.567 366.524 422.125 365.303C422.684 364.083 422.88 362.728 422.69 361.399C422.5 360.071 421.932 358.825 421.054 357.81L411.604 346.88C410.947 346.121 410.135 345.512 409.222 345.094C408.309 344.677 407.318 344.46 406.314 344.46V344.46Z" fill="white"/>
<path d="M415.757 369.89H141.107C139.668 369.89 138.26 369.476 137.05 368.698C135.84 367.921 134.878 366.812 134.28 365.504C133.682 364.195 133.472 362.743 133.675 361.319C133.878 359.894 134.486 358.559 135.427 357.47L144.867 346.55C145.572 345.735 146.444 345.081 147.424 344.633C148.404 344.184 149.469 343.951 150.547 343.95H406.307C407.386 343.95 408.453 344.182 409.435 344.63C410.417 345.079 411.291 345.734 411.997 346.55L421.437 357.47C422.378 358.559 422.986 359.894 423.189 361.319C423.392 362.743 423.182 364.195 422.584 365.504C421.986 366.812 421.024 367.921 419.814 368.698C418.604 369.476 417.196 369.89 415.757 369.89V369.89ZM150.547 345C149.615 344.999 148.693 345.2 147.846 345.588C146.999 345.977 146.245 346.544 145.637 347.25L136.187 358.18C135.371 359.121 134.844 360.277 134.667 361.51C134.491 362.743 134.673 364.001 135.192 365.133C135.71 366.265 136.544 367.225 137.593 367.896C138.642 368.568 139.862 368.923 141.107 368.92H415.757C417.002 368.921 418.22 368.564 419.268 367.892C420.315 367.22 421.147 366.261 421.665 365.129C422.182 363.997 422.363 362.74 422.186 361.508C422.009 360.276 421.482 359.121 420.667 358.18L411.227 347.25C410.617 346.543 409.862 345.976 409.013 345.588C408.164 345.2 407.241 344.999 406.307 345H150.547Z" fill="#407BFF"/>
<path d="M138.639 362.29C137.997 362.289 137.37 362.486 136.844 362.854C136.318 363.222 135.918 363.743 135.699 364.347C135.481 364.951 135.453 365.608 135.622 366.227C135.79 366.847 136.145 367.4 136.639 367.81C137.887 368.843 139.459 369.403 141.079 369.39H415.749C417.47 369.404 419.135 368.776 420.419 367.63C420.864 367.198 421.169 366.643 421.296 366.036C421.422 365.429 421.365 364.799 421.131 364.225C420.896 363.651 420.496 363.16 419.981 362.815C419.465 362.47 418.859 362.288 418.239 362.29H138.639Z" fill="#407BFF"/>
<path d="M404.446 335.55V190.55C404.446 188.435 402.732 186.72 400.616 186.72L156.236 186.72C154.121 186.72 152.406 188.435 152.406 190.55V335.55C152.406 337.665 154.121 339.38 156.236 339.38H400.616C402.732 339.38 404.446 337.665 404.446 335.55Z" fill="#407BFF"/>
<path opacity="0.3" d="M398.686 336.64H158.176C157.381 336.64 156.618 336.324 156.055 335.762C155.492 335.199 155.176 334.436 155.176 333.64V192.49C155.176 191.695 155.492 190.932 156.055 190.369C156.618 189.806 157.381 189.49 158.176 189.49H398.686C399.482 189.49 400.245 189.806 400.808 190.369C401.37 190.932 401.686 191.695 401.686 192.49V333.63C401.688 334.025 401.611 334.416 401.461 334.781C401.311 335.146 401.09 335.478 400.811 335.758C400.532 336.038 400.201 336.259 399.837 336.411C399.472 336.562 399.081 336.64 398.686 336.64V336.64ZM158.176 190C157.845 190 157.518 190.065 157.212 190.192C156.906 190.319 156.628 190.504 156.394 190.738C156.16 190.972 155.975 191.25 155.848 191.556C155.721 191.862 155.656 192.189 155.656 192.52V333.63C155.659 334.297 155.926 334.935 156.398 335.406C156.87 335.876 157.51 336.14 158.176 336.14H398.686C399.351 336.138 399.988 335.872 400.458 335.402C400.928 334.932 401.194 334.295 401.196 333.63V192.49C401.196 191.824 400.932 191.184 400.462 190.712C399.991 190.24 399.353 189.973 398.686 189.97L158.176 190Z" fill="white"/>
<path d="M317.277 242.82C317.277 247.82 365.677 247.82 365.677 242.82C365.677 215.07 317.277 215.07 317.277 242.82Z" fill="#407BFF"/>
<path d="M341.477 247.08C335.892 247.129 330.31 246.815 324.767 246.14C317.567 245.14 316.767 243.77 316.767 242.82C316.767 228.15 329.597 221.47 341.507 221.47C353.427 221.47 366.246 228.15 366.246 242.82C366.216 246.87 345.607 247.08 341.477 247.08ZM317.817 242.82C317.817 244.15 326.047 246 341.477 246C356.907 246 365.137 244.15 365.137 242.82C365.137 228.89 352.877 222.55 341.477 222.55C330.077 222.55 317.817 228.89 317.817 242.82Z" fill="white"/>
<path d="M369.666 180C373.406 187.85 377.796 206 378.476 220.41C378.503 220.941 378.388 221.47 378.142 221.942C377.897 222.414 377.531 222.812 377.081 223.096C376.632 223.38 376.114 223.539 375.583 223.558C375.051 223.576 374.524 223.452 374.056 223.2C372.959 222.595 371.764 222.185 370.526 221.99C369.076 221.77 367.966 219.74 367.936 217.29L367.456 181.29C367.436 179.36 368.926 178.47 369.666 180Z" fill="white"/>
<path d="M375.464 224.1C374.888 224.098 374.321 223.954 373.814 223.68C372.768 223.105 371.632 222.713 370.454 222.52C368.734 222.26 367.454 220.08 367.454 217.33L366.984 181.33C366.908 180.796 367.009 180.252 367.273 179.782C367.537 179.312 367.949 178.942 368.444 178.73C368.807 178.676 369.178 178.751 369.491 178.944C369.803 179.136 370.038 179.432 370.154 179.78V179.78C373.864 187.57 378.314 205.78 379.014 220.38C379.033 220.855 378.956 221.33 378.788 221.775C378.62 222.22 378.364 222.626 378.036 222.97C377.708 223.315 377.313 223.589 376.877 223.778C376.44 223.967 375.97 224.066 375.494 224.07L375.464 224.1ZM368.694 179.74H368.644C368.364 179.81 367.954 180.36 367.964 181.33L368.444 217.33C368.444 219.5 369.444 221.33 370.604 221.53C371.899 221.734 373.148 222.163 374.294 222.8C374.684 223.007 375.123 223.107 375.564 223.09C376.005 223.073 376.434 222.94 376.807 222.703C377.18 222.466 377.484 222.135 377.687 221.742C377.89 221.35 377.986 220.911 377.964 220.47C377.274 205.95 372.874 187.95 369.204 180.25C369.144 180.12 368.994 179.74 368.694 179.74V179.74Z" fill="#407BFF"/>
<path d="M370.365 227.46C370.365 234.62 312.584 234.62 312.584 227.46V147.82C312.482 130.781 316.412 113.959 324.054 98.7299C328.854 89.2999 334.865 81.3599 341.475 81.3599C348.085 81.3599 354.095 89.2999 358.895 98.7299C366.537 113.959 370.467 130.781 370.365 147.82V227.46Z" fill="white"/>
<path d="M341.478 233.34C334.787 233.409 328.1 232.957 321.478 231.99C315.118 230.94 312.028 229.46 312.028 227.46V147.82C311.961 130.699 315.928 113.802 323.608 98.5001C329.608 86.7901 335.608 80.8501 341.478 80.8501C347.348 80.8501 353.388 86.7901 359.348 98.5001C367.011 113.807 370.961 130.703 370.878 147.82V227.46C370.878 233.17 344.488 233.34 341.478 233.34ZM341.478 81.8701C335.998 81.8701 330.288 87.6201 324.478 98.9601C316.888 114.124 312.976 130.863 313.058 147.82V227.46C313.058 230.19 325.528 232.32 341.448 232.32C357.368 232.32 369.838 230.19 369.838 227.46V147.82C369.923 130.879 366.021 114.155 358.448 99.0001C352.668 87.6201 346.998 81.8701 341.478 81.8701Z" fill="#407BFF"/>
<path d="M341.477 119.82C332.157 119.82 323.587 117.28 317.967 112.82L318.597 112.02C323.957 116.25 332.517 118.77 341.477 118.77C350.437 118.77 358.997 116.25 364.357 112.02L364.987 112.82C359.367 117.28 350.797 119.82 341.477 119.82Z" fill="#407BFF"/>
<path d="M314.486 180C308.026 188.06 300.486 207 299.626 221.56C299.591 222.08 299.693 222.601 299.92 223.07C300.148 223.539 300.493 223.941 300.923 224.235C301.353 224.53 301.853 224.708 302.372 224.751C302.892 224.794 303.414 224.7 303.886 224.48C306.755 223.129 309.838 222.29 312.996 222C314.174 221.89 315.269 221.349 316.074 220.482C316.878 219.615 317.334 218.483 317.356 217.3L318.146 181.3C318.147 180.874 318.015 180.459 317.77 180.111C317.524 179.763 317.177 179.499 316.776 179.357C316.375 179.214 315.939 179.199 315.529 179.315C315.119 179.43 314.755 179.669 314.486 180V180Z" fill="white"/>
<path d="M302.626 225.31C301.934 225.308 301.258 225.099 300.686 224.71C300.172 224.367 299.757 223.896 299.482 223.344C299.206 222.791 299.08 222.176 299.116 221.56C299.956 206.87 307.676 187.71 314.116 179.71C314.451 179.288 314.911 178.981 315.429 178.833C315.948 178.685 316.5 178.704 317.007 178.886C317.515 179.068 317.953 179.405 318.259 179.848C318.566 180.292 318.725 180.821 318.716 181.36L317.916 217.36C317.892 218.666 317.389 219.918 316.502 220.877C315.615 221.836 314.406 222.435 313.106 222.56C309.985 222.832 306.937 223.659 304.106 225C303.642 225.214 303.136 225.32 302.626 225.31V225.31ZM314.876 180.31C308.566 188.2 300.956 207.09 300.126 221.59C300.1 222.031 300.191 222.471 300.39 222.866C300.588 223.261 300.887 223.597 301.256 223.84C301.608 224.08 302.016 224.224 302.441 224.257C302.865 224.291 303.291 224.212 303.676 224.03C306.602 222.633 309.756 221.773 312.986 221.49C314.038 221.389 315.017 220.904 315.735 220.128C316.452 219.351 316.859 218.337 316.876 217.28L317.666 181.28C317.681 180.956 317.592 180.636 317.412 180.366C317.232 180.096 316.971 179.891 316.666 179.78C316.356 179.662 316.017 179.647 315.698 179.737C315.379 179.827 315.098 180.017 314.896 180.28L314.876 180.31Z" fill="#407BFF"/>
<path d="M350.689 181.99C359.956 181.99 367.469 171.236 367.469 157.97C367.469 144.704 359.956 133.95 350.689 133.95C341.422 133.95 333.909 144.704 333.909 157.97C333.909 171.236 341.422 181.99 350.689 181.99Z" fill="#407BFF"/>
<path d="M352.275 178.07C359.416 178.07 365.205 169.071 365.205 157.97C365.205 146.869 359.416 137.87 352.275 137.87C345.134 137.87 339.345 146.869 339.345 157.97C339.345 169.071 345.134 178.07 352.275 178.07Z" fill="white"/>
<path d="M203.998 339.93C203.853 339.93 203.715 339.873 203.612 339.772C203.509 339.671 203.45 339.534 203.448 339.39C203.448 338.87 203.448 338.22 203.448 337.49C203.278 331.86 202.928 320.16 210.138 313.49C214.528 309.4 221.068 307.76 229.578 308.62C256.308 311.33 271.198 303.92 282.678 282.21C287.778 272.57 298.838 271.21 308.608 270.05C316.078 269.14 323.128 268.29 326.308 263.88C328.248 261.19 328.668 257.31 327.598 252.03C327.583 251.959 327.583 251.887 327.597 251.817C327.611 251.746 327.638 251.679 327.678 251.62C327.718 251.56 327.77 251.509 327.83 251.469C327.89 251.43 327.957 251.403 328.028 251.39C328.097 251.375 328.168 251.375 328.237 251.388C328.306 251.401 328.372 251.428 328.431 251.467C328.49 251.507 328.54 251.557 328.579 251.616C328.618 251.675 328.645 251.741 328.658 251.81C329.798 257.41 329.318 261.56 327.188 264.51C323.728 269.3 316.448 270.19 308.738 271.12C298.738 272.33 288.468 273.58 283.638 282.72C271.908 304.89 256.718 312.46 229.468 309.72C221.278 308.89 215.018 310.43 210.868 314.3C204.028 320.68 204.368 332.05 204.528 337.52C204.528 338.26 204.578 338.92 204.578 339.45C204.562 339.59 204.493 339.718 204.385 339.808C204.277 339.897 204.138 339.941 203.998 339.93V339.93Z" fill="white"/>
<path d="M321.997 339.93C321.856 339.928 321.722 339.871 321.621 339.773C321.521 339.674 321.462 339.541 321.457 339.4V338.83C321.287 328.83 321.057 315.22 336.207 313.27C345.207 312.12 350.497 309.95 352.447 306.65C354.397 303.35 352.727 298.96 351.077 294.78C349.637 291.14 348.157 287.38 349.077 284.19C350.544 279.241 353.174 274.715 356.747 270.99C360.807 266.34 363.047 263.78 355.227 252.18C355.15 252.06 355.122 251.915 355.15 251.775C355.178 251.635 355.259 251.511 355.377 251.43C355.436 251.391 355.502 251.363 355.572 251.349C355.641 251.335 355.713 251.335 355.783 251.349C355.852 251.363 355.919 251.391 355.978 251.43C356.037 251.47 356.087 251.521 356.127 251.58C364.407 263.87 361.827 266.82 357.557 271.7C354.096 275.316 351.546 279.703 350.117 284.5C349.277 287.33 350.627 290.76 352.057 294.38C353.807 298.81 355.607 303.38 353.357 307.2C351.227 310.81 345.647 313.15 336.357 314.35C322.177 316.17 322.357 329.26 322.557 338.81V339.38C322.558 339.451 322.545 339.521 322.519 339.587C322.494 339.653 322.455 339.714 322.406 339.765C322.356 339.816 322.298 339.857 322.233 339.885C322.168 339.913 322.098 339.929 322.027 339.93H321.997Z" fill="white"/>
<path d="M209.996 232.14H209.656C208.964 230.392 207.783 228.881 206.254 227.789C204.725 226.696 202.913 226.068 201.036 225.98C200.026 225.928 199.015 226.029 198.036 226.28C197.178 224.254 195.679 222.566 193.769 221.474C191.86 220.382 189.644 219.946 187.463 220.235C185.282 220.523 183.256 221.519 181.696 223.07C180.136 224.621 179.127 226.641 178.826 228.82C176.811 228.89 174.9 229.732 173.489 231.172C172.078 232.612 171.275 234.539 171.247 236.555C171.219 238.571 171.967 240.521 173.337 242C174.707 243.479 176.593 244.374 178.606 244.5L209.356 246C210.265 246.044 211.174 245.909 212.031 245.601C212.888 245.294 213.676 244.821 214.35 244.209C215.025 243.597 215.572 242.858 215.96 242.035C216.349 241.211 216.572 240.32 216.616 239.41C216.66 238.501 216.524 237.592 216.217 236.735C215.909 235.878 215.436 235.089 214.824 234.415C214.212 233.741 213.474 233.194 212.65 232.805C211.827 232.417 210.935 232.194 210.026 232.15L209.996 232.14Z" fill="white"/>
<path d="M254.248 200.22C256.366 200.214 258.449 200.767 260.286 201.823C262.123 202.878 263.649 204.399 264.711 206.232C265.774 208.065 266.335 210.145 266.338 212.263C266.34 214.382 265.785 216.464 264.728 218.3L255.118 211.57L250.118 200.94C251.424 200.459 252.806 200.216 254.198 200.22H254.248ZM254.198 199.14C252.283 199.137 250.391 199.557 248.658 200.37L254.218 212.29L264.998 219.83C266.378 217.858 267.19 215.545 267.346 213.143C267.503 210.742 266.997 208.343 265.884 206.209C264.771 204.075 263.094 202.287 261.035 201.041C258.976 199.794 256.614 199.137 254.208 199.14H254.198Z" fill="white"/>
<path d="M254.269 212.29L264.999 219.83C264.562 220.459 264.07 221.048 263.529 221.59C262.172 222.956 260.532 224.007 258.725 224.67C256.917 225.332 254.986 225.591 253.068 225.426C251.15 225.261 249.292 224.678 247.624 223.716C245.956 222.755 244.519 221.44 243.415 219.863C242.31 218.286 241.565 216.486 241.232 214.59C240.9 212.694 240.987 210.748 241.488 208.889C241.989 207.03 242.892 205.304 244.132 203.832C245.373 202.36 246.922 201.178 248.669 200.37L254.269 212.29Z" fill="white"/>
<path d="M218.926 293.79C218.145 293.793 217.39 293.516 216.796 293.009C216.201 292.503 215.808 291.801 215.686 291.03L212.146 269.43C212.005 268.567 212.212 267.683 212.722 266.972C213.232 266.261 214.003 265.782 214.866 265.64L250.786 259.76C251.648 259.622 252.529 259.83 253.238 260.34C253.946 260.849 254.424 261.619 254.566 262.48L258.106 284.08C258.245 284.943 258.037 285.826 257.527 286.536C257.018 287.246 256.248 287.726 255.386 287.87V287.87L219.466 293.75C219.287 293.778 219.107 293.792 218.926 293.79V293.79ZM251.316 260.79H250.956L214.996 266.71C214.419 266.808 213.903 267.13 213.56 267.605C213.218 268.08 213.076 268.671 213.166 269.25L216.706 290.86C216.806 291.439 217.129 291.956 217.606 292.3C217.842 292.47 218.11 292.591 218.393 292.656C218.676 292.721 218.97 292.73 219.256 292.68L255.176 286.8C255.754 286.705 256.271 286.383 256.612 285.907C256.953 285.431 257.091 284.838 256.996 284.26L253.456 262.65C253.41 262.363 253.308 262.088 253.155 261.841C253.002 261.594 252.802 261.38 252.566 261.21C252.2 260.95 251.765 260.807 251.316 260.8V260.79Z" fill="white"/>
<path d="M241.735 275.67L229.595 271.08L231.695 283.9L241.735 275.67Z" fill="white"/>
<path d="M389.789 258.24H382.499V280.18H389.789V258.24Z" fill="white"/>
<path d="M389.789 281.71H382.499V285.84H389.789V281.71Z" fill="white"/>
<path d="M389.789 288.35H382.499V290.41H389.789V288.35Z" fill="white"/>
<path d="M389.789 294.18H382.499V295.21H389.789V294.18Z" fill="white"/>
<path d="M378.867 260.261L386.137 247.67L393.407 260.261H378.867Z" fill="white"/>
<path d="M287.999 222.94H283.399V236.79H287.999V222.94Z" fill="white"/>
<path d="M287.999 237.76H283.399V240.37H287.999V237.76Z" fill="white"/>
<path d="M287.999 241.96H283.399V243.26H287.999V241.96Z" fill="white"/>
<path d="M287.999 245.64H283.399V246.29H287.999V245.64Z" fill="white"/>
<path d="M281.105 224.22L285.695 216.26L290.295 224.22H281.105Z" fill="white"/>
<path d="M392.499 142.44H386.649V160.04H392.499V142.44Z" fill="#407BFF"/>
<path d="M392.499 161.27H386.649V164.58H392.499V161.27Z" fill="#407BFF"/>
<path d="M392.499 166.6H386.649V168.26H392.499V166.6Z" fill="#407BFF"/>
<path d="M392.499 171.28H386.649V172.11H392.499V171.28Z" fill="#407BFF"/>
<path d="M383.738 144.06L389.568 133.96L395.398 144.06H383.738Z" fill="#407BFF"/>
</svg>
