<svg width="19" height="21" viewBox="0 0 19 21" fill="none" xmlns="http://www.w3.org/2000/svg">
<g clip-path="url(#clip0)">
<path fill-rule="evenodd" clip-rule="evenodd" d="M10.0632 0.146964L18.6996 4.21387C19.1502 4.4357 19.1502 5.10119 18.6996 5.32302L10.0632 9.38992C9.68773 9.53781 9.31223 9.53781 8.93674 9.38992L0.37547 5.32302C-0.150222 5.10119 -0.150222 4.4357 0.37547 4.21387L8.93674 0.146964C9.31223 -0.0748669 9.68773 -0.0748669 10.0632 0.146964Z" fill="#fff"/>
<path fill-rule="evenodd" clip-rule="evenodd" d="M16.6719 6.95068L18.6996 7.91195C19.1502 8.13378 19.1502 8.79928 18.6996 9.02111L10.0632 13.088C9.68773 13.2359 9.31223 13.2359 8.93674 13.088L0.37547 9.02111C-0.150222 8.79928 -0.150222 8.13378 0.37547 7.91195L2.40314 6.95068L8.71144 9.90843C9.23714 10.2042 9.83793 10.2042 10.3636 9.90843L16.6719 6.95068Z" fill="#fff"/>
<path fill-rule="evenodd" clip-rule="evenodd" d="M16.6719 10.6478L18.6996 11.6091C19.1502 11.8309 19.1502 12.4964 18.6996 12.7182L10.0632 16.7852C9.68773 17.007 9.31223 17.007 8.93674 16.7852L0.37547 12.7182C-0.150222 12.4964 -0.150222 11.8309 0.37547 11.6091L2.40314 10.6478L8.71144 13.6795C9.23714 13.9013 9.83793 13.9013 10.3636 13.6795L16.6719 10.6478Z" fill="#fff"/>
<path fill-rule="evenodd" clip-rule="evenodd" d="M16.6719 14.4189L18.6996 15.3063C19.1502 15.602 19.1502 16.2675 18.6996 16.4894L10.0632 20.5563C9.68773 20.7042 9.31223 20.7042 8.93674 20.5563L0.37547 16.4894C-0.150222 16.2675 -0.150222 15.602 0.37547 15.3063L2.40314 14.4189L8.71144 17.3767C9.23714 17.5985 9.83793 17.5985 10.3636 17.3767L16.6719 14.4189Z" fill="#fff"/>
</g>
<defs>
<clipPath id="clip0">
<rect width="19" height="21" fill="white"/>
</clipPath>
</defs>
</svg>
