<svg width="20" height="18" viewBox="0 0 20 18" fill="none" xmlns="http://www.w3.org/2000/svg">
<path d="M18.9372 1.0481H1.06288C0.756211 1.0481 0.515259 1.29873 0.515259 1.61772V16.6101C0.515259 16.9291 0.756211 17.1797 1.06288 17.1797H18.9591C19.2657 17.1797 19.5067 16.9291 19.5067 16.6101V1.61772C19.4848 1.29873 19.2438 1.0481 18.9372 1.0481ZM16.7029 2.0962C17.141 1.86835 17.6886 2.07341 17.9076 2.52911C18.1267 2.9848 17.9295 3.55442 17.4914 3.78227C17.0534 4.01012 16.5057 3.80506 16.2867 3.34936C16.0895 2.87088 16.2648 2.30126 16.7029 2.0962ZM13.7676 2.0962C14.2057 1.86835 14.7534 2.07341 14.9724 2.52911C15.1914 2.9848 14.9943 3.55442 14.5562 3.78227C14.1181 4.01012 13.5705 3.80506 13.3514 3.34936C13.1324 2.87088 13.3076 2.30126 13.7676 2.0962ZM10.8105 2.0962C11.2486 1.86835 11.7962 2.07341 12.0153 2.52911C12.2343 2.9848 12.0372 3.55442 11.5991 3.78227C11.161 4.01012 10.6134 3.80506 10.3943 3.34936C10.1753 2.87088 10.3724 2.30126 10.8105 2.0962ZM18.3895 16.0405H1.6105V5.03544H18.4114V16.0405H18.3895Z" fill="#0057FF"/>
<path d="M7.06484 9.7063H4.5896V15.3569H7.06484V9.7063Z" fill="#0057FF"/>
<path d="M11.2266 7.90625H8.75134V15.3341H11.2266V7.90625Z" fill="#0057FF"/>
<path d="M15.4105 5.81006H12.9353V15.3341H15.4105V5.81006Z" fill="#0057FF"/>
</svg>
