<svg width="39" height="37" viewBox="0 0 39 37" fill="none" xmlns="http://www.w3.org/2000/svg">
<path d="M11.973 14.1697C11.973 16.5708 16.887 16.925 16.887 22.8293C16.887 27.1591 13.806 30.3867 9.51597 30.3867C4.95297 30.3474 1.94997 26.2144 1.94997 21.8452C1.94997 14.2878 8.96997 4.28991 13.338 4.28991C14.43 4.28991 16.419 5.07714 16.419 6.41544C16.38 7.75374 11.973 10.0761 11.973 14.1697Z" fill="#0057FF"/>
<path d="M32.136 14.17C32.136 16.5317 37.05 16.9253 37.05 22.7902C37.05 27.12 33.969 30.3477 29.679 30.3477C25.077 30.3477 22.074 26.2147 22.074 21.8455C22.074 14.2881 29.094 4.29021 33.462 4.29021C34.554 4.29021 36.543 5.07745 36.543 6.41575C36.543 7.75404 32.136 10.0764 32.136 14.17Z" fill="#0057FF"/>
</svg>
