<svg width="20" height="30" viewBox="0 0 20 30" fill="none" xmlns="http://www.w3.org/2000/svg">
<path d="M13.1727 22.5C13.1727 17.75 15.4227 15.75 15.4227 15.75C18.5477 12.625 18.7027 7.46754 15.5802 4.34254C14.0799 2.84262 12.0454 2 9.92394 2C7.80251 2 5.76793 2.84262 4.26769 4.34254C1.14269 7.46754 1.29769 12.625 4.42269 15.75C4.42269 15.75 6.67269 17.75 6.67269 22.5H13.1727Z" fill="#0057FF"/>
<path d="M13.1727 22.5C13.1727 17.75 15.4227 15.75 15.4227 15.75C18.5477 12.625 18.7027 7.46754 15.5802 4.34254C14.0799 2.84262 12.0454 2 9.92394 2C7.80251 2 5.76793 2.84262 4.26769 4.34254C1.14269 7.46754 1.29769 12.625 4.42269 15.75C4.42269 15.75 6.67269 17.75 6.67269 22.5H13.1727Z" fill="#0057FF"/>
<path d="M13.1727 22.5C13.1727 17.75 15.4227 15.75 15.4227 15.75C18.5477 12.625 18.7027 7.46754 15.5802 4.34254C14.0799 2.84262 12.0454 2 9.92394 2C7.80251 2 5.76793 2.84262 4.26769 4.34254C1.14269 7.46754 1.29769 12.625 4.42269 15.75C4.42269 15.75 6.67269 17.75 6.67269 22.5H13.1727Z" stroke="#0057FF" stroke-width="4" stroke-linecap="round" stroke-linejoin="round"/>
<path d="M13.1727 22.5C13.1727 17.75 15.4227 15.75 15.4227 15.75C18.5477 12.625 18.7027 7.46754 15.5802 4.34254C14.0799 2.84262 12.0454 2 9.92394 2C7.80251 2 5.76793 2.84262 4.26769 4.34254C1.14269 7.46754 1.29769 12.625 4.42269 15.75C4.42269 15.75 6.67269 17.75 6.67269 22.5H13.1727Z" stroke="#0057FF" stroke-width="4" stroke-linecap="round" stroke-linejoin="round"/>
<path d="M12.4229 28H7.42285" stroke="#0057FF" stroke-width="4" stroke-linecap="round" stroke-linejoin="round"/>
</svg>
