<svg width="32" height="32" viewBox="0 0 32 32" fill="none" xmlns="http://www.w3.org/2000/svg">
<path d="M29.222 13.0132C28.7238 9.9847 27.1974 8.50989 26.0662 7.81609L25.8965 7.78998C25.8965 7.78998 23.5531 6.93702 21.6055 11.3033C23.1575 12.6066 23.4249 15.4824 22.8215 17.8579C22.0332 20.9559 18.4886 22.7377 18.4886 22.7377L17.456 21.6723L14.3594 29.3011H23.0297L21.9972 27.8579C21.9972 27.8579 25.4377 25.5217 26.9517 23.597C28.4653 21.6723 30.0479 18.0304 29.222 13.0132Z" fill="#0057FF"/>
<path d="M9.68129 20.6073C3.28177 12.4975 12.8465 8.20219 12.8465 8.20219L13.6719 9.4395L16.6999 1.7417H8.02912L9.19881 3.18497C7.6162 3.83787 5.38041 6.03703 5.38041 6.03703C5.38041 6.03703 0.907853 10.5733 1.6296 17.0683C2.35233 23.5633 6.30887 24.0097 6.30887 24.0097L14.0843 23.8038C12.1233 23.6663 9.68129 20.6073 9.68129 20.6073Z" fill="#0057FF"/>
<path d="M17.0429 7.24022C14.8416 7.44619 13.8091 10.6767 13.8091 10.6767C12.2225 15.8013 10.9975 18.5218 10.3863 19.7236L10.2832 19.938C11.6729 21.8987 13.1791 22.862 14.8105 23.4006C15.9205 23.4829 17.5594 19.1989 17.5594 19.1989C18.9471 15.5791 19.6358 13.9757 20.8627 10.8486C21.0615 10.348 22.0295 7.41465 24.1991 7.22198C22.7512 7.17566 18.8213 7.07366 17.0429 7.24022Z" fill="#0057FF"/>
</svg>
