<svg width="35" height="32" viewBox="0 0 35 32" fill="none" xmlns="http://www.w3.org/2000/svg">
<path d="M8.62109 7.23119L11.8223 10.3481C13.0174 9.43379 14.5113 8.85197 16.1333 8.85197C17.3711 8.85197 18.5235 9.18444 19.5479 9.7247L22.1943 6.15067C20.4443 5.07015 18.3528 4.44678 16.1333 4.44678C13.2735 4.44678 10.6272 5.5273 8.62109 7.23119Z" fill="#0057FF"/>
<path d="M20.1033 20.9453C19.1643 21.6102 18.0545 22.0258 16.8594 22.1505V26.5557C19.2069 26.431 21.3411 25.5583 23.0911 24.2284L20.1033 20.9453Z" fill="#0057FF"/>
<path d="M15.4076 30.2545V22.1506C11.9503 21.8181 9.30392 18.9506 9.30392 15.5428C9.30392 13.9636 9.8588 12.5091 10.8405 11.3454L4.95027 5.61035C2.38929 8.31165 1.02344 11.8026 1.02344 15.5013C1.02344 23.3974 7.42587 29.8805 15.4076 30.2545Z" fill="#0057FF"/>
<path d="M33.7614 19.9894L22.6211 17.6206C22.3224 18.5349 21.8102 19.3245 21.1699 20.031L29.4504 29.1323C32.0968 26.6803 33.9321 23.605 34.8285 20.1972L33.7614 19.9894Z" fill="#0057FF"/>
<path d="M20.7012 10.5974C22.067 11.8026 22.9634 13.5897 22.9634 15.5429C22.9634 15.7922 22.9634 16.0416 22.9207 16.2494L33.3353 18.452C33.506 17.4961 33.5914 16.4987 33.5914 15.5429C33.5914 10.3481 31.1158 5.40264 26.9329 2.20264L20.7012 10.5974Z" fill="#0057FF"/>
</svg>
