<svg width="32" height="32" viewBox="0 0 32 32" fill="none" xmlns="http://www.w3.org/2000/svg">
<path d="M29.2486 19.0083L26.8166 17.1523C26.8486 16.8003 26.9126 16.4163 26.9126 16.0003C26.9126 15.5843 26.8806 15.2323 26.8166 14.8803L29.4406 13.0243C29.9846 12.6083 30.1446 11.8403 29.7926 11.2643L26.9446 6.43225C26.5606 5.79225 25.8566 5.60025 25.2486 5.92025L22.3686 7.23225C21.7286 6.78425 21.1206 6.43225 20.4166 6.11225L20.1286 2.91225V2.84825C20.0006 2.20825 19.4566 1.76025 18.8486 1.76025H13.2486C12.5766 1.76025 11.9686 2.30425 11.9686 2.94425L11.6806 6.11225C10.9126 6.46425 10.2726 6.81625 9.72855 7.23225L6.81655 5.88825H6.78455C6.17655 5.63225 5.44055 5.88825 5.15255 6.43225L2.36855 11.2323C2.01655 11.8083 2.17655 12.5763 2.75255 12.9923L5.37655 14.8483C5.34455 15.2003 5.28055 15.5843 5.28055 15.9683C5.28055 16.3843 5.31255 16.7363 5.37655 17.0883L2.56055 19.0083C2.01655 19.4243 1.85655 20.1923 2.20855 20.7683L5.02455 25.6003C5.40855 26.2403 6.11255 26.4323 6.72055 26.1123L9.60055 24.8003C10.2086 25.2483 10.8486 25.6003 11.5526 25.9203L11.8406 29.1203V29.1842C11.9686 29.8242 12.5126 30.2722 13.1206 30.2722H18.7206C19.3926 30.2722 20.0006 29.7283 20.0006 29.0883L20.2886 25.9203C21.0566 25.5683 21.6966 25.2163 22.2406 24.8003L25.1526 26.1443H25.1846C25.7926 26.4002 26.5286 26.1443 26.8166 25.6003L29.6006 20.8003C29.9526 20.1603 29.7926 19.4243 29.2486 19.0083ZM16.0006 21.7283C12.7686 21.7283 10.2726 19.2003 10.2726 16.0003C10.2726 12.7683 12.8006 10.2723 16.0006 10.2723C19.2006 10.2723 21.7286 12.7683 21.7286 16.0003C21.7286 19.2323 19.2326 21.7283 16.0006 21.7283Z" fill="#0057FF"/>
</svg>
