<svg width="24" height="28" viewBox="0 0 24 28" fill="none" xmlns="http://www.w3.org/2000/svg">
<path d="M23.9746 7.19469C23.9454 6.45165 23.9454 5.73718 23.9454 5.05129C23.9454 4.50829 23.508 4.07961 22.954 4.07961C18.6674 4.05103 15.4015 2.85073 12.6896 0.278643C12.3105 -0.0928808 11.6689 -0.0928808 11.2899 0.278643C8.57795 2.85073 5.312 4.05103 1.0546 4.05103C0.500557 4.05103 0.0631533 4.47971 0.0631533 5.02271C0.0631533 5.7086 0.0631532 6.42307 0.0339929 7.19469C-0.111808 14.2536 -0.315929 23.8847 11.6689 27.9428C11.7856 27.9714 11.8731 28 11.9897 28C12.1063 28 12.223 27.9714 12.3105 27.9428C24.2953 23.8847 24.0912 14.2536 23.9746 7.19469ZM11.9897 25.9709C1.72529 22.3128 1.87109 14.3108 2.01689 7.25185C2.01689 6.82317 2.04605 6.42307 2.04605 6.02297C6.04101 5.82291 9.24864 4.65119 11.9897 2.30773C14.7308 4.65119 17.9384 5.85149 21.9334 5.99439C21.9334 6.39449 21.9334 6.79459 21.9625 7.22327C22.1083 14.3108 22.2541 22.3128 11.9897 25.9709Z" fill="#0057FF"/>
<path d="M11.9897 25.9709C1.72529 22.3128 1.87109 14.3108 2.01689 7.25185C2.01689 6.82317 2.04605 6.42307 2.04605 6.02297C6.04101 5.82291 9.24864 4.65119 11.9897 2.30773C14.7308 4.65119 17.9384 5.85149 21.9334 5.99439C21.9334 6.39449 21.9334 6.79459 21.9625 7.22327C22.1083 14.3108 22.2541 22.3128 11.9897 25.9709Z" fill="#0057FF"/>
</svg>
