<!-- Generated by IcoMoon.io -->
<svg version="1.1" xmlns="http://www.w3.org/2000/svg" width="28" height="32" viewBox="0 0 28 32">
<title>1</title>
<path fill="#e5edff" d="M17.935 12.691c3.256 0 5.895-2.597 5.895-5.801s-2.639-5.801-5.895-5.801c-3.256 0-5.895 2.597-5.895 5.801s2.639 5.801 5.895 5.801z"></path>
<path fill="#e5edff" d="M8.541 20.888c-0.685 1.647 0.532 3.481 2.358 3.481h14.376c1.826 0 3.043-1.834 2.358-3.481-1.788-4.192-5.401-7.036-9.546-7.036s-7.796 2.844-9.546 7.036z"></path>
<path fill="#0057ff" d="M9.587 18.256c3.256 0 5.895-2.597 5.895-5.801s-2.639-5.801-5.895-5.801-5.895 2.597-5.895 5.801c0 3.204 2.639 5.801 5.895 5.801z"></path>
<path fill="#0057ff" d="M0.193 26.453c-0.685 1.647 0.532 3.481 2.358 3.481h14.376c1.826 0 3.043-1.834 2.358-3.481-1.788-4.192-5.401-7.036-9.546-7.036s-7.796 2.844-9.546 7.036z"></path>
</svg>
