<!-- Generated by IcoMoon.io -->
<svg version="1.1" xmlns="http://www.w3.org/2000/svg" width="43" height="32" viewBox="0 0 43 32">
<title>10</title>
<path fill="#0057ff" d="M7.593 1.159c-3.51 0-6.378 2.736-6.378 6.088v18.672c0 3.351 2.866 6.088 6.378 6.088h4.984l0.082-0.578c0.592-4.185 4.357-7.421 8.908-7.421s8.311 3.236 8.905 7.421l0.082 0.578h4.984c3.51 0 6.378-2.736 6.378-6.088v-18.672c0-3.351-2.866-6.088-6.378-6.088h-27.945zM16.765 17.916c0-2.532 2.147-4.581 4.8-4.581s4.799 2.049 4.799 4.581c0 2.532-2.147 4.581-4.799 4.581s-4.8-2.049-4.8-4.581z"></path>
</svg>
