<!-- Generated by IcoMoon.io -->
<svg version="1.1" xmlns="http://www.w3.org/2000/svg" width="39" height="32" viewBox="0 0 39 32">
<title>13</title>
<path fill="#0057ff" d="M0 0.648h30.316v30.316h-30.316v-30.316z"></path>
<path fill="#fff" d="M7.487 29.726v-27.116c0-0.326 0.237-0.589 0.529-0.589h3.964c0.292 0 0.529 0.264 0.529 0.589v27.116c0 0.326-0.237 0.589-0.529 0.589h-3.964c-0.292 0-0.529-0.264-0.529-0.589zM0 29.726v-8.253c0-0.326 0.237-0.589 0.528-0.589h3.964c0.292 0 0.529 0.264 0.529 0.589v8.253c0 0.326-0.237 0.589-0.529 0.589h-3.964c-0.292 0-0.528-0.264-0.528-0.589zM14.975 29.726v-12.968c0-0.326 0.237-0.589 0.529-0.589h3.964c0.292 0 0.529 0.264 0.529 0.589v12.968c0 0.326-0.237 0.589-0.529 0.589h-3.964c-0.292 0-0.529-0.264-0.529-0.589zM22.462 29.726v-17.684c0-0.326 0.237-0.589 0.529-0.589h3.964c0.292 0 0.529 0.264 0.529 0.589v17.684c0 0.326-0.237 0.589-0.529 0.589h-3.964c-0.292 0-0.529-0.264-0.529-0.589z"></path>
<path fill="#fff" d="M7.487 29.726v-27.116c0-0.326 0.237-0.589 0.529-0.589h3.964c0.292 0 0.529 0.264 0.529 0.589v27.116c0 0.326-0.237 0.589-0.529 0.589h-3.964c-0.292 0-0.529-0.264-0.529-0.589zM0 29.726v-8.253c0-0.326 0.237-0.589 0.528-0.589h3.964c0.292 0 0.529 0.264 0.529 0.589v8.253c0 0.326-0.237 0.589-0.529 0.589h-3.964c-0.292 0-0.528-0.264-0.528-0.589zM14.975 29.726v-12.968c0-0.326 0.237-0.589 0.529-0.589h3.964c0.292 0 0.529 0.264 0.529 0.589v12.968c0 0.326-0.237 0.589-0.529 0.589h-3.964c-0.292 0-0.529-0.264-0.529-0.589zM22.462 29.726v-17.684c0-0.326 0.237-0.589 0.529-0.589h3.964c0.292 0 0.529 0.264 0.529 0.589v17.684c0 0.326-0.237 0.589-0.529 0.589h-3.964c-0.292 0-0.529-0.264-0.529-0.589z"></path>
<path fill="#fff" d="M7.487 28.965v-28.348c0-0.34 0.237-0.616 0.529-0.616h3.964c0.292 0 0.528 0.276 0.528 0.616v28.348c0 0.34-0.237 0.616-0.528 0.616h-3.964c-0.292 0-0.529-0.276-0.529-0.616zM-0 28.965v-8.628c0-0.34 0.237-0.616 0.528-0.616h3.964c0.292 0 0.529 0.276 0.529 0.616v8.628c0 0.34-0.237 0.616-0.529 0.616h-3.964c-0.292 0-0.528-0.276-0.528-0.616zM14.974 28.965v-13.558c0-0.34 0.237-0.616 0.529-0.616h3.964c0.292 0 0.529 0.276 0.529 0.616v13.558c0 0.34-0.237 0.616-0.529 0.616h-3.964c-0.292 0-0.529-0.276-0.529-0.616zM22.462 28.965v-18.488c0-0.34 0.237-0.616 0.529-0.616h3.964c0.292 0 0.529 0.276 0.529 0.616v18.488c0 0.34-0.237 0.616-0.529 0.616h-3.964c-0.292 0-0.529-0.276-0.529-0.616z"></path>
<path fill="#fff" d="M7.487 28.965v-28.348c0-0.34 0.237-0.616 0.529-0.616h3.964c0.292 0 0.528 0.276 0.528 0.616v28.348c0 0.34-0.237 0.616-0.528 0.616h-3.964c-0.292 0-0.529-0.276-0.529-0.616zM-0 28.965v-8.628c0-0.34 0.237-0.616 0.528-0.616h3.964c0.292 0 0.529 0.276 0.529 0.616v8.628c0 0.34-0.237 0.616-0.529 0.616h-3.964c-0.292 0-0.528-0.276-0.528-0.616zM14.974 28.965v-13.558c0-0.34 0.237-0.616 0.529-0.616h3.964c0.292 0 0.529 0.276 0.529 0.616v13.558c0 0.34-0.237 0.616-0.529 0.616h-3.964c-0.292 0-0.529-0.276-0.529-0.616zM22.462 28.965v-18.488c0-0.34 0.237-0.616 0.529-0.616h3.964c0.292 0 0.529 0.276 0.529 0.616v18.488c0 0.34-0.237 0.616-0.529 0.616h-3.964c-0.292 0-0.529-0.276-0.529-0.616z"></path>
<path fill="#fff" stroke="#fff" stroke-linejoin="miter" stroke-linecap="butt" stroke-miterlimit="4" stroke-width="1.6842" d="M37.365 23.637l-0.013-0.015-0.014-0.014-3.851-3.924c3.087-4.534 2.615-10.845-1.274-14.842-2.136-2.195-4.954-3.41-7.984-3.41-3.027 0-5.885 1.212-8.023 3.41-2.136 2.196-3.307 5.083-3.307 8.214s1.171 6.019 3.307 8.215h-0l0.006 0.006c2.129 2.146 4.943 3.404 8.017 3.404 2.305 0 4.574-0.732 6.445-2.073l3.788 3.895c0.378 0.389 0.863 0.614 1.419 0.614 0.498 0 1.059-0.187 1.445-0.641 0.755-0.804 0.746-2.045 0.038-2.838zM31.544 13.056c0 2.021-0.771 3.921-2.162 5.315-1.412 1.415-3.223 2.229-5.153 2.229-1.944 0-3.782-0.784-5.138-2.213-1.377-1.452-2.177-3.325-2.177-5.331 0-2.021 0.771-3.921 2.163-5.315 1.414-1.417 3.187-2.229 5.153-2.229 1.944 0 3.782 0.784 5.138 2.213 1.379 1.454 2.177 3.287 2.177 5.331z"></path>
</svg>
