<!-- Generated by IcoMoon.io -->
<svg version="1.1" xmlns="http://www.w3.org/2000/svg" width="30" height="32" viewBox="0 0 30 32">
<title>14</title>
<path fill="#fff" d="M11.789 0.648h16.842c0.93 0 1.684 0.754 1.684 1.684v16.842c0 0.93-0.754 1.684-1.684 1.684h-16.842c-0.93 0-1.684-0.754-1.684-1.684v-16.842c0-0.93 0.754-1.684 1.684-1.684z"></path>
<path fill="#cfe0ff" d="M1.684 10.753h16.842c0.93 0 1.684 0.754 1.684 1.684v16.842c0 0.93-0.754 1.684-1.684 1.684h-16.842c-0.93 0-1.684-0.754-1.684-1.684v-16.842c0-0.93 0.754-1.684 1.684-1.684z"></path>
</svg>
