<!-- Generated by IcoMoon.io -->
<svg version="1.1" xmlns="http://www.w3.org/2000/svg" width="34" height="32" viewBox="0 0 34 32">
<title>19</title>
<path fill="#fff" d="M9.231 29.853v-29.052c0-0.349 0.292-0.632 0.652-0.632h4.887c0.36 0 0.652 0.283 0.652 0.632v29.052c0 0.349-0.292 0.632-0.652 0.632h-4.887c-0.36 0-0.652-0.283-0.652-0.632zM0 29.853v-8.842c0-0.349 0.292-0.632 0.652-0.632h4.887c0.36 0 0.652 0.283 0.652 0.632v8.842c0 0.349-0.292 0.632-0.652 0.632h-4.887c-0.36 0-0.652-0.283-0.652-0.632zM18.462 29.853v-13.895c0-0.349 0.292-0.632 0.651-0.632h4.887c0.36 0 0.652 0.283 0.652 0.632v13.895c0 0.349-0.292 0.632-0.652 0.632h-4.887c-0.36 0-0.651-0.283-0.651-0.632zM27.692 29.853v-18.947c0-0.349 0.292-0.632 0.652-0.632h4.887c0.36 0 0.652 0.283 0.652 0.632v18.947c0 0.349-0.292 0.632-0.652 0.632h-4.887c-0.36 0-0.652-0.283-0.652-0.632z"></path>
<path fill="none" stroke="#fff" stroke-linejoin="miter" stroke-linecap="butt" stroke-miterlimit="4" stroke-width="1.8824" d="M14.48 29.543h-4.308v-28.433h4.308v28.433zM5.249 29.543h-4.308v-8.223h4.308v8.223zM23.71 29.543h-4.308v-13.275h4.308v13.275zM32.941 29.543h-4.308v-18.328h4.308v18.328z"></path>
</svg>
