<!-- Generated by IcoMoon.io -->
<svg version="1.1" xmlns="http://www.w3.org/2000/svg" width="37" height="32" viewBox="0 0 37 32">
<title>22</title>
<path fill="#fff" d="M35.349 1.863h-33.365c-0.572 0-1.022 0.446-1.022 1.013v26.653c0 0.567 0.45 1.013 1.022 1.013h33.406c0.572 0 1.022-0.445 1.022-1.013v-26.653c-0.041-0.567-0.491-1.013-1.063-1.013zM31.179 3.727c0.818-0.405 1.84-0.041 2.249 0.77s0.041 1.823-0.777 2.228c-0.818 0.405-1.84 0.040-2.249-0.77-0.368-0.851-0.041-1.863 0.777-2.228zM25.7 3.727c0.818-0.405 1.84-0.041 2.249 0.77s0.041 1.823-0.777 2.228c-0.818 0.405-1.84 0.040-2.249-0.77-0.409-0.851-0.082-1.863 0.777-2.228zM20.18 3.727c0.818-0.405 1.84-0.041 2.249 0.77s0.041 1.823-0.777 2.228c-0.818 0.405-1.84 0.040-2.249-0.77-0.409-0.851-0.041-1.863 0.777-2.228zM34.327 28.516h-31.321v-19.565h31.362v19.565h-0.041z"></path>
<path fill="#fff" d="M13.188 17.256h-4.62v10.046h4.62v-10.046z"></path>
<path fill="#fff" d="M20.956 14.056h-4.62v13.205h4.62v-13.205z"></path>
<path fill="#fff" d="M28.766 10.329h-4.62v16.932h4.62v-16.932z"></path>
</svg>
