<!-- Generated by IcoMoon.io -->
<svg version="1.1" xmlns="http://www.w3.org/2000/svg" width="41" height="32" viewBox="0 0 41 32">
<title>4</title>
<path fill="#fff" d="M37.933 27.126c0 0 0 3.385-2.733 3.385h-28.574c-1.367 0-2.485-1.203-2.485-2.673v-25.166c0-1.47 1.118-2.673 2.485-2.673h28.823c1.367 0 2.485 1.203 2.485 2.673v24.454zM15.902 3.92c0-0.624-0.497-1.158-1.077-1.158-0.621 0-1.077 0.49-1.077 1.158 0 0.624 0.497 1.158 1.077 1.158s1.077-0.535 1.077-1.158zM12.63 3.92c0-0.624-0.497-1.158-1.077-1.158-0.621 0-1.077 0.49-1.077 1.158 0 0.624 0.497 1.158 1.077 1.158s1.077-0.535 1.077-1.158zM9.359 3.92c0-0.624-0.497-1.158-1.077-1.158s-1.077 0.49-1.077 1.158c0 0.624 0.497 1.158 1.077 1.158s1.077-0.535 1.077-1.158z"></path>
<path fill="#0057ff" d="M19.938 12.934v-0.717h3.073v0.717h1.537v-0.717c-0-0.38-0.162-0.745-0.45-1.014s-0.679-0.42-1.086-0.42h-3.073c-0.407 0-0.798 0.152-1.086 0.42s-0.45 0.633-0.45 1.014v0.717h1.537z"></path>
<path fill="#0057ff" d="M19.169 19.388c-0.204 0-0.399-0.075-0.543-0.21s-0.225-0.317-0.225-0.507v-1.434c0-0.19 0.081-0.373 0.225-0.507s0.339-0.21 0.543-0.21c0.204 0 0.399 0.076 0.543 0.21s0.225 0.317 0.225 0.507v1.434c0 0.19-0.081 0.373-0.225 0.507s-0.34 0.21-0.543 0.21zM23.779 19.388c-0.204 0-0.399-0.075-0.543-0.21s-0.225-0.317-0.225-0.507v-1.434c0-0.19 0.081-0.373 0.225-0.507s0.34-0.21 0.543-0.21c0.204 0 0.399 0.076 0.543 0.21s0.225 0.317 0.225 0.507v1.434c0 0.19-0.081 0.373-0.225 0.507s-0.34 0.21-0.543 0.21z"></path>
<path fill="#0057ff" d="M27.621 12.934h-12.293c-0.408 0-0.798 0.151-1.087 0.42s-0.45 0.634-0.45 1.014v2.151c0 0.38 0.162 0.745 0.45 1.014s0.679 0.42 1.087 0.42h3.073v-0.717c0-0.19 0.081-0.373 0.225-0.507s0.339-0.21 0.543-0.21c0.204 0 0.399 0.076 0.543 0.21s0.225 0.317 0.225 0.507v0.717h3.073v-0.717c0-0.19 0.081-0.373 0.225-0.507s0.34-0.21 0.543-0.21c0.204 0 0.399 0.076 0.543 0.21s0.225 0.317 0.225 0.507v0.717h3.073c0.408 0 0.798-0.151 1.087-0.42s0.45-0.634 0.45-1.014v-2.151c0-0.38-0.162-0.745-0.45-1.014s-0.679-0.42-1.087-0.42z"></path>
<path fill="#0057ff" d="M27.621 17.954h-3.073v0.717c0 0.19-0.081 0.373-0.225 0.507s-0.34 0.21-0.543 0.21c-0.204 0-0.399-0.075-0.543-0.21s-0.225-0.317-0.225-0.507v-0.717h-3.073v0.717c0 0.19-0.081 0.373-0.225 0.507s-0.34 0.21-0.543 0.21c-0.204 0-0.399-0.075-0.543-0.21s-0.225-0.317-0.225-0.507v-0.717h-3.073c-0.408 0-0.798-0.151-1.087-0.42s-0.45-0.634-0.45-1.014v5.737c0 0.38 0.162 0.745 0.45 1.014s0.679 0.42 1.087 0.42h12.293c0.408 0 0.798-0.151 1.087-0.42s0.45-0.634 0.45-1.014v-5.737c0 0.38-0.162 0.745-0.45 1.014s-0.679 0.42-1.087 0.42z"></path>
</svg>
