<!-- Generated by IcoMoon.io -->
<svg version="1.1" xmlns="http://www.w3.org/2000/svg" width="36" height="32" viewBox="0 0 36 32">
<title>5</title>
<path fill="#fff" d="M3.818 23.944c-0.073 0-0.145-0.077-0.145-0.192v-16.457h24.145v6.752c0.982 0.077 1.891 0.345 2.764 0.729v-11.931c0-1.266-0.982-2.302-2.182-2.302h-25.309c-1.2 0-2.182 1.036-2.182 2.302v21.674c0 1.266 0.982 2.302 2.182 2.302h16c-0.364-0.921-0.618-1.88-0.691-2.916h-14.582v0.038zM10.291 2.922c0.509 0 0.945 0.46 0.945 0.997s-0.436 0.997-0.945 0.997c-0.509 0-0.945-0.46-0.945-0.997 0-0.575 0.4-0.997 0.945-0.997zM7.418 2.922c0.509 0 0.945 0.46 0.945 0.997s-0.436 0.997-0.945 0.997c-0.509 0-0.945-0.46-0.945-0.997 0-0.575 0.4-0.997 0.945-0.997zM4.545 2.922c0.509 0 0.945 0.46 0.945 0.997s-0.436 0.997-0.945 0.997c-0.509 0-0.945-0.46-0.945-0.997 0-0.575 0.436-0.997 0.945-0.997z"></path>
<path fill="#fff" d="M25.984 8.837v5.21c0 0-2.439 0.59-5.075 3.255s-2.509 5.512-2.509 5.512l-12.945-0.197 0.036-13.78h20.494z"></path>
<path fill="#fff" d="M35.236 29.583l-2.691-2.839c1.564-2.647 1.236-6.138-0.909-8.44-2.545-2.685-6.655-2.685-9.164 0-2.545 2.685-2.545 7.020 0 9.667 2.182 2.302 5.491 2.609 8 0.959l2.691 2.839c0.255 0.307 0.727 0.307 0.982 0l1.091-1.151c0.291-0.268 0.291-0.729 0-1.036zM29.527 25.785c-1.382 1.458-3.6 1.458-4.982 0s-1.382-3.798 0-5.256c1.382-1.458 3.6-1.458 4.982 0 1.382 1.419 1.382 3.798 0 5.256z"></path>
</svg>
