<!-- Generated by IcoMoon.io -->
<svg version="1.1" xmlns="http://www.w3.org/2000/svg" width="41" height="32" viewBox="0 0 41 32">
<title>7</title>
<path fill="#0057ff" d="M4.571 0h32c2.525 0 4.571 2.047 4.571 4.571v22.857c0 2.525-2.047 4.571-4.571 4.571h-32c-2.525 0-4.571-2.047-4.571-4.571v-22.857c0-2.525 2.047-4.571 4.571-4.571z"></path>
<path fill="#fff" d="M20.572 6.857c-5.041 0-9.144 4.101-9.144 9.143s4.102 9.143 9.144 9.143c5.041 0 9.142-4.101 9.142-9.143-0.001-5.042-4.102-9.143-9.142-9.143zM24.755 18.222l-4.789 2.766c-0.387 0.223-0.81 0.336-1.233 0.336-0.424 0-0.848-0.113-1.235-0.337-0.771-0.446-1.231-1.243-1.231-2.136v-5.531c0-0.892 0.461-1.69 1.231-2.136 0.775-0.447 1.696-0.447 2.468-0.001l4.79 2.766c0.774 0.444 1.235 1.243 1.235 2.137 0 0.893-0.462 1.692-1.236 2.136z"></path>
<path fill="#fff" d="M43.429 3.245c0-0.529-0.41-0.959-0.913-0.959h-43.887c-0.504 0-0.913 0.43-0.913 0.959v26.469h45.714v-26.469zM20.572 25.818c-5.065 0-9.187-4.336-9.187-9.666s4.122-9.666 9.187-9.666c5.065 0 9.186 4.335 9.186 9.666s-4.121 9.666-9.186 9.666z"></path>
</svg>
