<!-- Generated by IcoMoon.io -->
<svg version="1.1" xmlns="http://www.w3.org/2000/svg" width="30" height="32" viewBox="0 0 30 32">
<title>9</title>
<path fill="#fff" d="M0 28.988c0 1.455 1.172 2.635 2.619 2.635h20.951c1.446 0 2.619-1.181 2.619-2.635v-22.4c0-1.456-1.173-2.635-2.619-2.635h-20.951c-0.724 0-1.309-0.589-1.309-1.318s0.585-1.318 1.309-1.318h20.951c0.361 0 0.655-0.295 0.655-0.659s-0.293-0.659-0.655-0.659h-20.951c-1.447 0-2.619 1.181-2.619 2.635v26.353z"></path>
<path fill="#fff" d="M30.117 6.588h-2.619v6.588h2.619v-6.588z"></path>
<path fill="#fff" d="M30.117 14.494h-2.619v6.588h2.619v-6.588z"></path>
<path fill="#fff" d="M30.117 22.4h-2.619v6.588h2.619v-6.588z"></path>
</svg>
