<svg width="35" height="32" viewBox="0 0 35 32" fill="none" xmlns="http://www.w3.org/2000/svg">
<rect width="35" height="32" fill="#0057FF"/>
<path d="M8.62207 7.23119L11.8233 10.3481C13.0184 9.43379 14.5123 8.85197 16.1343 8.85197C17.3721 8.85197 18.5245 9.18444 19.5489 9.7247L22.1952 6.15067C20.4452 5.07015 18.3538 4.44678 16.1343 4.44678C13.2745 4.44678 10.6282 5.5273 8.62207 7.23119Z" fill="white"/>
<path d="M20.1033 20.9453C19.1643 21.6102 18.0545 22.0258 16.8594 22.1505V26.5557C19.2069 26.431 21.3411 25.5583 23.0911 24.2284L20.1033 20.9453Z" fill="white"/>
<path d="M15.4086 30.2545V22.1506C11.9512 21.8181 9.3049 18.9506 9.3049 15.5428C9.3049 13.9636 9.85978 12.5091 10.8415 11.3454L4.95124 5.61035C2.39027 8.31165 1.02441 11.8026 1.02441 15.5013C1.02441 23.3974 7.42685 29.8805 15.4086 30.2545Z" fill="white"/>
<path d="M33.7624 19.9894L22.6221 17.6206C22.3233 18.5349 21.8111 19.3245 21.1709 20.031L29.4514 29.1323C32.0977 26.6803 33.9331 23.605 34.8294 20.1972L33.7624 19.9894Z" fill="white"/>
<path d="M20.7012 10.5974C22.067 11.8026 22.9634 13.5897 22.9634 15.5429C22.9634 15.7922 22.9634 16.0416 22.9207 16.2494L33.3353 18.452C33.506 17.4961 33.5914 16.4987 33.5914 15.5429C33.5914 10.3481 31.1158 5.40264 26.9329 2.20264L20.7012 10.5974Z" fill="white"/>
</svg>
