<svg width="32" height="32" viewBox="0 0 32 32" fill="none" xmlns="http://www.w3.org/2000/svg">
<rect width="32" height="32" fill="#0057FF"/>
<path d="M29.2476 19.0083L26.8156 17.1523C26.8476 16.8003 26.9116 16.4163 26.9116 16.0003C26.9116 15.5843 26.8796 15.2323 26.8156 14.8803L29.4396 13.0243C29.9836 12.6083 30.1436 11.8403 29.7916 11.2643L26.9436 6.43225C26.5596 5.79225 25.8556 5.60025 25.2476 5.92025L22.3676 7.23225C21.7276 6.78425 21.1196 6.43225 20.4156 6.11225L20.1276 2.91225V2.84825C19.9996 2.20825 19.4556 1.76025 18.8476 1.76025H13.2476C12.5756 1.76025 11.9676 2.30425 11.9676 2.94425L11.6796 6.11225C10.9116 6.46425 10.2716 6.81625 9.72757 7.23225L6.81557 5.88825H6.78358C6.17557 5.63225 5.43957 5.88825 5.15157 6.43225L2.36757 11.2323C2.01557 11.8083 2.17557 12.5763 2.75157 12.9923L5.37557 14.8483C5.34357 15.2003 5.27957 15.5843 5.27957 15.9683C5.27957 16.3843 5.31157 16.7363 5.37557 17.0883L2.55957 19.0083C2.01557 19.4243 1.85557 20.1923 2.20757 20.7683L5.02357 25.6003C5.40757 26.2403 6.11157 26.4323 6.71957 26.1123L9.59957 24.8003C10.2076 25.2483 10.8476 25.6003 11.5516 25.9203L11.8396 29.1203V29.1842C11.9676 29.8242 12.5116 30.2722 13.1196 30.2722H18.7196C19.3916 30.2722 19.9996 29.7283 19.9996 29.0883L20.2876 25.9203C21.0556 25.5683 21.6956 25.2163 22.2396 24.8003L25.1516 26.1443H25.1836C25.7916 26.4002 26.5276 26.1443 26.8156 25.6003L29.5996 20.8003C29.9516 20.1603 29.7916 19.4243 29.2476 19.0083ZM15.9996 21.7283C12.7676 21.7283 10.2716 19.2003 10.2716 16.0003C10.2716 12.7683 12.7996 10.2723 15.9996 10.2723C19.1996 10.2723 21.7276 12.7683 21.7276 16.0003C21.7276 19.2323 19.2316 21.7283 15.9996 21.7283Z" fill="white"/>
</svg>
