<svg width="37" height="35" viewBox="0 0 37 35" fill="none" xmlns="http://www.w3.org/2000/svg">
<rect width="37" height="35" fill="#0057FF"/>
<path d="M16.1663 10V8.66667H21.833V10H24.6663V8.66667C24.6656 7.95964 24.3668 7.28177 23.8356 6.78183C23.3045 6.28188 22.5842 6.00071 21.833 6H16.1663C15.4151 6.00071 14.6949 6.28188 14.1637 6.78183C13.6325 7.28177 13.3338 7.95964 13.333 8.66667V10H16.1663Z" fill="white"/>
<path d="M14.7497 21.9998C14.374 21.9998 14.0136 21.8594 13.7479 21.6093C13.4823 21.3593 13.333 21.0201 13.333 20.6665V17.9998C13.333 17.6462 13.4823 17.3071 13.7479 17.057C14.0136 16.807 14.374 16.6665 14.7497 16.6665C15.1254 16.6665 15.4857 16.807 15.7514 17.057C16.0171 17.3071 16.1663 17.6462 16.1663 17.9998V20.6665C16.1663 21.0201 16.0171 21.3593 15.7514 21.6093C15.4857 21.8594 15.1254 21.9998 14.7497 21.9998ZM23.2497 21.9998C22.874 21.9998 22.5136 21.8594 22.2479 21.6093C21.9823 21.3593 21.833 21.0201 21.833 20.6665V17.9998C21.833 17.6462 21.9823 17.3071 22.2479 17.057C22.5136 16.807 22.874 16.6665 23.2497 16.6665C23.6254 16.6665 23.9857 16.807 24.2514 17.057C24.5171 17.3071 24.6663 17.6462 24.6663 17.9998V20.6665C24.6663 21.0201 24.5171 21.3593 24.2514 21.6093C23.9857 21.8594 23.6254 21.9998 23.2497 21.9998Z" fill="white"/>
<path d="M30.333 10H7.66634C6.91489 10 6.19423 10.281 5.66287 10.781C5.13152 11.2811 4.83301 11.9594 4.83301 12.6667V16.6667C4.83301 17.3739 5.13152 18.0522 5.66287 18.5523C6.19423 19.0524 6.91489 19.3333 7.66634 19.3333H13.333V18C13.333 17.6464 13.4823 17.3072 13.7479 17.0572C14.0136 16.8071 14.374 16.6667 14.7497 16.6667C15.1254 16.6667 15.4857 16.8071 15.7514 17.0572C16.0171 17.3072 16.1663 17.6464 16.1663 18V19.3333H21.833V18C21.833 17.6464 21.9823 17.3072 22.2479 17.0572C22.5136 16.8071 22.874 16.6667 23.2497 16.6667C23.6254 16.6667 23.9857 16.8071 24.2514 17.0572C24.5171 17.3072 24.6663 17.6464 24.6663 18V19.3333H30.333C31.0845 19.3333 31.8051 19.0524 32.3365 18.5523C32.8678 18.0522 33.1663 17.3739 33.1663 16.6667V12.6667C33.1663 11.9594 32.8678 11.2811 32.3365 10.781C31.8051 10.281 31.0845 10 30.333 10Z" fill="white"/>
<path d="M30.333 19.3332H24.6663V20.6665C24.6663 21.0201 24.5171 21.3593 24.2514 21.6093C23.9857 21.8594 23.6254 21.9998 23.2497 21.9998C22.874 21.9998 22.5136 21.8594 22.2479 21.6093C21.9823 21.3593 21.833 21.0201 21.833 20.6665V19.3332H16.1663V20.6665C16.1663 21.0201 16.0171 21.3593 15.7514 21.6093C15.4857 21.8594 15.1254 21.9998 14.7497 21.9998C14.374 21.9998 14.0136 21.8594 13.7479 21.6093C13.4823 21.3593 13.333 21.0201 13.333 20.6665V19.3332H7.66634C6.91489 19.3332 6.19423 19.0522 5.66287 18.5521C5.13152 18.052 4.83301 17.3737 4.83301 16.6665V27.3332C4.83301 28.0404 5.13152 28.7187 5.66287 29.2188C6.19423 29.7189 6.91489 29.9998 7.66634 29.9998H30.333C31.0845 29.9998 31.8051 29.7189 32.3365 29.2188C32.8678 28.7187 33.1663 28.0404 33.1663 27.3332V16.6665C33.1663 17.3737 32.8678 18.052 32.3365 18.5521C31.8051 19.0522 31.0845 19.3332 30.333 19.3332Z" fill="white"/>
</svg>
