<svg width="37" height="35" viewBox="0 0 37 35" fill="none" xmlns="http://www.w3.org/2000/svg">
<path d="M16.1673 10V8.66667H21.834V10H24.6673V8.66667C24.6666 7.95964 24.3678 7.28177 23.8366 6.78183C23.3054 6.28188 22.5852 6.00071 21.834 6H16.1673C15.4161 6.00071 14.6959 6.28188 14.1647 6.78183C13.6335 7.28177 13.3347 7.95964 13.334 8.66667V10H16.1673Z" fill="#0057FF"/>
<path d="M14.7507 21.9998C14.3749 21.9998 14.0146 21.8594 13.7489 21.6093C13.4832 21.3593 13.334 21.0201 13.334 20.6665V17.9998C13.334 17.6462 13.4832 17.3071 13.7489 17.057C14.0146 16.807 14.3749 16.6665 14.7507 16.6665C15.1264 16.6665 15.4867 16.807 15.7524 17.057C16.0181 17.3071 16.1673 17.6462 16.1673 17.9998V20.6665C16.1673 21.0201 16.0181 21.3593 15.7524 21.6093C15.4867 21.8594 15.1264 21.9998 14.7507 21.9998ZM23.2507 21.9998C22.8749 21.9998 22.5146 21.8594 22.2489 21.6093C21.9832 21.3593 21.834 21.0201 21.834 20.6665V17.9998C21.834 17.6462 21.9832 17.3071 22.2489 17.057C22.5146 16.807 22.8749 16.6665 23.2507 16.6665C23.6264 16.6665 23.9867 16.807 24.2524 17.057C24.5181 17.3071 24.6673 17.6462 24.6673 17.9998V20.6665C24.6673 21.0201 24.5181 21.3593 24.2524 21.6093C23.9867 21.8594 23.6264 21.9998 23.2507 21.9998Z" fill="#0057FF"/>
<path d="M30.334 10H7.66732C6.91587 10 6.1952 10.281 5.66385 10.781C5.1325 11.2811 4.83398 11.9594 4.83398 12.6667V16.6667C4.83398 17.3739 5.1325 18.0522 5.66385 18.5523C6.1952 19.0524 6.91587 19.3333 7.66732 19.3333H13.334V18C13.334 17.6464 13.4832 17.3072 13.7489 17.0572C14.0146 16.8071 14.3749 16.6667 14.7507 16.6667C15.1264 16.6667 15.4867 16.8071 15.7524 17.0572C16.0181 17.3072 16.1673 17.6464 16.1673 18V19.3333H21.834V18C21.834 17.6464 21.9832 17.3072 22.2489 17.0572C22.5146 16.8071 22.8749 16.6667 23.2507 16.6667C23.6264 16.6667 23.9867 16.8071 24.2524 17.0572C24.5181 17.3072 24.6673 17.6464 24.6673 18V19.3333H30.334C31.0854 19.3333 31.8061 19.0524 32.3375 18.5523C32.8688 18.0522 33.1673 17.3739 33.1673 16.6667V12.6667C33.1673 11.9594 32.8688 11.2811 32.3375 10.781C31.8061 10.281 31.0854 10 30.334 10Z" fill="#0057FF"/>
<path d="M30.334 19.3332H24.6673V20.6665C24.6673 21.0201 24.5181 21.3593 24.2524 21.6093C23.9867 21.8594 23.6264 21.9998 23.2507 21.9998C22.8749 21.9998 22.5146 21.8594 22.2489 21.6093C21.9832 21.3593 21.834 21.0201 21.834 20.6665V19.3332H16.1673V20.6665C16.1673 21.0201 16.0181 21.3593 15.7524 21.6093C15.4867 21.8594 15.1264 21.9998 14.7507 21.9998C14.3749 21.9998 14.0146 21.8594 13.7489 21.6093C13.4832 21.3593 13.334 21.0201 13.334 20.6665V19.3332H7.66732C6.91587 19.3332 6.1952 19.0522 5.66385 18.5521C5.1325 18.052 4.83398 17.3737 4.83398 16.6665V27.3332C4.83398 28.0404 5.1325 28.7187 5.66385 29.2188C6.1952 29.7189 6.91587 29.9998 7.66732 29.9998H30.334C31.0854 29.9998 31.8061 29.7189 32.3375 29.2188C32.8688 28.7187 33.1673 28.0404 33.1673 27.3332V16.6665C33.1673 17.3737 32.8688 18.052 32.3375 18.5521C31.8061 19.0522 31.0854 19.3332 30.334 19.3332Z" fill="#0057FF"/>
</svg>
